<svg xmlns="http://www.w3.org/2000/svg" width="512" height="512"><path d="M352 26c.75.16 1.51.32 2.28.49 15.85 3.5 31.98 8.95 45.84 17.51 2 1.29 3.94 2.63 5.88 4 .25.18.25.18 1.54 1.06 9.07 6.32 17.28 13.4 23.85 22.36 11.49 16.36 19.98 34.16 25.25 53.44 1.96 7.29 3.8 14.6 5.57 21.93.65 2.63 1.33 5.26 2.02 7.88.77 3.33.77 3.33.77 7.33H357l-2 8c-2.69 2.75-4.94 4.41-8.25 6.25-4.19 1.14-8.43 1.43-12.75 1.75l-1 5h-1v-6c-.5-.06-1-.13-1.51-.19-5.27-.9-9.63-2.68-14.3-5.19l-1.67-.88c-2.55-1.41-4.72-2.92-6.91-4.84-.53-.63-1.06-1.25-1.61-1.9v-2c-.79.01-1.59.01-2.41.02-26.74.15-26.74.15-36.21-.46-.63-.04-1.25-.08-1.9-.12-2.7-.2-4.88-.57-7.48-1.44.25 1.87.25 1.87 1 4 2.06 1.25 2.06 1.25 4 2l-2 2c-2.59.44-2.59.44-6 0-3.02-1.42-5.76-3.24-8.56-5.06-9.71-6.07-19.7-11.37-29.9-16.54-1.23-.63-2.46-1.25-3.69-1.88-.59-.3-1.19-.6-1.8-.91-3.52-1.8-6.98-3.67-10.4-5.63-.77-.44-1.54-.88-2.33-1.32q-2.04-1.17-4.05-2.4c-1.78-1.01-3.27-1.77-5.27-2.26-2.82.3-5.35 1.01-8 2 .2.8.41 1.59.62 2.41.27 1.06.54 2.12.82 3.21.26 1.05.53 2.09.81 3.17 1.09 4.67 1.91 9.28 2.06 14.09l.12 2.36c-.43 2.76-.43 2.76-1.33 4.47-.37.62-.73 1.25-1.1 1.9-1.13 2.21-1.94 4.06-2.35 6.51-.11 2.28-.09 4.53-.03 6.82.01.43.01.43.02 2.61.03 2.87.09 5.73.15 8.59.03 2.05.06 4.1.08 6.14.05 4.38.12 8.75.2 13.13.12 6.87.21 13.74.3 20.61.13 9.38.26 18.77.41 28.15.01.29.01.29.03 1.76.03 1.74.05 3.49.08 5.23.25 15.5.48 31.01.68 46.51.08 5.47.16 10.93.26 16.39l.15 10.11c.02 1.55.05 3.09.08 4.64q.06 3.15.09 6.3c.02.6.03 1.2.05 1.82.03 4.4-.81 7.94-2.2 12.07l-1 1c-1.58.11-1.58.11-3.6.1-.72-.01-1.43-.01-2.18-.01l-2.28-.03c-.76 0-1.52-.01-2.3-.01-1.88-.01-3.76-.03-5.64-.05-1.59-5.43-2.28-10.35-2.21-15.99v-2.31c.01-2.53.03-5.07.05-7.6 0-1.83.01-3.65.02-5.48.01-3.92.03-7.84.05-11.76.04-6.21.06-12.42.07-18.63.05-17.65.12-35.29.21-52.94.05-9.76.09-19.52.11-29.27.01-6.17.04-12.33.08-18.49.03-3.85.03-7.69.04-11.54 0-1.77.01-3.54.03-5.32.14-14.14.14-14.14-1.36-19.1-.68-1.82-1.4-3.63-2.2-5.4-.89-2.17-.89-2.17-1.18-4.4-.02-1.96.09-3.83.29-5.77.08-.82.16-1.64.24-2.49.23-2.18.48-4.34.76-6.51-7.37 2.43-14.51 5.12-21.5 8.5-7.87 3.8-15.85 7.3-23.88 10.75-11.26 4.85-22.48 9.77-33.66 14.79-4.79 2.14-9.58 4.26-14.42 6.27-.77.31-1.53.63-2.31.96-2.39.78-4.54 1.08-7.04 1.23-2.21-.13-2.21-.13-4.19-.5-1.01-.47-2.02-.95-3.06-1.44-.64-.84-1.28-1.69-1.94-2.56-.41-3.12-.23-5.83 0-9l10-7-4-2v-2c1.81-.56 1.81-.56 4-1l3 1c1.66-.38 1.66-.38 3.62-1.12 2.95-1.07 5.87-2.03 8.91-2.81 11.48-3 21.88-7.71 32.58-12.78 6.23-2.94 12.53-5.7 18.83-8.48 8.46-3.73 16.89-7.53 25.21-11.58 1.61-.77 3.23-1.5 4.85-2.23h2c.25-.62.51-1.23.77-1.87.4-.7.81-1.4 1.23-2.13 1.73-1.2 1.73-1.2 3.75-2.12.71-.35 1.43-.69 2.16-1.04 2.09-.84 2.09-.84 5.21-1.46.95-.46 1.9-.91 2.88-1.38 1.71-2.41 3.13-4.88 4.51-7.49 1.49-2.51 1.49-2.51 3-4.64.82-.61 1.64-1.23 2.49-1.87 3.11-.59 6.18-.54 9.33-.5h2.76c1.92 0 3.85.01 5.77.03 2.93.03 5.86.02 8.79.01l5.62.03c.87-.01 1.74-.01 2.64-.01 3.24.05 6.15.14 9.25 1.14 1.64.7 3.25 1.49 4.84 2.3v-2l5 1 1 25h-4l-1-2a96 96 0 0 1-.32-4.79l-.12-2.85-.12-2.98c-.05-1-.09-1.99-.13-3.01-.11-2.46-.21-4.91-.31-7.37-.61 2.1-1 3.92-1.02 6.11.05.73.09 1.46.14 2.22l.15 2.42c.05.83.11 1.65.17 2.5.05.84.1 1.68.16 2.55.12 2.06.26 4.13.4 6.2-3.1.84-5.78 1.09-9 1v2c3.62.03 7.25.05 10.88.06l3.12.03c.99 0 1.98 0 2.99.01.91 0 1.82.01 2.76.01.74-.03 1.49-.07 2.25-.11l2-1-1-2c-.24-4-.19-8-.19-12l-.03-3.39c-.01-1.07-.01-2.14-.01-3.23 0-.99-.01-1.97-.01-2.98L245 98l2-2-2-1c-1.73.12-1.73.12-3.62.44-1.12.18-2.23.37-3.38.56l-2-5h-10c.3-2.39.79-4.53 1.78-6.74C232.57 75.04 237.9 66.62 245 59c.5-.53.99-1.07 1.5-1.61 8.72-9.26 17.61-16.57 28.94-22.45 11.56-5.76 24.35-10.11 37.21-11.69 13.46-.99 26.16-.1 39.35 2.75m-97 64c-.33.5-.33.5-2 3 .42.3.84.61 1.28.92.55.42 1.09.84 1.66 1.27.27.2.27.2 1.65 1.23.47.52.93 1.04 1.41 1.58 1.61 5.49 1.29 11.34 1 17-.4 2.79-.96 5.38-2 8-1.62 2.5-1.62 2.5-3 4 2.12 1.56 2.12 1.56 5 3 3.06 0 3.06 0 6-1 2.14-2.02 3.43-4.03 4.91-6.55 1.29-2.7 1.98-5.27 2.26-8.26.12-2.09.18-4.16.21-6.25.01-.68.02-1.35.04-2.04-.03-2.78-.21-5.22-1.04-7.89-.72-1.74-1.43-3.38-2.38-5.01l-2.06-1.94c-3.01-1.08-5.08-1.23-8.25-1.25-1.57.05-3.13.11-4.69.19m-62 33v5c.72.39 1.45.77 2.19 1.17 2.8 1.5 5.61 3 8.41 4.5 1.26.68 2.53 1.35 3.79 2.03 6.92 3.7 13.82 7.41 20.71 11.16l1.67.91c2.62 1.42 5.24 2.85 7.85 4.28.47.25.47.25 2.82 1.54.41.22.41.22 2.46 1.34C245 156 245 156 248 157v2h6c-2.4-2.65-5-4.3-8.06-6.12-5.88-3.72-11.26-7.69-15.94-12.88-2.63-4.06-4.79-8.3-6.77-12.71-.2-.22-.2-.22-1.23-1.29a46 46 0 0 0-6.19-1.69c-.61-.12-1.22-.25-1.85-.38-6.97-1.32-13.9-1.2-20.96-.93m-16 16-1 1c-.09 2.16-.12 4.28-.1 6.44 0 .64.01 1.29.01 1.95 0 2.06.01 4.11.03 6.17 0 1.4.01 2.79.01 4.18.01 3.42.03 6.84.05 10.26h3c1.3-5.77.97-11.37.69-17.25-.04-1.01-.07-2.01-.11-3.05-.02-.48-.02-.48-.13-2.9l-.12-2.65c-.11-.71-.22-1.42-.33-2.15zm-15 6c-1.11 3.33-1.11 6.23-1.06 9.69 0 .6.01 1.21.01 1.84.01 1.49.03 2.98.05 4.47h2v-16zm19 4v12l2-2c.34-4.73.34-4.73 0-7zm130 12-3 2 7 5 1-2zm4 1c2 4 2 4 3.73 5.85 2.94 2.59 5.63 4.83 9.15 6.59 4.49.81 8.58 1.21 13.12.56 3.66-1.22 6.84-2.78 10-5 1.87-1.97 2.79-3.52 4-6v-2z"/><path d="M265 92h2l1 2c.21 3.66.19 7.32.19 10.98 0 1.82.02 3.63.03 5.44.01.57.01.57.01 3.47 0 1.05.01 2.11.01 3.19-.24 2.92-.24 2.92-1.07 5.74-.38.72-.77 1.44-1.17 2.18-.5.16-.5.16-3 1-.05-4.2-.09-8.4-.11-12.6-.01-1.43-.02-2.85-.04-4.28-.03-2.06-.04-4.11-.05-6.17l-.03-1.92c0-1.68.11-3.36.23-5.03 1.01-2.43 1.01-2.43 2-4M238 98c1.94.38 1.94.38 4 1l1 2c.36 3.32.47 6.66.62 10 .06.93.11 1.86.16 2.81.05.89.09 1.78.13 2.69.04.81.09 1.63.13 2.47-.01.67-.03 1.34-.04 2.03l-1 2-4-1c-.65-8.01-1.17-15.95-1-24M332 184l2 1v12h-3q-.045-2.97-.06-5.94c-.01-1.1-.03-2.2-.04-3.34.03-.9.07-1.79.1-2.72zM332 199l2 1v12c-.33.16-.33.16-2 1-.82-3.66-1.04-6.64-.56-10.38.18-1.2.36-2.41.56-3.62M332 214l2 1v12c-.33.16-.33.16-2 1-.7-4.39-1.21-8.54-1-13zM332 229h2v8l-3-1q-.06-3 0-6zM332 238l2 1v3l-3-1zM332 243l2 1v12h-3c-.03-1.79-.05-3.58-.06-5.38-.01-.99-.03-1.99-.04-3.02.03-.86.07-1.72.1-2.6zM332 258l2 1v12h-3zM332 273l2 1c-.02.61-.05 1.23-.07 1.86-.02.81-.04 1.62-.05 2.45-.03.8-.05 1.6-.08 2.43.07.74.13 1.49.2 2.26.66 1 1.33 2 2 3-.03 2.42-.55 4.61-1 7 .32.15.32.15 1.94.94C339 295 339 295 340 296c-.18 2.48-.39 4.62-1 7-.41.64-.82 1.28-1.25 1.94-.58.35-1.15.7-1.75 1.06-2.5.44-2.5.44-5 0-1.75-1.75-1.75-1.75-3-4l-.88-1.94L327 298c1.38-2.56 1.38-2.56 3-5l1-3-1-3c.32-2 .65-4 1-6q.03-1.905 0-3.81V274zM161 365c3.96-.13 7.92.01 11.87.13 1.99.06 3.98.09 5.96.11l3.79.12c1.15.02 2.3.05 3.48.08.96.18 1.92.37 2.9.56 1.9 1.88 1.9 1.88 3 4v2.56c-.33.81-.66 1.61-1 2.44-2.11 1.61-2.11 1.61-5 3-2.43.47-4.84.6-7.31.69-.65.03-1.29.07-1.96.1-1.57.08-3.15.15-4.73.21h2.14c3.2.01 6.41.07 9.61.12h3.37c3.07.07 5.88.22 8.88.88 1.58 1.19 1.58 1.19 2.63 2.7.78 1.64.78 1.64 1.37 3.3.39.93.77 1.86 1.17 2.82.33.95.67 1.89 1.02 2.87 2.28 5.58 5.14 10.24 9.19 14.72 5.19 5.33 11.24 9.4 17.88 12.72 6.8 3.22 13.74 6.11 20.74 8.87v1H112l1-3c1.84-1.09 1.84-1.09 4.23-2.09.86-.37 1.73-.74 2.63-1.13.91-.38 1.82-.76 2.76-1.16 6.27-2.62 12.18-5.17 17.38-9.62 6.11-6.62 9.41-15.95 13.1-24.06 1.24-2.68 2.56-5.31 3.9-7.94 1.16-.17 1.16-.17 7-1-.16-.82-.16-.82-1-5l26-1v-2l-1.66.49c-2.65.58-5.05.62-7.76.61-1.03-.01-2.05-.01-3.11-.01l-3.22-.03c-1.08 0-2.16-.01-3.27-.01-2.66-.01-5.32-.03-7.98-.05l-2-6zM119.308 430.866l3.84.03c2.64.01 5.29.04 7.94.07 3.7.03 7.4.05 11.11.07 14.1.05 28.21.15 42.31.25 7.74.06 15.48.11 23.21.15 5.53.03 11.06.06 16.58.11l9.8.06c11.57.05 23.12.1 34.64 1.23.73.07 1.46.14 2.22.21 4.96.57 9.52 1.8 14.04 3.95 4.33 3.49 7.11 7.93 10.22 12.49 2.38 3.36 5.02 6.46 7.78 9.51-3.34 1.01-6.38 1.13-9.87 1.12h-1.74c-1.9 0-3.79-.01-5.68-.02h-3.96l-10.37-.03c-3.54-.01-7.07-.01-10.6-.02-6.93-.01-13.85-.02-20.78-.05v2l74 1 1 4c.63.2 1.25.39 1.9.59.82.26 1.63.52 2.48.79.81.25 1.62.51 2.46.77.71.28 1.43.56 2.16.85l2 2c.17 2.57.23 5.01.19 7.57v2.11c-.02 1.78-.1 3.55-.19 5.32l-1 1c-1.47.1-2.94.13-4.41.13-.96 0-1.92.01-2.91.01-1.07 0-2.13-.01-3.23-.01-1.12 0-2.25 0-3.41.01h-9.39c-3.37-.01-6.74 0-10.11 0h-42.9c-14.55 0-29.1 0-43.64-.01h-37.48c-14.5.01-28.99.01-43.48.01h-42.64c-3.34-.01-6.68-.01-10.01 0-3.61 0-7.22 0-10.83-.01-.54 0-.54 0-3.24.01-.96 0-1.91-.01-2.9-.01h-2.53c-.62-.04-1.25-.08-1.89-.13l-1-1c-.07-2.36-.09-4.69-.06-7.06 0-.33 0-.33.01-2.01.01-1.64.03-3.28.05-4.93 3.73-2.63 7.19-4.63 11.49-6.19.5-.26 1-.53 1.51-.81l2-3 56-1 1-2h-52v-2c.87-.47 1.73-.94 2.63-1.43 2.05-1.36 3.38-2.58 4.86-4.55.99-1.55 1.97-3.09 2.95-4.64 2.5-3.81 5.23-7.25 8.56-10.38 3.16-2.22 6.41-3.55 10.13-4.59 7.09-1.54 13.95-1.64 21.18-1.54"/></svg>