<?xml version="1.0" standalone="no"?>
<!DOCTYPE svg PUBLIC "-//W3C//DTD SVG 20010904//EN"
 "http://www.w3.org/TR/2001/REC-SVG-20010904/DTD/svg10.dtd">
<svg version="1.0" xmlns="http://www.w3.org/2000/svg"
 width="1536.000000pt" height="1024.000000pt" viewBox="0 0 1536.000000 1024.000000"
 preserveAspectRatio="xMidYMid meet">
<metadata>
Created by potrace 1.16, written by Peter Selinger 2001-2019
</metadata>
<g transform="translate(0.000000,1024.000000) scale(0.100000,-0.100000)"
fill="#000000" stroke="none">
<path d="M8216 9416 c-87 -33 -135 -110 -136 -219 0 -63 3 -71 29 -98 35 -35
68 -37 106 -7 26 20 27 24 20 82 -6 57 -4 63 19 85 71 67 173 -44 147 -160
-22 -99 -62 -118 -249 -118 -73 -1 -142 -6 -153 -11 -36 -20 -46 -60 -54 -217
-4 -84 -11 -153 -16 -153 -12 0 -209 223 -301 342 -46 58 -112 154 -148 213
-142 231 -140 230 -186 233 -53 4 -74 -20 -99 -115 -104 -392 -359 -835 -647
-1125 -110 -110 -120 -136 -72 -185 32 -32 75 -26 121 19 l32 31 11 -28 c212
-557 319 -1346 264 -1937 -6 -62 -5 -68 19 -92 l26 -26 729 0 c705 0 731 1
753 19 23 19 24 23 21 157 -6 280 26 769 79 1194 29 234 92 637 102 646 2 3
16 0 31 -6 45 -17 73 -12 95 16 45 57 12 112 -82 139 -55 15 -251 109 -291
140 -18 14 -19 22 -4 317 11 220 19 303 28 306 31 11 83 70 112 129 77 156 31
327 -108 409 -54 32 -142 41 -198 20z m-695 -583 c266 -339 571 -606 892 -782
42 -24 77 -46 77 -49 0 -4 -11 -66 -25 -139 -84 -451 -142 -1025 -152 -1495
l-6 -287 -74 -3 c-41 -2 -76 -1 -78 2 -1 3 1 77 6 165 4 88 11 239 15 337 l7
176 -26 26 -26 26 -191 0 c-189 0 -191 0 -215 -25 -14 -13 -25 -31 -25 -39 0
-18 -57 -556 -66 -626 l-6 -45 -284 -2 c-156 -1 -285 1 -287 5 -2 4 0 86 4
182 24 516 -61 1096 -247 1671 l-67 206 93 119 c188 240 306 447 420 736 l53
137 77 -114 c43 -62 101 -144 131 -182z m725 -65 c-3 -35 -8 -135 -12 -223 -4
-88 -9 -168 -13 -177 -5 -14 -17 -9 -75 35 l-68 52 6 130 c4 72 9 156 13 188
l6 57 74 0 75 0 -6 -62z m-220 -2205 c-3 -54 -8 -156 -11 -228 -3 -71 -8 -160
-11 -197 l-6 -68 -110 0 -110 0 6 38 c6 39 56 521 56 540 0 8 30 12 96 12 l96
0 -6 -97z"/>
<path d="M7366 8395 c-180 -20 -201 -25 -218 -45 -24 -30 -23 -72 7 -296 36
-266 33 -262 202 -246 65 7 159 15 208 18 146 11 148 15 124 279 -10 110 -18
213 -19 228 0 36 -49 87 -82 86 -13 -1 -113 -11 -222 -24z m172 -272 c6 -75
10 -138 8 -141 -2 -2 -52 -8 -111 -14 -85 -8 -109 -8 -115 2 -6 10 -35 218
-35 255 0 8 132 29 216 34 l25 1 12 -137z"/>
<path d="M8135 7779 c-159 -29 -236 -51 -249 -72 -14 -22 -35 -218 -39 -361
-1 -63 1 -70 26 -92 18 -15 41 -24 62 -24 18 0 88 -7 155 -16 195 -25 206 -16
202 170 -4 258 -13 346 -36 372 -26 29 -56 35 -121 23z m5 -289 l0 -129 -37 5
c-21 3 -53 7 -71 10 l-34 5 7 107 c4 59 9 109 12 112 7 7 107 27 116 23 4 -2
7 -62 7 -133z"/>
<path d="M7307 7521 c-103 -6 -110 -7 -133 -34 -22 -26 -24 -37 -24 -130 1
-169 26 -397 48 -427 22 -29 51 -34 260 -44 l133 -7 31 31 c30 31 30 31 24
113 -3 45 -8 167 -12 271 -9 261 14 245 -327 227z m183 -319 l0 -167 -84 3
-83 3 -7 47 c-3 26 -9 100 -13 164 l-6 117 89 3 c49 2 92 2 97 0 4 -2 7 -78 7
-170z"/>
<path d="M13530 9218 c-63 -24 -58 -19 -1123 -1100 -704 -715 -675 -680 -625
-743 l22 -28 -35 -29 c-80 -68 -313 -241 -434 -323 -176 -119 -175 -119 -175
-176 0 -204 -79 -443 -190 -572 -61 -72 -68 -124 -24 -176 42 -50 97 -44 193
19 157 102 318 158 522 180 57 6 113 17 124 24 11 8 49 69 85 137 88 167 254
423 336 518 2 2 12 -3 21 -11 29 -25 60 -30 91 -14 15 8 347 337 737 730 389
394 711 716 714 716 4 0 15 -24 25 -54 37 -108 27 -120 -587 -742 -186 -188
-188 -191 -185 -229 4 -46 38 -72 79 -62 14 4 181 164 400 384 331 333 379
386 407 443 43 89 51 174 23 254 -36 101 -30 133 35 207 158 176 147 345 -33
530 -103 107 -168 139 -272 138 -52 0 -94 -7 -131 -21z m186 -138 c15 -6 64
-48 110 -93 120 -120 132 -187 51 -290 -35 -44 -361 -376 -1408 -1432 l-159
-160 -172 172 -173 173 175 177 c96 98 357 362 580 588 223 225 500 506 615
624 116 117 224 222 240 232 33 21 98 25 141 9z m-1615 -2024 c-142 -180 -261
-360 -352 -532 -60 -113 -61 -114 -114 -114 -48 -1 -188 -31 -269 -58 l-58
-20 122 123 c90 90 132 126 161 134 78 23 105 109 53 170 -63 76 -184 26 -184
-76 0 -16 -196 -223 -212 -223 -4 0 2 32 13 72 11 39 26 114 34 167 9 54 20
98 28 102 24 14 486 368 547 420 l45 39 97 -97 c60 -60 94 -101 89 -107z"/>
<path d="M2736 9169 c-511 -59 -949 -414 -1125 -912 -57 -162 -75 -272 -75
-462 0 -205 20 -313 94 -510 96 -254 102 -323 50 -545 -68 -288 -17 -463 162
-557 49 -26 62 -28 168 -28 107 0 119 2 169 28 78 41 144 108 196 198 90 156
138 184 202 117 39 -41 50 -78 62 -205 24 -233 127 -349 311 -347 186 1 293
116 325 349 24 168 74 240 224 319 194 102 511 377 620 539 243 360 225 969
-40 1393 -279 443 -802 686 -1343 623z m389 -165 c471 -81 849 -426 969 -884
87 -331 48 -648 -109 -885 -95 -143 -339 -356 -553 -481 -199 -117 -281 -226
-303 -404 -14 -115 -26 -159 -56 -199 -48 -62 -142 -80 -203 -38 -52 35 -69
79 -79 207 -15 186 -73 294 -186 346 -123 58 -237 5 -324 -151 -89 -158 -161
-215 -270 -215 -192 1 -250 140 -179 427 55 223 46 324 -53 592 -76 203 -90
272 -96 451 -8 231 24 385 119 575 166 333 523 598 889 659 116 19 324 19 434
0z"/>
<path d="M2862 8817 c-20 -21 -22 -34 -22 -125 0 -118 13 -142 74 -142 59 0
76 34 76 147 0 86 -2 96 -25 118 -31 32 -74 33 -103 2z"/>
<path d="M3523 8441 c-43 -38 -179 -159 -303 -270 -172 -155 -230 -200 -245
-196 -11 2 -36 5 -56 5 -34 0 -44 10 -249 251 -118 137 -222 254 -231 260 -49
26 -109 -15 -109 -73 0 -28 31 -69 210 -283 136 -163 207 -255 204 -265 -28
-73 -10 -153 46 -204 118 -106 287 -41 298 115 l4 59 289 261 c158 143 297
271 309 286 27 34 25 69 -5 98 -42 43 -74 34 -162 -44z m-588 -641 c0 -16 -6
-26 -19 -28 -25 -5 -39 12 -31 38 10 31 50 24 50 -10z"/>
<path d="M1883 7880 c-45 -19 -55 -72 -22 -114 20 -25 23 -26 133 -26 105 0
114 2 134 23 27 29 28 67 3 98 -18 22 -27 24 -123 26 -56 2 -113 -2 -125 -7z"/>
<path d="M3691 7854 c-59 -75 -6 -124 134 -124 89 0 137 14 149 45 12 32 6 62
-17 83 -21 20 -34 22 -134 22 -109 0 -112 -1 -132 -26z"/>
<path d="M2866 7029 c-25 -20 -26 -24 -26 -129 0 -105 1 -109 26 -129 35 -28
69 -26 99 4 23 22 25 32 25 115 0 101 -14 144 -52 154 -36 9 -43 8 -72 -15z"/>
<path d="M7570 4616 c-389 -139 -707 -466 -840 -864 -63 -189 -60 -128 -60
-1420 0 -1129 1 -1180 18 -1195 17 -16 100 -17 990 -17 l971 0 21 27 21 27 -4
1190 c-3 1329 3 1217 -73 1426 -131 365 -426 664 -801 810 -117 46 -152 48
-243 16z m173 -140 c93 -35 153 -67 271 -146 l107 -71 -66 -72 c-121 -130
-212 -281 -274 -451 l-36 -100 -70 1 -69 1 -22 65 c-52 154 -171 352 -283 470
-39 41 -71 77 -71 80 0 12 144 115 211 151 57 31 209 94 231 96 4 0 36 -11 71
-24z m-493 -461 c26 -33 68 -94 93 -135 45 -74 113 -228 104 -236 -3 -3 -533
-7 -599 -4 -11 0 39 134 84 225 43 85 99 173 156 243 l35 44 39 -39 c22 -21
61 -65 88 -98z m1062 38 c85 -114 134 -204 177 -325 17 -49 29 -88 28 -88
-644 -2 -622 -3 -619 17 6 38 122 261 163 314 78 99 151 179 165 179 7 0 46
-44 86 -97z m-702 -687 l0 -123 -42 -7 c-99 -16 -199 -102 -239 -205 -17 -44
-22 -79 -23 -165 -1 -105 -2 -110 -28 -137 -16 -15 -28 -35 -28 -43 0 -14 -26
-16 -220 -16 l-220 0 0 410 0 410 400 0 400 0 0 -124z m930 -286 l0 -410 -216
0 -215 0 -11 30 c-5 17 -19 35 -30 41 -18 10 -20 18 -14 73 19 187 -68 349
-217 404 -32 12 -64 22 -72 22 -12 0 -15 22 -15 125 l0 125 395 0 395 0 0
-410z m-1261 -585 c11 -19 31 -40 44 -46 13 -6 29 -27 36 -47 7 -20 31 -66 53
-102 35 -56 40 -70 36 -110 -10 -98 -24 -112 -149 -164 -277 -116 -343 -158
-378 -243 -13 -31 -17 -33 -62 -33 l-49 0 0 390 0 390 224 0 224 0 21 -35z
m1261 -355 l0 -390 -43 0 c-42 0 -45 2 -62 40 -39 86 -101 126 -359 231 -150
61 -166 77 -166 170 0 48 5 65 34 107 19 28 41 71 51 95 10 27 28 50 46 61 16
9 36 30 44 47 l16 29 219 0 220 0 0 -390z m-1658 -705 l-3 -175 -34 0 -35 0 0
175 0 175 38 0 37 0 -3 -175z m1658 0 l0 -175 -32 0 -33 0 0 175 0 175 33 0
32 0 0 -175z"/>
<path d="M12135 4464 c-433 -76 -819 -392 -976 -799 -107 -275 -119 -603 -33
-877 103 -326 349 -620 650 -773 348 -178 796 -186 1143 -23 l63 30 437 -435
c430 -429 437 -436 495 -452 210 -61 387 165 286 366 -15 30 -147 167 -423
440 l-401 395 74 110 c156 232 230 464 230 723 0 647 -454 1187 -1089 1295
-116 20 -344 20 -456 0z m441 -149 c727 -127 1150 -902 865 -1586 -200 -480
-730 -776 -1241 -694 -412 67 -744 327 -896 704 -273 676 138 1449 839 1576
102 19 326 18 433 0z m1102 -2488 l402 -403 0 -43 c0 -60 -41 -101 -102 -101
l-43 0 -409 409 -408 410 58 49 c33 27 65 56 73 65 7 10 16 17 20 17 3 0 187
-181 409 -403z"/>
<path d="M12240 4115 c-327 -70 -562 -280 -692 -617 -45 -118 -50 -158 -23
-188 47 -52 116 -12 141 83 37 142 126 290 239 395 307 287 788 262 1030 -52
155 -201 183 -421 98 -779 -23 -100 -24 -109 -9 -132 31 -47 95 -45 120 4 8
15 27 83 42 151 25 110 28 146 28 305 1 209 -7 250 -85 410 -98 203 -233 320
-456 395 -88 30 -112 33 -233 36 -89 2 -157 -1 -200 -11z"/>
<path d="M12262 3855 c-237 -52 -440 -259 -517 -530 -40 -137 -112 -233 -193
-255 -48 -12 -65 -31 -65 -70 0 -94 131 -93 238 1 60 53 110 139 145 251 89
281 240 437 458 470 273 43 526 -197 498 -470 -4 -35 -20 -118 -36 -185 -62
-253 -19 -460 110 -528 69 -37 150 -10 150 50 0 27 -30 61 -54 61 -26 0 -55
29 -82 80 -29 56 -23 179 15 335 41 165 48 248 27 344 -68 318 -374 515 -694
446z"/>
<path d="M12247 3585 c-111 -41 -182 -128 -229 -280 -40 -131 -118 -281 -185
-355 -68 -75 -164 -140 -208 -140 -41 0 -65 -27 -65 -73 0 -73 89 -90 189 -37
182 97 335 316 415 593 53 179 259 225 361 79 57 -83 33 -239 -69 -449 -97
-200 -236 -361 -411 -478 -88 -59 -90 -61 -90 -99 0 -30 6 -43 27 -59 33 -24
53 -20 137 31 227 137 447 437 546 742 38 115 41 270 8 342 -31 69 -99 137
-168 169 -69 33 -188 39 -258 14z"/>
<path d="M12306 3295 c-15 -16 -25 -42 -28 -73 -6 -60 -65 -214 -109 -287 -74
-122 -173 -220 -290 -287 -139 -79 -154 -90 -157 -129 -3 -30 2 -41 24 -58 36
-29 46 -27 133 20 208 114 330 232 430 419 76 142 136 326 119 369 -20 55 -83
68 -122 26z"/>
<path d="M12552 2608 c-5 -7 -19 -32 -31 -56 -12 -24 -65 -88 -117 -142 -103
-109 -113 -132 -69 -175 45 -46 80 -29 196 92 120 127 161 217 123 271 -17 25
-84 31 -102 10z"/>
<path d="M12705 2405 c-14 -13 -25 -36 -25 -50 0 -33 41 -75 73 -75 40 0 77
36 77 76 0 69 -76 99 -125 49z"/>
<path d="M1863 4386 c-27 -23 -28 -28 -26 -101 2 -89 31 -196 74 -274 17 -29
28 -55 26 -57 -2 -2 -23 3 -47 11 -59 21 -84 19 -117 -9 -93 -80 46 -338 282
-523 l39 -31 -118 -7 c-205 -13 -345 11 -503 85 -95 45 -109 47 -141 24 -84
-59 87 -294 325 -448 84 -54 240 -119 331 -137 61 -13 62 -13 62 -47 0 -91
218 -208 408 -219 50 -3 92 -9 92 -13 0 -14 -129 -157 -181 -202 -129 -108
-311 -208 -474 -259 -146 -45 -152 -48 -165 -78 -16 -40 1 -74 55 -111 212
-146 507 -170 740 -61 85 40 162 97 261 193 l61 59 104 14 c57 7 124 18 149
24 24 5 46 9 47 7 10 -10 -301 -486 -318 -486 -5 0 -27 11 -47 25 -46 31 -66
31 -97 0 -60 -59 -40 -79 339 -329 625 -413 741 -486 774 -486 43 0 58 21 394
535 318 488 339 527 357 660 22 162 -23 334 -130 493 l-29 43 57 116 c68 139
81 210 42 237 -50 34 -98 11 -118 -56 -11 -36 -75 -174 -87 -187 -2 -3 -17 7
-32 21 -97 89 -265 166 -405 183 -48 6 -57 11 -57 27 0 34 31 87 71 122 43 36
181 107 247 127 46 13 82 49 82 81 0 35 -51 73 -127 96 -57 18 -85 34 -135 78
-107 94 -165 119 -278 119 -136 0 -184 -24 -311 -156 -53 -54 -99 -99 -103
-99 -3 0 -6 19 -6 43 -1 105 -63 270 -139 365 -95 119 -207 179 -529 284 -287
93 -411 154 -545 270 -77 66 -108 73 -154 34z m216 -265 c96 -61 211 -107 431
-175 445 -138 537 -225 580 -550 17 -129 50 -176 123 -176 57 0 82 17 200 140
126 130 170 156 253 147 29 -3 65 -12 80 -20 28 -15 162 -127 163 -137 1 -3
-19 -16 -43 -28 -70 -37 -152 -117 -180 -175 -14 -28 -35 -95 -47 -147 -55
-242 -185 -438 -360 -545 -68 -42 -210 -91 -310 -106 -187 -29 -171 -21 -287
-130 -176 -164 -256 -205 -417 -216 -104 -7 -295 23 -295 46 0 4 33 20 73 36
256 100 468 258 626 469 109 146 122 186 76 232 -25 24 -29 25 -88 17 -179
-24 -316 -4 -413 60 -42 28 -45 32 -26 37 38 9 62 37 62 73 0 56 -23 68 -137
72 -110 3 -196 23 -292 66 -68 30 -221 128 -221 141 0 4 55 4 123 1 126 -6
325 7 507 33 124 17 147 26 162 58 18 41 -9 67 -134 129 -174 86 -276 174
-362 311 -18 28 -18 29 0 21 123 -49 275 -89 309 -81 33 8 65 44 65 74 0 40
-19 62 -73 86 -67 30 -107 64 -151 130 -40 61 -83 162 -64 150 7 -4 38 -23 67
-43z m1786 -1276 c72 -15 164 -55 185 -79 9 -12 -4 -22 -72 -57 -119 -62 -219
-164 -340 -349 -90 -137 -471 -749 -497 -797 -6 -13 -16 -23 -22 -23 -9 0
-150 90 -172 110 -5 4 38 77 95 161 57 85 157 238 221 340 103 162 126 192
188 242 92 76 179 195 251 345 65 136 56 129 163 107z m320 -272 c-9 -75 -49
-211 -81 -279 -23 -48 -133 -225 -154 -248 -8 -8 -218 112 -239 138 -10 11 4
37 69 135 122 180 173 226 315 283 99 39 99 39 90 -29z m194 -160 c65 -168 37
-342 -81 -510 -18 -26 -36 -51 -39 -56 -3 -4 -42 17 -85 49 -43 31 -85 59 -91
61 -21 8 -16 19 56 126 102 152 151 267 177 411 l7 39 18 -34 c10 -19 27 -57
38 -86z m-599 -421 c52 -30 96 -56 98 -57 2 -1 -62 -101 -141 -221 -78 -121
-169 -261 -201 -311 -32 -51 -60 -93 -62 -93 -3 0 -234 148 -243 156 -3 2 50
86 321 509 l68 106 32 -17 c18 -9 76 -42 128 -72z m290 -177 c37 -25 78 -57
90 -70 l23 -24 -58 -93 c-102 -161 -324 -495 -337 -505 -9 -7 -40 7 -111 53
l-97 64 37 59 c160 247 369 560 376 560 5 1 39 -19 77 -44z"/>
</g>
</svg>
