<?xml version="1.0" encoding="UTF-8" standalone="no"?>
<!-- Created with Inkscape (http://www.inkscape.org/) -->

<svg
   width="124mm"
   height="124mm"
   viewBox="0 0 124 124"
   version="1.1"
   id="svg1"
   inkscape:version="1.4.2 (ebf0e940, 2025-05-08)"
   sodipodi:docname="bursting-door.svg"
   xmlns:inkscape="http://www.inkscape.org/namespaces/inkscape"
   xmlns:sodipodi="http://sodipodi.sourceforge.net/DTD/sodipodi-0.dtd"
   xmlns="http://www.w3.org/2000/svg"
   xmlns:svg="http://www.w3.org/2000/svg">
  <sodipodi:namedview
     id="namedview1"
     pagecolor="#ffffff"
     bordercolor="#000000"
     borderopacity="0.25"
     inkscape:showpageshadow="2"
     inkscape:pageopacity="0.0"
     inkscape:pagecheckerboard="0"
     inkscape:deskcolor="#d1d1d1"
     inkscape:document-units="mm"
     inkscape:zoom="0.60797751"
     inkscape:cx="172.70376"
     inkscape:cy="320.73555"
     inkscape:window-width="1920"
     inkscape:window-height="979"
     inkscape:window-x="0"
     inkscape:window-y="25"
     inkscape:window-maximized="0"
     inkscape:current-layer="layer1" />
  <defs
     id="defs1" />
  <g
     inkscape:label="Layer 1"
     inkscape:groupmode="layer"
     id="layer1">
    <path
       id="path21"
       style="stroke-width:0.0334479"
       d="m 30.576658,85.377998 c -5.01718,2.27446 -9.43231,4.41512 -9.76679,4.71615 -0.83619,0.76931 -0.83619,2.54204 0.0335,3.31134 1.03689,0.93655 2.24101,0.53517 12.07469,-4.11409 10.03437,-4.74959 10.66988,-5.18441 9.66644,-7.02405 -0.96999,-1.6724 -1.97342,-1.43826 -12.00779,3.11065 z m 41.2078,-13.24536 c -3.77962,2.37479 -2.20756,9.39886 2.07376,9.39886 1.40482,0 2.97687,-1.03689 3.61237,-2.4417 2.00688,-4.18098 -2.10721,-9.19817 -5.68613,-6.95716 z m 2.37479,4.24788 c 0.23414,0.63551 -0.0668,1.23757 -0.50171,0.96999 -0.40138,-0.26759 -0.40138,-1.50515 0,-1.50515 0.16724,0 0.40137,0.23413 0.50171,0.53516 z m -55.45659,-9.53265 c -1.40481,1.10378 -0.9031,3.31134 0.90309,3.77961 1.77275,0.43482 19.26599,2.87652 20.6708,2.87652 3.57893,0 3.61237,-3.87995 0.0335,-4.48201 -5.95371,-1.00345 -18.53012,-2.87652 -19.50012,-2.87652 -0.73585,0 -1.57204,0.26758 -2.10721,0.7024 z m 2.14066,-22.67766 c -1.17067,0.60206 -1.60549,2.04031 -1.00343,3.1441 0.26758,0.50172 2.00688,1.77273 3.87995,2.90997 1.87309,1.13722 5.11753,3.27789 7.1913,4.74959 4.0472,2.90997 7.49233,4.8834 9.66644,5.5189 1.77274,0.53517 3.01031,-0.20068 3.01031,-1.80619 0,-1.33791 -0.60207,-1.93997 -3.67927,-3.74616 -1.20412,-0.7024 -4.04719,-2.60893 -6.3551,-4.21443 -4.18098,-2.90996 -10.90401,-6.9906 -11.53952,-6.9906 -0.16723,0 -0.7024,0.20068 -1.17068,0.43482 z m 47.32876,-23.313181 c -5.71958,4.448569 -12.27536,12.208471 -14.85085,17.693931 -2.64239,5.55235 -2.5086,3.94685 -2.64239,33.14686 -0.10034,24.18282 -0.13379,26.18969 -0.66895,26.65796 -0.30103,0.26758 -3.57893,2.207562 -7.2582,4.314772 -7.0575,4.04721 -8.52921,5.15098 -8.52921,6.25476 0,0.93655 1.13723,2.04032 2.10721,2.04032 0.73587,0 16.59016,-8.29508 17.69394,-9.26506 1.27102,-1.13723 1.37136,-3.077212 1.60549,-30.203442 l 0.16725,-26.25659 0.86964,-2.20757 c 1.23757,-3.17755 2.97687,-6.12096 5.55236,-9.33196 2.87651,-3.612367 7.72645,-8.361965 8.5292,-8.361965 2.97686,0 12.57641,10.301945 15.55327,16.657045 2.54204,5.41856 2.4417,4.28133 2.3748,35.15373 l -0.10034,27.561062 -1.17068,0.60206 c -4.0472,2.07377 -20.93838,10.3354 -21.17251,10.3354 -0.13379,0 -0.23413,-15.15189 -0.16724,-33.648572 l 0.10034,-33.64858 2.17412,-2.04032 c 1.20412,-1.13723 3.54547,-2.97686 5.18442,-4.11409 2.74272,-1.83963 3.01031,-2.10722 3.11065,-3.211 0.13379,-1.4717 -0.60206,-2.27446 -2.07377,-2.27446 -1.27102,0 -4.44857,1.93998 -8.5961,5.25132 -2.90997,2.34136 -3.84651,3.64582 -4.1141,5.78649 -0.36792,3.04376 -0.60206,70.039872 -0.23413,70.976422 0.56862,1.50515 1.57205,2.27445 2.97686,2.27445 1.77274,0 27.32693,-12.77709 28.33036,-14.14845 0.66896,-0.93655 0.66896,-1.37137 0.66896,-29.935872 v -28.99931 l -0.93654,-2.84307 c -2.70928,-8.09439 -8.99749,-16.723944 -15.95464,-21.975263 -2.17412,-1.638946 -5.6527,-3.779611 -6.15442,-3.779611 -0.20068,0 -1.27101,0.702405 -2.3748,1.538603 z M 67.536568,4.0996355 c -10.16815,5.217871 -21.10561,15.9546415 -26.08934,25.5876345 -3.04376,5.920278 -4.98374,13.947768 -3.84651,15.988088 1.03688,1.90653 4.31477,1.00344 4.31477,-1.17067 0,-1.47172 1.03689,-5.85339 2.07378,-8.69646 3.51202,-9.699884 14.85085,-21.874914 25.2866,-27.1596795 l 1.43825,-0.735854 2.24101,1.204124 c 3.77961,2.0068735 8.36198,5.4854535 12.7102,9.6998865 8.29508,7.960598 11.84055,13.747083 14.382602,23.380073 l 0.86964,3.37823 0.20068,31.13999 c 0.1338,26.156252 0.23414,31.240322 0.63551,31.708592 0.73585,0.86966 2.64239,0.56862 3.51203,-0.56861 0.66896,-0.90309 0.66896,-1.33791 0.80276,-22.911802 0.16723,-27.02589 -0.2007,-38.19748 -1.37137,-43.21467 -1.33791,-5.55235 -2.87652,-9.59954 -5.284772,-13.747082 -4.78304,-8.261628 -16.18878,-18.9315025 -25.48729,-23.8483425 -2.84307,-1.505154 -3.51203,-1.505154 -6.38855,-0.03345 z" />
  </g>
</svg>
