<?xml version="1.0" encoding="UTF-8" standalone="no"?>
<!-- Created with Inkscape (http://www.inkscape.org/) -->

<svg
   width="124mm"
   height="124mm"
   viewBox="0 0 124 124"
   version="1.1"
   id="svg1"
   inkscape:version="1.4.2 (ebf0e940, 2025-05-08)"
   sodipodi:docname="choice.svg"
   xmlns:inkscape="http://www.inkscape.org/namespaces/inkscape"
   xmlns:sodipodi="http://sodipodi.sourceforge.net/DTD/sodipodi-0.dtd"
   xmlns="http://www.w3.org/2000/svg"
   xmlns:svg="http://www.w3.org/2000/svg">
  <sodipodi:namedview
     id="namedview1"
     pagecolor="#ffffff"
     bordercolor="#000000"
     borderopacity="0.25"
     inkscape:showpageshadow="2"
     inkscape:pageopacity="0.0"
     inkscape:pagecheckerboard="0"
     inkscape:deskcolor="#d1d1d1"
     inkscape:document-units="mm"
     inkscape:zoom="1.2103132"
     inkscape:cx="227.21391"
     inkscape:cy="211.5155"
     inkscape:window-width="1920"
     inkscape:window-height="1027"
     inkscape:window-x="0"
     inkscape:window-y="25"
     inkscape:window-maximized="0"
     inkscape:current-layer="layer1" />
  <defs
     id="defs1" />
  <g
     inkscape:label="Layer 1"
     inkscape:groupmode="layer"
     id="layer1">
    <path
       id="path31"
       style="stroke-width:0.0169937"
       d="m 82.123491,114.35547 c 0,0.86668 0.33988,1.56342 0.74772,1.51244 0.57779,-0.085 0.66276,-0.95164 0.11896,-1.54642 -0.5438,-0.59478 -0.86668,-0.59478 -0.86668,0.034 z m -3.70461,-0.45882 c -0.20393,0.2719 -0.57779,3.75559 -0.44184,4.12945 0.10196,0.2719 0.5268,0.33988 0.84968,0.11896 0.71374,-0.47582 0.95165,-3.41573 0.32288,-4.11247 -0.35686,-0.39085 -0.49282,-0.42484 -0.73072,-0.13594 z m -4.52032,-5.21706 c -0.47582,0.73073 -0.35687,2.05623 0.22092,2.65101 0.57778,0.56079 0.73072,0.59478 1.10458,0.22092 0.35687,-0.33987 0.33988,-0.5438 -0.085,-1.80133 -0.54379,-1.59741 -0.76471,-1.78433 -1.24053,-1.0706 z M 100.47666,86.332911 c -0.23791,0.06798 -0.951649,0.152943 -1.614399,0.152943 -1.92028,0.03401 -6.74649,1.580415 -9.53345,3.024876 -2.60003,1.376488 -6.28766,4.554302 -7.85107,6.780473 -1.30852,1.886296 -1.27453,5.675887 0.068,7.970027 0.22092,0.37386 0.56079,0.98564 0.74772,1.3595 0.18693,0.37386 0.88367,1.29152 1.52943,2.03924 0.66275,0.74772 1.27453,1.42747 1.3425,1.52943 0.085,0.085 0.40785,0.40785 0.73073,0.69674 0.30589,0.30588 1.0876,1.44446 1.73335,2.54905 1.03662,1.80133 1.17257,2.17519 1.32551,3.34775 0.13595,0.96864 0.13595,1.51244 -0.017,1.97127 -0.39086,1.35949 -0.085,2.3961 0.71373,2.3961 0.15294,0 0.32288,0.068 0.37386,0.16994 0.15295,0.2549 1.24054,0.20393 1.8693,-0.10196 0.76472,-0.35687 1.66539,-2.27716 1.66539,-3.53468 -0.017,-1.37649 -1.17257,-4.87719 -1.92029,-5.74386 -1.10459,-1.27453 -1.52943,-1.80133 -2.36212,-2.93991 -0.49282,-0.64576 -1.30851,-1.6144 -1.81832,-2.1582 -0.49282,-0.54379 -0.91766,-1.08759 -0.91766,-1.20655 0,-0.11895 -0.33987,-0.90066 -0.76472,-1.71635 -0.64575,-1.27453 -0.76471,-1.66539 -0.76471,-2.48108 0,-0.951648 0.33987,-2.073229 0.67975,-2.294146 0.10196,-0.06797 0.28889,-0.37386 0.42484,-0.679746 0.30588,-0.764715 1.90329,-2.752975 2.83794,-3.568674 0.40785,-0.356865 1.46146,-0.968638 2.34513,-1.376487 0.88367,-0.42484 1.8863,-0.900664 2.20917,-1.070601 0.32288,-0.169933 0.78171,-0.373861 1.01962,-0.441835 0.23792,-0.05098 1.18956,-0.339871 2.12421,-0.628767 0.93465,-0.271896 2.00526,-0.594777 2.37912,-0.679746 0.37386,-0.101959 0.985629,-0.271896 1.359489,-0.407845 0.37386,-0.118958 1.0706,-0.271901 1.54642,-0.339875 1.44446,-0.169938 2.27716,-1.257534 1.68238,-2.158197 -0.15295,-0.237912 -0.44184,-0.475824 -0.64576,-0.526804 -0.50981,-0.135948 -1.98826,-0.101963 -2.49807,0.06797 z m -16.534839,12.86421 c -0.068,0.05098 -0.16994,0.05098 -0.23792,0 -0.051,-0.06797 0,-0.118954 0.11896,-0.118954 0.11896,0 0.16994,0.05098 0.11896,0.118954 z M 20.334511,84.072756 c -0.67975,0.492813 -0.73073,1.444461 -0.085,1.90329 0.47582,0.339871 4.14645,1.614399 6.04974,2.090223 1.30852,0.339871 3.02488,0.934648 3.99352,1.427467 0.42484,0.203922 1.24054,0.577782 1.83531,0.798699 0.57779,0.237912 1.52943,0.730731 2.10722,1.070602 0.57778,0.35687 1.44446,0.849684 1.92029,1.10459 0.45883,0.254907 1.25753,0.662752 1.76734,0.934653 0.50981,0.271897 1.27452,0.7987 1.69936,1.189555 0.42485,0.37386 1.10459,0.934653 1.51244,1.223544 0.7987,0.577788 1.12158,0.934653 1.76734,2.073228 1.3595,2.362123 1.15557,4.010513 -0.76472,6.338643 -0.98563,1.20655 -3.95952,4.18044 -4.79221,4.77522 -0.37386,0.28889 -0.83269,0.66275 -1.03661,0.84968 -0.45883,0.45883 -1.25753,1.0876 -1.69937,1.3425 -1.08759,0.61177 -4.91117,3.7556 -6.21968,5.13209 -0.64576,0.66276 -0.8157,0.95165 -0.8157,1.39348 0,0.66275 0.56079,1.3255 1.27453,1.51243 0.67974,0.16994 3.4837,-0.98563 4.50332,-1.8693 0.44183,-0.39085 1.22354,-0.95164 1.75034,-1.27452 0.50982,-0.32288 1.42748,-1.05361 2.02225,-1.63139 0.61178,-0.57779 1.32551,-1.20655 1.59741,-1.37649 1.12158,-0.71373 3.43272,-2.65101 4.14645,-3.5007 0.42484,-0.49281 1.07061,-1.20655 1.46146,-1.58041 1.03661,-1.01962 1.8863,-2.31114 2.75298,-4.23142 0.95164,-2.07323 1.12158,-3.72162 0.54379,-5.26804 -0.18693,-0.475824 -0.33987,-0.985633 -0.33987,-1.138576 0,-0.152943 -0.15295,-0.407849 -0.33987,-0.577782 -0.18694,-0.169938 -0.33988,-0.44184 -0.33988,-0.594783 0,-0.798699 -2.4131,-3.024871 -4.67326,-4.333384 -0.45883,-0.271896 -1.0706,-0.662751 -1.35949,-0.866679 -0.45883,-0.33987 -1.90329,-1.138575 -3.51769,-1.954269 -0.35687,-0.186933 -0.91766,-0.509809 -1.25753,-0.747721 -0.33987,-0.237912 -0.73073,-0.424844 -0.86668,-0.424844 -0.13595,0 -0.74772,-0.237912 -1.37649,-0.526803 -1.5974,-0.713736 -1.71636,-0.764716 -2.58304,-1.002628 -0.42484,-0.118953 -1.29152,-0.424839 -1.95427,-0.679746 -0.64576,-0.254906 -1.75034,-0.594777 -2.44709,-0.74772 -0.69674,-0.152943 -1.41047,-0.37386 -1.58041,-0.458829 -0.54379,-0.288892 -4.35038,-0.594778 -4.65626,-0.37386 z m 40.88677,-33.188641 c -2.63402,0.662753 -3.63665,0.866677 -3.90855,0.83269 -0.13594,-0.03399 -0.69674,0.101962 -1.22354,0.288892 -0.5268,0.186931 -1.01962,0.339874 -1.10459,0.305886 -0.44184,-0.118955 -0.91765,0.254905 -0.86668,0.679747 0.068,0.577785 0.8157,0.69674 1.8863,0.305886 0.39086,-0.135949 1.20655,-0.288892 1.80133,-0.339873 0.59478,-0.05098 1.30852,-0.220918 1.59741,-0.356867 0.28889,-0.152944 0.96863,-0.254905 1.5974,-0.254905 1.66538,0 3.09285,-0.798703 2.66801,-1.495444 -0.2719,-0.407848 -0.62877,-0.407848 -2.44709,0.03399 z m 16.6538,-2.735981 c -1.68238,0.356867 -2.87193,0.849683 -3.00788,1.223544 -0.22092,0.713734 1.22354,0.83269 3.16082,0.271899 0.61177,-0.186931 1.3255,-0.373861 1.56342,-0.424842 0.76471,-0.169937 1.37648,-0.747721 1.17256,-1.138576 -0.22092,-0.407848 -0.61177,-0.390854 -2.88892,0.06798 z m -21.41203,-0.05098 c -0.50981,0.458829 -0.67975,0.50981 -1.18956,0.424841 -1.46145,-0.271898 -2.71899,-0.288892 -2.80395,-0.05098 -0.15294,0.407848 0.37386,1.444461 0.7987,1.563417 0.49282,0.118956 3.04187,-0.18693 4.04449,-0.50981 0.42485,-0.135949 0.93466,-0.237911 1.15557,-0.237911 0.37386,0 1.05361,-0.543798 1.05361,-0.849684 0,-0.305886 -0.76472,-0.662753 -1.6144,-0.764715 -0.7817,-0.08497 -0.90066,-0.05098 -1.44446,0.424842 z m 27.35981,-3.228797 c 0,0.08497 0.085,0.169936 0.18693,0.169936 0.085,0 0.11896,-0.08497 0.068,-0.169936 -0.051,-0.101963 -0.13595,-0.169937 -0.18693,-0.169937 -0.034,0 -0.068,0.06797 -0.068,0.169937 z m -11.55569,0.03399 c -0.42485,0.06797 -1.07061,0.169936 -1.42747,0.220917 -0.78171,0.101962 -1.12159,0.339874 -1.12159,0.781709 0,0.543798 0.50982,0.662754 1.78434,0.407848 1.54643,-0.288892 2.05623,-0.50981 2.27715,-0.900664 0.32288,-0.611773 -0.11895,-0.764716 -1.51243,-0.50981 z m 8.00401,-2.701994 c -0.35686,0.356867 -0.22091,1.121583 0.22092,1.240538 1.27453,0.305886 1.73336,-0.458829 0.64576,-1.070601 -0.49282,-0.271899 -0.71373,-0.32288 -0.86668,-0.169937 z m -18.795,-39.1194303 c -1.85231,0.339873 -2.34512,0.526804 -3.44971,1.325506 -1.98826,1.444462 -3.78959,4.231424 -4.65627,7.1543353 -0.085,0.32288 -0.2719,0.781709 -0.40785,1.01962 -0.11895,0.237912 -0.37386,0.781709 -0.54379,1.206551 -0.2719,0.645759 -0.57779,0.951646 -1.92029,1.886298 -2.10721,1.478449 -6.10072,5.641898 -6.10072,6.372626 0,0.101962 -0.11896,0.271899 -0.25491,0.390854 -0.13595,0.118956 -0.49282,0.64576 -0.78171,1.189558 -0.2719,0.526803 -0.84968,1.342499 -1.27453,1.801328 -0.42483,0.458829 -0.84968,0.985634 -0.95164,1.15557 -0.10196,0.186931 -0.2549,0.424842 -0.32288,0.50981 -0.74772,0.900665 -1.18956,1.580412 -1.3425,2.073229 -0.10196,0.322879 -0.2549,0.577784 -0.33987,0.577784 -0.085,0 -0.49282,0.509811 -0.90067,1.138576 -0.42484,0.64576 -1.3255,1.767342 -2.02224,2.532057 -0.67975,0.764715 -1.39349,1.682374 -1.58041,2.03924 -0.18694,0.356868 -0.52681,0.917659 -0.76472,1.240538 -0.23791,0.32288 -0.69674,1.019621 -1.01962,1.563418 -0.32288,0.526804 -0.96864,1.444462 -1.41048,2.005253 -1.64838,2.073228 -2.31113,3.925538 -1.41047,3.925538 0.23791,0 0.45883,-0.06797 0.5268,-0.152943 0.13595,-0.237911 1.10459,-0.69674 1.42747,-0.69674 0.15294,0 0.8157,-0.424842 1.46146,-0.934652 0.64576,-0.50981 1.24054,-0.934652 1.3425,-0.934652 0.085,0 0.45883,-0.203924 0.7987,-0.441835 0.35687,-0.237912 0.7987,-0.407848 0.98563,-0.373861 0.33988,0.05098 0.33988,0.08497 -0.20392,0.900664 -0.30589,0.45883 -0.74772,1.189557 -0.98563,1.614399 -0.22092,0.407848 -0.69674,1.172563 -1.03662,1.682374 -0.35687,0.50981 -0.64576,1.002626 -0.64576,1.104589 0,0.08497 -0.15294,0.322879 -0.32288,0.509809 -0.50981,0.526804 -1.71636,2.803956 -1.8693,3.51769 -0.11896,0.509811 0.13595,1.512437 0.37386,1.512437 0.32288,0 1.98826,-0.815696 2.56604,-1.257532 0.93466,-0.713734 1.6314,-0.917658 1.85231,-0.526803 0.42484,0.764715 1.71636,0.577784 2.71899,-0.390855 0.57779,-0.543797 1.69937,-2.226171 2.58304,-3.857563 1.01962,-1.886298 1.30851,-2.345127 1.73335,-2.803956 0.20393,-0.254905 0.76472,-1.274525 1.24054,-2.294145 0.88367,-1.971266 1.42747,-2.718988 1.81832,-2.549051 0.13595,0.05098 0.33988,0.08497 0.45883,0.08497 0.11896,0 0.32288,0.203924 0.45883,0.458829 0.13595,0.271899 0.98563,1.223545 1.90329,2.158197 0.91766,0.917658 1.64839,1.682373 1.6144,1.716361 -0.28889,0.237911 -0.91766,0.424841 -1.42746,0.424841 -2.24317,0 -3.36475,1.444462 -2.93991,3.772595 0.10196,0.594779 0.25491,1.529431 0.32288,2.090221 0.15294,1.104589 0.5438,2.566045 0.83269,3.126836 0.10196,0.18693 0.18693,0.713734 0.18693,1.172564 0,0.475822 0.15294,1.342499 0.33987,1.954271 0.18693,0.594779 0.44184,1.716361 0.57779,2.464083 0.28889,1.699367 0.54379,2.209175 1.27452,2.701994 0.64576,0.441834 1.51244,0.509808 2.19218,0.152943 0.25491,-0.118954 0.88368,-0.271897 1.41048,-0.339876 0.5268,-0.05098 1.29152,-0.220917 1.69937,-0.356865 0.40784,-0.152943 1.13857,-0.305886 1.5974,-0.356866 0.74772,-0.08497 1.73336,-0.305886 2.90592,-0.662756 0.32288,-0.101959 0.37386,-0.017 0.49282,0.628767 0.30588,1.835316 0.32288,4.435348 0.15294,15.005411 -0.068,4.197436 -0.15294,8.870696 -0.16993,10.366142 -0.017,1.49544 -0.068,3.245788 -0.11896,3.908544 -0.25491,3.14383 -0.35687,4.622276 -0.33987,4.962151 0.017,0.220917 -0.085,0.390855 -0.22093,0.390855 -0.13594,0 -0.2379,-0.101963 -0.2379,-0.237912 0,-0.135948 -0.23791,-0.424844 -0.52681,-0.645761 -0.28889,-0.220918 -1.30851,-1.121581 -2.26016,-2.005254 -0.93465,-0.883669 -2.10721,-1.886296 -2.56604,-2.209177 -0.47582,-0.322876 -1.49544,-1.036612 -2.29414,-1.597404 -1.51244,-1.053607 -3.56868,-2.243166 -4.5883,-2.651011 -0.32288,-0.118959 -0.83269,-0.40785 -1.12158,-0.628767 -0.28889,-0.220917 -0.61177,-0.390855 -0.71374,-0.390855 -0.10196,0 -0.39085,-0.101964 -0.66275,-0.237912 -1.66538,-0.849684 -5.37,-2.175187 -7.69813,-2.752975 -0.88367,-0.220917 -2.03924,-0.526803 -2.54905,-0.662751 -2.05623,-0.543798 -3.95952,-0.934653 -6.79747,-1.342503 -1.63139,-0.254901 -3.34775,-0.526803 -3.78959,-0.611772 -1.30851,-0.271896 -2.05623,-0.203922 -2.685,0.220922 -0.66275,0.441835 -0.83269,1.104586 -0.40784,1.529431 0.37386,0.39085 2.26015,0.934648 4.24841,1.223544 0.93465,0.152943 1.93728,0.33987 2.20918,0.441834 0.74772,0.271897 6.25367,1.512436 6.33864,1.444461 0.034,-0.03401 0.67975,0.152944 1.44446,0.441835 0.76472,0.288891 2.09022,0.713736 2.92291,0.985632 3.70462,1.138575 11.98054,5.658892 13.84985,7.545193 0.40784,0.424839 0.84967,0.781705 0.96863,0.781705 0.2719,0 2.76997,2.447093 3.99352,3.908544 0.50981,0.611773 1.12158,1.325508 1.37648,1.59741 0.25491,0.271896 0.45883,0.560788 0.45883,0.662751 0,0.08497 0.22092,0.42484 0.50981,0.730726 0.59478,0.679746 1.00263,1.937278 1.13858,3.500698 1.010379,12.2242 4.176475,3.585 6.71249,-0.10196 -0.2889,-0.37386 -0.57779,-1.80133 -0.47582,-2.34513 0.13595,-0.679748 1.17256,-2.073225 2.71898,-3.65364 0.66276,-0.679746 1.75035,-1.767342 2.39611,-2.447088 0.66275,-0.662752 1.6144,-1.478446 2.12421,-1.818322 0.50981,-0.32288 1.00263,-0.679746 1.10459,-0.798704 0.35687,-0.441835 2.12421,-1.648384 3.07585,-2.107213 0.56079,-0.271897 1.44447,-0.83269 2.00525,-1.257534 0.5438,-0.441834 1.39349,-0.917658 1.86931,-1.070601 0.47582,-0.152943 1.01962,-0.407845 1.20655,-0.560788 0.35686,-0.305886 1.27452,-0.713736 2.37911,-1.053606 0.37386,-0.118959 1.05361,-0.390855 1.52943,-0.594783 0.45883,-0.220917 1.00263,-0.407845 1.18956,-0.407845 0.18693,0 0.73073,-0.203927 1.18956,-0.424844 0.47582,-0.237912 1.08759,-0.42484 1.37649,-0.42484 0.28889,0 0.83268,-0.101963 1.18955,-0.237911 0.8157,-0.288892 4.75823,-0.934653 5.98177,-0.985633 0.49282,-0.017 1.37649,-0.118958 1.95428,-0.254906 0.577779,-0.118954 1.376489,-0.220918 1.784329,-0.220918 0.64576,0 0.8157,-0.101963 1.73336,-1.002627 1.13857,-1.138575 1.27452,-1.648384 0.61177,-2.31114 -0.59478,-0.594777 -2.12421,-0.696741 -5.675889,-0.356865 -1.63139,0.152943 -3.65364,0.424839 -4.50332,0.594777 -0.86668,0.186933 -2.05623,0.424844 -2.668,0.543798 -2.36212,0.458829 -10.68903,3.857565 -13.84985,5.624903 -0.18693,0.118958 -0.86667,0.458834 -1.52943,0.781709 -0.64576,0.339876 -1.46145,0.849685 -1.80133,1.155571 -0.33987,0.288891 -0.7987,0.594777 -1.01962,0.662756 -0.22092,0.06797 -0.86667,0.560788 -1.42747,1.087591 -1.34249,1.240539 -2.54905,2.226171 -2.73598,2.226171 -0.16993,0 -0.11895,-4.197436 0.068,-6.797467 0.068,-0.883669 0.068,-1.95427 0.017,-2.379114 -0.068,-0.441835 0,-1.308514 0.13595,-2.039239 0.16994,-0.917658 0.25491,-3.194814 0.30589,-8.156965 0.11895,-10.026266 0.23791,-14.274682 0.40785,-14.580568 0.11895,-0.203924 0.35686,-0.271899 0.81569,-0.237911 0.37386,0.03399 1.54643,-0.203924 2.76997,-0.560792 3.72161,-1.070601 3.82358,-1.053607 4.09547,0.832691 0.2889,2.12421 1.01962,3.160822 2.17519,3.160822 0.61178,0 2.02225,-1.20655 3.70462,-3.143829 0.56079,-0.662753 1.18956,-1.3425 1.39348,-1.512437 0.18694,-0.18693 0.35687,-0.424842 0.35687,-0.543797 0,-0.118956 0.20393,-0.390855 0.47582,-0.611772 0.25491,-0.203925 0.57779,-0.577785 0.73073,-0.815697 0.15295,-0.237911 0.95165,-1.138575 1.75035,-1.988259 0.8157,-0.849684 1.85231,-2.073228 2.32814,-2.701994 0.47581,-0.645759 1.24053,-1.597405 1.68237,-2.107215 1.08759,-1.274525 1.83532,-2.634019 1.73335,-3.143829 -0.034,-0.237911 -0.35686,-0.662753 -0.69674,-0.951646 -0.33987,-0.288892 -0.7987,-0.69674 -1.03661,-0.900664 -0.73073,-0.64576 -1.56342,-1.172563 -2.56605,-1.648386 -0.5268,-0.254905 -1.32551,-0.713734 -1.80132,-1.053608 -0.45883,-0.32288 -1.01963,-0.645759 -1.25754,-0.713734 -0.22092,-0.06798 -0.56079,-0.254905 -0.74772,-0.424842 -0.33987,-0.305886 -2.26016,-1.359494 -2.48108,-1.359494 -0.18692,0 -2.90591,-1.546424 -3.7556,-2.158196 -0.44183,-0.305886 -0.96864,-0.560791 -1.13857,-0.560791 -0.18693,0 -0.39086,-0.08497 -0.44184,-0.169936 -0.16994,-0.271899 -1.47845,-0.186931 -2.10722,0.135949 -0.83269,0.407848 -1.22354,1.223544 -1.29151,2.617025 -0.10196,2.005253 0.2719,1.835317 -4.8432,2.17519 -2.09022,0.152943 -4.52031,0.492817 -5.86282,0.83269 -0.37386,0.101962 -1.03661,0.271899 -1.47844,0.373861 l -0.79871,0.203924 -0.88367,-0.747722 c -0.49281,-0.407848 -1.0706,-0.917658 -1.29152,-1.138576 -0.20392,-0.203924 -0.45883,-0.37386 -0.56079,-0.37386 -0.28889,0 -1.30851,-1.053608 -1.44446,-1.47845 -0.085,-0.32288 0,-0.458829 0.49282,-0.747721 0.33987,-0.203925 0.61177,-0.424842 0.61177,-0.509811 0,-0.237911 0.91766,-1.087595 2.26016,-2.090221 4.58829,-3.398734 7.42623,-10.281171 6.64452,-16.126994 -0.44183,-3.347753 -0.2719,-4.35038 0.8157,-5.013133 1.17256,-0.69674 4.50332,-1.393481 6.7125,-1.393481 1.46145,0 1.92028,-0.237911 1.92028,-0.9856327 0,-0.4758228 -1.58041,-1.8353165 -2.54905,-2.1751896 -0.42484,-0.152943 -1.01962,-0.373861 -1.3255,-0.50981 -0.47583,-0.203924 -2.85494,-0.696741 -4.8432,-1.002627 -0.50981,-0.08497 -0.67975,-0.203924 -0.86668,-0.679747 -0.56079,-1.3425 -3.29677,-2.311139 -5.45496,-1.937278 z m -2.29414,9.7373733 c 0,0.135949 -0.068,0.288892 -0.15294,0.356867 -0.20393,0.118956 -0.40785,-0.203924 -0.27191,-0.424842 0.15295,-0.254905 0.42485,-0.203924 0.42485,0.06798 z m 1.98826,0.03399 c -0.051,0.05098 -0.20392,0.06798 -0.32288,0.01699 -0.13595,-0.05098 -0.085,-0.101962 0.10196,-0.101962 0.18693,-0.01699 0.28889,0.03399 0.22092,0.08497 z m 0.50981,0.526804 c -0.068,0.05098 -0.11896,0 -0.11896,-0.118956 0,-0.118956 0.051,-0.169937 0.11896,-0.118956 0.051,0.06798 0.051,0.169937 0,0.237912 z m -0.84969,0.849683 c -0.068,0.05098 -0.11895,0 -0.11895,-0.118956 0,-0.118955 0.051,-0.169936 0.11895,-0.118955 0.051,0.06798 0.051,0.169936 0,0.237911 z m -8.61579,2.600032 c 0,0.08497 -0.068,0.169936 -0.16993,0.169936 -0.085,0 -0.16994,-0.08497 -0.16994,-0.169936 0,-0.101962 0.085,-0.169937 0.16994,-0.169937 0.10196,0 0.16993,0.06798 0.16993,0.169937 z m 5.98178,0.88367 c -0.15295,0.152943 -0.25491,0.152943 -0.40785,0 -0.15295,-0.152943 -0.11896,-0.203923 0.20392,-0.203923 0.32288,0 0.35687,0.05098 0.20393,0.203923 z m -9.09162,5.013133 c -0.068,0.05098 -0.16993,0.05098 -0.23791,0 -0.051,-0.06798 0,-0.118955 0.11896,-0.118955 0.11895,0 0.16993,0.05098 0.11895,0.118955 z m -6.79747,3.738608 c -0.068,0.05098 -0.11895,0 -0.11895,-0.118956 0,-0.118955 0.051,-0.169936 0.11895,-0.118955 0.051,0.06797 0.051,0.169936 0,0.237911 z m -2.20917,4.758229 c -0.068,0.05098 -0.11896,0 -0.11896,-0.118957 0,-0.118956 0.051,-0.169937 0.11896,-0.118956 0.051,0.06798 0.051,0.169937 0,0.237913 z m 6.11772,0.169936 c -0.068,0.05098 -0.11896,0 -0.11896,-0.118955 0,-0.118957 0.051,-0.169938 0.11896,-0.118957 0.051,0.06797 0.051,0.169938 0,0.237912 z m 8.12297,6.678512 c 0.42485,0 1.46146,0.713734 2.32814,1.563418 0.30588,0.322879 0.69674,0.628765 0.86667,0.69674 0.79871,0.305886 -0.22092,0.764715 -2.09022,0.96864 -0.98563,0.101961 -1.22354,0.06797 -2.1412,-0.356868 -0.61177,-0.271898 -1.15557,-0.662753 -1.3425,-0.951645 -0.16994,-0.254905 -0.62877,-0.764715 -1.00263,-1.104589 -0.7987,-0.747721 -0.73073,-1.20655 0.22092,-1.291519 0.28889,-0.03399 0.73073,-0.169936 0.98563,-0.288892 0.42484,-0.220918 0.50981,-0.203924 1.13858,0.254905 0.37386,0.288892 0.84968,0.50981 1.03661,0.50981 z m 26.3062,1.461456 c 0.91766,0.305886 2.02225,0.815696 2.46409,1.121582 0.44183,0.32288 1.29151,0.798703 1.90329,1.053608 0.61177,0.271898 1.52943,0.781708 2.03924,1.121582 0.50981,0.339873 1.18955,0.764715 1.49544,0.917658 0.86668,0.441835 0.84968,0.696741 -0.15294,1.767342 -0.7987,0.849683 -1.69937,1.98826 -2.27715,2.905918 -0.085,0.152943 -0.42484,0.492816 -0.73073,0.764715 -0.30589,0.271898 -1.05361,1.087595 -1.64839,1.784335 -1.49544,1.784336 -2.71898,3.075855 -2.92291,3.075855 -0.2549,0 -0.49281,-0.679747 -0.5438,-1.529431 -0.051,-1.20655 -0.15294,-1.410474 -0.66275,-1.291519 -0.25491,0.05098 -0.91766,0.169937 -1.47845,0.288893 -0.56079,0.101962 -2.20918,0.424841 -3.65364,0.69674 -1.44446,0.288893 -2.87193,0.543798 -3.14383,0.577785 -0.59477,0.05098 -3.61965,0.662753 -5.0981,1.002627 -0.56079,0.135949 -1.90329,0.37386 -2.97389,0.526803 -1.0706,0.152943 -2.49807,0.458829 -3.17782,0.679747 -0.81569,0.271899 -1.5974,0.407848 -2.4131,0.407848 -0.64576,0 -1.37648,0.06797 -1.6144,0.169937 -0.40785,0.152943 -2.58304,0.50981 -3.5007,0.560791 -0.37386,0.03398 -0.44183,-0.05098 -0.56078,-0.730728 -0.25491,-1.495443 -0.69674,-3.330759 -1.00263,-4.163449 -0.16994,-0.458829 -0.30589,-1.172563 -0.30589,-1.580411 0,-0.407848 -0.11895,-1.240538 -0.28889,-1.85231 -0.32288,-1.308513 -0.22092,-1.461456 1.01962,-1.66538 0.39085,-0.06798 1.13857,-0.220918 1.64839,-0.356867 0.50981,-0.13595 1.25753,-0.237912 1.64838,-0.237912 0.40785,0 1.05361,-0.152943 1.46146,-0.32288 0.39085,-0.18693 1.10459,-0.37386 1.56342,-0.424842 0.96864,-0.118955 3.14383,-0.611772 4.50332,-1.036613 0.50981,-0.152943 1.42747,-0.373861 2.03924,-0.50981 0.61177,-0.118956 1.3425,-0.32288 1.6144,-0.424842 0.2719,-0.101962 0.81569,-0.169937 1.18956,-0.152943 0.73072,0.05098 1.10458,0 4.33338,-0.611772 1.17257,-0.220918 2.46408,-0.441836 2.88892,-0.492817 0.42485,-0.05098 1.07061,-0.169937 1.44447,-0.271898 0.37386,-0.08497 0.96864,-0.169937 1.30851,-0.169937 0.84968,0 1.39348,-0.662753 1.27453,-1.563418 -0.10197,-0.696741 0,-0.883671 0.37386,-0.713734 0.15294,0.05098 1.01961,0.356867 1.93727,0.679747 z m -15.2943,23.417281 c 0.034,3.364745 0.051,3.551673 0.37386,3.738607 0.18693,0.101958 0.39086,0.254902 0.47582,0.356865 0.18694,0.254907 -0.10196,5.79484 -0.40785,7.460223 -0.10195,0.543799 -0.16993,1.54642 -0.15294,2.209176 0.034,1.223545 -0.068,2.837944 -0.2719,4.860188 -0.051,0.611772 -0.13594,3.517689 -0.15294,6.457597 -0.051,5.386995 -0.16994,6.627529 -0.71373,7.477214 -0.30589,0.492819 -1.10459,1.18956 -1.25753,1.104591 -0.10197,-0.06797 -0.017,-14.546583 0.085,-16.143987 0.034,-0.475824 0.13594,-1.546425 0.22091,-2.379114 0.10196,-0.866679 0.11896,-2.668006 0.068,-4.163452 -0.068,-1.444461 -0.051,-3.211803 0.017,-3.908544 0.085,-0.696741 0.13595,-2.039239 0.11896,-2.973892 -0.017,-0.934653 0.034,-3.05886 0.10196,-4.707244 l 0.13595,-3.007881 0.66275,0.03401 0.67974,0.05099 z m 24.75978,18.693033 c 0,0.135953 -0.86668,0.220922 -0.95165,0.08497 -0.051,-0.08497 0.15295,-0.152942 0.42485,-0.152942 0.28889,0 0.5268,0.03401 0.5268,0.06797 z M 63.209541,101.4063 c -0.068,0.051 -0.16994,0.051 -0.23791,0 -0.051,-0.068 0,-0.11895 0.11895,-0.11895 0.11896,0 0.16994,0.051 0.11896,0.11895 z"
       sodipodi:nodetypes="ccscccccccccccccsccccsccccccsccccccscsccccscccccccssccsccccccccsccccccccscccccccccssscccsscccscccscscccscscsssccccsscccccssccsscssccscccsccsscccccsscccccscccsccscsssccsccsccscccccccscccscccsccccccccccsccsssccccssccccccccccsccscssccccccccccscccscscccscsccccccscsccccccccsccscsccccscccccscsccccccccssccscccssccccsssccsssccsscscccsccsssssssssccsccscccscccsccscccccccccscccscccscsccccccscsccccsccssccccsccscsccccccccccccccccscccccscsssccsc" />
  </g>
</svg>
