<?xml version="1.0" encoding="UTF-8" standalone="no"?>
<!-- Created with Inkscape (http://www.inkscape.org/) -->

<svg
   width="124mm"
   height="124mm"
   viewBox="0 0 124 124"
   version="1.1"
   id="svg1"
   sodipodi:docname="clock.svg"
   inkscape:version="1.4.2 (ebf0e940, 2025-05-08)"
   xmlns:inkscape="http://www.inkscape.org/namespaces/inkscape"
   xmlns:sodipodi="http://sodipodi.sourceforge.net/DTD/sodipodi-0.dtd"
   xmlns="http://www.w3.org/2000/svg"
   xmlns:svg="http://www.w3.org/2000/svg">
  <sodipodi:namedview
     id="namedview1"
     pagecolor="#ffffff"
     bordercolor="#000000"
     borderopacity="0.25"
     inkscape:showpageshadow="2"
     inkscape:pageopacity="0.0"
     inkscape:pagecheckerboard="0"
     inkscape:deskcolor="#d1d1d1"
     inkscape:document-units="mm"
     inkscape:zoom="0.60950898"
     inkscape:cx="316.64833"
     inkscape:cy="178.83247"
     inkscape:window-width="1920"
     inkscape:window-height="1027"
     inkscape:window-x="0"
     inkscape:window-y="25"
     inkscape:window-maximized="0"
     inkscape:current-layer="layer1" />
  <defs
     id="defs1" />
  <g
     inkscape:label="Layer 1"
     inkscape:groupmode="layer"
     id="layer1"
     transform="translate(-78.581256,-514.87915)">
    <path
       id="path11"
       style="stroke-width:0.0352778"
       d="m 138.92107,595.69669 c -0.88194,0.70556 -0.91722,0.84667 -0.91722,4.55084 0,3.70416 0.0353,3.84528 0.91722,4.55083 1.23473,0.98778 2.43417,0.91722 3.4925,-0.14111 0.81139,-0.77611 0.88195,-1.12889 0.88195,-4.05694 0,-3.56306 -0.49389,-5.08 -1.83445,-5.43278 -1.27,-0.3175 -1.51694,-0.28222 -2.54,0.52916 z m 29.10417,-29.10416 c -2.08139,2.64583 -0.21166,4.37444 4.72722,4.37444 3.13973,0 4.83306,-0.49389 5.25639,-1.5875 0.42334,-1.12889 0.21167,-2.18722 -0.59972,-2.92806 -0.74083,-0.70555 -1.19944,-0.77611 -4.72722,-0.77611 -3.84528,0 -3.95111,0.0353 -4.65667,0.91723 z m -63.78222,-0.91723 c -1.5875,0.67028 -1.94028,2.54 -0.77611,4.02167 0.70555,0.88195 0.81139,0.91722 4.69194,0.91722 3.70417,0 4.02167,-0.0706 4.72722,-0.81139 0.9525,-1.02305 0.98778,-2.36361 0.10584,-3.45722 -0.635,-0.77611 -0.9525,-0.84667 -4.33917,-0.91722 -1.97555,-0.0706 -3.98639,0.0706 -4.40972,0.24694 z m 57.85555,-19.79083 c -1.51694,1.34055 -6.31472,5.60917 -10.68916,9.525 -6.06778,5.46806 -8.11389,7.05556 -8.64306,6.91444 -0.38805,-0.0705 -1.27,-0.17638 -1.97555,-0.17638 -1.19945,0 -1.55223,-0.35278 -8.78417,-8.85473 -4.16278,-4.83305 -7.83167,-8.96055 -8.14917,-9.17222 -1.72861,-0.91722 -3.84528,0.52917 -3.84528,2.57528 0,0.98778 1.09361,2.43416 7.40834,9.98361 4.79778,5.75028 7.3025,8.99583 7.19666,9.34861 -0.98777,2.57528 -0.35277,5.3975 1.62278,7.19667 4.16278,3.73944 10.12473,1.44639 10.51278,-4.05695 l 0.14111,-2.08139 10.19528,-9.2075 c 5.57389,-5.04472 10.4775,-9.56027 10.90083,-10.08944 0.9525,-1.19945 0.88195,-2.43417 -0.17638,-3.45722 -1.48167,-1.51695 -2.61056,-1.19945 -5.71501,1.55222 z m -20.74333,22.61306 c 0,0.56444 -0.21167,0.91722 -0.67028,0.98777 -0.88194,0.17639 -1.37583,-0.42333 -1.09361,-1.34055 0.35278,-1.09361 1.76389,-0.84667 1.76389,0.35278 z m -2.57528,-35.87751 c -0.70555,0.74084 -0.77611,1.19945 -0.77611,4.40973 0,4.16277 0.45861,5.00944 2.61056,5.00944 2.08139,0 2.68111,-1.19944 2.68111,-5.18583 0,-3.03389 -0.0706,-3.38667 -0.88195,-4.16278 -1.09361,-1.12889 -2.61055,-1.16417 -3.63361,-0.0706 z m -4.445,-12.41777 c -18.02694,2.08138 -33.47861,14.605 -39.687496,32.17333 -2.010834,5.715 -2.645834,9.59556 -2.645834,16.29833 0,7.23195 0.705556,11.04195 3.316111,17.99167 3.386667,8.96056 3.598334,11.39473 1.763889,19.22639 -2.398889,10.16 -0.599722,16.33361 5.715,19.64973 1.72861,0.91722 2.18722,0.98777 5.92667,0.98777 3.77472,0 4.19805,-0.0705 5.96194,-0.98777 2.75167,-1.44639 5.08,-3.81 6.91444,-6.985 3.175,-5.50334 4.86834,-6.49112 7.12612,-4.1275 1.37583,1.44638 1.76388,2.75166 2.18722,7.23194 0.84666,8.21972 4.48028,12.31195 10.97139,12.24139 6.56166,-0.0353 10.33639,-4.09222 11.46528,-12.31195 0.84666,-5.92666 2.61055,-8.46666 7.90222,-11.25361 6.84389,-3.59833 18.02694,-13.29972 21.87222,-19.01472 8.5725,-12.7 7.9375,-34.18417 -1.41111,-49.14195 -9.8425,-15.62805 -28.29278,-24.20055 -47.37806,-21.97805 z m 13.72306,5.82083 c 16.61583,2.8575 29.95083,15.02833 34.18417,31.18556 3.06916,11.67694 1.69333,22.86 -3.84528,31.22083 -3.35139,5.04472 -11.95917,12.55889 -19.50861,16.96861 -7.02028,4.1275 -9.91306,7.97278 -10.68917,14.25223 -0.49389,4.05694 -0.91722,5.60916 -1.97556,7.02028 -1.69333,2.18722 -5.00944,2.82222 -7.16139,1.34055 -1.83444,-1.23472 -2.43416,-2.78694 -2.78694,-7.3025 -0.52917,-6.56167 -2.57528,-10.37167 -6.56167,-12.20611 -4.33916,-2.04611 -8.36083,-0.17639 -11.43,5.32694 -3.13972,5.57389 -5.67972,7.58473 -9.525,7.58473 -6.77333,-0.0353 -8.819439,-4.93889 -6.31472,-15.06362 1.94028,-7.86694 1.62278,-11.43 -1.86972,-20.88444 -2.681111,-7.16139 -3.175,-9.59556 -3.386666,-15.91028 -0.282222,-8.14917 0.846666,-13.58195 4.198056,-20.28472 5.85611,-11.7475 18.45027,-21.09612 31.36194,-23.24806 4.09222,-0.67028 11.43,-0.67028 15.31056,0 z" />
  </g>
</svg>
