<?xml version="1.0" encoding="UTF-8" standalone="no"?>
<!-- Created with Inkscape (http://www.inkscape.org/) -->

<svg
   width="130mm"
   height="130mm"
   viewBox="0 0 130 130"
   version="1.1"
   id="svg1"
   inkscape:version="1.4.2 (ebf0e940, 2025-05-08)"
   sodipodi:docname="clock-solid.svg"
   xmlns:inkscape="http://www.inkscape.org/namespaces/inkscape"
   xmlns:sodipodi="http://sodipodi.sourceforge.net/DTD/sodipodi-0.dtd"
   xmlns="http://www.w3.org/2000/svg"
   xmlns:svg="http://www.w3.org/2000/svg">
  <sodipodi:namedview
     id="namedview1"
     pagecolor="#ffffff"
     bordercolor="#000000"
     borderopacity="0.25"
     inkscape:showpageshadow="2"
     inkscape:pageopacity="0.0"
     inkscape:pagecheckerboard="0"
     inkscape:deskcolor="#d1d1d1"
     inkscape:document-units="mm"
     inkscape:zoom="0.78"
     inkscape:cx="98.717949"
     inkscape:cy="270.51282"
     inkscape:window-width="1920"
     inkscape:window-height="1027"
     inkscape:window-x="0"
     inkscape:window-y="25"
     inkscape:window-maximized="1"
     inkscape:current-layer="layer1" />
  <defs
     id="defs1" />
  <g
     inkscape:label="Layer 1"
     inkscape:groupmode="layer"
     id="layer1"
     transform="translate(28.310412,54.768781)">
    <path
       id="path8"
       style="stroke-width:0.0273035"
       d="m 36.72369,22.728305 c -5.051141,2.648437 -7.863398,10.894083 -4.914624,14.41623 1.419781,1.665511 5.023838,2.075063 7.453846,0.846407 3.494844,-1.802028 4.122824,-7.126204 1.064835,-9.392391 -0.982924,-0.737194 -2.948774,-0.901015 -4.068216,-0.354945 -1.146746,0.573372 -1.146746,0.573372 -0.682586,-0.354946 0.464159,-0.901014 1.993152,-2.293491 3.167201,-2.894167 0.982925,-0.518766 0.982925,-0.62798 0.218428,-1.774725 -0.7918,-1.146746 -0.955621,-1.201352 -2.238884,-0.491463 z m 0.791801,9.365089 c 0.819103,0.819104 0.846407,1.474387 0.109213,2.430008 -0.655283,0.819104 -2.12967,0.982925 -2.703042,0.300338 -0.327643,-0.409552 -0.218428,-2.539222 0.16382,-3.167202 0.300338,-0.491462 1.774725,-0.245731 2.430009,0.436856 z M 58.15691,-3.2099861 c -1.310567,0.62798 -2.839561,2.70304302 -2.703044,3.60405702 0.05461,0.354945 0.518766,0.68258698 1.447084,0.98292498 l 1.365174,0.436855 0.846407,-0.92831698 c 1.010228,-1.146746 2.156974,-1.092139 2.457312,0.13651698 0.300338,1.119442 -0.191124,1.583601 -1.610905,1.528994 l -1.228656,-0.0273 -0.163821,1.228656 c -0.273035,2.156973 -0.273035,2.184277 1.010229,2.375401 2.184277,0.354945 2.921471,1.41978 1.938546,2.839561 -0.273035,0.409552 -0.682587,0.600676 -1.33787,0.600676 -0.901014,0 -1.365174,-0.382249 -2.184277,-1.774726 -0.273035,-0.436855 -0.382249,-0.436855 -1.720118,0.136518 -0.901015,0.382248 -1.419781,0.791801 -1.419781,1.064835 0,0.764497 1.201353,2.8395611 1.965849,3.3856291 0.901015,0.682587 4.09552,0.955622 5.487997,0.491463 1.419781,-0.464159 3.112595,-2.511918 3.331023,-3.9590031 0.218428,-1.310565 -0.436855,-3.249112 -1.283263,-3.822484 -0.518766,-0.354945 -0.491462,-0.382249 0.163821,-1.392477 2.976077,-4.34125098 -1.556298,-9.283178 -6.361707,-6.907777 z m -46.743532,-2.648436 c -0.846408,0.163821 -1.8566356,0.518766 -2.2661876,0.7918 -1.392476,0.901015 -2.402704,4.45046502 -1.965849,6.825867 0.464159,2.402705 3.3310216,4.013609 5.2968716,3.003381 0.546069,-0.273035 1.119442,-0.54607 1.25596,-0.62798 1.092138,-0.491462 -2.075064,2.948774 -3.9043956,4.25934 -0.273035,0.191125 0.8737106,1.474388 1.6655116,1.8839391 l 0.87371,0.46416 2.020456,-2.1023681 c 6.607439,-6.907776 4.750803,-16.054437 -2.976077,-14.498139 z m 2.348098,4.095519 c 1.146745,1.11944202 0.573373,2.866864 -0.955621,2.866864 -1.419781,0 -2.184277,-1.96584898 -1.17405,-3.057988 0.600677,-0.682587 1.337871,-0.627979 2.129671,0.191124 z m 39.180472,-4.477768 c -1.993153,0.709891 -7.617667,3.440237 -11.249028,5.46069302 -2.348097,1.310567 -3.139897,1.610904 -4.150126,1.610904 -0.682587,0 -1.856635,0.136518 -2.621132,0.30033898 l -1.392477,0.300338 -1.96585,-1.88393898 c -3.276416,-3.13989902 -6.061369,-4.72349902 -8.35486,-4.72349902 -1.33787,0 -1.938546,0.655283 -1.938546,2.102366 0,2.37540202 3.167202,5.187658 7.918005,7.071598 l 1.856635,0.70989 0.109214,1.829331 c 0.109214,2.184278 0.846408,3.38563 2.511919,4.1501271 3.631361,1.638208 7.508452,-0.9010141 7.535756,-4.9419271 v -1.228655 l 3.767878,-1.802029 c 5.569907,-2.70304298 9.06475,-5.105748 10.757565,-7.453846 1.528994,-2.102367 0.491462,-2.648436 -2.784953,-1.501691 z M 28.286919,-25.871862 c -0.682586,0.955622 -1.50169,2.04776 -1.802028,2.430009 l -0.573373,0.709889 1.228656,0.655284 1.201352,0.655283 0.764497,-0.737193 0.764497,-0.737194 v 1.556297 c 0,0.846408 0.0273,3.358326 0.08191,5.569907 l 0.05461,4.040913 h 1.638208 1.638208 v -7.918005 -7.918005 h -1.856635 -1.856636 z m 10.539138,-1.802029 c -1.829332,0.901015 -3.685968,3.494844 -3.276416,4.586982 0.218428,0.518766 3.249113,1.228656 3.385629,0.791801 0.08191,-0.191124 0.382249,-0.655283 0.682587,-1.037532 0.62798,-0.819103 2.020457,-0.873711 2.484616,-0.109213 0.546069,0.846407 -0.136518,1.883939 -3.494844,5.378782 l -3.412933,3.54945 v 1.365174 c 0,0.846407 0.136518,1.392477 0.354945,1.474387 0.163821,0.05461 2.621133,0.05461 5.43339,0 l 5.078444,-0.109214 0.191124,-1.33787 c 0.109214,-0.70989 0.109214,-1.447084 0,-1.610904 -0.08191,-0.163821 -1.255959,-0.273035 -2.812257,-0.273035 h -2.648436 l 2.238884,-2.266188 c 3.331023,-3.358326 4.095519,-5.706424 2.75765,-8.382163 -1.119442,-2.184278 -4.586982,-3.194505 -6.962383,-2.020457 z M 32.54626,-50.281152 c -3.303719,1.17404 -4.723499,3.27641 -4.723499,7.04428 0,1.20136 0.191124,2.81226 0.409551,3.54945 0.218428,0.7372 0.409552,1.41979 0.409552,1.5017 0,0.0819 -1.310566,0.49146 -2.92147,0.92832 -17.2557896,4.45046 -28.0133546,17.883765 -29.5696526,36.88697592 -0.682586,8.35486098 1.474387,16.27286508 5.979459,21.95198608 1.856635,2.348098 3.249112,3.46754 6.716652,5.460693 6.9623836,4.013609 8.2183426,6.3071 10.5118336,19.38546 1.228656,7.044294 2.511919,9.255874 6.252494,10.675654 1.883939,0.70989 5.214962,0.600677 7.890701,-0.245731 1.692815,-0.546069 1.747422,-0.546069 2.238884,-0.05461 0.819105,0.819105 1.283263,1.88394 2.320795,5.487997 1.255959,4.286644 1.747421,5.378783 2.921471,6.580135 3.057987,3.030685 8.627894,3.085291 12.150041,0.109214 2.375401,-1.993153 3.658665,-5.460693 4.313947,-11.549366 0.218429,-2.21158 0.491463,-4.423161 0.54607,-4.914624 l 0.163821,-0.873711 1.474387,0.70989 c 2.92147,1.310567 6.771259,0.573374 8.464074,-1.665511 1.829332,-2.402705 1.911242,-2.921471 1.829332,-10.266103 -0.109214,-7.781487 0.354945,-10.894082 2.539222,-17.201182 0.655283,-1.88394 1.802029,-5.187658 2.566526,-7.371936 C 76.914389,10.41444 77.378549,7.7660039 77.351245,2.1960969 77.296635,-11.264511 73.501457,-21.121062 65.337721,-28.929853 60.36849,-33.707959 54.825886,-36.492912 47.262827,-38.049212 l -2.921471,-0.60067 0.08191,-0.90102 c 0.05461,-0.49146 0.273034,-1.39247 0.491462,-1.99315 1.692815,-4.8054 -2.075063,-8.92823 -8.354859,-9.14666 -1.993153,-0.0819 -2.921472,0.0273 -4.013609,0.40956 z m 6.716652,6.47091 c 0.600676,0.57337 0.70989,0.92832 0.655284,2.07507 -0.05461,2.04775 -0.218429,2.15697 -3.631361,2.15697 -3.30372,0 -3.358327,-0.0546 -2.976078,-1.88394 0.62798,-2.89417 4.068216,-4.25934 5.952155,-2.3481 z m 5.569907,12.941846 c 10.40262,2.648436 17.883769,8.955537 21.651647,18.266018 3.604057,8.9282329 3.713272,16.0817409 0.382248,25.992898 -2.948774,8.764413 -3.795181,13.324091 -4.068216,22.525359 -0.218427,6.498224 -0.273034,6.962383 -1.201352,7.972612 -1.638208,1.829332 -3.576754,-0.982925 -4.259341,-6.252494 -0.518766,-3.740575 -1.174048,-5.870245 -1.938545,-6.361707 -0.518766,-0.327642 -1.610905,0.655283 -2.293492,1.993153 -1.255959,2.484615 -1.5836,4.996534 -1.802028,14.115891 -0.109214,4.641589 -0.300338,8.764412 -0.409552,9.146661 -0.70989,2.375401 -3.358326,2.593829 -3.931699,0.327641 -0.136517,-0.546069 -0.327642,-2.348098 -0.436856,-3.986306 -0.273034,-4.723499 -1.610904,-8.737108 -3.057987,-9.283178 -0.245731,-0.109213 -1.119442,0.191125 -1.965849,0.62798 -4.150127,2.156974 -8.354861,2.511919 -11.167118,0.982925 -2.320794,-1.25596 -3.713271,-3.576754 -4.723499,-7.945308 -1.392477,-5.952156 -1.692815,-6.93508 -2.703043,-9.037447 C 21.488356,25.322135 19.768238,23.79314 15.863842,21.854595 9.0106734,18.468965 6.0345964,15.083336 4.2871744,8.6124139 c -0.955622,-3.604057 -0.873711,-10.730262 0.16382,-14.743871 0.955622,-3.713271 2.348098,-7.3173289 3.767879,-9.7473369 6.9623826,-12.040828 22.7983926,-18.539053 36.6139456,-14.989602 z" />
  </g>
</svg>
