<?xml version="1.0" encoding="UTF-8" standalone="no"?>
<!-- Created with Inkscape (http://www.inkscape.org/) -->

<svg
   width="130mm"
   height="130mm"
   viewBox="0 0 130 130"
   version="1.1"
   id="svg1"
   sodipodi:docname="cogs.svg"
   inkscape:version="1.4.2 (ebf0e940, 2025-05-08)"
   xmlns:inkscape="http://www.inkscape.org/namespaces/inkscape"
   xmlns:sodipodi="http://sodipodi.sourceforge.net/DTD/sodipodi-0.dtd"
   xmlns="http://www.w3.org/2000/svg"
   xmlns:svg="http://www.w3.org/2000/svg">
  <sodipodi:namedview
     id="namedview1"
     pagecolor="#ffffff"
     bordercolor="#000000"
     borderopacity="0.25"
     inkscape:showpageshadow="2"
     inkscape:pageopacity="0.0"
     inkscape:pagecheckerboard="0"
     inkscape:deskcolor="#d1d1d1"
     inkscape:document-units="mm"
     inkscape:zoom="0.62668897"
     inkscape:cx="249.72515"
     inkscape:cy="173.92998"
     inkscape:window-width="1920"
     inkscape:window-height="1027"
     inkscape:window-x="0"
     inkscape:window-y="25"
     inkscape:window-maximized="0"
     inkscape:current-layer="layer1" />
  <defs
     id="defs1" />
  <g
     inkscape:label="Layer 1"
     inkscape:groupmode="layer"
     id="layer1"
     transform="translate(-66.410417,-89.164622)">
    <path
       id="path10"
       style="stroke-width:0.264583"
       d="m 152.04775,164.97663 c -3.20146,0.84667 -5.82083,3.67771 -6.50875,7.03792 -1.00541,5.08 3.51896,10.05416 8.70479,9.57791 5.68855,-0.50271 9.28688,-6.64104 6.85271,-11.61521 -1.69333,-3.46604 -5.95312,-5.82083 -9.04875,-5.00062 z m 4.65667,4.1275 c 2.77812,1.95792 3.06917,5.63562 0.635,7.96396 -3.09563,2.98979 -7.77875,1.64041 -8.89,-2.54 -0.55563,-2.16959 0.74083,-4.78896 3.01625,-5.92667 1.37583,-0.71437 3.86292,-0.44979 5.23875,0.50271 z m -46.40791,-40.3225 c -2.88396,0.44979 -5.50334,2.43417 -6.85271,5.21229 -0.79375,1.61396 -0.87313,1.95792 -0.87313,4.28625 0,2.19604 0.0794,2.69875 0.71438,3.96875 0.92604,1.87854 2.56646,3.51896 4.41854,4.445 2.14313,1.03188 5.79438,1.05833 8.01687,0 1.93146,-0.89958 3.75709,-2.72521 4.65667,-4.65667 1.05833,-2.2225 1.03188,-5.87375 -0.0265,-8.04333 -1.79917,-3.67771 -6.0325,-5.87375 -10.05417,-5.21229 z m 4.04812,3.43958 c 2.48708,1.11125 3.81,3.09563 3.81,5.66209 0,7.09083 -9.33979,9.2075 -12.25021,2.77812 -2.32833,-5.15937 3.28084,-10.76854 8.44021,-8.44021 z m 35.98333,25.26771 c -5.76792,1.50813 -10.29229,5.97958 -11.77395,11.61521 -0.50271,2.01083 -0.50271,6.35 0,8.5725 0.89958,3.81 3.75708,7.75229 7.06437,9.76312 7.96396,4.78896 18.70604,1.85209 22.93937,-6.27062 2.27542,-4.39208 2.80459,-10.23938 1.24354,-14.04938 -1.905,-4.65666 -6.37645,-8.49312 -11.2977,-9.65729 -2.11667,-0.47625 -6.24417,-0.47625 -8.17563,0.0265 z m 8.59896,2.72521 c 5.76792,2.06375 9.47208,7.51417 9.04875,13.38792 -0.55563,7.75229 -6.35,13.36145 -13.75833,13.36145 -4.02167,0 -6.90563,-1.16416 -9.57792,-3.83645 -7.62,-7.67292 -4.04812,-20.6375 6.42937,-23.28334 2.09021,-0.52916 5.79438,-0.34396 7.85813,0.37042 z m -51.72604,-39.26417 c -11.191873,2.51354 -16.933331,17.38313 -10.424581,26.93459 3.360211,4.89479 8.572501,7.62 14.657921,7.62 8.94291,0 15.79562,-5.50334 17.56833,-14.12875 1.85208,-8.91646 -2.93688,-17.11855 -11.61521,-19.92313 -2.67229,-0.87312 -7.48771,-1.11125 -10.18646,-0.50271 z m 8.09625,2.80459 c 2.69875,0.8202 5.05354,2.2225 6.985,4.18041 2.8575,2.88396 3.96875,5.66209 3.96875,9.81604 0,6.72042 -3.83646,12.03855 -10.18646,14.15521 -10.60979,3.57188 -21.034371,-5.29166 -19.076454,-16.21896 1.058333,-5.97958 5.344584,-10.795 10.795004,-12.11791 2.2225,-0.52917 5.45041,-0.44979 7.51416,0.18521 z m -3.41312,-18.33563 c -0.23813,0.23813 -0.76729,1.74625 -1.21709,3.33375 -0.44979,1.5875 -0.84666,2.93688 -0.89958,2.96333 -0.0529,0.0529 -1.03187,0.29105 -2.19604,0.52917 -1.13771,0.23813 -2.35479,0.47625 -2.64583,0.55563 -0.47625,0.10583 -0.87313,-0.29105 -2.3548,-2.40771 -1.74625,-2.54 -2.32833,-3.06917 -3.227913,-3.06917 -0.635,0 -6.429375,3.33375 -7.14375,4.1275 -0.820208,0.87313 -0.79375,1.13771 0.47625,4.445 0.899584,2.40771 1.005417,2.91042 0.714375,3.28083 -1.190625,1.50813 -3.254375,3.88938 -3.386666,3.88938 -0.07937,0 -1.296459,-0.39688 -2.725208,-0.87313 -2.804584,-0.92604 -3.81,-1.03187 -4.497917,-0.52916 -0.529167,0.39687 -3.360208,7.72583 -3.360208,8.70479 0,0.89958 0.3175,1.13771 3.413125,2.75167 l 2.54,1.32291 -0.07937,2.30188 c -0.132292,3.65125 -0.105834,3.59833 -2.8575,4.63021 -2.778125,1.00541 -3.122084,1.37583 -2.910417,2.93687 0.185208,1.32292 1.455208,5.26521 2.301875,7.03792 0.714375,1.53458 1.164167,1.66687 3.862917,0.97896 2.857499,-0.74084 2.804583,-0.74084 3.783541,0.76729 0.449792,0.71437 1.164167,1.71979 1.5875,2.24896 l 0.740833,0.9525 -1.296458,2.69875 c -0.714375,1.48166 -1.296458,3.01625 -1.296458,3.38666 0,0.87313 1.296458,2.09021 4.550833,4.23334 3.413125,2.24895 3.704167,2.19604 6.217708,-1.05834 0.952498,-1.24354 1.852088,-2.38125 1.957918,-2.51354 0.10583,-0.10583 0.89958,0.0265 1.77271,0.3175 0.84666,0.3175 2.35479,0.68792 3.30729,0.87313 1.19062,0.21166 1.79917,0.47625 1.87854,0.74083 0.0794,0.23812 0.37042,1.53458 0.68792,2.91042 0.87312,4.15395 0.635,4.04812 6.61458,3.175 5.26521,-0.7673 5.02708,-0.52917 5.02708,-4.68313 v -3.36021 l 2.06375,-0.92604 c 1.11125,-0.50271 2.80459,-1.42875 3.73063,-2.03729 0.92604,-0.635 1.79916,-1.13771 1.93146,-1.13771 0.13229,0 1.27,0.635 2.56645,1.40229 l 2.32834,1.40229 -0.9525,1.85209 -0.9525,1.85208 -1.5875,-0.21167 c -4.39209,-0.60854 -4.84188,-0.1852 -5.23875,4.73605 -0.42334,5.37104 -0.3175,5.60916 3.36021,6.32354 1.00541,0.18521 1.87854,0.39687 1.93145,0.47625 0.0794,0.0529 0.50271,1.16416 1.00542,2.46062 l 0.87313,2.32834 -2.3548,2.19604 c -2.61937,2.46062 -2.75166,2.77812 -1.66687,4.41854 1.64042,2.43417 4.1275,5.66208 4.49792,5.79437 0.9525,0.37042 1.87854,0.0794 3.83645,-1.16416 1.13771,-0.74084 2.11667,-1.32292 2.19605,-1.32292 0.0794,0 1.05833,0.635 2.19604,1.40229 1.16416,0.76729 2.91041,1.71979 3.88936,2.14313 l 1.79917,0.76729 -0.18521,2.56646 c -0.21166,2.8575 -0.0794,3.57187 0.66146,3.96875 0.47625,0.26458 7.62,1.05833 9.55146,1.05833 1.56104,0 1.85208,-0.39688 2.14312,-3.06917 0.42334,-3.94229 0.4498,-4.07458 1.00542,-4.07458 0.74083,0 4.18042,-1.29646 5.50333,-2.03729 l 1.11125,-0.66146 1.53459,1.29646 c 3.54541,3.06916 3.78354,3.04271 7.27604,-0.84667 2.72521,-3.04271 3.36021,-3.96875 3.36021,-4.86833 0,-0.3175 -0.82021,-1.40229 -1.87854,-2.54 -1.32292,-1.37583 -1.85209,-2.11667 -1.74625,-2.43417 0.44979,-1.40229 1.5875,-4.20687 1.82562,-4.49791 0.18521,-0.23813 1.11125,-0.34396 3.01625,-0.34396 3.65125,0 3.54542,0.15875 3.54542,-5.47688 0,-5.34458 0.0529,-5.23875 -3.36021,-5.50333 -3.01625,-0.21167 -2.80458,-0.10583 -3.36021,-1.87854 -0.26458,-0.87313 -0.71437,-2.01084 -1.00542,-2.56646 -0.58207,-1.13771 -0.66145,-0.97896 1.66688,-3.65125 2.24896,-2.59292 2.2225,-2.64583 -3.51896,-8.91646 -1.16417,-1.27 -1.905,-1.13771 -4.23332,0.68792 -1.05834,0.84666 -2.06375,1.61396 -2.2225,1.71979 -0.18521,0.10583 -1.08479,-0.26458 -2.03729,-0.82021 -0.9525,-0.55562 -2.19605,-1.16417 -2.77813,-1.34937 l -1.03187,-0.34396 0.0265,-3.175 c 0.0265,-4.31271 0.52917,-3.99521 -7.11729,-4.60375 -2.96333,-0.23813 -3.09562,-0.0794 -4.04812,4.10104 l -0.74084,3.25437 -2.38125,0.60855 c -1.82562,0.47625 -2.4077,0.52916 -2.61937,0.29104 -0.13229,-0.18521 -0.84667,-1.08479 -1.5875,-2.01084 -2.14313,-2.83104 -2.67229,-2.96333 -4.47146,-1.32291 -1.08479,1.00541 -1.16417,1.03187 -1.56104,0.58208 -0.39688,-0.42333 -0.37042,-0.66146 0.3175,-2.83104 l 0.74083,-2.38125 1.95792,-0.3175 c 1.08479,-0.15875 2.51354,-0.3175 3.20145,-0.3175 0.89958,-0.0265 1.42875,-0.18521 1.98437,-0.66146 l 0.71438,-0.635 -0.0529,-4.41854 c -0.0265,-2.43417 -0.18521,-4.63021 -0.3175,-4.92125 -0.37042,-0.635 -1.66687,-0.9525 -5.08,-1.16417 l -2.80458,-0.18521 -0.3175,-1.21708 c -0.15875,-0.68792 -0.60855,-1.93146 -0.97896,-2.77812 l -0.68792,-1.50813 2.14313,-2.2225 c 2.27541,-2.35479 2.67229,-3.175 2.16958,-4.15396 -0.52917,-0.97896 -5.00063,-6.24416 -5.45042,-6.42937 -0.76729,-0.29104 -1.08479,-0.15875 -3.96875,1.79916 l -2.91041,1.95792 -1.03188,-0.79375 c -0.58208,-0.42333 -1.74625,-1.13771 -2.59292,-1.56104 l -1.53458,-0.79375 0.18521,-2.8575 c 0.29104,-4.65667 0.3175,-4.63021 -4.47146,-5.18583 -4.39208,-0.52917 -5.82083,-0.50271 -6.35,0.0794 z m 5.42395,2.72521 2.32834,0.3175 -0.0794,3.43958 -0.0529,3.46604 2.24896,1.13771 c 1.24354,0.60854 2.83104,1.5875 3.54541,2.19604 1.7198,1.42875 2.16959,1.37584 5.45042,-0.66145 l 2.77813,-1.7198 1.1377,1.21709 c 0.60855,0.66146 1.34938,1.56104 1.64042,1.95791 l 0.52917,0.74084 -2.24896,2.06375 c -1.21708,1.11125 -2.30188,2.24896 -2.38125,2.51354 -0.10583,0.29104 0.18521,1.24354 0.635,2.2225 0.44979,0.9525 1.13771,2.77812 1.48167,4.04812 0.37041,1.27 0.84666,2.43417 1.08479,2.61938 0.39687,0.29104 1.34937,0.42333 5.47687,0.74083 l 2.03729,0.18521 v 5.15938 l -1.905,0.29104 c -1.05833,0.15875 -2.61937,0.37041 -3.46604,0.47625 -1.66687,0.18521 -2.2225,0.55562 -2.46062,1.64041 -0.0794,0.39688 -0.55563,2.01084 -1.05834,3.6248 -0.5027,1.5875 -0.89958,2.98979 -0.89958,3.09562 0,0.10583 1.00542,1.32292 2.24896,2.72521 1.34937,1.50812 2.19604,2.67229 2.09021,2.8575 -0.55563,0.9525 -2.83104,3.62479 -3.09563,3.62479 -0.18521,0 -1.24354,-0.58208 -2.35479,-1.32292 -3.43958,-2.19604 -3.22792,-2.16958 -5.34458,-0.37041 -1.13771,0.97896 -4.33917,2.69875 -6.37646,3.41312 -2.24896,0.82021 -2.24896,0.82021 -2.24896,4.63021 v 3.33375 l -2.51354,0.37042 c -1.40229,0.18521 -2.56646,0.29104 -2.61938,0.23812 -0.0265,-0.0529 -0.39687,-1.40229 -0.76729,-2.98979 -0.39687,-1.5875 -0.87312,-3.06917 -1.05833,-3.28083 -0.21167,-0.18521 -1.50813,-0.58209 -2.8575,-0.84667 -1.37583,-0.26458 -3.43958,-0.79375 -4.57729,-1.16417 -1.13771,-0.39687 -2.27542,-0.635 -2.54,-0.55562 -0.26459,0.0794 -1.402294,1.27 -2.540002,2.64583 -1.137709,1.37584 -2.169584,2.40771 -2.328334,2.32834 -1.322916,-0.7673 -3.386666,-2.30188 -3.518958,-2.61938 -0.07937,-0.18521 0.47625,-1.50812 1.217083,-2.88396 0.740834,-1.40229 1.349375,-2.75166 1.349375,-3.01625 0,-0.29104 -0.47625,-1.11125 -1.058333,-1.85208 -0.582083,-0.74083 -1.719792,-2.35479 -2.487083,-3.57188 -0.79375,-1.21708 -1.613959,-2.27541 -1.825625,-2.35479 -0.343959,-0.13229 -3.545417,0.50271 -5.23875,1.00542 -0.47625,0.15875 -2.169583,-4.63021 -1.693333,-4.81542 0.15875,-0.0529 1.27,-0.50271 2.513541,-0.9525 2.645833,-1.00541 2.910417,-1.37583 2.910417,-3.94229 0,-0.9525 0.185208,-2.67229 0.396875,-3.75708 0.211666,-1.11125 0.3175,-2.19604 0.211666,-2.43417 -0.07937,-0.21167 -1.42875,-1.11125 -3.016249,-1.98437 -1.5875,-0.87313 -2.936875,-1.69334 -3.01625,-1.79917 -0.132292,-0.23813 1.137708,-4.25979 1.481666,-4.63021 0.132292,-0.13229 1.42875,0.15875 3.148542,0.74083 1.613958,0.52917 3.122083,0.92605 3.386666,0.84667 0.264584,-0.0794 1.243542,-1.13771 2.169584,-2.32833 0.9525,-1.19063 2.2225,-2.69875 2.8575,-3.33375 0.608541,-0.635 1.11125,-1.34938 1.11125,-1.5875 0,-0.23813 -0.47625,-1.71979 -1.084792,-3.28084 -0.582083,-1.56104 -1.005417,-2.96333 -0.926042,-3.09562 0.15875,-0.26458 3.280834,-2.14313 3.545417,-2.14313 0.105833,0 0.9525,1.0848 1.904999,2.40771 2.38125,3.38667 2.40771,3.38667 5.23875,2.51354 1.27,-0.37041 3.20146,-0.79375 4.28625,-0.92604 2.32833,-0.29104 2.43417,-0.42333 3.01625,-3.01625 0.74083,-3.33375 0.9525,-3.88937 1.40229,-3.88937 0.23813,0 1.48167,0.13229 2.77813,0.29104 z m 39.44938,38.52333 1.79916,0.15875 -0.18521,2.93688 c -0.21166,3.43958 -0.3175,3.25437 2.75167,4.52437 1.11125,0.47625 2.8575,1.34938 3.88938,1.95792 1.00541,0.58208 2.03729,1.08479 2.30187,1.08479 0.23813,0 1.34938,-0.71437 2.43417,-1.5875 1.11125,-0.87312 2.11666,-1.5875 2.24896,-1.5875 0.13229,0 0.92604,0.76729 1.74625,1.71979 1.74625,1.95792 1.74625,1.79917 -0.50271,4.33917 -1.66688,1.87854 -1.66688,2.06375 -0.47625,4.86833 0.55562,1.34938 1.24354,3.06917 1.50812,3.83646 0.58209,1.79917 1.08479,2.09021 3.91584,2.30188 l 2.32833,0.1852 -0.0529,2.46063 -0.0265,2.46062 -2.88395,0.18521 c -1.79917,0.10584 -2.96334,0.3175 -3.14855,0.52917 -0.15875,0.18521 -0.60854,1.32292 -1.03187,2.54 -0.42333,1.21708 -1.00542,2.80458 -1.32292,3.4925 -0.87312,2.03729 -0.79375,2.38125 1.34938,4.57729 l 1.905,1.98438 -1.98438,1.98437 -1.95791,1.95792 -2.19605,-1.85209 c -1.21708,-1.00541 -2.35479,-1.85208 -2.54,-1.85208 -0.1852,0 -0.89958,0.37042 -1.64041,0.82021 -1.74625,1.13771 -4.39209,2.2225 -6.24417,2.61937 -1.50812,0.29105 -2.30187,0.79375 -2.35479,1.4023 0,0.1852 -0.15875,1.50812 -0.3175,2.96333 l -0.3175,2.64583 -1.45521,-0.0794 c -0.79375,-0.0265 -2.2225,-0.1323 -3.14854,-0.21167 l -1.69333,-0.15875 0.15875,-2.77813 c 0.0794,-1.56104 0.0529,-3.01624 -0.0794,-3.25437 -0.13229,-0.23812 -1.32292,-0.89958 -2.64583,-1.42875 -2.59292,-1.08479 -4.97417,-2.54 -6.19125,-3.83646 -1.08479,-1.13771 -1.64042,-1.03187 -4.28625,0.68792 l -2.30187,1.50812 -0.79375,-0.92604 c -0.42334,-0.50271 -1.0848,-1.37583 -1.50813,-1.98437 l -0.74083,-1.05834 2.2225,-1.98437 c 1.24354,-1.05833 2.30187,-2.2225 2.38125,-2.54 0.10583,-0.34396 -0.15875,-1.37583 -0.635,-2.51354 -0.42334,-1.05834 -1.03188,-2.67229 -1.37584,-3.59834 -0.68791,-1.93145 -1.11125,-2.27541 -3.30729,-2.69875 -2.61937,-0.5027 -2.40771,-0.26458 -2.19604,-2.69875 0.0794,-1.21708 0.18521,-2.27541 0.18521,-2.38125 0.0265,-0.0794 1.29646,-0.13229 2.8575,-0.13229 l 2.8575,0.0529 1.77271,-3.38667 c 1.40229,-2.69875 1.74625,-3.57187 1.61396,-4.18041 -0.1323,-0.635 0.10583,-1.11125 1.48166,-2.91042 2.03729,-2.69875 2.11667,-2.98979 1.24354,-4.89479 -0.52916,-1.16417 -0.635,-1.56104 -0.37041,-1.71979 0.21166,-0.1323 0.42333,-0.0265 0.58208,0.23812 0.3175,0.60854 2.27541,3.01625 2.77812,3.41313 0.52917,0.44979 1.74625,0.42333 2.64584,-0.0529 0.74083,-0.37042 3.25437,-1.03188 5.13291,-1.32292 1.32292,-0.21166 1.64042,-0.79375 2.16959,-3.83646 0.21166,-1.37583 0.47625,-2.67229 0.52916,-2.8575 0.13229,-0.37041 0.58209,-0.39687 3.12209,-0.13229 z" />
  </g>
</svg>
