<?xml version="1.0" encoding="UTF-8" standalone="no"?>
<!-- Created with Inkscape (http://www.inkscape.org/) -->

<svg
   width="130mm"
   height="130mm"
   viewBox="0 0 130 130"
   version="1.1"
   id="svg1"
   inkscape:version="1.4.2 (ebf0e940, 2025-05-08)"
   sodipodi:docname="cogs-solid.svg"
   xmlns:inkscape="http://www.inkscape.org/namespaces/inkscape"
   xmlns:sodipodi="http://sodipodi.sourceforge.net/DTD/sodipodi-0.dtd"
   xmlns="http://www.w3.org/2000/svg"
   xmlns:svg="http://www.w3.org/2000/svg">
  <sodipodi:namedview
     id="namedview1"
     pagecolor="#ffffff"
     bordercolor="#000000"
     borderopacity="0.25"
     inkscape:showpageshadow="2"
     inkscape:pageopacity="0.0"
     inkscape:pagecheckerboard="0"
     inkscape:deskcolor="#d1d1d1"
     inkscape:document-units="mm"
     inkscape:zoom="0.78"
     inkscape:cx="98.717949"
     inkscape:cy="270.51282"
     inkscape:window-width="1920"
     inkscape:window-height="1027"
     inkscape:window-x="0"
     inkscape:window-y="25"
     inkscape:window-maximized="1"
     inkscape:current-layer="layer1" />
  <defs
     id="defs1" />
  <g
     inkscape:label="Layer 1"
     inkscape:groupmode="layer"
     id="layer1"
     transform="translate(28.310412,54.768781)">
    <path
       id="path14"
       style="stroke-width:0.0273453"
       d="m 59.794038,26.018225 c -1.449302,0.683634 -3.363476,2.843915 -3.582238,4.074454 -0.574252,3.007987 0.437525,5.222959 2.953295,6.480844 4.320563,2.160281 9.516176,-1.312576 8.887233,-5.933937 -0.492216,-3.636929 -4.97685,-6.152699 -8.25829,-4.621361 z M 59.930765,3.5950539 c -1.312576,0.628943 -1.722756,1.64072 -1.886828,4.676052 l -0.164072,2.5704611 -1.886828,0.628943 -1.859482,0.628942 -1.804792,-1.503993 c -2.0509,-1.6954101 -2.707188,-1.8047921 -4.211181,-0.7930141 -0.546907,0.3828341 -1.175849,0.6836331 -1.394612,0.6836331 -0.437525,0 -4.402598,2.51577 -4.703397,2.980641 -0.191417,0.355489 0.76567,2.160281 2.242317,4.183836 l 0.929742,1.28523 -0.82036,1.312576 c -0.437525,0.710978 -1.066468,1.996209 -1.394613,2.816569 -0.328143,0.820359 -0.628942,1.531339 -0.683632,1.586029 -0.02735,0.05469 -1.339921,0.300799 -2.898606,0.574252 l -2.843914,0.464871 -0.46487,1.367266 c -0.328145,0.957086 -0.464871,2.269663 -0.492216,4.621361 0,4.1018 0.191417,4.511979 2.269662,4.539325 0.793014,0.02735 2.078245,0.109381 2.898605,0.191417 l 1.476648,0.191417 0.464871,1.394612 c 0.273452,0.738324 0.683633,1.777447 0.957086,2.269663 l 0.464871,0.902395 -1.914173,1.832138 c -2.105591,2.023554 -2.925951,3.308785 -2.679843,4.293217 0.218763,0.847705 2.734533,3.390821 4.402599,4.457288 1.859482,1.17585 2.652496,1.093813 4.539324,-0.382834 2.433735,-1.914173 2.625152,-1.968864 4.51198,-1.011778 l 1.613374,0.820361 -0.109381,3.172058 c -0.08204,3.090022 -0.05469,3.172058 0.574252,3.445512 1.175849,0.492216 6.535534,1.640719 7.766074,1.640719 1.64072,0 1.804792,-0.300798 3.117367,-5.387029 0.273454,-1.066469 0.382835,-1.17585 1.722756,-1.613375 l 1.449303,-0.437526 2.160281,2.214972 c 2.597807,2.679843 3.172059,2.81657 5.250303,1.148504 1.503994,-1.203194 5.004196,-4.785432 5.004196,-5.140922 0,-0.191417 -2.406388,-3.992418 -3.117368,-4.867469 -0.191417,-0.246107 1.668066,-3.554893 2.570462,-4.594015 0.08204,-0.109381 0.957086,-0.02735 1.941518,0.218762 2.488425,0.574252 3.636929,0.519562 4.457289,-0.218762 0.902396,-0.793015 1.722756,-3.336131 1.941519,-6.070664 0.300798,-3.718965 -0.218763,-4.320562 -4.293217,-4.812778 l -2.652498,-0.328144 -0.191417,-1.121158 c -0.08204,-0.601597 -0.382834,-1.750102 -0.656288,-2.543116 l -0.46487,-1.421957 2.297007,-2.269663 c 1.421958,-1.394612 2.269663,-2.461079 2.269663,-2.843914 0,-1.148504 -5.031541,-7.492621 -5.933937,-7.492621 -0.246108,0 -1.476648,0.574252 -2.734533,1.257886 l -2.324353,1.257885 -2.570461,-1.285231 -2.597807,-1.312576 0.191418,-2.9259501 c 0.218762,-3.609584 0.191417,-3.664274 -3.582239,-4.867469 -3.007986,-0.984432 -4.758087,-1.093813 -6.152699,-0.382835 z m 5.113577,18.5127891 c 5.44172,1.613375 8.449707,8.641125 5.961282,13.946119 -3.28144,6.891023 -12.168672,7.930146 -16.790033,1.941518 -3.090023,-3.992418 -2.953296,-9.871664 0.328144,-13.23514 2.92595,-3.007986 6.371462,-3.883036 10.500607,-2.652497 z M 18.1471,-12.757453 c -2.898606,0.601597 -6.426153,3.4728569 -7.273858,5.8792459 -0.710979,2.023555 -0.8750505,5.715174 -0.328144,7.54731101 0.546906,1.83213699 2.297008,4.21118099 4.074454,5.52375699 4.894814,3.636929 11.785838,1.64072 14.903205,-4.320562 0.656288,-1.23053999 0.738324,-1.66806499 0.738324,-4.375253 0,-2.734533 -0.05469,-3.144713 -0.765669,-4.566671 C 27.335131,-11.472223 22.795806,-13.741885 18.1471,-12.757453 Z m -0.191417,-26.087446 c -3.226749,0.683634 -3.500203,0.984432 -3.801002,4.019764 -0.273453,2.898605 -0.46487,3.500203 -1.093813,3.746311 -0.328144,0.136726 -1.914173,0.628942 -3.5275475,1.121158 l -2.953295,0.902396 -2.105591,-2.105591 c -2.734533,-2.734533 -3.062676,-2.734533 -5.824555,-0.355489 -2.652497,2.269663 -5.578447,5.332339 -5.824555,6.098009 -0.218763,0.710978 0.246108,1.69541 1.914172,4.129145 0.656289,0.957086 1.203195,1.832137 1.203195,1.968864 0,0.136726 -0.492215,1.066467 -1.066468,2.023554 -0.601597,0.957087 -1.339921,2.269662 -1.668065,2.898605 l -0.574252,1.121158 -3.3908205,-0.191417 c -3.28144,-0.164072 -3.363476,-0.164072 -3.691621,0.410181 -0.410179,0.793014 -1.28523,5.3596839 -1.503992,7.9574909 -0.300799,3.472857 0.300798,4.12914401 4.429943,4.73074201 l 2.4063905,0.328144 0.46487,2.59780599 c 0.246108,1.421957 0.519561,3.144713 0.628943,3.828346 l 0.191417,1.23054 -1.312576,0.683633 c -2.2423175,1.17585 -3.9377285,2.6524971 -3.9377285,3.4455121 0,1.23054 2.597807,6.180044 4.1017995,7.84811 2.132936,2.324353 2.40639,2.351698 6.015973,0.546907 l 3.03533297,-1.531339 1.28523003,1.093813 c 0.710979,0.601597 1.996209,1.558684 2.871259,2.10559 0.847705,0.546907 1.558685,1.148505 1.558685,1.339922 0,0.191417 -0.382835,1.449303 -0.820361,2.816569 -1.613374,4.703397 -1.339921,5.004195 6.6722605,7.055095 3.883037,1.011778 4.785433,0.41018 5.79721,-3.883037 l 0.519562,-2.160281 2.980641,-0.191417 c 3.582238,-0.246108 3.308784,-0.41018 5.222958,3.445511 1.558683,3.199404 1.722755,3.28144 4.621361,2.679843 2.050899,-0.41018 2.242316,-0.738324 2.461079,-3.965073 0.109382,-1.503993 0.35549,-3.035332 0.519562,-3.390821 0.218762,-0.41018 1.421957,-1.203194 3.33613,-2.187626 L 40.1054,21.83439 40.18744,19.482692 c 0.05469,-1.941519 -0.05469,-2.734533 -0.628942,-4.429944 -0.382835,-1.148504 -0.683634,-2.242317 -0.683634,-2.488425 0,-0.546907 3.007986,-2.46108 6.644916,-4.2385261 3.28144,-1.58603 3.144713,-1.394612 3.883037,-5.058886 0.273453,-1.312576 0.656287,-2.57046099 0.847705,-2.73453299 0.164072,-0.191418 1.558683,-0.601598 3.090022,-0.957087 3.500202,-0.76566901 3.855692,-1.14850401 3.855692,-3.99241801 0,-2.269663 -0.683634,-6.1526989 -1.257886,-7.3012029 -0.656287,-1.285231 -2.023554,-1.476648 -5.168267,-0.793015 -1.476648,0.328144 -2.707188,0.546907 -2.761878,0.492216 -0.05469,-0.0547 -0.847705,-1.558684 -1.722756,-3.363476 -1.503993,-2.953296 -1.613375,-3.308785 -1.257885,-3.801001 0.218762,-0.300799 1.121158,-1.503993 2.050899,-2.679843 0.902396,-1.175848 1.64072,-2.433734 1.64072,-2.761877 0,-2.050901 -6.836333,-8.641125 -8.996613,-8.641125 -0.656288,0 -1.257886,0.437525 -3.226749,2.461079 l -2.433735,2.488425 -1.066468,-0.46487 c -0.601597,-0.273453 -2.187627,-0.793015 -3.554893,-1.203194 l -2.46108,-0.710979 -0.136726,-3.445512 c -0.164072,-3.801 -0.300799,-4.15649 -1.886828,-4.594015 -0.957087,-0.246108 -5.879246,-0.328144 -7.000404,-0.109382 z m 5.414375,21.055905 c 6.453498,1.476648 11.266276,6.699606 12.41478,13.4812479 0.546907,3.172059 0.109381,5.879246 -1.421957,8.969268 C 29.79621,13.931589 16.068855,15.873108 8.5215445,8.3257969 2.5055715,2.3098239 2.6969885,-7.2610421 8.9043785,-13.468432 12.76007,-17.296778 18.229136,-18.937498 23.370058,-17.788994 Z" />
  </g>
</svg>
