<?xml version="1.0" encoding="UTF-8" standalone="no"?>
<!-- Created with Inkscape (http://www.inkscape.org/) -->

<svg
   width="124mm"
   height="124mm"
   viewBox="0 0 124 124"
   version="1.1"
   id="svg1"
   inkscape:version="1.4.2 (ebf0e940, 2025-05-08)"
   sodipodi:docname="gothic-key.svg"
   xmlns:inkscape="http://www.inkscape.org/namespaces/inkscape"
   xmlns:sodipodi="http://sodipodi.sourceforge.net/DTD/sodipodi-0.dtd"
   xmlns="http://www.w3.org/2000/svg"
   xmlns:svg="http://www.w3.org/2000/svg">
  <sodipodi:namedview
     id="namedview1"
     pagecolor="#ffffff"
     bordercolor="#000000"
     borderopacity="0.25"
     inkscape:showpageshadow="2"
     inkscape:pageopacity="0.0"
     inkscape:pagecheckerboard="0"
     inkscape:deskcolor="#d1d1d1"
     inkscape:document-units="mm"
     inkscape:zoom="0.60797751"
     inkscape:cx="172.70376"
     inkscape:cy="320.73555"
     inkscape:window-width="1920"
     inkscape:window-height="979"
     inkscape:window-x="0"
     inkscape:window-y="25"
     inkscape:window-maximized="0"
     inkscape:current-layer="layer1" />
  <defs
     id="defs1" />
  <g
     inkscape:label="Layer 1"
     inkscape:groupmode="layer"
     id="layer1">
    <path
       id="path4"
       style="stroke-width:0.0332652"
       d="m 65.748732,17.669917 c -6.42017,3.526105 -12.773808,12.008712 -15.135633,20.258465 -0.399181,1.463663 -0.798363,3.958546 -0.898158,5.987723 -0.166326,3.393041 -0.166326,3.559362 0.632038,4.490795 0.798363,0.898157 1.031219,0.997946 3.95855,1.164277 3.526102,0.199587 4.390996,0.565505 5.189358,2.095699 0.997955,1.929379 0.665303,3.892024 -1.264074,7.484651 -2.395089,4.490795 -14.304004,24.250278 -21.589066,35.82654 -9.314235,14.802983 -9.314235,14.802983 -9.314235,16.000523 0,1.49693 0.964689,2.46163 5.954458,5.9212 5.754867,4.02508 6.320374,4.05835 8.781993,0.86489 1.829582,-2.32856 1.097749,-2.42836 6.61976,0.89816 3.725693,2.22876 5.388949,2.761 6.287107,2.02917 0.765099,-0.63203 8.316282,-11.24361 8.715464,-12.27484 0.598773,-1.56345 -0.199591,-2.69447 -3.925284,-5.522 -1.896114,-1.4304 -3.69243,-2.761 -4.058346,-2.960601 -0.565508,-0.365918 -0.565508,-0.43244 0.06652,-1.66325 0.365917,-0.69857 1.064485,-1.82959 1.596727,-2.52815 l 0.931423,-1.297341 18.029697,0.199587 c 19.99234,0.232863 19.593159,0.26612 19.792749,-1.796314 0.06653,-0.69857 -0.09979,-1.330607 -0.465711,-1.729782 -0.532241,-0.598771 -1.264074,-0.632037 -17.830107,-0.632037 -9.480561,0 -17.231335,-0.06657 -17.231335,-0.133065 0,-0.166331 3.193452,-4.79018 4.324467,-6.253842 1.131013,-1.496928 3.492837,-2.029177 7.517918,-1.763058 3.925284,0.26613 5.18936,-0.03334 7.351592,-1.629993 3.625899,-2.727737 3.559369,-4.524051 -0.498976,-15.800927 -3.259983,-9.014846 -3.492838,-10.212388 -2.39509,-12.308098 1.03122,-2.029177 2.428355,-3.027122 4.257937,-3.027122 5.555275,-0.03334 6.486698,-1.496939 5.189359,-8.316286 C 84.61005,32.140247 78.489268,22.892538 71.304,18.501542 68.676056,16.904825 67.478511,16.738494 65.748725,17.669917 Z m 3.592632,5.655071 c 2.062439,1.064488 6.885882,6.054255 8.515872,8.848525 2.295295,3.892013 4.823444,11.077289 4.224672,12.041978 -0.0998,0.166321 -0.864893,0.365908 -1.729786,0.498973 -4.856709,0.665304 -8.449342,4.424262 -8.715464,9.181176 -0.09979,2.029178 0.06653,2.694471 3.060392,11.07728 1.763052,4.889978 3.193453,9.280975 3.193453,9.746681 0,2.395095 -1.862848,3.326519 -5.688338,2.79428 -4.02508,-0.565515 -7.085471,0.232853 -10.179127,2.561406 -0.565508,0.43246 -2.494886,3.160187 -4.291201,6.020989 -1.763052,2.860802 -4.557323,7.285074 -6.22058,9.813214 -3.326511,5.15609 -3.825488,6.61977 -2.594679,7.85057 0.731833,0.73183 3.126922,0.99795 3.526103,0.36592 0.199591,-0.29939 4.756914,2.62794 5.555276,3.55937 0.299386,0.39918 -3.459573,6.51996 -4.623851,7.48465 -0.332652,0.26612 -1.23081,-0.0998 -3.858756,-1.72978 -4.856708,-3.02713 -5.588541,-3.39305 -6.553229,-3.16019 -0.964688,0.26612 -2.295294,1.46366 -3.526103,3.19345 l -0.831628,1.2308 -2.993861,-1.9959 c -3.259982,-2.22876 -3.259982,-2.22876 -1.862848,-4.59059 0.399183,-0.63204 5.289156,-8.515873 10.877696,-17.464187 11.609528,-18.56194 18.062963,-29.3731 19.260507,-32.267178 1.729787,-4.191399 0.931424,-8.648927 -2.029172,-11.310132 -1.663256,-1.530195 -3.060392,-2.128976 -5.588541,-2.395085 -1.962642,-0.199597 -1.995908,-0.199597 -1.995908,-1.197553 0,-1.463672 0.931424,-4.956501 2.029174,-7.58445 1.862846,-4.590583 5.887926,-9.746681 9.447295,-12.141767 1.962642,-1.330607 1.829582,-1.330607 3.592632,-0.43245 z M 65.316285,3.9314233 C 62.355689,5.494884 57.765102,8.9211909 54.571649,11.915047 46.421694,19.566029 41.398661,29.179646 39.801935,40.190413 c -0.432448,2.993856 -0.532242,6.453429 -0.432448,20.591107 0.0998,16.166846 0.133061,17.031746 0.731833,17.69705 0.798364,0.864891 2.561415,0.931423 3.293248,0.09979 0.465712,-0.498973 0.532241,-2.727738 0.665302,-18.196023 0.133061,-16.566029 0.166326,-17.830104 0.864894,-20.857227 1.4304,-6.553228 4.690382,-13.904824 8.083424,-18.428885 3.326513,-4.45752 10.046069,-10.478509 13.771762,-12.3746213 l 1.397135,-0.6985698 2.029173,1.2308088 c 8.815258,5.3224193 16.200116,14.3705313 19.327038,23.6847723 2.128968,6.353641 2.095702,5.921181 2.228763,28.607998 0.06653,11.443207 0.166326,21.123356 0.26612,21.555806 0.432447,1.82958 2.794272,2.727737 3.925285,1.463662 0.864895,-0.964689 0.997955,-41.514866 0.133061,-45.806074 C 93.891027,27.74925 90.265129,20.597241 83.113126,13.345453 77.957032,8.1228324 70.638705,3.0000002 68.276881,3.0000002 c -0.665302,0 -1.962643,0.3991743 -2.960596,0.9314231 z" />
  </g>
</svg>
