<?xml version="1.0" encoding="UTF-8" standalone="no"?>
<!-- Created with Inkscape (http://www.inkscape.org/) -->

<svg
   width="130mm"
   height="130mm"
   viewBox="0 0 130 130"
   version="1.1"
   id="svg1"
   inkscape:version="1.4.2 (ebf0e940, 2025-05-08)"
   sodipodi:docname="home-solid.svg"
   xmlns:inkscape="http://www.inkscape.org/namespaces/inkscape"
   xmlns:sodipodi="http://sodipodi.sourceforge.net/DTD/sodipodi-0.dtd"
   xmlns="http://www.w3.org/2000/svg"
   xmlns:svg="http://www.w3.org/2000/svg">
  <sodipodi:namedview
     id="namedview1"
     pagecolor="#ffffff"
     bordercolor="#000000"
     borderopacity="0.25"
     inkscape:showpageshadow="2"
     inkscape:pageopacity="0.0"
     inkscape:pagecheckerboard="0"
     inkscape:deskcolor="#d1d1d1"
     inkscape:document-units="mm"
     inkscape:zoom="0.78"
     inkscape:cx="103.84615"
     inkscape:cy="378.20513"
     inkscape:window-width="1920"
     inkscape:window-height="1027"
     inkscape:window-x="0"
     inkscape:window-y="25"
     inkscape:window-maximized="1"
     inkscape:current-layer="layer1" />
  <defs
     id="defs1" />
  <g
     inkscape:label="Layer 1"
     inkscape:groupmode="layer"
     id="layer1"
     transform="translate(28.310412,54.768781)">
    <path
       id="path1"
       style="stroke-width:0.0264519"
       d="m 29.623154,-48.237391 c -0.07935,0.211616 -0.581942,2.036798 -1.11098,4.073597 -3.041973,11.162715 -6.930406,20.711861 -11.294975,27.642267 -2.036798,3.253587 -5.713617,8.5439734 -6.798146,9.7872144 l -0.7935571,0.925818 -1.428405,-1.454857 c -2.06325,-2.116154 -2.486481,-3.4122994 -2.06325,-6.1897514 0.846462,-5.34329 0.661298,-7.565252 -0.581943,-7.565252 -1.851635,0 -3.888434,4.576184 -3.888434,8.755589 0,3.4122994 0.714203,5.1581264 3.068424,7.6181554 l 1.957443,2.063251 -1.904539,1.82518307 C 3.7267149,0.24899677 1.6899169,2.0741801 0.28796391,3.2645169 -1.1404401,4.4813057 -2.3043251,5.6451904 -2.3043251,5.8303543 c 0,1.2432402 2.59228901,1.8516347 6.798146,1.6400194 l 2.962616,-0.1587118 0.529038,0.8464618 c 1.534213,2.4864823 4.3381171,11.0304553 5.2903871,16.2414843 1.454856,7.618156 2.142606,17.326015 1.666471,23.145439 -0.317423,3.83553 -0.793558,6.824598 -1.084529,6.824598 -0.07936,-0.02645 -0.952269,-1.216789 -1.957443,-2.645193 -1.825183,-2.698097 -2.7245481,-3.465203 -4.1529531,-3.491655 -2.354221,-0.07935 -2.089702,1.534212 1.058078,6.798146 1.058077,1.745828 2.3806731,4.549733 2.3806731,5.025867 0,0.07936 -0.185163,0.13226 -0.423231,0.13226 -0.502586,0 -1.5871151,-0.714202 -3.5445581,-2.380674 -2.354222,-2.010347 -3.491655,-2.32777 -4.496828,-1.322597 -0.872914,0.872914 -0.634847,1.507761 1.243241,3.465204 0.952269,1.005173 1.666471,1.904539 1.560663,2.036798 -0.105807,0.105808 -1.640019,0.899365 -3.412299,1.772279 -3.14778,1.560664 -3.227135,1.613568 -3.306491,2.539386 -0.05291,0.661298 0.07936,1.058077 0.47613501,1.4284 0.529038,0.502588 0.608394,0.502588 2.72454799,0.02647 14.7072741,-3.147778 17.9344091,-3.59746 27.5629121,-3.782624 11.824013,-0.211616 18.966033,0.555491 31.874575,3.491654 3.518107,0.793558 6.612983,1.454853 6.877502,1.454853 0.68775,0 1.851635,-1.481305 1.851635,-2.38067 0,-1.587116 -0.158711,-1.719376 -4.629087,-3.597462 -1.454857,-0.608395 -2.618742,-1.216789 -2.59229,-1.322597 0.687751,-3.729722 2.962617,-13.543388 3.544559,-15.315668 0.846462,-2.539385 1.904539,-4.311664 2.803904,-4.761347 0.343876,-0.185164 1.349049,-0.211616 2.777453,-0.105807 2.486482,0.238067 3.465203,-0.05291 3.597462,-1.031626 0.07936,-0.476135 -0.449682,-1.137433 -2.460029,-3.01552 -1.375501,-1.322598 -3.068424,-3.121329 -3.729722,-4.020694 -2.539385,-3.385847 -4.549732,-8.596878 -4.999415,-13.120157 -0.343875,-3.068425 -0.846461,-3.094876 -4.946511,-0.290972 -3.597462,2.433578 -5.290385,3.465203 -5.76652,3.465203 -0.476135,0 -0.185164,-2.909712 0.608394,-5.951684 0.68775,-2.645193 2.751001,-7.6446079 4.020693,-9.760762 l 0.793558,-1.3490486 h 3.041972 c 4.285213,0 5.978136,-0.714202 5.766521,-2.4335769 C 67.952005,3.317436 67.475866,2.8942048 65.121644,1.3335409 59.963518,-2.078773 56.392508,-5.1207446 54.382161,-7.8717456 l -0.95227,-1.269693 0.158712,-2.8039044 c 0.07936,-1.534212 0.238067,-2.883261 0.370327,-3.01552 0.13226,-0.13226 1.058077,-0.05291 2.19551,0.185163 2.248414,0.449683 4.047145,0.238068 4.179405,-0.476135 0.05291,-0.238067 -0.317423,-1.005173 -0.82001,-1.719375 -1.772279,-2.486481 -2.909712,-5.158126 -4.549731,-10.924647 -1.058078,-3.597463 -2.089703,-6.03104 -2.671646,-6.269108 -0.581942,-0.211615 -1.296144,0.555491 -3.068424,3.465204 -2.089702,3.412298 -5.131674,7.935579 -5.660712,8.385261 -0.502587,0.396779 -0.502587,0.396779 -3.518107,-4.65554 -2.909712,-4.840702 -4.867156,-8.9143 -7.697512,-15.871158 -2.19551,-5.369741 -2.539385,-6.083943 -2.724549,-5.396193 z m 3.756174,28.991315 c 5.396194,7.962031 10.871744,14.0459754 17.087947,18.99248617 1.613568,1.26969283 2.909713,2.43357753 2.909713,2.61874143 0,0.1587111 -0.502587,0.4496826 -1.08453,0.6612979 C 51.260834,3.3967766 51.128574,3.3703245 49.779525,2.7090266 46.102707,0.88384327 37.638089,-7.6336786 32.506414,-14.64344 c -0.97872,-1.349049 -1.084528,-1.401952 -1.428404,-0.925817 -0.185163,0.264518 -1.349048,2.010346 -2.565836,3.861981 C 25.31149,-6.8665726 22.16371,-2.7400712 19.492065,0.11673707 16.212026,3.5819397 14.62491,4.5342092 13.408121,3.7141995 L 12.746823,3.2909689 15.603632,0.30190097 C 20.920469,-5.2001006 26.1315,-12.527286 29.120568,-18.690585 30.09929,-20.67448 30.972203,-22.3145 31.07801,-22.3145 c 0.105808,-0.02645 1.137434,1.3755 2.301318,3.068424 z m -2.142606,19.17764967 0.05291,5.23748203 H 29.464446 27.665715 L 27.4541,0.16964117 c -0.105809,-2.75100077 -0.105809,-5.15812677 0,-5.31683777 0.105807,-0.185164 0.846461,-0.26452 1.93099,-0.211616 l 1.77228,0.07936 z m 4.761347,-4.52328027 c 1.137434,0.396779 1.375501,1.4019526 1.375501,5.8194249 v 3.6239145 l -0.714202,0.1322597 c -0.423231,0.079356 -1.296145,0.079356 -1.957443,0 -1.24324,-0.1587118 -1.24324,-0.1587118 -1.401952,-1.3490486 -0.211616,-1.5342117 -0.211616,-6.6129825 0,-7.6975115 0.158712,-0.714202 0.290971,-0.82001 1.031625,-0.82001 0.449683,0 1.216789,0.13226 1.666471,0.290971 z m 0.661299,12.0620803 1.031625,0.1587118 -0.105808,3.2535875 c -0.05291,2.010346 -0.185163,3.359395 -0.396778,3.57101 -0.211616,0.211615 -0.846462,0.238068 -2.010348,0.13226 -1.454856,-0.158712 -1.745827,-0.290972 -1.878086,-0.767106 -0.211616,-0.793558 -0.211616,-6.136848 0.02645,-6.3484633 0.211616,-0.2380674 2.010347,-0.2380674 3.332943,0 z m -5.422646,3.4387503 -0.07936,3.385847 -1.745828,0.07936 -1.772279,0.07935 -0.158712,-1.401952 c -0.185162,-1.507758 -0.15871,-4.9729609 0.02645,-5.3168359 0.05291,-0.1058076 0.95227,-0.1851639 1.957443,-0.1851639 h 1.851635 z m 5.078771,18.251832 c 3.518107,3.96779 4.629087,9.602051 4.443924,22.960275 l -0.07935,5.554906 -1.507761,0.07935 -1.534212,0.07936 -0.02645,-1.534212 c -0.07936,-8.014933 -0.502594,-15.738897 -1.00518,-17.855052 -0.899366,-3.914885 -3.094876,-8.411714 -4.10005,-8.411714 -0.608393,0 -1.798731,1.401953 -2.565836,3.041972 -1.428404,3.094876 -1.613568,4.681992 -1.745828,15.077601 -0.07936,6.824598 -0.211615,9.575598 -0.423231,9.707858 -0.185164,0.105808 -0.740654,0.211615 -1.269693,0.211615 -0.872913,0 -0.978721,-0.07935 -1.137432,-0.82001 -0.343875,-1.798731 -0.158712,-16.955687 0.238067,-19.283457 0.978722,-5.634261 2.88326,-9.205271 5.925233,-11.136262 l 1.163884,-0.740654 1.110982,0.767106 c 0.634845,0.423231 1.745827,1.481308 2.512933,2.301318 z m 22.008006,12.644022 c 0.317423,0.13226 0.29097,0.502587 -0.185164,2.32777 l -0.555491,2.169058 -1.692923,-0.07935 c -0.925817,-0.02645 -1.719376,-0.105808 -1.772279,-0.158712 -0.05291,-0.0529 0.158711,-1.137433 0.476134,-2.407126 l 0.581943,-2.301318 1.401952,0.158712 c 0.767106,0.07936 1.560664,0.211616 1.745828,0.290971 z m -1.401953,7.327185 c 0,0.476135 -0.158711,1.454856 -0.317423,2.19551 l -0.317423,1.322596 -1.560664,0.07936 -1.560664,0.07935 0.185164,-1.851635 C 53.588603,48.2857 53.588603,48.2857 55.387334,48.2857 h 1.560664 z" />
  </g>
</svg>
