<?xml version="1.0" encoding="UTF-8" standalone="no"?>
<!-- Created with Inkscape (http://www.inkscape.org/) -->

<svg
   width="124mm"
   height="124mm"
   viewBox="0 0 124 124"
   version="1.1"
   id="svg1"
   sodipodi:docname="home.svg"
   inkscape:version="1.4.2 (ebf0e940, 2025-05-08)"
   xmlns:inkscape="http://www.inkscape.org/namespaces/inkscape"
   xmlns:sodipodi="http://sodipodi.sourceforge.net/DTD/sodipodi-0.dtd"
   xmlns="http://www.w3.org/2000/svg"
   xmlns:svg="http://www.w3.org/2000/svg">
  <sodipodi:namedview
     id="namedview1"
     pagecolor="#ffffff"
     bordercolor="#000000"
     borderopacity="0.25"
     inkscape:showpageshadow="2"
     inkscape:pageopacity="0.0"
     inkscape:pagecheckerboard="0"
     inkscape:deskcolor="#d1d1d1"
     inkscape:document-units="mm"
     inkscape:zoom="0.60950898"
     inkscape:cx="316.64833"
     inkscape:cy="178.83247"
     inkscape:window-width="1920"
     inkscape:window-height="1027"
     inkscape:window-x="0"
     inkscape:window-y="25"
     inkscape:window-maximized="0"
     inkscape:current-layer="layer1" />
  <defs
     id="defs1" />
  <g
     inkscape:label="Layer 1"
     inkscape:groupmode="layer"
     id="layer1"
     transform="translate(-78.581256,-514.87915)">
    <path
       id="path4"
       style="stroke-width:0.0337399"
       d="m 130.23048,582.19901 c -3.47521,0.20243 -3.71138,0.23618 -4.4874,1.14715 -0.74228,0.87724 -0.80975,1.24838 -0.80975,4.38619 0.0337,5.70204 0.87723,13.39473 1.6195,14.40693 0.74228,0.97845 1.72074,1.14715 8.77237,1.48456 l 4.48741,0.23617 1.04593,-1.04593 c 1.0122,-1.04595 1.0122,-1.04595 0.80976,-3.81262 -0.10122,-1.51829 -0.26992,-5.63455 -0.40488,-9.1435 -0.30366,-8.80611 0.47236,-8.26627 -11.03294,-7.65895 z m 6.1744,10.76302 v 5.63456 l -2.83415,-0.10123 -2.80041,-0.10121 -0.23618,-1.58577 c -0.10122,-0.87725 -0.30366,-3.37399 -0.43861,-5.53334 l -0.20245,-3.94757 3.00285,-0.10121 c 1.65325,-0.0676 3.10407,-0.0676 3.27278,0 0.13495,0.0675 0.23617,2.6317 0.23617,5.73577 z m 21.76222,-19.46791 c -5.36464,0.97845 -7.96262,1.72073 -8.40123,2.42927 -0.47236,0.74228 -1.18089,7.35529 -1.31585,12.1801 -0.0337,2.12561 0.0337,2.36178 0.87723,3.10406 0.60732,0.5061 1.38334,0.80976 2.09187,0.80976 0.60732,0 2.96911,0.23619 5.22968,0.53984 6.57928,0.84349 6.95042,0.53984 6.81546,-5.73578 -0.13496,-8.70489 -0.43862,-11.674 -1.21464,-12.55123 -0.87723,-0.97846 -1.88942,-1.1809 -4.08252,-0.77602 z m 0.1687,9.75083 v 4.35244 l -1.24838,-0.1687 c -0.70853,-0.10122 -1.78821,-0.23618 -2.39553,-0.33741 l -1.14715,-0.16868 0.23618,-3.61018 c 0.13496,-1.99066 0.30365,-3.67764 0.40487,-3.77887 0.23619,-0.23617 3.61017,-0.91097 3.91383,-0.77601 0.13496,0.0676 0.23618,2.09188 0.23618,4.48741 z m -26.11467,-30.53459 c -6.07318,0.67478 -6.78171,0.84349 -7.35529,1.51829 -0.80976,1.0122 -0.77602,2.42927 0.23618,9.987 1.21464,8.97481 1.11342,8.83985 6.81545,8.30001 2.19309,-0.23618 5.36464,-0.50609 7.01791,-0.60732 4.92601,-0.37113 4.99349,-0.50609 4.18374,-9.41342 -0.33741,-3.71139 -0.60732,-7.18659 -0.64107,-7.69269 0,-1.21464 -1.65324,-2.93537 -2.76667,-2.90164 -0.43862,0.0337 -3.8126,0.37114 -7.49025,0.80977 z m 5.80327,9.17724 c 0.20243,2.53049 0.33739,4.65611 0.26991,4.75732 -0.0675,0.0676 -1.75447,0.26992 -3.74513,0.47236 -2.86788,0.26992 -3.67764,0.26992 -3.88008,-0.0675 -0.20244,-0.33739 -1.18089,-7.35529 -1.18089,-8.60367 0,-0.26991 4.45365,-0.97846 7.28781,-1.14716 l 0.84349,-0.0337 z m 22.87563,-43.62567 c -2.93537,1.11343 -4.55488,3.71139 -4.58862,7.38904 0,2.12561 0.10122,2.39553 0.97846,3.30651 1.18089,1.18089 2.29431,1.24838 3.57642,0.23618 0.87723,-0.6748 0.91098,-0.80976 0.6748,-2.76667 -0.20244,-1.92318 -0.13495,-2.12561 0.64106,-2.8679 2.39553,-2.26057 5.83699,1.48456 4.95976,5.39839 -0.74228,3.34024 -2.09187,3.98131 -8.40124,3.98131 -2.46301,0.0337 -4.79105,0.20243 -5.1622,0.37113 -1.21463,0.6748 -1.55203,2.0244 -1.82194,7.32156 -0.13497,2.83415 -0.37115,5.1622 -0.53984,5.1622 -0.40489,0 -7.05164,-7.524 -10.15571,-11.53904 -1.55203,-1.95692 -3.77887,-5.19595 -4.9935,-7.1866 -4.79106,-7.7939 -4.72358,-7.76017 -6.27561,-7.86139 -1.78822,-0.13495 -2.49676,0.6748 -3.34026,3.88009 -3.50894,13.22603 -12.11262,28.1728 -21.8297,37.95736 -3.71138,3.71139 -4.04878,4.58863 -2.42927,6.24188 1.07968,1.07967 2.5305,0.87723 4.08253,-0.64106 l 1.07967,-1.04594 0.37114,0.94473 c 7.15286,18.79311 10.76303,45.41387 8.90733,65.35414 -0.20244,2.09187 -0.1687,2.29432 0.64106,3.10407 l 0.87723,0.87723 h 24.59637 c 23.78662,0 24.66386,-0.0337 25.40614,-0.64105 0.77601,-0.64106 0.80976,-0.77602 0.70854,-5.29716 -0.20244,-9.44717 0.87723,-25.94597 2.66545,-40.28542 0.97845,-7.89512 3.10406,-21.49231 3.44146,-21.79596 0.0675,-0.10121 0.53984,0 1.04595,0.20244 1.51828,0.57358 2.463,0.40487 3.20528,-0.53984 1.5183,-1.92318 0.40487,-3.77887 -2.76667,-4.68985 -1.85569,-0.5061 -8.46872,-3.67765 -9.81831,-4.72358 -0.60732,-0.47236 -0.64106,-0.74228 -0.13496,-10.69554 0.37115,-7.42278 0.64106,-10.22318 0.94472,-10.32441 1.04593,-0.37113 2.80042,-2.36178 3.77887,-4.35244 2.59797,-5.26342 1.04593,-11.03293 -3.64392,-13.79961 -1.82194,-1.07967 -4.79105,-1.38333 -6.68049,-0.6748 z m -23.44921,19.67036 c 8.9748,11.43782 19.26547,20.44636 30.09597,26.38458 1.41708,0.80976 2.59797,1.55204 2.59797,1.65325 0,0.13497 -0.37114,2.22684 -0.8435,4.68985 -2.83415,15.21668 -4.79107,34.58337 -5.12845,50.44112 l -0.20245,9.68334 -2.49675,0.10122 c -1.38334,0.0676 -2.56423,0.0337 -2.63171,-0.0675 -0.0337,-0.10123 0.0337,-2.59798 0.20243,-5.56709 0.13496,-2.9691 0.37115,-8.06383 0.5061,-11.37034 l 0.23618,-5.93822 -0.87723,-0.87723 -0.87723,-0.87724 h -6.44433 c -6.37683,0 -6.44431,0 -7.25407,0.84349 -0.47236,0.43862 -0.84349,1.04594 -0.84349,1.31587 0,0.60732 -1.92318,18.75936 -2.22684,21.12116 l -0.20244,1.51829 -9.58212,0.0675 c -5.26342,0.0337 -9.61586,-0.0337 -9.68335,-0.1687 -0.0675,-0.13496 0,-2.90164 0.13496,-6.14065 0.80976,-17.40979 -2.05813,-36.97892 -8.33375,-56.37935 l -2.26057,-6.95042 3.13781,-4.01503 c 6.3431,-8.09758 10.3244,-15.08173 14.17074,-24.83256 l 1.78822,-4.62236 2.59797,3.84635 c 1.45082,2.09187 3.40773,4.85854 4.41993,6.14066 z m 24.46141,2.19309 c -0.10122,1.1809 -0.26992,4.55489 -0.40488,7.52399 -0.13496,2.9691 -0.30366,5.6683 -0.43862,5.97196 -0.1687,0.47236 -0.57357,0.30366 -2.53049,-1.1809 l -2.2943,-1.75447 0.20243,-4.38618 c 0.13495,-2.42927 0.30365,-5.26342 0.43861,-6.3431 l 0.20244,-1.92318 h 2.49676 2.53048 z m -7.42278,74.39643 c -0.10122,1.82196 -0.26991,5.26342 -0.37113,7.69268 -0.10123,2.39554 -0.26992,5.39839 -0.37114,6.64678 l -0.20244,2.2943 h -3.71139 -3.71139 l 0.20244,-1.28212 c 0.20244,-1.31584 1.88944,-17.57847 1.88944,-18.21953 0,-0.26992 1.01219,-0.40487 3.23903,-0.40487 h 3.23902 z" />
  </g>
</svg>
