<?xml version="1.0" encoding="UTF-8" standalone="no"?>
<!-- Created with Inkscape (http://www.inkscape.org/) -->

<svg
   width="130mm"
   height="130mm"
   viewBox="0 0 130 130"
   version="1.1"
   id="svg1"
   inkscape:version="1.4.2 (ebf0e940, 2025-05-08)"
   sodipodi:docname="magnifying-glass-solid.svg"
   xmlns:inkscape="http://www.inkscape.org/namespaces/inkscape"
   xmlns:sodipodi="http://sodipodi.sourceforge.net/DTD/sodipodi-0.dtd"
   xmlns="http://www.w3.org/2000/svg"
   xmlns:svg="http://www.w3.org/2000/svg">
  <sodipodi:namedview
     id="namedview1"
     pagecolor="#ffffff"
     bordercolor="#000000"
     borderopacity="0.25"
     inkscape:showpageshadow="2"
     inkscape:pageopacity="0.0"
     inkscape:pagecheckerboard="0"
     inkscape:deskcolor="#d1d1d1"
     inkscape:document-units="mm"
     inkscape:zoom="0.78"
     inkscape:cx="98.717949"
     inkscape:cy="270.51282"
     inkscape:window-width="1920"
     inkscape:window-height="1027"
     inkscape:window-x="0"
     inkscape:window-y="25"
     inkscape:window-maximized="1"
     inkscape:current-layer="layer1" />
  <defs
     id="defs1" />
  <g
     inkscape:label="Layer 1"
     inkscape:groupmode="layer"
     id="layer1"
     transform="translate(28.310412,54.768781)">
    <path
       id="path10"
       style="stroke-width:0.0268952"
       d="m 19.289663,-22.905379 c -2.393674,0.457218 -4.625977,1.183389 -6.831385,2.205407 -2.097827,0.968228 -7.3423942,6.159004 -8.9023162,8.821631 -2.124722,3.6039594 -2.98536897,7.2617084 -2.097827,8.9830024 0.67238,1.290971 5.056301,5.890052 7.019651,7.369289 4.3301302,3.254321 11.0270392,5.5673096 16.1102352,5.5673096 2.097827,0 8.391307,-0.9951226 10.273972,-1.6137126 5.325253,-1.775084 10.408449,-5.405938 13.555189,-9.682277 2.931579,-3.980493 3.092949,-5.271463 1.075808,-8.579574 -3.281216,-5.4328344 -7.53066,-9.3864314 -12.210428,-11.4573624 -4.007387,-1.775085 -12.882808,-2.555046 -17.992899,-1.613713 z m -0.457218,8.068564 c 0,0.08069 -0.672381,0.887543 -1.506133,1.775084 -2.232303,2.447465 -2.662626,3.5501694 -2.662626,6.9658614 0,3.361903 0.699276,5.11009196 2.823998,7.100337 3.469483,3.227426 7.934088,3.899806 12.694542,1.909561 2.931578,-1.23718 4.4915,-2.58194104 5.6211,-4.841139 1.559922,-3.14674 1.398551,-5.836262 -0.591695,-10.0588104 -0.5648,-1.23718 -1.048914,-2.286094 -1.048914,-2.36678 0,-0.188267 3.388798,1.613713 5.190777,2.770207 2.205408,1.425447 3.926702,2.9853704 5.190776,4.7335594 l 0.968229,1.29097 -0.753066,1.29097 C 41.263054,1.7037434 34.135822,4.8773794 24.883868,4.5815314 20.096519,4.4201604 17.541474,3.8015704 13.318925,1.7306384 10.252871,0.22450636 8.8812138,-0.87819664 7.1061308,-3.1642906 l -1.23718,-1.613713 0.77996,-0.995123 c 1.613713,-2.124722 4.5990832,-5.0294054 6.5086432,-6.3203764 3.119845,-2.097826 5.674891,-3.335006 5.674891,-2.743312 z m 9.897439,4.061178 c 1.533027,1.0489134 1.801979,2.9584734 0.564799,3.9804924 -2.151617,1.828874 -5.244567,-0.107581 -4.276339,-2.689522 0.645485,-1.6943984 2.312989,-2.2860934 3.71154,-1.2909704 z M 21.656442,-42.91542 c -13.1517612,1.775084 -24.0443232,9.386431 -29.8805852,20.843792 -4.5452908,8.956107 -5.4328328,18.8266514 -2.5012538,28.0248154 4.0880718,12.7752276 14.7923678,22.2961336 28.15929,24.9856556 3.577064,0.726171 11.645629,0.645485 15.222692,-0.134476 3.254321,-0.726171 7.557556,-2.151617 10.300868,-3.415693 1.129599,-0.511009 2.124722,-0.941332 2.232303,-0.941332 0.699275,0 8.929212,10.811877 18.853546,24.743598 6.80449,9.547802 8.014774,10.946353 10.273973,11.780104 5.728681,2.151618 11.484257,-1.748188 11.484257,-7.745821 0,-4.141863 -2.070932,-6.723804 -18.826651,-23.802266 -4.357025,-4.437711 -8.821631,-9.144374 -9.924335,-10.435344 -2.286093,-2.716417 -2.286093,-2.501255 -0.107581,-5.890052 6.508643,-10.2470776 8.09546,-21.8120206 4.491501,-32.758373 -4.195653,-12.667647 -14.496521,-21.892706 -27.675177,-24.770494 -2.850893,-0.61859 -9.251954,-0.887542 -12.102847,-0.484114 z m 11.807,10.031916 c 7.880298,2.366778 14.254464,7.880298 17.939109,15.572329 1.479237,3.14674 2.151617,5.890053 2.312988,9.8705444 C 54.307234,5.8993974 45.16286,18.002244 31.742148,21.659993 28.19198,22.628221 20.7689,22.547535 17.406998,21.525517 12.861707,20.126966 8.8543188,17.760187 5.3041508,14.37139 1.4312398,10.65985 -1.2044912,6.0876634 -2.1996142,1.2196304 c -0.753066,-3.71154 -0.591695,-10.166392 0.376533,-13.5013994 3.335006,-11.430467 11.780104,-19.149393 23.3181522,-21.274116 0.67238,-0.107581 3.119845,-0.161371 5.405938,-0.134476 3.550169,0.08069 4.518396,0.215162 6.562433,0.806857 z" />
  </g>
</svg>
