<?xml version="1.0" encoding="UTF-8" standalone="no"?>
<!-- Created with Inkscape (http://www.inkscape.org/) -->

<svg
   width="130mm"
   height="130mm"
   viewBox="0 0 130 130"
   version="1.1"
   id="svg1"
   sodipodi:docname="magnifying-glass.svg"
   inkscape:version="1.4.2 (ebf0e940, 2025-05-08)"
   xmlns:inkscape="http://www.inkscape.org/namespaces/inkscape"
   xmlns:sodipodi="http://sodipodi.sourceforge.net/DTD/sodipodi-0.dtd"
   xmlns="http://www.w3.org/2000/svg"
   xmlns:svg="http://www.w3.org/2000/svg">
  <sodipodi:namedview
     id="namedview1"
     pagecolor="#ffffff"
     bordercolor="#000000"
     borderopacity="0.25"
     inkscape:showpageshadow="2"
     inkscape:pageopacity="0.0"
     inkscape:pagecheckerboard="0"
     inkscape:deskcolor="#d1d1d1"
     inkscape:document-units="mm"
     inkscape:zoom="0.62668897"
     inkscape:cx="249.72515"
     inkscape:cy="173.92998"
     inkscape:window-width="1920"
     inkscape:window-height="1027"
     inkscape:window-x="0"
     inkscape:window-y="25"
     inkscape:window-maximized="0"
     inkscape:current-layer="layer1" />
  <defs
     id="defs1" />
  <g
     inkscape:label="Layer 1"
     inkscape:groupmode="layer"
     id="layer1"
     transform="translate(-66.410417,-89.164622)">
    <path
       id="path7"
       style="stroke-width:0.264583"
       d="m 120.359,133.89547 c -3.67771,2.14312 -3.73062,8.46666 -0.0794,10.23937 1.56104,0.74083 4.23334,0.76729 5.42396,0.0265 1.87854,-1.13771 3.12208,-3.94229 2.48708,-5.58271 -0.23812,-0.66146 -0.29104,-0.68792 -1.32291,-0.42333 -0.89959,0.23812 -1.13771,0.21166 -1.61396,-0.21167 -0.74083,-0.68792 -0.68792,-1.93146 0.15875,-2.80458 l 0.68792,-0.71438 -0.71438,-0.47625 c -1.19062,-0.76729 -3.73062,-0.79375 -5.02708,-0.0529 z m -10.82146,19.15583 c -0.92604,0.92604 -0.39687,1.50812 2.77813,2.98979 6.08542,2.8575 12.59416,3.30729 19.02354,1.29646 2.06375,-0.635 2.91041,-1.32292 2.48708,-2.01084 -0.37042,-0.52916 -0.84667,-0.52916 -3.67771,0.0529 -5.68854,1.19063 -10.10708,0.76729 -16.21895,-1.53458 -3.65125,-1.34938 -3.81,-1.40229 -4.39209,-0.79375 z m 8.255,-30.58583 c -2.01083,0.34395 -4.70958,1.34937 -7.67291,2.8575 -0.10584,0.0529 -0.39688,-0.39688 -0.635,-1.00542 -0.52917,-1.32292 -1.29646,-1.93146 -2.01084,-1.56104 -0.58208,0.3175 -0.635,1.40229 -0.0529,2.75166 0.55563,1.32292 0.50271,1.4023 -1.69333,3.3073 l -1.93146,1.66687 -0.84666,-0.79375 c -1.45521,-1.37583 -2.03729,-1.5875 -2.61938,-0.87312 -0.714374,0.87312 -0.60854,1.27 0.71438,2.59291 l 1.19062,1.19063 -1.21708,1.82562 c -1.587502,2.38125 -2.301877,4.25979 -2.09021,5.47688 0.47625,2.46062 8.17562,8.41375 14.10229,10.87437 3.57188,1.50813 5.90021,1.95792 9.8425,1.95792 7.88458,-0.0265 15.39875,-3.20146 21.96042,-9.28688 2.11666,-1.95791 2.14312,-2.69875 0.26458,-5.87375 -5.13292,-8.62541 -11.32417,-13.57312 -18.7325,-15.00187 -2.06375,-0.39688 -6.50875,-0.44979 -8.5725,-0.10583 z m 9.04875,3.09562 c 0.9525,0.21167 2.8575,0.92604 4.23333,1.5875 2.32834,1.11125 2.77813,1.45521 5.92667,4.63021 1.85208,1.87854 3.33375,3.46604 3.28083,3.54542 -0.0794,0.0529 -1.53458,-0.82021 -3.28083,-1.98438 -3.91583,-2.56646 -4.70958,-2.98979 -7.51417,-3.81 -3.73062,-1.13771 -5.29166,-1.32292 -8.94291,-1.16417 -6.21771,0.26459 -11.1125,2.2225 -15.79562,6.27063 -1.69334,1.45521 -1.74625,1.32292 -0.18521,-0.47625 6.74687,-7.72583 13.97,-10.50396 22.27791,-8.59896 z m 1.71979,6.72042 2.64583,0.89958 0.79375,1.5875 c 1.11125,2.19604 1.13771,5.34458 0.10584,7.56708 -0.87313,1.82563 -3.20146,4.23334 -5.08,5.18584 -1.82563,0.92604 -4.70958,1.1377 -6.95854,0.47625 -3.67771,-1.05834 -6.93208,-6.69396 -6.32354,-10.98021 0.34396,-2.56646 2.14312,-5.13292 3.88937,-5.58271 0.47625,-0.10583 2.54,-0.18521 4.5773,-0.13229 3.41312,0.0794 3.91582,0.15875 6.34999,0.97896 z m -17.3302,2.61937 c -1.32292,3.78354 -0.18521,8.75771 2.75166,12.09146 1.32292,1.53458 0.97896,1.45521 -3.20145,-0.60854 -2.40771,-1.19063 -3.41313,-1.87854 -5.37105,-3.70417 -1.34937,-1.21708 -2.67229,-2.35479 -2.98979,-2.51354 -0.52916,-0.29104 -0.52916,-0.3175 -0.0265,-0.58208 0.26459,-0.13229 1.56105,-1.08479 2.83105,-2.11667 1.98437,-1.5875 6.24416,-4.25979 6.42937,-4.07458 0.0265,0.0265 -0.15875,0.71437 -0.42333,1.50812 z m 26.35249,2.2225 c 1.03188,0.79375 2.59292,2.09021 3.41313,2.8575 l 1.53458,1.42875 -2.2225,1.71979 c -3.36021,2.59292 -4.57729,3.36021 -6.985,4.49792 -1.21708,0.55562 -2.27542,1.03187 -2.35479,1.03187 -0.0794,0 0.39687,-0.68791 1.08479,-1.53458 2.30188,-2.83104 3.70417,-6.74687 3.46604,-9.81604 -0.0529,-0.87312 -0.0529,-1.61396 0,-1.61396 0.0794,0 1.00542,0.635 2.06375,1.42875 z m -18.41499,-29.18354 c -12.17084,1.45521 -21.378336,9.3398 -25.241252,21.61646 -2.963334,9.44562 -1.243542,20.13479 4.418541,27.49021 6.852711,8.89 17.409581,13.30854 27.728331,11.56229 10.42458,-1.74625 19.15583,-8.09625 23.65375,-17.17146 3.75708,-7.54063 4.28625,-15.68979 1.53458,-23.89187 -3.28083,-9.78958 -12.03854,-17.19792 -22.78062,-19.20875 -2.75167,-0.50271 -6.90562,-0.68792 -9.31333,-0.39688 z m 10.18645,3.51896 c 9.18104,2.35479 16.80104,9.39271 19.52625,18.01812 4.70958,14.94896 -4.02167,30.87688 -19.31458,35.2425 -2.8575,0.79375 -8.96937,1.13771 -11.85333,0.635 -5.50333,-0.9525 -9.92188,-3.22791 -13.91708,-7.17021 -3.915837,-3.86291 -6.376462,-8.06979 -7.672921,-13.09687 -0.978958,-3.78354 -0.899583,-8.99583 0.238125,-13.20271 3.01625,-11.21833 11.112496,-19.15583 21.219586,-20.79624 1.08479,-0.15875 2.16958,-0.34396 2.38125,-0.39688 1.27,-0.3175 6.95853,0.15875 9.3927,0.76729 z m -10.42458,-10.39812 c -13.97,1.61396 -26.087914,11.16541 -30.850414,24.3152 -2.037292,5.68854 -2.831042,13.97 -1.878542,19.57917 1.296459,7.59354 4.788959,14.18166 10.583334,20.0025 5.741462,5.76791 10.742082,8.59896 17.885832,10.21291 3.67771,0.79375 10.53041,0.87313 14.02291,0.10584 2.46063,-0.52917 6.93209,-2.03729 8.5725,-2.8575 l 1.03188,-0.52917 0.47625,0.60854 c 0.26458,0.34396 0.50271,0.71438 0.50271,0.82021 0,0.55563 2.51354,1.61396 3.81,1.64042 h 1.37583 l 2.16958,3.46604 c 1.16417,1.87854 3.30729,5.52979 4.70959,8.06979 10.10708,18.36208 12.32958,21.00792 17.56833,21.00792 6.82625,0 10.34521,-6.6675 6.56167,-12.40896 -0.47625,-0.74083 -2.3548,-2.88396 -4.18042,-4.7625 -7.35542,-7.62 -15.50458,-16.74813 -18.36208,-20.55813 -0.74084,-0.97895 -0.74084,-1.03187 -0.42334,-2.7252 0.34396,-1.87855 0.21167,-3.43959 -0.42333,-4.78896 -0.39688,-0.84667 -0.39688,-0.84667 1.29646,-3.36021 9.65729,-14.36688 8.70479,-33.23167 -2.30188,-46.0375 -7.22312,-8.38729 -20.29354,-13.176246 -32.14687,-11.80041 z m 10.05416,3.30729 c 6.985,1.16417 13.91709,4.68312 18.415,9.31333 4.73605,4.89479 7.4348,10.08062 8.96938,17.25083 0.68792,3.14854 0.68792,10.55688 0,13.75833 -2.98979,14.04938 -13.73188,24.68563 -27.94,27.70188 -2.98979,0.60854 -9.60437,0.60854 -12.40895,-0.0265 -6.69396,-1.50812 -11.5623,-4.28625 -16.986254,-9.68375 -7.328958,-7.3025 -10.689167,-15.50458 -10.212917,-25.00312 0.820209,-16.45708 12.012081,-29.92437 27.569581,-33.20521 3.09563,-0.635 9.10166,-0.68791 12.59416,-0.10583 z m 20.55813,61.43624 c 0.15875,2.51355 -1.42875,4.41855 -4.65667,5.60917 -1.61396,0.60854 -2.64583,0.52917 -3.38666,-0.29104 -0.52917,-0.60854 -0.66146,-0.44979 2.27541,-2.56646 1.24354,-0.87312 2.91042,-2.19604 3.70417,-2.93687 0.79375,-0.71438 1.5875,-1.29646 1.71979,-1.24355 0.15875,0.0265 0.29104,0.68792 0.34396,1.42875 z m 2.54,7.62 c 2.27542,3.46605 7.3025,9.26042 14.57854,16.77459 5.87375,6.05896 6.61458,6.93208 7.01146,8.30791 1.08479,3.91584 -3.14854,7.09084 -6.90563,5.15938 -2.43416,-1.21708 -4.47145,-4.23333 -11.69458,-17.17146 -2.38125,-4.28625 -5.02708,-8.86354 -5.84729,-10.16 l -1.48167,-2.35479 1.37584,-1.27 c 0.76729,-0.71438 1.4552,-1.27 1.53458,-1.27 0.0794,-0.0265 0.71437,0.87312 1.42875,1.98437 z" />
  </g>
</svg>
