<?xml version="1.0" standalone="no"?>
<!DOCTYPE svg PUBLIC "-//W3C//DTD SVG 20010904//EN"
 "http://www.w3.org/TR/2001/REC-SVG-20010904/DTD/svg10.dtd">
<svg version="1.0" xmlns="http://www.w3.org/2000/svg"
 width="1536.000000pt" height="1024.000000pt" viewBox="0 0 1536.000000 1024.000000"
 preserveAspectRatio="xMidYMid meet">
<metadata>
Created by potrace 1.16, written by Peter Selinger 2001-2019
</metadata>
<g transform="translate(0.000000,1024.000000) scale(0.100000,-0.100000)"
fill="#000000" stroke="none">
<path d="M10280 9720 c-158 -33 -285 -176 -298 -335 -4 -55 -1 -69 24 -114 15
-29 40 -59 55 -68 34 -20 30 -29 -18 -38 -119 -21 -384 -120 -512 -192 -283
-157 -478 -370 -636 -698 -99 -204 -144 -385 -152 -603 -17 -452 135 -744 510
-977 250 -155 304 -258 327 -629 11 -168 26 -239 69 -324 81 -160 212 -214
384 -157 137 46 162 24 173 -151 13 -216 77 -313 208 -314 140 -1 215 88 232
274 l7 74 26 -14 c32 -17 120 -18 172 -2 102 30 153 117 171 286 l11 108 55
-28 c139 -70 314 -8 395 139 47 88 58 157 66 438 11 349 26 415 156 695 109
235 132 344 121 584 -20 450 -116 775 -301 1020 -160 214 -457 392 -776 468
-52 12 -96 23 -98 25 -2 1 13 21 32 44 129 150 52 392 -149 469 -66 25 -182
35 -254 20z m215 -139 c121 -54 169 -191 97 -274 -15 -17 -17 -15 -29 38 -23
103 -88 155 -191 155 -100 0 -205 -78 -218 -162 -8 -46 -18 -48 -39 -8 -48 93
55 242 187 270 57 12 142 4 193 -19z m-70 -225 c23 -23 43 -101 32 -129 -6
-15 -149 -30 -186 -20 -27 7 -35 53 -17 97 29 70 124 99 171 52z m228 -286
c281 -55 527 -188 716 -386 219 -230 316 -523 337 -1024 9 -222 -9 -306 -123
-553 -114 -249 -141 -378 -153 -737 -9 -283 -19 -327 -81 -395 -93 -100 -249
-83 -309 34 -48 96 -62 184 -61 387 1 209 -2 223 -55 210 -77 -20 -94 -284
-33 -526 19 -74 21 -102 16 -230 -7 -167 -18 -220 -58 -259 -48 -48 -133 -45
-166 6 -29 43 -22 134 16 213 34 72 39 120 15 144 -46 47 -121 -38 -160 -181
-9 -35 -19 -132 -23 -243 -11 -239 -29 -289 -108 -290 -65 0 -86 47 -97 210
-8 113 -18 156 -48 200 -54 79 -132 98 -252 61 -37 -12 -93 -21 -122 -21 -51
0 -57 3 -98 43 -73 74 -86 124 -115 442 -19 205 -78 370 -168 466 -26 29 -113
94 -193 147 -237 155 -345 279 -416 477 -87 243 -83 510 11 792 99 296 315
583 560 745 241 159 468 245 770 292 66 10 294 -3 398 -24z"/>
<path d="M10185 8940 c-368 -48 -733 -254 -932 -524 -334 -453 -354 -1127 -42
-1409 45 -41 103 -76 223 -136 133 -66 172 -90 210 -131 62 -66 111 -171 143
-306 65 -278 94 -356 157 -430 97 -113 289 -144 436 -69 138 70 327 388 281
474 -29 53 -60 24 -161 -148 -112 -191 -172 -241 -290 -241 -160 0 -231 91
-290 373 -71 337 -152 449 -413 576 -155 75 -229 127 -282 199 -133 182 -155
569 -49 864 138 384 444 650 884 769 126 35 425 35 550 1 252 -69 444 -196
591 -392 204 -271 279 -687 189 -1041 -11 -43 -49 -152 -85 -241 -110 -279
-137 -426 -139 -748 -1 -225 6 -260 55 -260 41 0 46 20 47 195 2 290 40 500
135 741 122 310 141 406 134 669 -6 200 -13 243 -68 414 -139 430 -478 724
-919 796 -100 16 -263 18 -365 5z"/>
<path d="M10060 8613 c-40 -54 -75 -105 -78 -115 -7 -29 17 -48 59 -48 l38 0
-6 -133 c-6 -144 -1 -162 49 -155 31 4 48 42 48 106 0 30 7 132 16 227 17 188
13 215 -29 215 -17 0 -42 -24 -97 -97z"/>
<path d="M10390 8659 c-33 -13 -80 -58 -91 -87 -19 -49 39 -86 72 -46 21 26
70 46 95 40 68 -17 23 -108 -121 -244 -67 -63 -83 -83 -78 -100 9 -38 29 -43
177 -49 157 -6 176 -2 176 43 0 37 -36 54 -113 54 l-69 0 52 56 c123 135 142
266 47 324 -35 22 -105 26 -147 9z"/>
<path d="M9634 8026 c-9 -24 124 -304 153 -323 21 -14 26 -13 56 5 l34 19 59
-49 c32 -27 83 -65 112 -84 44 -30 51 -38 42 -54 -42 -79 40 -190 142 -190
100 0 195 100 174 184 -6 24 102 88 432 257 155 80 212 120 212 149 0 25 -27
50 -54 50 -29 0 -403 -186 -550 -274 -101 -59 -112 -63 -130 -50 -25 17 -66
18 -117 3 -37 -11 -39 -11 -96 38 -32 27 -74 60 -93 73 -19 13 -37 25 -39 27
-2 1 4 12 13 22 39 43 21 61 -135 133 -168 78 -205 89 -215 64z m644 -478 c33
-33 -6 -96 -51 -84 -33 8 -40 40 -15 71 21 27 47 32 66 13z"/>
<path d="M9325 7885 c-75 -41 -115 -100 -115 -172 0 -86 51 -135 154 -149 l46
-7 -16 -26 c-10 -14 -34 -40 -54 -58 -42 -36 -51 -58 -39 -91 23 -62 158 19
214 128 57 111 68 226 31 299 -37 71 -155 111 -221 76z m98 -106 c64 -34 41
-119 -31 -119 -49 0 -82 29 -82 72 0 47 62 73 113 47z"/>
<path d="M11065 7776 c-35 -15 -85 -70 -85 -92 0 -57 51 -70 95 -24 51 53 136
35 121 -25 -7 -26 -51 -55 -84 -55 -11 0 -25 -7 -32 -15 -19 -23 3 -65 33 -65
83 0 104 -122 27 -149 -39 -13 -68 5 -94 59 -34 72 -96 64 -96 -13 0 -76 68
-143 156 -153 126 -14 217 112 177 248 -9 33 -10 54 -3 73 17 44 12 127 -9
161 -35 57 -134 81 -206 50z"/>
<path d="M10199 6910 c-84 -84 -131 -185 -137 -298 -4 -77 -2 -87 27 -147 39
-78 76 -107 146 -113 80 -7 149 37 204 128 69 115 -47 284 -185 268 -19 -2
-34 -1 -34 2 0 11 34 56 82 107 69 75 65 113 -14 113 -23 0 -43 -13 -89 -60z
m113 -297 c36 -42 24 -106 -26 -138 -49 -32 -106 12 -106 82 0 59 95 99 132
56z"/>
<path d="M4712 9688 c-5 -7 -17 -71 -27 -143 -48 -367 -127 -631 -285 -945
-125 -248 -256 -445 -402 -604 l-63 -69 -32 17 c-103 53 -141 223 -92 414 28
114 25 136 -24 140 -58 5 -72 -14 -102 -141 -51 -211 -23 -351 93 -467 l65
-65 -95 -90 c-52 -49 -143 -124 -201 -165 -121 -85 -131 -100 -93 -139 26 -26
28 -26 187 -27 l161 -1 48 -74 c26 -41 75 -126 109 -189 84 -155 86 -157 145
-135 26 10 48 16 51 14 9 -10 55 -281 69 -416 20 -180 31 -543 21 -697 l-7
-119 -27 49 c-70 129 -151 224 -190 224 -66 0 -66 -40 1 -155 75 -132 116
-221 135 -299 16 -66 16 -69 -2 -82 -42 -31 -79 -18 -119 41 -53 76 -180 195
-209 195 -27 0 -47 -17 -47 -41 0 -9 30 -54 66 -100 57 -73 94 -128 94 -143 0
-2 -26 -10 -57 -16 -135 -28 -290 -97 -312 -138 -13 -24 12 -62 39 -62 11 0
77 18 147 41 311 99 567 132 1038 132 477 1 829 -44 1325 -170 196 -49 230
-51 251 -11 18 34 -30 69 -145 108 l-96 32 0 41 c0 142 92 516 157 640 50 94
54 96 190 84 125 -11 143 -6 143 43 0 21 -13 38 -61 76 -202 162 -329 451
-329 752 0 85 -13 121 -48 133 -25 10 -23 11 -98 -89 -80 -108 -208 -188 -319
-199 l-55 -6 0 29 c0 78 118 519 162 609 l31 61 126 0 c119 -1 130 1 201 30
82 34 114 69 94 101 -6 10 -59 46 -118 80 -126 73 -214 135 -308 215 l-68 59
0 118 0 119 38 -9 c97 -22 162 -4 162 47 0 10 -28 57 -61 104 -109 151 -195
360 -239 579 -27 132 -32 143 -73 139 -29 -3 -35 -11 -87 -113 -69 -139 -103
-187 -180 -259 -77 -71 -108 -92 -120 -80 -5 5 -38 58 -75 118 -141 231 -308
581 -369 776 -15 46 -32 90 -38 97 -13 17 -62 17 -76 1z m128 -443 c254 -594
695 -1160 1125 -1445 99 -66 165 -118 165 -131 0 -16 -89 -10 -152 12 -320
107 -710 449 -971 849 -55 85 -203 334 -210 354 -6 17 -11 7 -47 -94 -48 -138
-141 -347 -206 -464 -168 -301 -334 -498 -601 -712 -91 -74 -108 -84 -172 -98
-77 -18 -111 -20 -111 -8 0 4 57 57 126 117 416 361 708 791 883 1299 32 91
111 408 111 442 0 15 10 -5 60 -121z m819 -435 c34 -101 112 -272 161 -352 35
-57 26 -61 -53 -22 -76 39 -113 70 -149 125 -39 61 -68 66 -68 12 0 -54 34
-116 101 -182 l59 -59 0 -76 c0 -42 -4 -76 -9 -76 -23 0 -354 387 -350 410 0
3 32 31 71 64 68 57 180 194 193 237 9 27 8 29 44 -81z m-738 -353 c93 -144
212 -297 313 -404 131 -139 372 -329 499 -394 64 -33 65 -36 36 -99 -12 -25
-34 -81 -49 -125 -15 -44 -32 -79 -36 -78 -5 1 -64 21 -131 45 -130 46 -154
46 -161 0 -4 -28 32 -53 159 -112 57 -27 103 -52 103 -57 -8 -58 -39 -183 -45
-183 -5 0 -60 20 -123 45 -125 49 -147 53 -166 30 -32 -38 7 -71 162 -136 57
-23 105 -44 107 -46 3 -2 -7 -67 -22 -146 -45 -240 -58 -362 -64 -623 -6 -240
6 -499 27 -614 5 -25 7 -47 5 -48 -2 -2 -49 2 -105 10 l-101 13 -3 280 c-7
500 -94 837 -259 997 -73 72 -95 69 -188 -30 -117 -124 -213 -318 -250 -507
-18 -90 -18 -428 0 -588 7 -65 10 -121 7 -125 -8 -7 -266 -24 -281 -18 -8 3
-7 48 1 153 28 349 28 470 -2 851 -5 60 -4 82 5 82 29 0 145 67 176 102 38 42
43 59 20 78 -15 13 -15 13 -119 -43 -43 -24 -106 -36 -106 -22 0 3 -14 76 -31
163 -38 200 -88 389 -144 551 l-45 128 116 114 c249 245 424 506 545 813 35
90 45 106 54 92 5 -10 49 -77 96 -149z m-902 -994 c22 -45 115 -332 109 -339
-9 -8 -48 43 -98 131 -29 50 -68 112 -87 138 -20 26 -33 51 -30 54 13 12 72
52 79 53 4 0 16 -17 27 -37z m2127 -761 c34 -134 91 -249 179 -357 26 -31 45
-58 43 -60 -5 -5 -281 53 -314 65 -21 8 -25 15 -20 38 3 15 10 69 17 121 10
82 9 95 -5 109 -29 29 -49 2 -84 -114 -18 -60 -36 -112 -40 -116 -10 -10 -133
23 -139 37 -2 7 18 53 46 103 51 91 63 135 37 145 -21 8 -39 -10 -89 -88 -49
-78 -80 -109 -115 -118 -24 -6 -24 -5 -17 56 12 107 34 201 52 217 10 9 52 22
93 29 90 14 195 64 265 125 l50 44 12 -85 c7 -46 20 -114 29 -151z m-1088 -64
c71 -146 120 -338 142 -547 10 -105 14 -508 5 -533 -4 -10 -25 -12 -84 -10
l-78 3 -7 46 c-3 25 -6 109 -6 186 0 118 -6 349 -23 860 -1 42 1 77 4 77 4 0
25 -37 47 -82z m-129 -871 l1 -208 -82 3 -83 3 -13 100 c-21 153 -20 542 0
631 24 101 71 225 115 302 l38 67 12 -345 c6 -190 12 -439 12 -553z m1021 488
c129 -35 243 -67 252 -70 16 -6 14 -14 -16 -73 -63 -126 -140 -420 -161 -621
l-7 -63 -32 5 c-187 33 -332 59 -334 62 -19 19 -42 772 -26 832 6 21 7 21 47
7 23 -8 148 -44 277 -79z"/>
<path d="M4770 8234 c-65 -28 -120 -96 -161 -199 -23 -58 -24 -70 -23 -295 0
-173 5 -260 17 -330 21 -119 22 -110 -11 -110 -38 0 -72 -26 -72 -55 0 -40 35
-55 125 -55 44 0 152 -7 240 -16 299 -28 292 -28 320 -10 44 29 26 72 -40 93
l-30 10 3 79 c1 43 6 162 11 264 14 268 -2 373 -73 494 -66 113 -207 173 -306
130z m195 -159 c45 -58 67 -131 73 -236 l5 -96 -59 4 c-33 2 -65 6 -71 8 -10
3 -13 50 -13 190 0 181 0 185 20 175 10 -6 31 -26 45 -45z m-165 -38 c0 -41 3
-122 7 -180 l6 -107 -63 0 -63 0 5 98 c6 102 28 175 70 232 32 44 38 38 38
-43z m14 -413 c3 -9 6 -85 6 -170 l0 -154 -39 0 c-45 0 -40 -11 -66 144 -8 49
-15 113 -15 142 l0 54 54 0 c40 0 55 -4 60 -16z m217 12 c6 -7 -17 -335 -24
-342 -3 -3 -23 -3 -45 1 l-39 6 -7 76 c-3 42 -6 118 -6 170 l0 93 58 0 c32 0
61 -2 63 -4z"/>
<path d="M5065 6066 c-26 -19 -26 -83 0 -102 55 -41 114 47 65 96 -24 24 -39
25 -65 6z"/>
<path d="M5805 6097 c-25 -60 -66 -236 -63 -269 3 -32 6 -34 83 -56 139 -39
146 -32 166 149 16 153 13 162 -56 188 -83 31 -113 28 -130 -12z m101 -138
c-8 -77 -14 -89 -44 -78 -24 9 -24 9 -1 102 8 28 15 37 31 37 20 0 20 -4 14
-61z"/>
<path d="M10121 4739 c-528 -61 -986 -422 -1166 -919 -77 -215 -107 -528 -71
-740 49 -287 181 -536 400 -756 217 -218 406 -325 676 -386 139 -30 398 -33
530 -4 93 20 262 77 324 108 l39 20 18 -23 c10 -13 19 -27 19 -31 0 -21 95
-61 144 -62 l52 0 82 -131 c44 -71 125 -209 178 -305 382 -694 466 -794 664
-794 258 0 391 252 248 469 -18 28 -89 109 -158 180 -278 288 -586 633 -694
777 -28 37 -28 39 -16 103 13 71 8 130 -16 181 -15 32 -15 32 49 127 365 543
329 1256 -87 1740 -273 317 -767 498 -1215 446z m380 -125 c264 -44 526 -177
696 -352 179 -185 281 -381 339 -652 26 -119 26 -399 0 -520 -113 -531 -519
-933 -1056 -1047 -113 -23 -363 -23 -469 1 -253 57 -437 162 -642 366 -277
276 -404 586 -386 945 31 622 454 1131 1042 1255 117 24 344 26 476 4z m777
-2322 c6 -95 -54 -167 -176 -212 -61 -23 -100 -20 -128 11 -20 23 -25 17 86
97 47 33 110 83 140 111 30 27 60 49 65 47 6 -1 11 -26 13 -54z m96 -288 c86
-131 276 -350 551 -634 222 -229 250 -262 265 -314 41 -148 -119 -268 -261
-195 -92 46 -169 160 -442 649 -90 162 -190 335 -221 384 l-56 89 52 48 c29
27 55 48 58 48 3 1 27 -33 54 -75z"/>
<path d="M10130 4479 c-460 -55 -808 -353 -954 -817 -112 -357 -47 -761 167
-1039 259 -336 658 -503 1048 -437 394 66 724 306 894 649 142 285 162 593 58
903 -124 370 -455 650 -861 726 -104 19 -261 26 -352 15z m385 -133 c347 -89
635 -355 738 -681 178 -565 -152 -1167 -730 -1332 -108 -30 -339 -43 -448 -24
-208 36 -375 122 -526 271 -148 146 -241 305 -290 495 -37 143 -34 340 9 499
114 424 420 724 802 786 41 6 82 13 90 15 48 12 263 -6 355 -29z"/>
<path d="M10078 3930 c-76 -13 -178 -51 -290 -108 -4 -2 -15 15 -24 38 -20 50
-49 73 -76 59 -22 -12 -24 -53 -2 -104 21 -50 19 -53 -64 -125 l-73 -63 -32
30 c-55 52 -77 60 -99 33 -27 -33 -23 -48 27 -98 l45 -45 -46 -69 c-60 -90
-87 -161 -79 -207 18 -93 309 -318 533 -411 135 -57 223 -74 372 -74 298 1
582 121 830 351 80 74 81 102 10 222 -194 326 -428 513 -708 567 -78 15 -246
17 -324 4z m342 -117 c36 -8 108 -35 160 -60 88 -42 105 -55 224 -175 70 -71
126 -131 124 -134 -3 -2 -58 31 -124 75 -148 97 -178 113 -284 144 -141 43
-200 50 -338 44 -235 -10 -420 -84 -597 -237 -64 -55 -66 -50 -7 18 255 292
528 397 842 325z m65 -254 l100 -34 30 -60 c42 -83 43 -202 4 -286 -33 -69
-121 -160 -192 -196 -69 -35 -178 -43 -263 -18 -139 40 -262 253 -239 415 13
97 81 194 147 211 18 4 96 7 173 5 129 -3 148 -6 240 -37z m-655 -99 c-50
-143 -7 -331 104 -457 50 -58 37 -55 -121 23 -91 45 -129 71 -203 140 -51 46
-101 89 -113 95 -20 11 -20 12 -1 22 10 5 59 41 107 80 75 60 236 161 243 154
1 -1 -6 -27 -16 -57z m996 -84 c39 -30 98 -79 129 -108 l58 -54 -84 -65 c-127
-98 -173 -127 -264 -170 -46 -21 -86 -39 -89 -39 -3 0 15 26 41 58 87 107 140
255 131 371 -2 33 -2 61 0 61 3 0 38 -24 78 -54z"/>
<path d="M10175 3498 c-139 -81 -141 -320 -3 -387 59 -28 160 -29 205 -1 71
43 118 149 94 211 -9 25 -11 26 -50 16 -34 -9 -43 -8 -61 8 -28 26 -26 73 6
106 l26 27 -27 18 c-45 29 -141 30 -190 2z"/>
<path d="M9766 2774 c-35 -35 -15 -57 105 -113 230 -108 476 -125 719 -49 78
24 110 50 94 76 -14 20 -32 20 -139 -2 -215 -45 -382 -29 -613 58 -138 51
-144 53 -166 30z"/>
<path d="M4427 4672 c-9 -9 -29 -66 -46 -126 -17 -60 -32 -111 -34 -112 -2 -2
-39 -11 -83 -20 -43 -9 -89 -18 -100 -21 -18 -4 -33 11 -89 91 -66 96 -88 116
-122 116 -24 0 -243 -126 -270 -156 -31 -33 -30 -43 18 -168 34 -91 38 -110
27 -124 -45 -57 -123 -147 -128 -147 -3 0 -49 15 -103 33 -106 35 -144 39
-170 20 -20 -15 -127 -292 -127 -329 0 -34 12 -43 129 -104 l96 -50 -3 -87
c-5 -138 -4 -136 -108 -175 -105 -38 -118 -52 -110 -111 7 -50 55 -199 87
-266 27 -58 44 -63 146 -37 108 28 106 28 143 -29 17 -27 44 -65 60 -85 l28
-36 -49 -102 c-27 -56 -49 -114 -49 -128 0 -33 49 -79 172 -160 129 -85 140
-83 235 40 36 47 70 90 74 95 4 4 34 -1 67 -12 32 -12 89 -26 125 -33 45 -8
68 -18 71 -28 3 -9 14 -58 26 -110 33 -157 24 -153 250 -120 199 29 190 20
190 177 l0 127 78 35 c42 19 106 54 141 77 35 24 68 43 73 43 5 0 48 -24 97
-53 l88 -53 -36 -70 -36 -70 -60 8 c-166 23 -183 7 -198 -179 -16 -203 -12
-212 127 -239 38 -7 71 -15 73 -18 3 -2 19 -44 38 -93 l33 -88 -89 -83 c-99
-93 -104 -105 -63 -167 62 -92 156 -214 170 -219 36 -14 71 -3 145 44 43 28
80 50 83 50 3 0 40 -24 83 -53 44 -29 110 -65 147 -81 l68 -29 -7 -97 c-8
-108 -3 -135 25 -150 18 -10 288 -40 361 -40 59 0 70 15 81 116 16 149 17 154
38 154 28 0 158 49 208 77 l42 25 58 -49 c134 -116 143 -115 275 32 103 115
127 150 127 184 0 12 -31 53 -71 96 -50 52 -70 80 -66 92 17 53 60 159 69 170
7 9 42 13 114 13 138 0 134 -6 134 207 0 202 2 198 -127 208 -114 8 -106 4
-127 71 -10 33 -27 76 -38 97 -22 43 -25 37 63 138 85 98 84 100 -133 337 -44
48 -72 43 -160 -26 -40 -32 -78 -61 -84 -65 -7 -4 -41 10 -77 31 -36 21 -83
44 -105 51 l-39 13 1 120 c1 163 20 151 -269 174 -112 9 -117 3 -153 -155
l-28 -123 -90 -23 c-69 -18 -91 -20 -99 -11 -5 7 -32 41 -60 76 -81 107 -101
112 -169 50 -41 -38 -44 -39 -59 -22 -15 16 -14 25 12 107 l28 90 74 12 c41 6
95 12 121 12 34 1 54 7 75 25 l27 24 -2 167 c-1 92 -7 175 -12 186 -14 24 -63
36 -192 44 l-106 7 -12 46 c-6 26 -23 73 -37 105 l-26 57 81 84 c86 89 101
120 82 157 -20 37 -189 236 -206 243 -29 11 -41 6 -150 -68 l-110 -74 -39 30
c-22 16 -66 43 -98 59 l-58 30 7 108 c11 176 12 175 -169 196 -166 20 -220 19
-240 -3z m205 -103 l88 -12 -3 -130 -2 -131 85 -43 c47 -23 107 -60 134 -83
65 -54 82 -52 206 25 l105 65 43 -46 c23 -25 51 -59 62 -74 l20 -28 -85 -78
c-46 -42 -87 -85 -90 -95 -4 -11 7 -47 24 -84 17 -36 43 -105 56 -153 14 -48
32 -92 41 -99 15 -11 51 -16 207 -28 l77 -7 0 -97 0 -98 -72 -11 c-40 -6 -99
-14 -131 -18 -63 -7 -84 -21 -93 -62 -3 -15 -21 -76 -40 -137 -19 -60 -34
-113 -34 -117 0 -4 38 -50 85 -103 51 -57 83 -101 79 -108 -21 -36 -107 -137
-117 -137 -7 0 -47 22 -89 50 -130 83 -122 82 -202 14 -43 -37 -164 -102 -241
-129 -85 -31 -85 -31 -85 -175 l0 -126 -95 -14 c-53 -7 -97 -11 -99 -9 -1 2
-15 53 -29 113 -15 60 -33 116 -40 124 -8 7 -57 22 -108 32 -52 10 -130 30
-173 44 -43 15 -86 24 -96 21 -10 -3 -53 -48 -96 -100 -43 -52 -82 -91 -88
-88 -50 29 -128 87 -133 99 -3 7 18 57 46 109 28 53 51 104 51 114 0 11 -18
42 -40 70 -22 28 -65 89 -94 135 -30 46 -61 86 -69 89 -13 5 -134 -19 -198
-38 -18 -6 -82 175 -64 182 6 2 48 19 95 36 100 38 110 52 110 149 0 36 7 101
15 142 8 42 12 83 8 92 -3 8 -54 42 -114 75 -60 33 -111 64 -114 68 -5 9 43
161 56 175 5 5 54 -6 119 -28 61 -20 118 -35 128 -32 10 3 47 43 82 88 36 45
84 102 108 126 23 24 42 51 42 60 0 9 -18 65 -41 124 -22 59 -38 112 -35 117
6 10 124 81 134 81 4 0 36 -41 72 -91 90 -128 91 -128 198 -95 48 14 121 30
162 35 88 11 92 16 114 114 28 126 36 147 53 147 9 0 56 -5 105 -11z m1491
-1456 l68 -6 -7 -111 c-8 -130 -12 -123 104 -171 42 -18 108 -51 147 -74 38
-22 77 -41 87 -41 9 0 51 27 92 60 42 33 80 60 85 60 5 0 35 -29 66 -65 66
-74 66 -68 -19 -164 -63 -71 -63 -78 -18 -184 21 -51 47 -116 57 -145 22 -68
41 -79 148 -87 l88 -7 -2 -93 -1 -93 -109 -7 c-68 -4 -112 -12 -119 -20 -6 -7
-23 -50 -39 -96 -16 -46 -38 -106 -50 -132 -33 -77 -30 -90 51 -173 l72 -75
-75 -75 -74 -74 -83 70 c-46 38 -89 70 -96 70 -7 0 -34 -14 -62 -31 -66 -43
-166 -84 -236 -99 -57 -11 -87 -30 -89 -53 0 -7 -6 -57 -12 -112 l-12 -100
-55 3 c-30 1 -84 5 -119 8 l-64 6 6 105 c3 59 2 114 -3 123 -5 9 -50 34 -100
54 -98 41 -188 96 -234 145 -41 43 -62 39 -162 -26 l-87 -57 -30 35 c-16 19
-41 52 -57 75 l-28 40 84 75 c47 40 87 84 90 96 4 13 -6 52 -24 95 -16 40 -39
101 -52 136 -26 73 -42 86 -125 102 -99 19 -91 10 -83 102 3 46 7 86 7 90 1 3
49 5 108 5 l108 -2 67 128 c53 102 66 135 61 158 -5 24 4 42 56 110 77 102 80
113 47 185 -20 44 -24 59 -14 65 8 5 16 1 22 -9 12 -23 86 -114 105 -129 20
-17 66 -16 100 2 28 14 123 39 194 50 50 8 62 30 82 145 8 52 18 101 20 108 5
14 22 15 118 5z"/>
<path d="M4250 4085 c-423 -95 -640 -657 -394 -1018 127 -185 324 -288 554
-288 338 0 597 208 664 534 70 337 -111 647 -439 753 -101 33 -283 42 -385 19z
m306 -106 c102 -31 191 -84 264 -158 108 -109 150 -214 150 -371 0 -254 -145
-455 -385 -535 -401 -135 -795 200 -721 613 40 226 202 408 408 458 84 20 206
17 284 -7z"/>
<path d="M4367 3789 c-109 -17 -208 -92 -259 -197 -30 -61 -33 -74 -33 -162 0
-83 3 -102 27 -150 35 -71 97 -133 167 -168 81 -39 219 -40 303 0 73 34 142
103 176 176 40 84 39 222 -1 304 -68 139 -228 222 -380 197z m153 -130 c94
-42 144 -117 144 -214 0 -268 -353 -348 -463 -105 -88 195 124 407 319 319z"/>
<path d="M5880 2704 c-218 -57 -389 -226 -445 -439 -19 -76 -19 -240 0 -324
34 -144 142 -293 267 -369 301 -181 707 -70 867 237 86 166 106 387 47 531
-72 176 -241 321 -427 365 -80 18 -236 18 -309 -1z m325 -103 c218 -78 358
-284 342 -506 -21 -293 -240 -505 -520 -505 -152 0 -261 44 -362 145 -288 290
-153 780 243 880 79 20 219 13 297 -14z"/>
<path d="M5945 2421 c-121 -32 -220 -139 -246 -266 -38 -192 133 -380 329
-362 215 19 351 251 259 439 -64 131 -225 220 -342 189z m176 -156 c105 -74
116 -213 24 -301 -117 -113 -294 -62 -336 96 -21 82 28 181 114 224 52 27 146
17 198 -19z"/>
</g>
</svg>
