<?xml version="1.0" standalone="no"?>
<!DOCTYPE svg PUBLIC "-//W3C//DTD SVG 20010904//EN"
 "http://www.w3.org/TR/2001/REC-SVG-20010904/DTD/svg10.dtd">
<svg version="1.0" xmlns="http://www.w3.org/2000/svg"
 width="1024.000000pt" height="1024.000000pt" viewBox="0 0 1024.000000 1024.000000"
 preserveAspectRatio="xMidYMid meet">
<metadata>
Created by potrace 1.16, written by Peter Selinger 2001-2019
</metadata>
<g transform="translate(0.000000,1024.000000) scale(0.100000,-0.100000)"
fill="#000000" stroke="none">
<path d="M2550 9624 c-214 -115 -562 -424 -767 -681 -194 -244 -329 -499 -398
-753 -60 -225 -58 -180 -64 -1349 l-6 -1075 -68 -16 c-102 -25 -112 -39 -112
-160 0 -90 2 -102 23 -122 l23 -23 1452 -3 c798 -1 1462 0 1475 3 40 10 62 61
62 143 0 107 -39 162 -114 162 -14 0 -36 4 -50 10 l-25 9 -4 1083 c-4 1177 -1
1111 -61 1331 -133 484 -496 962 -1014 1334 -103 74 -230 143 -264 143 -12 0
-52 -16 -88 -36z m190 -410 c105 -64 198 -141 321 -265 256 -259 427 -522 519
-796 70 -213 70 -205 70 -1363 l0 -1032 -65 4 c-35 2 -67 6 -70 9 -3 4 -5 442
-5 975 0 556 -4 1016 -10 1080 -18 208 -80 387 -202 594 -128 215 -427 539
-612 663 l-38 25 -72 -51 c-135 -97 -415 -394 -527 -558 -65 -96 -155 -280
-189 -386 -68 -212 -63 -123 -67 -1285 l-4 -1058 -23 0 c-13 0 -44 -3 -70 -6
l-47 -7 4 1084 c3 980 5 1091 20 1154 82 334 253 629 542 933 156 164 371 332
425 332 14 0 59 -21 100 -46z m1 -472 c91 -93 115 -151 106 -254 -6 -65 -15
-81 -112 -200 -33 -40 -67 -84 -75 -97 l-16 -23 -25 38 c-15 22 -56 74 -92
117 -97 117 -112 214 -51 327 31 58 144 170 170 170 10 0 53 -35 95 -78z
m-342 -506 c66 -35 119 -114 150 -226 26 -94 32 -100 95 -100 68 0 71 3 100
96 31 97 91 193 138 222 136 84 339 -80 414 -333 16 -55 18 -129 21 -842 2
-442 0 -783 -5 -783 -41 0 -305 133 -332 168 -37 47 -54 127 -42 201 13 75 33
99 106 126 141 52 192 176 124 308 -29 58 -32 71 -38 199 -6 131 -8 139 -43
210 -80 163 -221 248 -410 248 -226 0 -416 -154 -457 -369 -5 -30 -10 -94 -10
-143 0 -85 -2 -93 -35 -147 -42 -68 -52 -115 -35 -167 25 -73 119 -149 211
-168 48 -10 74 -131 48 -223 -13 -47 -84 -133 -110 -133 -6 0 -64 -25 -128
-55 -64 -30 -131 -58 -149 -61 l-33 -7 3 789 c4 789 4 789 27 864 73 241 257
394 390 326z"/>
<path d="M6319 9515 c-154 -29 -299 -87 -299 -118 0 -8 27 -45 60 -82 44 -49
77 -104 126 -204 162 -333 313 -458 622 -511 56 -10 109 -23 116 -29 17 -15
71 -124 97 -198 52 -149 60 -211 69 -558 4 -181 8 -331 7 -332 -1 -1 -27 9
-59 23 -233 98 -501 18 -723 -218 -197 -209 -269 -396 -269 -693 0 -191 15
-275 81 -435 106 -257 334 -519 545 -625 101 -50 144 -52 362 -15 721 122
1142 357 1345 750 230 444 120 937 -251 1130 -209 109 -468 111 -678 5 -38
-19 -71 -39 -75 -45 -13 -21 -22 -7 -38 63 -91 387 -47 656 127 780 28 20 47
23 191 28 230 9 337 42 476 148 90 67 134 120 256 304 68 102 136 191 194 251
94 99 103 117 66 141 -133 86 -559 130 -756 77 -321 -87 -491 -286 -576 -677
-29 -133 -68 -237 -79 -209 -4 11 -37 100 -72 198 l-66 179 11 76 c19 143 -14
304 -92 456 -129 250 -433 394 -718 340z m306 -336 c122 -65 305 -284 305
-364 0 -49 -29 -23 -134 120 -66 89 -210 245 -227 245 -5 0 -9 5 -9 10 0 16
22 12 65 -11z m1419 -357 c3 -5 -37 -30 -88 -56 -121 -63 -242 -152 -373 -279
-63 -60 -108 -96 -111 -89 -19 59 184 287 318 357 117 60 238 92 254 67z
m-784 -1587 c0 -23 -38 -55 -111 -95 -85 -46 -250 -211 -305 -305 -80 -137
-174 -412 -174 -508 0 -43 -18 -71 -36 -56 -36 30 -8 319 47 482 78 234 257
419 464 478 78 23 115 24 115 4z"/>
<path d="M8395 4896 c-72 -32 -114 -108 -122 -223 l-6 -72 -27 42 c-114 177
-301 167 -326 -18 -5 -36 -2 -55 20 -100 25 -50 39 -64 124 -122 14 -10 11
-12 -23 -18 -114 -17 -173 -58 -196 -134 -17 -58 -4 -103 45 -158 l44 -48 80
0 c72 0 86 3 150 37 l72 37 -25 -67 c-56 -149 -194 -300 -417 -454 -69 -49
-130 -88 -136 -88 -6 0 -4 19 5 48 24 76 29 264 8 342 -46 179 -192 330 -372
387 -50 16 -54 16 -72 -1 -26 -24 -41 -98 -41 -204 0 -175 54 -285 244 -497
56 -62 60 -70 64 -124 l4 -57 -67 -80 c-37 -43 -173 -218 -301 -389 -129 -170
-268 -354 -309 -408 -73 -96 -75 -99 -75 -156 0 -48 -5 -65 -29 -97 -64 -88
-194 -191 -387 -307 -83 -50 -94 -70 -105 -186 -22 -254 -121 -579 -245 -808
-54 -102 -57 -141 -14 -185 44 -44 90 -36 189 33 367 255 532 352 723 425 142
55 148 61 199 211 47 137 162 381 203 430 18 22 37 32 66 36 76 10 73 6 352
387 214 291 218 298 218 333 0 38 -187 206 -392 350 -32 23 -58 48 -58 57 0
71 266 310 346 310 10 0 49 -28 85 -63 196 -185 401 -219 637 -105 90 44 192
131 192 163 0 50 -176 173 -299 209 -63 19 -191 21 -292 5 -39 -6 -73 -8 -76
-5 -3 3 40 49 94 103 125 123 204 240 247 367 6 16 15 10 61 -42 91 -100 154
-130 242 -112 157 33 191 208 62 324 -21 20 -39 38 -39 41 0 3 21 5 48 5 76 0
142 37 175 97 45 85 34 149 -39 213 -36 31 -40 32 -108 28 -43 -3 -95 -15
-133 -30 l-62 -25 32 56 c51 90 38 212 -30 273 -49 45 -148 61 -208 34z m22
-467 c94 -35 110 -151 29 -200 -61 -37 -137 -8 -164 63 -19 49 6 105 58 130
41 21 41 21 77 7z m-922 -561 c16 -54 20 -138 7 -138 -11 0 -72 189 -72 220
l1 25 24 -28 c13 -15 31 -51 40 -79z m823 -484 c54 -22 24 -35 -91 -36 -125
-1 -250 39 -174 56 44 10 227 -4 265 -20z m-1581 -1649 c32 -32 35 -40 30 -77
-7 -55 -41 -88 -98 -95 -27 -4 -49 -14 -57 -25 -30 -41 -436 -535 -470 -570
-20 -21 -40 -38 -44 -38 -30 0 17 68 276 398 185 236 205 266 199 290 -16 56
-8 94 25 124 47 41 93 39 139 -7z"/>
<path d="M2543 4871 c-171 -44 -259 -247 -177 -409 13 -26 24 -50 24 -53 0 -4
-28 -12 -62 -18 -444 -86 -850 -437 -1005 -869 -71 -199 -66 -117 -72 -1282
l-6 -1055 -37 -6 c-79 -13 -98 -52 -98 -204 0 -139 13 -179 64 -200 31 -13
230 -15 1443 -15 1321 0 1410 1 1443 18 19 9 40 28 47 42 16 32 17 255 2 299
-12 34 -53 61 -94 61 l-25 0 0 159 c0 175 -3 183 -60 196 -41 9 -88 -3 -100
-25 -6 -10 -10 -68 -10 -128 0 -60 -3 -130 -6 -156 l-7 -46 -231 2 -231 3 -3
70 c-4 85 -18 105 -76 105 -71 0 -86 -19 -86 -106 l0 -74 -240 0 -240 0 0
1025 0 1025 234 0 c204 0 235 -2 240 -16 3 -9 6 -73 6 -143 0 -120 1 -129 23
-149 32 -30 97 -30 123 -1 17 19 19 38 19 165 l0 144 226 0 c207 0 228 -2 234
-17 4 -10 10 -91 13 -181 5 -189 10 -201 82 -209 82 -9 99 28 100 212 1 246
-59 482 -176 691 -189 337 -531 592 -889 663 -100 20 -95 14 -66 74 54 109 26
269 -60 341 -73 62 -180 89 -266 67z m159 -200 c53 -59 44 -134 -22 -179 -86
-58 -201 29 -171 129 27 91 132 118 193 50z m-164 -872 l-3 -401 -228 -2
c-201 -2 -227 0 -223 13 2 9 12 52 21 96 45 208 141 408 273 564 46 54 136
131 153 131 6 0 8 -161 7 -401z m208 379 c145 -108 281 -312 349 -523 23 -71
65 -234 65 -253 0 -4 -103 -7 -230 -7 l-230 -1 0 403 c0 222 4 403 9 403 4 0
21 -10 37 -22z m-518 -50 c-141 -166 -241 -389 -293 -648 l-17 -85 -220 3
-220 3 7 27 c14 56 67 171 114 248 131 212 317 366 561 466 63 26 116 47 118
47 1 1 -21 -27 -50 -61z m849 16 c189 -81 285 -146 418 -285 117 -123 188
-235 254 -406 l21 -53 -218 0 -218 0 -23 98 c-67 276 -173 501 -303 638 -28
30 -48 54 -45 54 3 0 55 -21 114 -46z m-1177 -1939 l0 -1025 -234 0 -234 0 -6
23 c-8 30 -8 1854 0 1950 l7 77 233 0 234 0 0 -1025z m640 0 l0 -1025 -237 2
-238 3 -3 1023 -2 1022 240 0 240 0 0 -1025z"/>
<path d="M4390 3066 c-74 -21 -125 -52 -170 -103 -52 -60 -115 -188 -131 -270
-12 -59 -15 -63 -40 -63 -18 0 -45 16 -81 46 -62 54 -133 90 -205 103 -67 13
-862 12 -885 0 -28 -15 -21 -42 26 -106 43 -59 138 -138 208 -174 46 -24 46
-22 3 -48 -75 -44 -19 -114 140 -176 55 -22 102 -41 104 -42 3 -2 -6 -14 -19
-27 -38 -41 -22 -69 63 -111 39 -19 95 -38 122 -41 101 -13 93 -34 -33 -82
-160 -62 -299 -74 -559 -46 -71 8 -80 0 -69 -59 13 -70 110 -149 231 -187 59
-19 59 -19 24 -54 -54 -53 -75 -130 -46 -171 12 -15 23 -17 73 -13 68 6 147
41 278 123 118 73 127 75 376 86 318 13 439 41 582 136 166 109 261 264 304
498 61 327 111 410 282 466 37 12 71 25 77 30 19 18 -32 50 -139 89 -97 35
-113 45 -164 98 -74 76 -135 104 -232 108 -42 2 -95 -2 -120 -10z m178 -212
c28 -20 30 -69 3 -84 -28 -14 -52 -12 -73 7 -24 21 -23 48 2 73 24 24 38 25
68 4z"/>
</g>
</svg>
