<?xml version="1.0" standalone="no"?>
<!DOCTYPE svg PUBLIC "-//W3C//DTD SVG 20010904//EN"
 "http://www.w3.org/TR/2001/REC-SVG-20010904/DTD/svg10.dtd">
<svg version="1.0" xmlns="http://www.w3.org/2000/svg"
 width="1024.000000pt" height="1024.000000pt" viewBox="0 0 1024.000000 1024.000000"
 preserveAspectRatio="xMidYMid meet">
<metadata>
Created by potrace 1.16, written by Peter Selinger 2001-2019
</metadata>
<g transform="translate(0.000000,1024.000000) scale(0.100000,-0.100000)"
fill="#000000" stroke="none">
<path d="M2607 9679 c-3 -8 -22 -77 -42 -154 -115 -422 -262 -783 -427 -1045
-77 -123 -216 -323 -257 -370 l-30 -35 -54 55 c-78 80 -94 129 -78 234 32 202
25 286 -22 286 -70 0 -147 -173 -147 -331 0 -129 27 -195 116 -288 l74 -78
-72 -69 c-40 -38 -117 -107 -170 -152 -54 -46 -98 -90 -98 -97 0 -47 98 -70
257 -62 l112 6 20 -32 c58 -94 164 -417 200 -614 55 -288 81 -655 63 -875 -12
-145 -30 -258 -41 -258 -3 1 -36 46 -74 100 -69 102 -103 131 -157 132 -89 3
-79 -58 40 -257 40 -66 90 -172 90 -190 0 -3 -7 -5 -16 -5 -19 0 -60 27 -134
90 -89 76 -132 88 -170 50 -33 -33 -24 -57 47 -131 36 -38 63 -72 59 -77 -4
-4 -62 -34 -129 -67 -119 -59 -122 -61 -125 -96 -2 -25 3 -40 18 -54 20 -19
23 -19 103 -1 556 119 678 136 1042 143 447 8 717 -21 1205 -132 133 -30 250
-55 260 -55 26 0 70 56 70 90 0 60 -6 65 -175 136 -55 23 -99 46 -98 50 26
141 112 512 134 579 32 96 72 163 106 180 13 7 51 8 105 4 94 -9 131 2 136 39
3 18 -17 43 -93 114 -52 50 -116 118 -141 152 -96 128 -172 325 -189 496 -13
116 -32 117 -187 11 -136 -92 -200 -131 -218 -131 -18 0 -7 110 23 225 26 100
104 289 152 369 l30 51 115 0 c162 0 226 27 218 92 -2 23 -20 39 -109 98 -195
129 -330 244 -406 348 l-36 48 6 106 c3 58 9 109 14 114 5 5 40 2 83 -7 85
-17 153 -9 158 18 2 9 -12 38 -31 65 -67 94 -110 195 -172 413 -40 136 -79
228 -101 237 -22 8 -49 -21 -116 -131 -79 -129 -194 -300 -214 -317 -19 -15
-19 -15 -133 176 -110 183 -184 337 -291 600 -83 203 -96 230 -103 204z m142
-1096 c204 -301 411 -531 646 -718 61 -48 110 -92 110 -99 0 -6 -19 -17 -41
-25 -39 -14 -44 -13 -95 12 -139 69 -459 391 -653 656 -37 51 -41 53 -54 35
-7 -10 -51 -76 -97 -146 -121 -183 -240 -339 -341 -447 -124 -131 -184 -167
-230 -136 l-25 16 108 113 c201 208 398 485 511 718 37 75 70 137 74 137 4 1
43 -52 87 -116z m-81 -725 l2 -198 -69 0 -68 0 -8 189 c-4 104 -4 195 0 201 4
7 32 10 73 8 l67 -3 3 -197z m180 171 c43 -15 52 -53 52 -220 l0 -137 -27 -5
c-16 -3 -49 -3 -74 0 -47 6 -47 6 -53 51 -8 58 -8 250 0 291 6 27 11 31 39 31
17 0 46 -5 63 -11z m25 -456 l39 -6 -4 -123 c-2 -76 -7 -127 -15 -135 -8 -8
-32 -9 -76 -5 -55 6 -66 11 -71 29 -8 30 -8 232 1 240 8 9 76 9 126 0z m-205
-130 l-3 -128 -66 -3 -67 -3 -6 53 c-7 57 -6 188 1 201 2 4 36 7 74 7 l70 0
-3 -127z m192 -690 c133 -150 175 -363 168 -868 l-3 -210 -57 -3 -58 -3 -1 58
c-3 303 -19 595 -38 675 -34 148 -117 318 -155 318 -23 0 -68 -53 -97 -115
-54 -117 -61 -177 -66 -570 -3 -258 -8 -362 -16 -367 -7 -4 -28 -8 -48 -8 -33
0 -37 3 -43 31 -13 68 -6 641 9 729 37 213 109 348 224 421 l44 28 42 -29 c24
-16 66 -56 95 -87z m832 -478 c12 -5 11 -19 -7 -88 l-21 -82 -64 3 c-35 1 -65
4 -67 6 -2 2 6 43 18 91 l22 87 53 -6 c29 -3 59 -8 66 -11z m-53 -277 c0 -18
-6 -55 -12 -83 l-12 -50 -59 -3 -59 -3 7 70 c9 101 9 101 77 101 l59 0 -1 -32z"/>
<path d="M7023 9642 c-121 -43 -173 -120 -173 -258 0 -44 7 -103 15 -130 8
-27 15 -52 15 -55 0 -3 -48 -18 -107 -34 -632 -163 -1026 -655 -1083 -1351
-25 -306 54 -596 219 -804 68 -86 119 -127 246 -200 255 -147 301 -231 385
-710 45 -258 92 -339 229 -391 69 -26 191 -22 289 9 62 20 64 20 82 2 30 -30
47 -69 85 -201 46 -157 64 -197 107 -241 112 -111 316 -113 445 -4 87 73 134
200 158 423 8 81 18 162 20 180 l6 32 54 -26 c107 -48 248 -21 310 61 67 88
70 107 67 376 -4 285 13 399 93 630 24 69 66 190 94 270 69 199 86 296 85 500
-2 493 -141 854 -440 1140 -182 175 -385 277 -662 334 l-107 22 3 33 c2 18 10
51 18 73 62 176 -76 327 -306 335 -73 3 -107 -1 -147 -15z m246 -237 c22 -21
26 -34 24 -76 -2 -75 -8 -79 -133 -79 -121 0 -123 2 -109 69 23 106 149 156
218 86z m204 -474 c381 -97 655 -328 793 -669 132 -327 136 -589 14 -952 -108
-321 -139 -488 -149 -825 -8 -238 -10 -255 -44 -292 -60 -67 -131 36 -156 229
-19 137 -43 215 -71 233 -19 12 -59 -24 -84 -73 -46 -91 -58 -183 -66 -517 -4
-170 -11 -321 -15 -335 -26 -87 -123 -95 -144 -12 -5 20 -12 86 -16 146 -10
173 -59 320 -112 340 -9 4 -41 -7 -72 -23 -152 -79 -306 -92 -409 -36 -85 46
-136 131 -173 291 -51 218 -62 254 -99 331 -52 106 -115 162 -258 233 -251
124 -360 248 -424 485 -35 132 -32 393 6 540 35 136 86 268 138 357 255 441
835 679 1341 549z"/>
<path d="M7253 8814 c-67 -33 -135 -128 -120 -168 8 -19 119 -45 124 -29 3 7
14 24 25 38 23 30 74 32 91 4 20 -31 -5 -69 -128 -197 l-125 -130 0 -50 c0
-31 5 -51 13 -54 6 -2 96 -2 199 0 l186 4 7 49 c4 26 4 53 0 59 -3 6 -46 10
-103 10 l-97 0 82 83 c122 123 150 209 101 307 -41 80 -168 117 -255 74z"/>
<path d="M6867 8748 c-25 -35 -55 -75 -66 -89 l-21 -26 45 -24 44 -24 28 27
28 27 0 -57 c0 -31 1 -123 3 -204 l2 -148 60 0 60 0 0 290 0 290 -68 0 -68 0
-47 -62z"/>
<path d="M7770 8029 c-73 -26 -279 -126 -412 -200 -86 -48 -115 -59 -152 -59
-25 0 -68 -5 -96 -11 l-51 -11 -72 69 c-120 115 -222 173 -306 173 -49 0 -71
-24 -71 -77 0 -87 116 -190 290 -259 l68 -26 4 -67 c4 -80 31 -124 92 -152
133 -60 275 33 276 181 l0 45 138 66 c204 99 332 187 394 273 56 77 18 97
-102 55z"/>
<path d="M6249 8015 c-31 -6 -68 -19 -83 -29 -51 -33 -88 -163 -72 -250 17
-88 122 -147 194 -110 20 10 41 20 46 23 40 18 -76 -108 -143 -156 -10 -7 32
-54 61 -69 l32 -17 74 77 c242 253 174 588 -109 531z m86 -150 c42 -41 21
-105 -35 -105 -52 0 -80 72 -43 112 22 25 49 23 78 -7z"/>
<path d="M7961 7918 c-48 -23 -104 -99 -99 -132 2 -13 19 -25 53 -36 l50 -16
31 34 c37 42 79 40 90 -5 11 -41 -7 -58 -59 -56 l-45 1 -6 -45 c-10 -79 -10
-80 37 -87 80 -13 107 -52 71 -104 -10 -15 -25 -22 -49 -22 -33 0 -50 14 -80
65 -10 16 -14 16 -63 -5 -33 -14 -52 -29 -52 -39 0 -28 44 -104 72 -124 33
-25 150 -35 201 -18 52 17 114 92 122 145 8 48 -16 119 -47 140 -19 13 -18 14
6 51 109 159 -57 340 -233 253z"/>
<path d="M7176 6968 c-185 -97 -288 -399 -180 -528 52 -61 184 -76 273 -31
128 66 151 261 39 344 -36 27 -108 33 -149 13 -42 -21 -42 -21 -25 13 17 33
73 84 116 106 36 19 36 23 8 65 -29 42 -35 44 -82 18z m29 -343 c30 -30 31
-54 4 -89 -24 -30 -78 -36 -99 -11 -12 15 -8 93 6 116 11 18 65 9 89 -16z"/>
<path d="M7165 4739 c-489 -66 -894 -349 -1111 -775 -169 -333 -202 -700 -93
-1042 152 -475 550 -829 1047 -929 133 -27 433 -24 566 5 121 27 281 80 383
127 42 19 79 35 83 35 26 0 332 -402 701 -920 253 -355 298 -407 382 -438 213
-80 427 65 427 288 0 154 -77 250 -700 885 -162 165 -328 340 -369 388 -85
101 -85 93 -4 219 242 381 301 811 167 1218 -156 471 -539 814 -1029 921 -106
23 -344 33 -450 18z m439 -373 c293 -88 530 -293 667 -579 55 -117 80 -219 86
-367 22 -496 -318 -946 -817 -1082 -132 -36 -408 -33 -533 5 -169 52 -318 140
-450 266 -144 138 -242 308 -279 489 -28 138 -22 378 14 502 124 425 438 712
867 791 25 4 116 6 201 5 132 -3 168 -8 244 -30z"/>
<path d="M7077 3995 c-89 -17 -172 -44 -254 -82 -78 -36 -273 -229 -331 -328
-79 -134 -111 -270 -78 -334 25 -48 188 -219 261 -274 161 -121 410 -207 599
-207 78 0 312 37 382 60 198 66 387 201 504 360 109 148 115 196 40 319 -122
202 -280 349 -454 426 -149 66 -479 95 -669 60z m-17 -300 c0 -3 -25 -33 -56
-66 -83 -91 -99 -132 -99 -259 0 -125 26 -190 105 -264 129 -120 295 -145 472
-71 109 46 167 96 209 180 58 117 52 217 -22 374 -21 46 -39 85 -39 88 0 7
126 -60 193 -103 82 -53 146 -111 193 -176 l36 -48 -28 -48 c-130 -222 -395
-340 -739 -329 -178 6 -273 29 -430 106 -114 56 -165 97 -231 182 l-46 60 29
37 c60 79 171 187 242 235 116 78 211 124 211 102z m368 -151 c57 -39 67 -110
21 -148 -80 -68 -195 4 -159 100 24 63 86 85 138 48z"/>
<path d="M2415 4714 c-118 -25 -128 -36 -139 -147 -10 -106 -17 -128 -40 -137
-12 -5 -70 -23 -129 -41 l-108 -33 -77 77 c-100 100 -112 100 -213 13 -97 -83
-204 -195 -213 -223 -8 -26 9 -62 70 -151 24 -35 44 -67 44 -72 0 -5 -18 -39
-39 -74 -22 -35 -49 -83 -61 -106 l-21 -41 -124 7 c-120 6 -123 6 -135 -15
-15 -29 -47 -196 -55 -291 -11 -127 11 -151 162 -173 l88 -12 17 -95 c9 -52
19 -115 23 -140 l7 -45 -48 -25 c-82 -43 -144 -97 -144 -126 0 -45 95 -226
150 -287 78 -85 88 -86 220 -20 l111 56 47 -40 c26 -22 73 -57 105 -77 31 -20
57 -42 57 -49 0 -7 -14 -53 -30 -103 -59 -172 -49 -183 244 -258 142 -37 175
-15 212 142 l19 79 109 7 c131 9 121 15 191 -126 57 -117 63 -120 169 -98 75
15 82 27 90 145 4 55 13 111 19 124 8 15 52 44 122 80 l110 56 3 86 c2 71 -2
100 -23 162 -14 42 -25 82 -25 91 0 20 110 90 243 155 120 58 115 51 142 185
10 48 24 94 31 100 6 7 57 22 113 35 128 28 141 42 141 146 0 83 -25 225 -46
267 -24 47 -74 54 -189 29 -54 -12 -99 -20 -101 -18 -2 2 -31 57 -63 123 -55
108 -59 121 -46 139 8 11 41 55 75 98 33 43 60 89 60 101 0 75 -250 316 -329
316 -24 0 -46 -16 -118 -90 l-89 -91 -39 17 c-22 10 -80 29 -130 44 l-90 26
-5 126 c-6 139 -11 152 -69 168 -35 9 -215 12 -256 4z m198 -770 c236 -54 412
-245 454 -493 20 -116 4 -215 -52 -328 -167 -339 -669 -410 -945 -134 -220
220 -213 570 14 797 141 140 341 200 529 158z"/>
<path d="M2422 3760 c-106 -22 -235 -127 -266 -215 -26 -74 -32 -209 -12 -276
20 -67 84 -154 149 -202 179 -133 431 -60 545 158 24 45 27 61 27 160 0 100
-2 115 -28 167 -79 161 -245 244 -415 208z"/>
<path d="M3950 3162 c-48 -23 -63 -60 -69 -171 l-6 -94 -69 -23 -68 -23 -66
55 c-75 62 -99 66 -154 29 -20 -14 -43 -25 -51 -25 -16 0 -161 -92 -172 -109
-7 -13 28 -79 82 -153 l34 -47 -30 -48 c-16 -26 -39 -73 -51 -103 -12 -30 -23
-56 -25 -58 -1 -2 -49 -11 -106 -21 l-104 -17 -17 -50 c-12 -35 -17 -83 -18
-169 0 -150 7 -165 83 -166 29 -1 76 -4 106 -7 l54 -7 17 -51 c10 -27 25 -65
35 -83 l17 -33 -70 -67 c-77 -74 -107 -121 -98 -157 8 -31 100 -124 161 -163
68 -43 97 -40 166 14 89 70 96 72 165 37 l59 -30 -4 -116 c-3 -113 -2 -116 21
-126 43 -18 239 -60 284 -60 60 0 66 11 114 197 10 39 14 43 63 59 l53 16 79
-81 c95 -98 116 -103 192 -42 55 44 183 175 183 188 0 7 -88 146 -114 178 -7
9 61 130 94 168 3 4 35 1 71 -8 91 -21 133 -19 163 8 33 29 63 122 71 222 11
136 -8 158 -157 176 l-97 12 -7 41 c-3 22 -14 64 -24 93 l-17 52 84 83 c52 51
83 90 83 104 0 42 -184 274 -217 274 -9 0 -54 -21 -100 -46 l-85 -46 -94 47
-95 48 7 107 c8 132 7 134 -131 178 -110 36 -174 40 -225 14z m187 -677 c199
-59 309 -316 218 -510 -120 -252 -445 -290 -614 -71 -113 146 -108 361 12 484
107 110 233 142 384 97z"/>
<path d="M3945 2342 c-53 -25 -123 -104 -131 -149 -21 -110 16 -191 108 -237
158 -79 348 48 325 217 -18 133 -182 225 -302 169z"/>
</g>
</svg>
