<?xml version="1.0" encoding="UTF-8" standalone="no"?>
<!-- Created with Inkscape (http://www.inkscape.org/) -->

<svg
   width="124mm"
   height="124mm"
   viewBox="0 0 124 124"
   version="1.1"
   id="svg1"
   sodipodi:docname="window.svg"
   inkscape:version="1.4.2 (ebf0e940, 2025-05-08)"
   xmlns:inkscape="http://www.inkscape.org/namespaces/inkscape"
   xmlns:sodipodi="http://sodipodi.sourceforge.net/DTD/sodipodi-0.dtd"
   xmlns="http://www.w3.org/2000/svg"
   xmlns:svg="http://www.w3.org/2000/svg">
  <sodipodi:namedview
     id="namedview1"
     pagecolor="#ffffff"
     bordercolor="#000000"
     borderopacity="0.25"
     inkscape:showpageshadow="2"
     inkscape:pageopacity="0.0"
     inkscape:pagecheckerboard="0"
     inkscape:deskcolor="#d1d1d1"
     inkscape:document-units="mm"
     inkscape:zoom="0.60950898"
     inkscape:cx="316.64833"
     inkscape:cy="178.83247"
     inkscape:window-width="1920"
     inkscape:window-height="1027"
     inkscape:window-x="0"
     inkscape:window-y="25"
     inkscape:window-maximized="0"
     inkscape:current-layer="layer1" />
  <defs
     id="defs1" />
  <g
     inkscape:label="Layer 1"
     inkscape:groupmode="layer"
     id="layer1"
     transform="translate(-78.581256,-514.87915)">
    <path
       id="path12"
       style="stroke-width:0.0335452"
       d="m 136.87489,518.60511 c -13.04908,4.66279 -23.71646,15.63206 -28.17796,28.98306 -2.11335,6.34004 -2.01272,4.29379 -2.01272,47.63419 0,37.87253 0.0336,39.58334 0.60381,40.08651 0.57027,0.53673 3.35453,0.57028 33.20975,0.57028 h 32.5724 l 0.70445,-0.90572 0.70445,-0.90572 -0.13419,-39.9188 c -0.10063,-44.58157 0.10065,-40.82451 -2.44879,-47.83546 -4.39442,-12.244 -14.29026,-22.27401 -26.8697,-27.17162 -3.9248,-1.54308 -5.09888,-1.61016 -8.1515,-0.53672 z m 5.80333,4.69633 c 3.1197,1.17408 5.13241,2.24753 9.09075,4.8976 l 3.58933,2.38171 -2.21398,2.41526 c -4.05897,4.36087 -7.11158,9.4262 -9.19138,15.12888 l -1.20763,3.35452 -2.34817,-0.0336 -2.31462,-0.0336 -0.73799,-2.18045 c -1.74435,-5.16596 -5.73623,-11.80791 -9.49329,-15.76624 -1.30826,-1.37535 -2.38171,-2.58298 -2.38171,-2.68362 0,-0.40254 4.83051,-3.85769 7.07803,-5.06532 1.91208,-1.0399 7.01096,-3.15325 7.74895,-3.22034 0.13418,0 1.20763,0.369 2.38171,0.80509 z m -16.53778,15.46434 c 0.87217,1.10699 2.28106,3.15324 3.1197,4.5286 1.50953,2.48235 3.79061,7.64831 3.4887,7.91667 -0.10064,0.10063 -17.8796,0.23481 -20.09358,0.13418 -0.369,0 1.30826,-4.49505 2.8178,-7.54767 1.44244,-2.85134 3.32097,-5.80332 5.23304,-8.15148 l 1.17409,-1.47599 1.30826,1.30826 c 0.738,0.70444 2.04626,2.18044 2.95199,3.28743 z m 35.625,-1.27472 c 2.85134,3.82415 4.49506,6.84322 5.93749,10.9022 0.57028,1.64371 0.97282,2.95197 0.93927,2.95197 -21.60311,0.0671 -20.86512,0.10063 -20.76447,-0.57027 0.20126,-1.27472 4.09251,-8.75529 5.46786,-10.53319 2.61653,-3.32097 5.06533,-6.0046 5.53496,-6.0046 0.23481,0 1.54308,1.476 2.88489,3.25389 z m -23.54873,23.04555 v 4.12607 l -1.4089,0.23481 c -3.32098,0.53673 -6.6755,3.42162 -8.01731,6.87677 -0.57026,1.47599 -0.73799,2.65007 -0.77154,5.53496 -0.0336,3.52225 -0.067,3.68997 -0.93927,4.59569 -0.53671,0.50318 -0.93925,1.17408 -0.93925,1.44244 0,0.46964 -0.87219,0.53673 -7.37996,0.53673 h -7.37994 v -13.75353 -13.75354 h 13.41808 13.41809 z m 31.19703,9.59394 v 13.75353 h -7.24576 -7.21222 l -0.369,-1.00636 c -0.16773,-0.57027 -0.63736,-1.17408 -1.00635,-1.37535 -0.60381,-0.33545 -0.67091,-0.60382 -0.46964,-2.4488 0.63737,-6.27296 -2.28107,-11.70728 -7.27931,-13.55227 -1.07344,-0.40254 -2.14689,-0.73799 -2.41525,-0.73799 -0.40254,0 -0.50317,-0.73799 -0.50317,-4.19315 v -4.19315 h 13.25035 13.25035 z m -42.3005,19.62394 c 0.369,0.63736 1.0399,1.34181 1.47599,1.54308 0.43608,0.20127 0.97281,0.90572 1.20763,1.57662 0.23482,0.67091 1.0399,2.21399 1.7779,3.42162 1.17408,1.87852 1.34181,2.34816 1.20763,3.68996 -0.33546,3.28743 -0.80509,3.75707 -4.99824,5.50142 -9.29203,3.89124 -11.50601,5.30014 -12.68009,8.15149 -0.43609,1.0399 -0.57027,1.10699 -2.07981,1.10699 h -1.64371 v -13.08263 -13.08263 h 7.51412 7.51414 z m 42.3005,11.90855 v 13.08263 h -1.44244 c -1.4089,0 -1.50953,-0.0671 -2.07981,-1.34182 -1.30826,-2.88488 -3.38806,-4.22669 -12.04272,-7.74893 -5.03179,-2.04626 -5.5685,-2.58298 -5.5685,-5.70269 0,-1.61017 0.16772,-2.18044 1.14053,-3.58934 0.63736,-0.93926 1.37535,-2.3817 1.71081,-3.18679 0.33545,-0.90572 0.93926,-1.67726 1.54308,-2.04626 0.53672,-0.3019 1.20763,-1.00636 1.47599,-1.57662 l 0.53672,-0.97281 h 7.3464 7.37994 z m -55.61795,23.64937 -0.10063,5.87041 h -1.14054 -1.17408 v -5.87041 -5.87042 h 1.27472 1.24118 z m 55.61795,0 v 5.87041 h -1.07344 -1.10699 v -5.87041 -5.87042 h 1.10699 1.07344 z" />
  </g>
</svg>
