<svg xmlns="http://www.w3.org/2000/svg" width="512" height="512"><path d="M191.313 115.313c.9.04 1.8.07 2.72.11 5.13.25 9.91.88 14.89 2.09 3.63.85 7.31 1.25 11.01 1.7 3.89.51 7.41 1.37 11.07 2.79 1.87 1.68 1.87 1.68 4 4 1.32 1.13 2.66 2.25 4 3.37 3.42 2.97 5.74 5.71 8 9.63.69 1.32 1.37 2.65 2 4l1 2c.41-.01.41-.01 2.48-.04l3.27-.03c.53 0 .53 0 3.23-.03 2.55.08 4.6.35 7.02 1.1.29-.95.57-1.9.87-2.88.19-.51.19-.51 1.13-3.12l2-2c.31-.83.62-1.65.93-2.5.36-.83.71-1.65 1.07-2.5.98-.7 1.98-1.37 3-2 .14-.34.14-.34.87-2.07.37-.63.75-1.27 1.13-1.93 1.66-.34 3.33-.67 5-1 .3-.65.6-1.3.91-1.96.36-.68.72-1.35 1.09-2.04 1.74-.76 1.74-.76 3.87-1.13.8-.14 1.6-.29 2.42-.44.89-.14 1.79-.29 2.71-.43 2.08-.33 4.16-.67 6.25-1 .97-.15 1.95-.29 2.95-.44 2.8-.56 2.8-.56 5.2-1.59 3.33-1.25 6.38-1.43 9.91-1.6.67-.03 1.33-.07 2.02-.11 7.02-.37 13.73-.55 20.67.74.92.31 1.84.62 2.78.94 3.31 1.09 6.62 1.86 10.03 2.56 1.23.26 2.47.52 3.7.77 2.08.44 4.17.87 6.26 1.29.77.17 1.55.33 2.35.5.67.14 1.33.27 2.01.41 1.87.53 1.87.53 3.67 1.49 2.41 1.14 4.57 1.63 7.18 2.11.47.08.47.08 2.83.53.49.08.49.08 2.94.52.98.18 1.96.37 2.98.55 2.42.45 4.84.89 7.27 1.33v2c.46-.01.46-.01 2.81-.07 3.19.07 3.19.07 6.19 1.07l2-1 2 2-1 5c.95.22 1.89.45 2.87.69.52.21.52.21 3.13 1.31 1.25 2.25 1.25 2.25 2 5 .34.87.69 1.74 1.04 2.64 1.16 4.07 1.14 7.6 1.02 11.79-.13 5.35.09 10.29.94 15.57.16 1.77.3 3.54.43 5.31.39 4.42 1.1 8.66 2.02 13 .65 3.18 1.21 6.36 1.74 9.56.17 1.07.35 2.14.54 3.24.27 2.89.27 2.89-.12 5.08-.2.6-.4 1.19-.61 1.81-1 3-1 3-1.13 5.75.14 3.46.62 6.82 1.13 10.25.36 2.54.71 5.08 1.06 7.62.05.32.05.32.28 1.95.47 3.5.84 6.89.66 10.43-.09.32-.09.32-.52 1.98-.95 4-.12 8.18.31 12.23.45 3.84 1 7.66 1.54 11.48.54 3.92.8 7.68.67 11.62 0 1.69 0 1.69.56 5.12.44 2.69.34 4.96-.03 7.65-.6 5.05-.68 10.03-.66 15.11 0 .86-.01 1.72-.01 2.61.01 4.53.31 8.73 1.14 13.2-.29 2.47-.74 4.42-1.75 6.69-.42.43-.83.86-1.25 1.31-3.69 1.71-7.18 2.47-11.19 3.06-5.61.84-5.61.84-7.81 1.94-3.16-.36-6.22-.84-9.34-1.48-2.98-.59-5.97-1.09-8.97-1.59-1.07-.17-2.14-.35-3.24-.53-.81-.13-1.62-.27-2.45-.4l-1-3c-.68.04-1.36.08-2.07.12-2.8-.12-5.11-.66-7.78-1.49-2.72-.8-5.46-1.46-8.22-2.13-3.06-.76-6.01-1.53-9-2.57-3.73-1.19-7.49-1.81-11.35-2.47-1.59-.28-3.18-.61-4.75-1.01-2.33-.57-4.44-.58-6.83-.45l-1 1c-1.19.2-2.38.34-3.57.46-.74.08-1.47.16-2.22.24-1.54.15-3.07.31-4.6.46-5.83.62-10.97 1.89-16.5 3.87-4.64 1.44-9.39 2.05-14.19 2.74-.73.11-1.46.23-2.22.35-.66.1-1.33.19-2.01.29-.56.2-1.12.39-1.69.59-1.08 1.49-1.08 1.49-2 3-.83.31-1.65.62-2.5.93-.83.36-1.65.71-2.5 1.07-1 1.81-1 1.81-2 4-1.59 1.77-3.28 3.36-5 5 1.94-.88 1.94-.88 4-2l1-2 2 1-1 2h8c-1.31 1.5-1.31 1.5-3 3h-3v2c6.41 1.31 12.53.85 19 0l3-1 1 2c13.95 1.47 27.99 1.09 42 1v3c-14.63.16-29.24-.21-43.86-.65-.77-.02-1.54-.04-2.34-.07-1.45-.04-2.91-.08-4.37-.13-3.15-.1-6.29-.18-9.43-.15l-1 2 1.72-.25c8.73-1.05 17.26-.5 26 .03 4.48.26 8.95.5 13.42.74.87.05 1.74.09 2.63.14 7.24.37 14.45.48 21.7.36 5.71-.08 11.33.21 17 .89 1.69.16 1.69.16 4.53.09l1.37-1.52c.54-.49 1.07-.98 1.63-1.48 2.26-.16 2.26-.16 4.89.14.96.1 1.91.2 2.9.3 1 .13 1.99.25 3.02.37 1.96.22 3.93.43 5.89.64.92.11 1.84.21 2.79.31 2.86.27 5.63.33 8.51.24v-2c2 .66 4 1.33 6 2v-2h3v3h3v-3c1.87.37 1.87.37 4 1l2 2v-3c-16.64-1.58-16.64-1.58-21-1l-2 2-2-2h2v-2h-2v-2c.6.06 1.21.13 1.83.2 13.14 1.37 25.97 1.99 39.17 1.49.64-.03 1.29-.05 1.95-.08 7.81-.29 7.81-.29 11.05-.61l1-1-7-1 1-3c-.31-1.34-.65-2.68-1-4-.07-1.58-.09-3.17-.07-4.75l.03-2.42c.01-.31.01-.31.04-1.83l2-1c.12.84.25 1.69.37 2.56.66 3.59 1.58 6.95 2.63 10.44h3c.14.4.14.4.87 2.43.37.85.75 1.7 1.13 2.57l2 1v2h2c-.07-.5-.13-.99-.2-1.5-.3-2.25-.58-4.5-.87-6.75-.1-.78-.2-1.56-.31-2.36-.05-.38-.05-.38-.28-2.28q-.135-1.035-.27-2.1c-.08-2.19.3-3.92.93-6.01 1.74 5.47 2.56 10.73 3.12 16.43.09.83.18 1.66.26 2.51.21 2.02.42 4.04.62 6.06l1-3c-.12-2.05-.12-2.05-.44-4.19-.1-.72-.2-1.43-.31-2.17-.04-.27-.04-.27-.25-1.64h3l1 16h2c-.15-.52-.29-1.05-.44-1.58-1.38-5.49-1.72-10.49-1.54-16.14 0-.37 0-.37-.02-2.28l-1-2c-.12-1.34-.18-2.68-.21-4.02-.02-.41-.02-.41-.08-2.51l-.09-2.72c-.31-8.03-1.02-15.92-2.12-23.88-.13-.94-.26-1.88-.4-2.85-.5-3.48-.99-6.68-2.1-10.02.26 3.7.53 7.4.8 11.09l.27 3.77c.48 6.74 1 13.44 1.93 20.14h-3l.06-2.38-.06-2.62-1-2c-.21-1.76-.37-3.52-.5-5.28-.08-1.07-.17-2.14-.25-3.25-.08-1.12-.17-2.25-.25-3.41-.17-2.2-.34-4.39-.5-6.59-.08-1.08-.16-2.15-.24-3.26-.18-2.14-.38-4.28-.62-6.41-.11-.99-.22-1.98-.33-2.99-.11-.88-.21-1.76-.32-2.67 0-.71 0-1.41.01-2.14l2-2c.14.6.29 1.19.43 1.81.45 1.75 1 3.47 1.57 5.19.03-1.19.04-2.38.06-3.57.01-.33.01-.33.04-2-.1-2.43-.1-2.43-.58-5.59-.57-3.92-.82-7.82-1.02-11.77-.04-.74-.08-1.49-.13-2.26-.12-2.38-.25-4.75-.37-7.12-.09-1.56-.17-3.11-.25-4.66-.17-3.1-.34-6.21-.5-9.31l-.78-14.45-.12-2.21c-.74-13.29-.74-13.29-1.35-18.06l-1-2 1-3c-.23-1.75-.46-3.49-.75-5.23-.32-2.26-.25-4.49-.25-6.77l-1-3c-.05-1.36-.04-2.71 0-4.07.07-5.82-.28-11.61-.65-17.42-.27-4.52-.4-8.99-.35-13.51l-4 1c.06.77.12 1.54.18 2.33.23 2.9.45 5.81.67 8.71.1 1.25.19 2.49.29 3.74.56 7.08 1.03 14.11.86 21.22l-5 1v-5l2 1c-.12-3.58-.25-7.15-.37-10.73-.05-1.21-.09-2.42-.13-3.64-.44-13.14-.44-13.14-1.5-18.63l-1-1v14h-2l-1 2c.49-.17.49-.17 3-1v6c.32 1.33.65 2.67 1 4h-2l1 24h-3c-.06-1.05-.11-2.1-.17-3.18l-.63-11.76-.27-5.08c-.13-2.44-.26-4.88-.4-7.33-.02-.37-.02-.37-.11-2.26-.27-4.83-.78-9.59-1.42-14.39l2-1v-7l-4-1c.16.7.31 1.41.48 2.14.53 2.9.72 5.65.83 8.6.05 1.06.09 2.13.13 3.23l.12 3.34c.04 1.12.09 2.24.13 3.4.11 2.76.21 5.52.31 8.29l-5 1v-5l2 1-1-32-3-1c-.06 4.08-.1 8.16-.13 12.25 0 .61-.01 1.21-.01 1.84-.04 9.08.39 17.97 1.6 26.99.1.76.2 1.52.3 2.3.09.65.18 1.31.28 1.98-.01.54-.03 1.08-.04 1.64l-2 2c-3.62-13.28-3.4-27.29-3.63-40.94-.04-1.96-.07-3.91-.11-5.87-.1-4.73-.18-9.46-.26-14.19 1.35.97 2.68 1.97 4 3 .9 1.68.9 1.68 1.5 3.43.89 2.21 1.74 3.93 3.06 5.94.8.54 1.61 1.07 2.44 1.63 3.31.67 6.62.82 10 1 2.04.18 4.08.37 6.12.56 1.63.15 3.25.29 4.88.44 1.13 2.53 1.96 4.72 2.3 7.49.03.86.05 1.72.08 2.61.03.96.06 1.92.1 2.91.03 1 .05 2.01.08 3.05.07 2.07.15 4.15.22 6.22.02.5.02.5.11 3 .32 8.08 1.03 16.14 2.56 24.08 1.65 8.94 2.16 17.82 2.61 26.89l.24 4.49c.11 2.22.23 4.45.35 6.67.26 5.12.56 10.24.87 15.36.02.33.02.33.13 1.97.64 10.24.64 10.24 1.35 14.26l1 2c.07 2.18 0 4.34-.07 6.51.08 2.9.58 5.63 1.07 8.49.17 2.23.32 4.45.43 6.69.31 5.39.67 10.79 1.08 16.18.04.6.09 1.2.13 1.82.19 2.44.37 4.87.56 7.3.13 1.73.26 3.45.4 5.18.07 1 .15 2 .23 3.04.11 1.84.17 3.69.17 5.54 0 2.3.41 4.03 1 6.25.36 2.35.7 4.7 1 7.06.08.68.17 1.37.26 2.07 1.03 8.59 1.39 17.23 1.74 25.87l-2 1c-1.99.03-3.98-.01-5.97-.09l-1.8-.06-3.8-.15c-1.9-.08-3.8-.14-5.7-.21-6.25-.23-12.46-.61-18.69-1.29-2.42-.24-4.8-.27-7.23-.2-3.4.04-6.54-.21-9.9-.78-2.48-.29-4.92-.25-7.41-.22-3.07.03-5.98.02-9-.5-2.87-.49-5.6-.54-8.5-.5-4.32.04-8.57-.16-12.88-.5-6.09-.47-12.14-.55-18.25-.5-8.16.06-16.27-.21-24.42-.65a258 258 0 0 0-16.69-.33c-6.52.04-13.02-.32-19.53-.67-10.07-.53-10.07-.53-13.23-.35-2.16.8-2.16.8-4.07 1.87-3.64 2.01-7.13 3.81-11.26 4.54-5.64.48-11.27.71-16.92.78-.33 0-.33 0-2.01.03-4.6.01-8.36-.78-12.74-2.22-2.44-.93-4.81-1.91-7.16-3.05-3.67-1.23-6.92-1.22-10.77-1.18h-2.35c-2.53 0-5.07.02-7.6.04-1.75.01-3.51.01-5.26.02-12.29.06-24.57.33-36.85.81-6.19.24-12.36.38-18.56.34-3.44.02-6.84.25-10.26.52-6.49.46-12.9.55-19.4.43-2.79.07-2.79.07-5.79 1.07-3.19.05-6.36.02-9.55-.04-3.12-.04-5.47.04-8.45 1.04l-3-1c-1.63.23-3.25.48-4.87.74-2.44.29-4.8.29-7.26.26-3.98-.05-7.85.13-11.81.5-9.01.77-18.03.59-27.06.5-1.06-7.05-.99-13.84-.63-20.94.05-1.04.09-2.08.14-3.15.26-5.66.26-5.66.49-7.91.16-.33.16-.33 1-2 .04-1.44.04-2.88 0-4.31-.04-3.41.21-6.37 1-9.69 1.02-6.27 1.5-12.55 2-18.88.09-1.1.17-2.2.26-3.34.57-7.21 1.06-14.43 1.4-21.66.16-3.17.5-6.06 1.34-9.12 1.61-9.34 2.24-18.63 2.6-28.09.3-7.55.81-15.07 1.4-22.6a1391.225 1391.225 0 0 1 1-12.31c.08-1.02.16-2.03.25-3.08l.25-2.94c.03-.43.03-.43.22-2.62.26-2.2.72-4.22 1.28-6.36 1.34-8.68 1.59-17.55 2.12-26.3.12-1.99.25-3.98.38-5.97.03-.6.07-1.2.1-1.82.22-3.38.65-6.61 1.4-9.91.83-.06 1.67-.12 2.52-.19 2.34-.17 4.67-.35 7-.54 2.06-.16 4.11-.3 6.17-.39 2.2-.13 4.18-.32 6.31-.88 1.65-1.03 2.76-2.05 4.01-3.53 1.02-1.53 1.83-3.06 2.61-4.72l1.38-2.75 3-1c.05 9.44-.05 18.85-.37 28.29-.07 1.91-.13 3.81-.19 5.72-.66 20.14-.66 20.14-2.44 26.99-.03 2.07.06 4.12.16 6.19-.06.6-.11 1.19-.16 1.81l-2 2c-1-3-1-3-.93-6.06.08-1.25.17-2.49.27-3.74.04-.66.09-1.33.14-2.01.14-2.13.3-4.25.45-6.38.21-2.78.4-5.57.59-8.36.05-.66.1-1.32.14-2 .31-4.5.44-8.95.34-13.45h-1v-5h1c.17-1.77.33-3.54.5-5.31.04-.5.04-.5.28-2.99.22-2.7.22-2.7.22-5.7-.66.16-.66.16-4 1v31h1v5l-3-1c.5.32 1 .64 1.52.97l1.48 2.03c.25 2.83-.05 5.61-.31 8.43-.13 1.63-.25 3.25-.36 4.87-.06.79-.12 1.59-.19 2.41-.3 4.76-.23 9.52-.14 14.29l2-1-.19 2.65c-.08 1.24-.17 2.48-.25 3.72-.05.67-.09 1.35-.14 2.04-.24 3.64-.46 7.28-.64 10.92-.64 12.93-1.51 25.91-3.78 38.67h-2c.06-.78.12-1.55.18-2.35.23-2.92.45-5.83.67-8.75.1-1.25.19-2.51.29-3.76.53-6.72.99-13.39.86-20.14h-1a93 93 0 0 1 0-5l1-1c-.17-.53-.34-1.06-.51-1.61-.61-2.98-.5-5.65-.37-8.69.01-.3.01-.3.07-1.8l.24-5.65c.06-1.29.11-2.57.16-3.85.13-3.13.27-6.27.41-9.4h-2v-3h2c-.34-.73-.68-1.45-1.02-2.19-.98-2.81-.98-2.81-.99-5.15.1-.86.21-1.72.32-2.6.66-6.27.98-12.52 1.25-18.81.04-1 .09-2.01.13-3.04.11-2.4.21-4.81.31-7.21h-2l1-6h-2l-.15 2.27c-.49 6.71-1.36 13.17-2.85 19.73h2c.16-.33.16-.33 1-2l1 3c-.07 1.67-.2 3.34-.38 5-.62 6.52-.95 13.04-1.23 19.59-.04.78-.07 1.57-.11 2.38l-.09 2.13c-.19 1.9-.19 1.9-1.19 4.9l3-1v4c-.66.16-.66.16-4 1-.99-3.24-1.05-5.99-.88-9.36l.15-3.13c.05-1.08.11-2.15.16-3.26.21-4.09.4-8.17.57-12.25.01-.41.01-.41.1-2.45.05-1.85-.02-3.7-.1-5.55-.34-.5-.68-1.01-1.04-1.52-.16-.25-.16-.25-.96-1.48.2-1.63.41-3.27.7-4.89.56-4.01.37-8.07.3-12.11l-2 2-4-3-1 1c-1.09 7.91-1.23 16-1.63 23.98-.27 5.5-.66 10.98-1.19 16.47-.18 2.55-.18 2.55-.15 5.68-.03 2.87-.03 2.87-1.03 5.87-.07 1.9 0 3.77.06 5.67-.06 2.33-.06 2.33-.56 5.56-.63 4.1-.58 8.13-.5 12.27.08 4.67 0 9.11-.75 13.73-.47 3.3-.59 6.63-.75 9.96-.96 17.55-.96 17.55-2.07 24.68-.43 3.13-.43 3.13-.43 6.44v2.69l-1 2c-.21 2.42-.38 4.82-.5 7.25-.19 3.55-.38 7.04-.97 10.56-.77 4.64-1.13 9.31-1.53 14-.53 6.07-1.09 12.13-1.78 18.18-.31 2.75-.55 5.5-.79 8.26-.08.97-.16 1.95-.25 2.95-.17 2.61-.22 5.18-.18 7.8l.15-1.51c.51-4.69 1.44-8.98 2.85-13.49.52 1.7.52 1.7 1 4-.16 3.03-.6 5.98-1 9l10 1v-2l-2-1c.6.16 1.19.33 1.81.5 2.19.5 2.19.5 5.19.5h15c2-1 2-1 3-2l-27-1v3l-4-1c.05-.61.11-1.21.17-1.83 2.02-22.16 2.02-22.16 2.83-32.17l2-1 1 3c-.06 1.82-.06 1.82-.31 3.84-.09.75-.17 1.5-.27 2.27-.09.78-.19 1.57-.3 2.39-.19 1.62-.38 3.24-.58 4.86-.09.79-.19 1.58-.28 2.4-.51 4.4-.89 8.82-1.26 13.24h2v-2c1.31-1.44 1.31-1.44 3-3 .51-.56 1.03-1.12 1.56-1.69.47-.43.95-.87 1.44-1.31h2q.18-1.17.36-2.37c.17-1.02.34-2.03.51-3.07l.49-3.06c.11-.41.11-.41.64-2.5l2-1c-.03.7-.05 1.39-.07 2.11l-.06 2.76c-.02.91-.04 1.81-.07 2.74.07.79.13 1.58.2 2.39l2 2c2.4.31 4.71.51 7.12.62.34.02.34.02 2.05.11 1.34.07 2.68.13 4.02.19 1.49.06 2.98.15 4.47.24 2.09.09 2.09.09 5.34-.16 2-1.5 2-1.5 3-3l2 2c.53-.16 1.06-.32 1.61-.49 2.88-.62 5.57-.68 8.51-.7.53-.01.53-.01 3.2-.04.44.04.44.04 2.68.23l2 2c-2.77.59-5.16 1-8 1v2l2 1-3 1-2-2 1-1h-3v3l-6 3v2l-4-1 1-2-2 2-2 1v2c1.09-.09 2.19-.17 3.32-.26 1.46-.1 2.91-.2 4.37-.31.72-.05 1.44-.11 2.18-.16 3.95-.28 7.23-.13 11.13.73 2.31-.94 2.31-.94 4-2v3c.55-.07.55-.07 3.37-.44.36-.04.36-.04 2.19-.26 1.7-.21 3.4-.45 5.09-.7.44-.06.44-.06 2.66-.35.82-.12 1.64-.24 2.49-.36.72.03 1.45.07 2.2.11 1.79 1.48 1.79 1.48 3 3l-1-3h10v1l16 1v-2l-2-1 3-1 1 3c9.14.14 18.23-.14 27.36-.65 5.05-.27 10.07-.37 15.13-.34 4.22-.02 8.42-.27 12.63-.51.86-.05 1.72-.1 2.61-.15 2.09-.11 4.18-.23 6.27-.35-3.31-1.02-6.15-1.05-9.59-.88l-3.3.15c-.58.02-.58.02-3.49.16-9.21.42-18.4.72-27.62.57v-2c3-1 3-1 5.22-1.07.84.03 1.69.05 2.56.08.46 0 .46 0 2.8.05 1.95.04 3.89.09 5.84.15.92.02 1.84.03 2.8.05l2.56.06c.36-.05.36-.05 2.22-.32 1.8-1.52 1.8-1.52 3-3 .43.35.86.7 1.31 1.06.56.31 1.11.62 1.69.94l3-1c1.73-.07 3.46-.09 5.19-.07l2.73.03c.34.01.34.01 2.08.04-4.3-1.47-8.62-2.78-13-4v-1l12 1 1-3h-3l-2 1-2-2v-3l7 1v-2c.76.31 1.52.62 2.31.93 1.88.75 3.77 1.43 5.69 2.07-1.19-2.38-1.19-2.38-3-5-2.25-1.13-2.25-1.13-5-2-1.07-.52-2.13-1.04-3.19-1.57-3.74-1.62-7.33-1.88-11.37-2.19-3.38-.34-6.25-1.09-9.44-2.24l-1-2c-4.18-.51-8.37-1-12.55-1.48-2.5-.29-4.98-.6-7.47-.95-8.99-1.14-17.99.23-26.83 2-2.15.43-2.15.43-4.15.43v2c-.7.13-1.39.27-2.11.41-3.06.62-6.1 1.3-9.14 2.02-.53.13-.53.13-3.21.75-.84.27-1.68.54-2.54.82l-1 2c-2.19.78-2.19.78-5 1.5-.5.13-.5.13-3.01.77-3.34.81-6.7 1.54-10.07 2.25-1.92.48-1.92.48-4.61 1.6-2.31.88-2.31.88-5.19 1.13-3.69-.3-6.62-1.04-10.12-2.25l-2-2q-2.205-.45-4.44-.75c-2.43-.51-2.43-.51-4.56-1.25-.34-.45-.34-.45-2.07-2.69-.81-2.89-1.3-5.34-1.17-8.34.28-2.28.74-4.48 1.24-6.72 1.56-7.35 1.21-14.44.43-21.88-1.18-13.07.17-27.25 3.19-40.01.06-.39.06-.39.38-2.36-.3-1.34-.64-2.68-1-4-.09-2.04-.13-4.09-.13-6.13 0-.52 0-.52-.01-3.19.05-.89.09-1.77.14-2.68l1-2-1-3c.42-2.81 1.1-5.3 2-8h2v-2h-2c.18-.75.37-1.49.56-2.25.14-.91.29-1.82.44-2.75-.32-1.34-.66-2.67-1-4-.22-1.79-.41-3.58-.57-5.38-.08-.91-.16-1.83-.25-2.77-.34-5.24-.14-9.64 1.19-14.73 1.75-7 2.62-14.04 3.41-21.21.22-1.95.49-3.9.75-5.86.62-4.91.77-9.84.9-14.78.16-3.67.58-6.8 1.94-10.22.54-1.01 1.07-2.02 1.63-3.05 2.62-1.25 2.62-1.25 5-2 .16-.5.16-.5 1-3-.76.14-1.52.29-2.3.43-1 .19-1.99.38-3.01.57-.99.18-1.98.37-2.99.56-2.7.44-2.7.44-5.7.44v-2l2-1c2.46-.16 4.91-.28 7.37-.38 7.22-.36 13.68-1.54 20.63-3.62 1.18-.36 2.37-.71 3.56-1.07.52-.15 1.04-.31 1.58-.47 3.45-.86 6.98-1.36 10.5-1.9.78-.19 1.56-.37 2.36-.56l2-2c1.7-.55 1.7-.55 3.74-.97.75-.16 1.5-.31 2.28-.48.4-.08.4-.08 2.41-.49 6.14-1.3 12.19-2.69 18.21-4.45 6.36-1.65 12.16-1.64 18.67-1.3m119.69 2.69 1 2Zm6 0-1 2h2zm-108 6 1 3Zm6 0v3h2l-1-3zm6 0v3Zm6 0 1 2Zm90 0-1 2 2 2v-4zm12 0 1 2Zm6 0v3Zm6 0v3h2l-1-3zm6 0-1 3h3l-1-3zm-132 5-2 4h4l-1-4zm126 0v4l2-1-1-3zm-144 1 1 2Zm6 0v3h2l-1-3zm5 0 1 4 2-1v-3zm78 0v2h2v-2zm7 0 1 4 2-3zm23 0 1 3 2-1v-2zm13 0v3h2l-1-3zm5 0v3h3v-3zm13 0 1 2Zm-187 3c-.17.66-.17.66-1 4h2zm-17 2v2l2-1zm60 0c-.17.66-.17.66-1 4l3-1-1-3zm6 0v4h2l-1-4zm84 0c-.33.49-.33.49-2 3 .49.33.49.33 3 2l2-3zm6 0v3Zm-144 1 1 2Zm42 0v3h2l-1-3zm17 0v2l2-1zm97 0-1 2h2zm17 0 1 4 2-1v-3zm6 0 1 3 1-3zm-137 5c-.33.49-.33.49-2 3 .49.33.49.33 3 2l1-4zm96 0c-.33.49-.33.49-2 3 .49.33.49.33 3 2l2-3zm36 0-2 5h3l1-4zm-198 1 1 2Zm12 0 1 3Zm6 0v3l2-2zm6 0-1 2h2zm36 0v3h2v-3zm107 0v3h3l-1-3zm25 0v3h2l-1-3zm12 0-1 2h2zm24 0v3Zm6 0v3Zm-174 5c-.33.49-.33.49-2 3 .49.33.49.33 3 2l2-3zm108 0c-.33.49-.33.49-2 3 .49.33.49.33 3 2l2-3zm24 0c-.17.66-.17.66-1 4h3l-1-4zm6 0c-.17.66-.17.66-1 4l3-1zm-204 1 1 2Zm6 0-1 2c-.1 1.72-.1 1.72-.07 3.62.03 1.12.05 2.23.07 3.38h3v-8zm6 0-1 3 4-1zm5 0-1 3h4l-1-3zm6 0 1 3h2l-1-3zm7 0v3Zm30 0 1 2Zm11 0v2h2v-2zm60-1c-2.94.93-2.94.93-5 2l.03 1.94.03 2.62c.01.85.02 1.69.04 2.57-.1 2.87-.1 2.87-.6 5.81-.77 5.25-.64 10.51-.63 15.8 0 1.17-.01 2.35-.01 3.53v9.55c.01 3.35 0 6.7 0 10.05 0 5.63 0 11.27.01 16.9v19.42c-.01 5.59-.01 11.18-.01 16.76v9.98c-.03 34.75-.03 34.75 1.73 42.79.14.75.27 1.5.41 2.28l-1 3c.31 1.34.65 2.67 1 4 .09 1.83.13 3.66.12 5.5.01.94.01 1.87.01 2.84-.13 2.66-.13 2.66-.63 4.58-.84 3.46-.69 6.91-.69 10.45-.01.75-.02 1.49-.04 2.25-.01 3.5.13 6.58 1.24 9.92l.99 2.46c1.07.2 2.14.41 3.25.62.6.12 1.2.23 1.83.35l1.92.03c1.35-.64 2.68-1.3 4-2 0-.52-.01-1.04-.01-1.57-.02-5.5-.04-11-.05-16.51 0-2.03-.01-4.07-.02-6.11-.01-2.97-.02-5.95-.02-8.92-.01-.87-.01-1.75-.02-2.65 0-5.35.18-10.65.47-15.99.78-14.35.81-28.68.81-43.04.01-2.17.01-4.34.01-6.51.01-7.59.01-15.19.01-22.78q0-10.575.03-21.15c.01-6.09.02-12.19.02-18.28 0-3.62 0-7.25.01-10.87.01-3.39.01-6.78 0-10.18 0-1.24 0-2.48.01-3.72.05-10.52.05-10.52-1.27-14.51-.32-.73-.65-1.46-.98-2.21-2.39-.47-4.58-.89-7-1m48 1-1 3 3 1v-4zm7 0v3l2-1zm6 0v4l3-2zm18 0 1 2Zm12 0v3h2l-1-3zm5 0 1 3h2l-1-3zm6 0c.37 1.93.37 1.93 1 4l2 1v-5zm6 0v3h3l-1-3zm6 0 1 3 2-2zm7 0-1 2h2zm6 0 1 2Zm-174 1 1 2Zm-72 4v4h2l-1-4zm6 0v4h2l1-3zm48 0c-.33.49-.33.49-2 3 .49.33.49.33 3 2l1-4zm114 0c-.33.49-.33.49-2 3l4 1-1-4zm6 0c-.17.66-.17.66-1 4 .74-.19 1.48-.37 2.25-.57 2.75-.43 2.75-.43 5.06 0 .56.19 1.11.38 1.69.57l-1-4zm48 0c-.33.49-.33.49-2 3 .49.33.49.33 3 2l1-4zm6 0c-.33.49-.33.49-2 3 .49.33.49.33 3 2l1-4zm24 0v4l2-1-1-3zm-304 1 1 3Zm34 0 1 2Zm5 0 1 4 2-1-1-3zm24 0 1 3h2l-1-3zm7 0v3l2-2zm6 0v3Zm18 0 1 2Zm5 0 1 4 3-3zm115 0v3l2-1v-2zm23 0 1 3 2-2zm7 0-1 2h2zm12 0v3h2l-1-3zm5 0v3h3v-3zm5 0 1 3h3v-3zm19 0 1 4 2-1v-3zm6 0 1 3 2-2zm7 0-1 2h2zm-114 1v2h2v-2zm-144 4v4l2-3zm60 0c-.33.49-.33.49-2 3 .49.33.49.33 3 2l2-3zm6 0c-.33.49-.33.49-2 3h4zm156 0c-.17.66-.17.66-1 4h3l-1-4zm6 0c-.33.49-.33.49-2 3 .49.33.49.33 3 2l1-4zm6 0c-.17.66-.17.66-1 4h3l-1-4zm6 0-2 4 3 1 2-1v-3zm6 0c-.17.66-.17.66-1 4h3l-1-4zm6 0c-.33.49-.33.49-2 3 .49.33.49.33 3 2l1-4zm-258 1v3h2v-3zm36 0-1 2h2zm5 0 1 3 2-2zm13 0v3h2l-1-3zm5 0 1 4 2-1v-3zm43 0 1 2Zm6 0 1 2Zm18 0 1 2 1-2zm35 0v3l3-1-1-2zm31 0-1 2h2zm6 0-1 2h2zm18 0 1 3Zm5 0 1 4 2-1v-3zm42 0 1 4 2-1-1-3zm7 0v3Zm6 0v3Zm-229 1 2 2v-2zm-47 4-1 3 3-1zm48 0c-.17.66-.17.66-1 4 .38-.11.38-.11 2.31-.63.89-.12 1.77-.25 2.69-.37 1.81.93 1.81.93 3 2l1-4c-2.77-.6-5.16-1-8-1m12 0c-.17.66-.17.66-1 4h3l-1-4zm5 0v4l4-1-1-3zm157 0c-.33.49-.33.49-2 3 .49.33.49.33 3 2l1-4zm6 0c-.17.66-.17.66-1 4h3l-1-4zm18 0v4h2l-1-4zm6 0v4h2l-1-4zm6 0c-.17.66-.17.66-1 4h3l-1-4zm6 0c-.33.49-.33.49-2 3 .49.33.49.33 3 2l1-4zm-222 1 1 2Zm29 0v2h2v-2zm27 0 1 2Zm52 0 1 2 1-2zm18 0 1 2Zm6 0-1 2h2zm12 0 1 2Zm24 0 1 3Zm5 0 1 4 2-1v-3zm18 0 1 3 2-2zm6 0 1 3 2-2zm30 0 1 4 2-1v-3zm6 0 1 3h2l-1-3zm7 0v3Zm32 0 2 4v-4zm-212 1 1 2Zm-48 4v4h2l-1-4zm48 0c-.17.66-.17.66-1 4h3l-1-4zm54 0c-.33.49-.33.49-2 3 .49.33.49.33 3 2l2-3zm6 0c-.33.49-.33.49-2 3 .49.33.49.33 3 2l1-4zm48 0c-.17.66-.17.66-1 4h3l-1-4zm6 0c-.33.49-.33.49-2 3 .49.33.49.33 3 2l2-1-2-4zm6 0-2 4h4l-1-4zm42 0c-.17.66-.17.66-1 4h3l-1-4zm6 0c-.17.66-.17.66-1 4h3l-1-4zm-222 1 1 2Zm11 0 1 3 2-1v-2zm7 0v3Zm42 0 1 2Zm41 0 1 4 2-1v-3zm18 0v3h3v-3zm6 0v3h3l-1-3zm7 0-1 2 2 2v-4zm5 0v4l3-1-1-3zm7 0v4l2-1-1-3zm6 0v3Zm6 0v3h2l-1-3zm23 0 1 3 2-2zm7 0-1 2h2zm41 0 1 4 2-1v-3zm6 0 1 3h2l-1-3zm-197 5c-.33.49-.33.49-2 3l4 1v-4zm18 0-2 4h4l-1-4zm48 0c-.33.49-.33.49-2 3 .49.33.49.33 3 2l1-4zm6 0-1 3h3l-1-3zm12 0 1 3Zm6 0c-.17.66-.17.66-1 4h3l-1-4zm6 0c-.33.49-.33.49-2 3 .49.33.49.33 3 2l1-4zm6 0c-.33.49-.33.49-2 3 .49.33.49.33 3 2l1-4zm6 0c-.33.49-.33.49-2 3 .49.33.49.33 3 2l1-4zm6 0c-.17.66-.17.66-1 4h3l-1-4zm6 0c-.17.66-.17.66-1 4h3v-3zm6 0c-.33.49-.33.49-2 3 .49.33.49.33 3 2l2-4zm6 0c-.33.49-.33.49-2 3 .49.33.49.33 3 2l1-4zm54 0c-.17.66-.17.66-1 4h3v-3zm6 0c-.33.49-.33.49-2 3 .49.33.49.33 3 2l1-4zm6 0v4h2l-1-4zm-228 1 1 2Zm6 0 1 2Zm6 0 1 2Zm11 0v4l4-2v-2zm12 0v3h3l-1-3zm132 0 1 3h2l-1-3zm7 0-1 2h2zm18 0 1 2Zm-156 5c-.17.66-.17.66-1 4h3l-1-4zm6 0c-.33.49-.33.49-2 3 .49.33.49.33 3 2l1-4zm6 0c-.33.49-.33.49-2 3 .49.33.49.33 3 2l1-4zm78 0c-.17.66-.17.66-1 4h3l-1-4zm6 0c-.33.49-.33.49-2 3 .49.33.49.33 3 2l1-4zm6 0c-.17.66-.17.66-1 4h3l-1-4zm6 0c-.33.49-.33.49-2 3l4 1-1-4zm6 0c-.17.66-.17.66-1 4h3l-1-4zm6 0c-.17.66-.17.66-1 4h3l-1-4zm60 0v4h2l-1-4zm6 0c-.33.49-.33.49-2 3 .49.33.49.33 3 2l1-4zm-264 1 1 2Zm6 0 1 2Zm6 0v3Zm24 0 1 2Zm101 0 2 2v-2zm7 0v2l3-1zm59 0 1 3 2-2zm7 0v3l2-2zm24 0 1 2Zm6 0-1 3 3-1zm6 0-1 2h2zm23 0v3h2v-3zm-179 5v4h2l-1-4zm84 0v4l2-1-1-3zm6 0-1 3h3l-1-3zm60 0v4h2l-1-4zm24 0v4h2l-1-4zm-310 1 1 3 1-3zm46 0-1 2 2 2 1-3zm6 0-1 2h2zm5 0 1 3 1-3zm7 0v3l2-2zm18 0v3l2-2zm59 0 1 4h5l1 5 3-3h-2l1-5-3-1v2h-3v-2zm13 0v4l2-1-1-3zm5 0 1 3 2-1v-2zm72 0 1 3h2l-1-3zm6 0 1 3 2-2zm6 0 1 3 2-2zm37 0v3h2v-3zm24 0 1 2Zm-162 5v4h2l-1-4zm10 0v2h2v-2zm-106 1v3h2v-3zm5 0 1 3h2l-1-3zm6 0 1 3h2v-3zm6 0 1 3h2l-1-3zm6 0 1 3 2-2zm210 0 1 3h2v-3zm6 0v3h3v-3zm25 0 1 2Zm12 0 1 2Zm6 0 1 2Zm-246 1v3h2l-1-3zm109 4-1 3h3v-3zm-145 1-1 2h2zm5 0 1 3h2l-1-3zm6 0 1 3h2v-3zm6 0 1 3h2v-3zm6 0 1 3h2l-1-3zm7 0v3Zm18 0 1 2Zm102 0-1 2h2zm6 0v3l2-2zm78 0v3h2l-1-3zm5 0v3h3v-3zm7 0v3Zm30 0 1 2Zm6 0 1 2Zm-121 1 2 2v-2zm85 4c-.17.66-.17.66-1 4h3l-1-4zm-235 1v2h2v-2zm18 0 1 3h2l-1-3zm25 0-1 2h2zm108 0v2l2-1zm36 0v3l2-2zm12 0v3l2-2zm5 0 1 3h2l-1-3zm24 0 1 3h2v-3zm13 0v3Zm24 0 1 2Zm6 0v3Zm-115 1 2 2v-2zm54 0 1 2h2v-2zm-156 1 1 2Zm-53 3 1 2Zm96 0 1 2Zm60 0v3h2l-1-3zm78 0c-.17.66-.17.66-1 4h3l-1-4zm6 0c-.17.66-.17.66-1 4h3l-1-4zm-222 1v3h2v-3zm6 0v3Zm24 0 1 2Zm78 0v3h2l-1-3zm5 0 1 4 2-1-1-3zm6 0-1 3 3 1v-4zm24 0v3h3l-1-3zm42 0v3h3v-3zm6 0 1 3h2v-3zm7 0-1 2h2zm12 0v2h2v-2zm18 0-1 2h2zm12 0 1 2Zm6 0 1 2Zm-307 1 2 2v-2zm6 0 2 2v-2zm7 0 1 2Zm36 0 1 2Zm-48 4c-.17.66-.17.66-1 4h3l-1-4zm6 0c-.33.49-.33.49-2 3l4 1v-3zm6 0c-.33.49-.33.49-2 3l4 1-1-4zm6 0c-.33.49-.33.49-2 3 .49.33.49.33 3 2l1-4zm156 0-1 3h3l-1-3zm6 0v4h2l-1-4zm6 0c-.17.66-.17.66-1 4l4-1zm-200 1 1 3Zm37 0v3h3l-1-3zm7 0 1 2Zm30 0v4l3-3zm5 0v2h2v-2zm48 0 1 3h2l-1-3zm7 0 1 2Zm24 0v3Zm23 0 1 3h2v-3zm36 0 1 4 2-1v-3zm6 0v3h3v-3zm36 0 1 4 2-1v-3zm6 0 2 4 1-4zm7 0v3Zm18 0-1 2h2zm6 0v2h2v-2zm5 0v3h3l-1-3zm7 0v3Zm6 0v3Zm-85 1 2 2v-2zm97 0 1 2Zm-233 1v2h2v-2zm210 2c-.17.66-.17.66-1 4l2-4zm-271 1v4h2l-1-4zm6 0c-.33.49-.33.49-2 3 .49.33.49.33 3 2l1-4zm36 0c-.33.49-.33.49-2 3 .49.33.49.33 3 2l1-4zm126 0v4h2l-1-4zm18 0v4h2l-1-4zm6 0c-.17.66-.17.66-1 4h3l-1-4zm6 0c-.17.66-.17.66-1 4h3zm30 0c-.17.66-.17.66-1 4h3l-1-4zm6 0v4h2zm12 0v2l2-1zm30 0c-.17.66-.17.66-1 4h3l-1-4zm18 0c-.17.66-.17.66-1 4h3l-1-4zm-283 1v3h3v-3zm6 0 1 4 2-1-1-3zm18 0 1 4 2-1v-3zm25 0 1 2Zm6 0v3Zm6 0v3Zm29 0v3h3l-1-3zm7 0 1 2Zm12 0 1 3Zm6 0v3Zm47 0 1 3 1-3zm31 0-1 2h2zm6 0 1 2Zm11 0v3h3v-3zm19 0 1 2Zm41 0v3h3v-3zm6 0 1 4 2-1-1-3zm12 0v3Zm-276 1 1 3 2-2zm7 0 1 3v-3zm47 0 2 2v-2zm139 0 1 2Zm-210 4v4h2l-1-4zm6 0c-.17.66-.17.66-1 4h3l1-3zm12 0v4h2l-1-4zm6 0c-.33.49-.33.49-2 3l4 1-1-4zm6 0c-.33.49-.33.49-2 3l4 1-1-4zm72 0-1 3 3-1zm84 0c-.17.66-.17.66-1 4h3l-1-4zm6 0c-.17.66-.17.66-1 4h3l-1-4zm84 0 1 3v-3zm6 0-1 3h3l-1-3zm6 0-1 3h3l-1-3zm-306 1-1 3h3l-1-3zm6 0-1 2 3-1zm5 0 1 3 2-1v-2zm19-1c-.33.16-.33.16-2 1l1 3h3l-1-4zm23 1v2h2v-2zm13 0v3h2l-1-3zm5 0v3h3v-3zm6 0v2h3v-2zm7 0 1 2Zm11 0 1 2 2-1zm7 0v3Zm23 0 1 3 2-1v-2zm7 0 1 2Zm6 0 1 2Zm41 0 1 3h2v-3zm18 0 1 3h2v-3zm25 0v3h2l-1-3zm5 0v3h3v-3zm6 0 1 3h2l-1-3zm6 0 1 3 2-2zm72 0v2h2v-2zm-96 1 1 3 2-2zm-221 4v4l3-1v-2zm72 0c-.17.66-.17.66-1 4h3l-1-4zm138 0v4h2l-1-4zm12 0c-.17.66-.17.66-1 4h3l-1-4zm-156 1v3h2l-1-3zm48 0v3Zm65 0v2h2v-2zm19 0v3h2l-1-3zm5 0v3h3v-3zm12 0v3h3v-3zm12 0v3h3v-3zm6 0v3h3v-3zm6 0 1 3 2-2zm7 0-1 2h2zm30 0 1 2Zm30 0v3h2l-1-3zm-132 1v2l2-1zm-108 4c-.17.66-.17.66-1 4l4-1v-2zm108 0c-.17.66-.17.66-1 4l3-1-1-3zm24 0c-.17.66-.17.66-1 4h3l-1-4zm18 0v4h2l-1-4zm6 0c-.17.66-.17.66-1 4h3l-1-4zm10 0v4h4l1-2-1-2zm-232 1v3l2-2zm6 0 1 2Zm54 0v3h2l-1-3zm60 0-1 3h2zm66 0v3h2l-1-3zm5 0v3h3v-3zm12 0 1 3h2l-1-3zm6 0v2h3v-2zm18 0v3h3v-3zm13 0v3Zm18 0 1 2Zm12 0v3Zm6 0v3Zm6 0 1 2Zm-192 1 1 2Zm6 0 1 2Zm168-1c-1.34.65-2.68 1.31-4 2v1h5v-3zm-204 5c-.33.49-.33.49-2 3l3 1v-4zm30 0c-.17.66-.17.66-1 4h3l-1-4zm6 0c-.17.66-.17.66-1 4h3l-1-4zm24 0-1 3 3 1-1-4zm72 0c-.17.66-.17.66-1 4l3-1-1-3zm-192 1 1 2Zm30 0v4l2-1-1-3zm6 0v3Zm5 0 1 3h2v-3zm6 0 1 4 2-1-1-3zm6 0-1 3h4v-3zm25 0v3h2l-1-3zm5 0 1 4 2-1v-3zm18 0v3h3l-1-3zm7 0-1 3 3-1zm60 0v3h2l-1-3zm5 0v2h2v-2zm12 0 1 4 2-1v-3zm13 0v2l2-1zm29 0v2h3v-2zm25 0 1 2Zm6 0v3l2-2zm5 0v3h3l-1-3zm6 0 1 3h2v-3zm6 0 1 3h2l-1-3zm6 0 1 3 2-2zm7 0-1 2h2zm-151 1v2h2v-2zm-107 4c-.33.49-.33.49-2 3h4l-1-3zm18 0-1 3h3l-1-3zm30 0c-.33.49-.33.49-2 3 .49.33.49.33 3 2l1-4zm6 0-1 3h2zm18 0v4h2l-1-4zm84 0-2 4h4l-1-4zm78 0c-.17.66-.17.66-1 4h3l-1-4zm6 0c-.17.66-.17.66-1 4h3l-1-4zm-258 1 1 2Zm12 0v4l3-3zm17 0v2h3v-2zm12 0 2 2v-2zm18 0 1 4 3-3zm19 0 1 2Zm17 0v3h3l-1-3zm18 0v3h3l-1-3zm7 0v3h2l-1-3zm6 0-1 2h2zm30 0v3h2v-3zm12 0v3l3-1-1-2zm66 0 1 2Zm11 0v3h3v-3zm18 0v3h3v-3zm6 0 1 4 2-1v-3zm6 0-1 3h4v-3zm6 0v3l8-1-1-2zm-41 0c-.33.16-.33.16-2 1v2h4l-1-3zm-180 5c-1 1.69-1 1.69-2 4-.13 2.75-.13 2.75 0 5l3 1c1.06-3.2 1.07-5.66 1-9zm108 0c-.33.49-.33.49-2 3 .49.33.49.33 3 2l1-4zm71 0 1 5 2-1-1-4zm7 0c-.33.49-.33.49-2 3 .49.33.49.33 3 2l1-4zm6 0c-.17.66-.17.66-1 4h3l-1-4zm6 0c-.17.66-.17.66-1 4h3l-1-4zm6 0c-.17.66-.17.66-1 4h3l-1-4zm6 0c-.33.49-.33.49-2 3 .49.33.49.33 3 2l1-4zm6 0c-.33.49-.33.49-2 3l4 1-1-4zm6 0c-.17.66-.17.66-1 4h3l-1-4zm-282 1 1 2Zm6 0v3Zm6-1c-.33.16-.33.16-2 1v3l3 1 1-4zm5 1v3h2v-3zm36 0 1 4 2-1v-3zm12 0v2h2v-2zm7 0 1 2Zm23 0v3h3l-1-3zm18 0v2l3-1zm6 0 2 2v-2zm37 0-1 2h3v-2zm17 0v2h2v-2zm13 0v3h2l-1-3zm5 0 1 4 2-1v-3zm6 0 1 3h2l-1-3zm7 0v3l2-2zm6 0 1 3Zm6 0 1 2Zm6 0 1 3Zm6 0v3h2l-1-3zm5 0 1 4 2-1v-3zm54 0 1 3 3-1-1-2zm6 0-1 2c.99.16.99.16 6 1-1.38-1.5-1.38-1.5-3-3zm7 0v3h2l-1-3zm5 0 1 3 1-3zm-175 1v2h2v-2zm-118 4-2 2 1 4 4-4zm42 0c-.33.49-.33.49-2 3 .49.33.49.33 3 2l2-3zm42 0c-.17.66-.17.66-1 4h3l-1-4zm72 0v4l2-1-1-3zm66 0c-.33.49-.33.49-2 3 .49.33.49.33 3 2l2-3zm6 0c-.33.49-.33.49-2 3 .49.33.49.33 3 2l1-4zm6 0c-.17.66-.17.66-1 4h3l-1-4zm6 0c-.33.49-.33.49-2 3l4 1-1-4zm6 0-1 3h3l-1-3zm6 0-1 3h3l-1-3zm6 0v4h2l-1-4zm6 0c-.17.66-.17.66-1 4h3l-1-4zm6 0c-.17.66-.17.66-1 4h3l-1-4zm-282 1-1 2h2zm6 0-1 2 2 2 2-4zm11 0v3h3v-3zm31 0v4l2-1v-3zm18 0 1 2Zm96 0v4l3-3zm23 0 1 3h2l-1-3zm6 0 1 3h2v-3zm6 0v3h3v-3zm6 0-1 3 3 1 1-4zm6 0v3h3l-1-3zm6 0v9h3v-9zm6 0 1 4 2-1v-3zm6 0v3h3v-3zm73 0 1 2Zm5 0 1 3 2-2zm-263 1 1 2Zm59 0 2 2v-2zm6 1 1 2 1-2zm-101 3c-.17.66-.17.66-1 4 .38-.11.38-.11 2.31-.63.89-.12 1.77-.25 2.69-.37 1.81.93 1.81.93 3 2l1-4c-2.77-.6-5.16-1-8-1m12 0c-.33.49-.33.49-2 3 .49.33.49.33 3 2l2-3zm12 0c-.33.49-.33.49-2 3 .49.33.49.33 3 2l1-4zm6 0c-.17.66-.17.66-1 4h3l-1-4zm6 0c-.17.66-.17.66-1 4h3l-1-4zm6 0c-.33.49-.33.49-2 3 .49.33.49.33 3 2l1-4zm6 0c-.33.49-.33.49-2 3l4 1-1-4zm48 0v4h2l-1-4zm60 0v4l2-1-1-3zm18 0-1 3 2 2 1-3zm18 0c-.17.66-.17.66-1 4h3l-1-4zm6 0c-.17.66-.17.66-1 4h3l-1-4zm18 0c-.33.49-.33.49-2 3 .49.33.49.33 3 2l2-3zm6 0c-.33.49-.33.49-2 3 .49.33.49.33 3 2l1-4zm6 0c-.33.49-.33.49-2 3 .49.33.49.33 3 2l1-4zm6 0c-.17.66-.17.66-1 4h3l-1-4zm6 0c-.17.66-.17.66-1 4h3l-1-4zm30 0c-.17.66-.17.66-1 4h3l-1-4zm6 0c-.17.66-.17.66-1 4h3l-1-4zm-283 1 1 3h2l-1-3zm24 0 1 4 3-1v-3zm36 0v2h2v-2zm37 0v3l2-2zm11 0 1 3 2-2zm7 0 1 2Zm41 0 1 3h2v-3zm30 0 1 3h2v-3zm6 0v3h3v-3zm18 0v3h3v-3zm43 0-1 2h2zm35 0 1 4 2-1-1-3zm6 0 1 4 2-1-1-3zm-287 5c-.17.66-.17.66-1 4h3l-1-4zm6 0c-.17.66-.17.66-1 4h3l-1-4zm6 0c-.33.49-.33.49-2 3 .49.33.49.33 3 2l1-4zm6 0c-.33.49-.33.49-2 3 .49.33.49.33 3 2l1-4zm6 0c-.17.66-.17.66-1 4h3l-1-4zm6 0v4l2-1-1-3zm12 0v4h2l-1-4zm138 0c-.17.66-.17.66-1 4h9l-1-4zm12 0c-.17.66-.17.66-1 4h3l-1-4zm6 0c-.17.66-.17.66-1 4h3l-1-4zm6 0c-.17.66-.17.66-1 4h3l-1-4zm6 0c-.33.49-.33.49-2 3 .49.33.49.33 3 2l1-4zm6 0c-.33.49-.33.49-2 3 .49.33.49.33 3 2l1-4zm6 0c-.17.66-.17.66-1 4h3l-1-4zm6 0c-.33.49-.33.49-2 3 .49.33.49.33 3 2l1-4zm6 0c-.17.66-.17.66-1 4h3l-1-4zm36 0c-.17.66-.17.66-1 4h3l-1-4zm6 0c-.17.66-.17.66-1 4h3l-1-4zm6 0-1 3h3l-1-3zm6 0c-.17.66-.17.66-1 4h3l-1-4zm-306 1 1 2Zm12 0v3h2l-1-3zm41 0 1 3 2-1v-2zm12 0v2h2v-2zm13 0v4l3-2v-2zm66 0-1 2h2zm41 0 1 3h2l-1-3zm6 0 1 3h2v-3zm66 0 1 3 2-2zm54 0v3l2-1v-2zm-40 2 1 2 3-1zm-253 3c-.17.66-.17.66-1 4h3l-1-4zm6 0c-.17.66-.17.66-1 4h3l-1-4zm6 0c-.17.66-.17.66-1 4h3l-1-4zm6 0c-.17.66-.17.66-1 4h3l-1-4zm42 0c-.17.66-.17.66-1 4h3l-1-4zm114 0-2 4h4l-1-4zm24 0c-.17.66-.17.66-1 4h3l-1-4zm6 0c-.17.66-.17.66-1 4h3l-1-4zm6 0c-.17.66-.17.66-1 4h3l-1-4zm6 0c-.17.66-.17.66-1 4h3l-1-4zm6 0c-.17.66-.17.66-1 4h3l-1-4zm6 0c-.17.66-.17.66-1 4h3l-1-4zm6 0c-.17.66-.17.66-1 4h3l-1-4zm36 0c-.17.66-.17.66-1 4h3l-1-4zm18 0-1 3 3 1-1-4zm6 0c-.17.66-.17.66-1 4h2zm-306 1-1 2h2zm5 0 1 3h2v-3zm31 0-1 2h2zm54 0 1 2Zm6 0 1 2Zm6 0 1 2Zm72 0-1 3h3v-3zm5 0 1 3h2v-3zm12 0v3h3v-3zm6 0v2l3-1zm6 0 1 3 2-1v-2zm48 0v3l3-1-1-2zm25 0 1 2Zm-210 1v2l2-1zm6 4-1 3h2zm138 0c-.17.66-.17.66-1 4h3l-1-4zm30 0c-.17.66-.17.66-1 4h3l-1-4zm60 0c-.17.66-.17.66-1 4h3v-3zm-294 1 1 2Zm5 0 1 3 2-2zm6 0 1 3 2-1v-2zm6 0 1 3h2v-3zm6 0 1 3 2-2zm36 0 2 4v-4zm24 0v3h3l-1-3zm6 0 1 3 2-2zm67 0-1 2 3-1zm5 0 1 3 2-2zm6 0 1 3 2-1v-2zm6 0 1 3 2-1v-2zm6 0 1 3 2-2zm6 0v2h2v-2zm13 0v3h2v-3zm11 0v3l3-1v-2zm18 0 1 3h2v-3zm12 0v3h3v-3zm6 0 1 3h2l-1-3zm6 0 1 3 1-3zm19 0v3h2v-3zm5 0v3l3-1-1-2zm-227 1 1 2Zm150 4c-.17.66-.17.66-1 4h3l-1-4zm6 0c-.33.49-.33.49-2 3l4 1-1-4zm36 0c-.17.66-.17.66-1 4h3l-1-4zm6 0c-.33.49-.33.49-2 3 .49.33.49.33 3 2l1-4zm24 0c-.17.66-.17.66-1 4h3l-1-4zm24 0c-.17.66-.17.66-1 4h3l-1-4zm-288 1 1 2Zm11 0 1 3 2-2zm7 0-1 2h2zm18 0 1 2Zm6 0v3l2-2zm5 0-1 2 3 1 1-3zm6 0 2 2v-2zm24 0v3h3v-3zm6 0v3h2v-3zm25 0 1 2Zm95 0v2h2v-2zm7 0-1 5c.33.16.33.16 2 1l1-5zm18 0-1 2h3v-2zm17 0 1 3 2-2zm6 0 1 4 2-1v-3zm6 0 1 4 2-1v-3zm13 0-1 2h2zm11 0c-.33.16-.33.16-2 1v2h4v-3zm-275 0-2 2h4zm-24 5v4l3-3zm96 0c-.17.66-.17.66-1 4h3l-1-4zm114 0c-.17.66-.17.66-1 4h3l-1-4zm6 0c-.17.66-.17.66-1 4h3l-1-4zm36 0-1 3 3 1-1-4zm6 0c-.17.66-.17.66-1 4h3l-1-4zm6 0c-.33.49-.33.49-2 3 .49.33.49.33 3 2l2-3zm6 0c-.33.49-.33.49-2 3 .49.33.49.33 3 2l2-3zm6 0-2 4h4l-1-4zm30 0c-.17.66-.17.66-1 4h3l-1-4zm-312 1 1 3Zm12 0v3l2-2zm6 0v3l2-2zm6 0v3h2l-1-3zm5 0v3l3-1v-2zm7 0-1 2h2zm6 0 1 2Zm54 0v2l2-1zm11 0-1 2 3 1v-3zm7 0 1 2Zm6 0v3Zm6 0v4l2-1-1-3zm5 0v3h3l-1-3zm7 0v3l2-2zm6 0v3l2-2zm6 0-1 2h2zm137 0 1 3 1-3zm13 0-1 2h2zm-246 5v4l4-1v-2zm48 0c-.17.66-.17.66-1 4h3l-1-4zm18 0v4l3-1zm6 0v4l3-1v-2zm6 0v4l2-1-1-3zm84 0c-.33.49-.33.49-2 3 .49.33.49.33 3 2l1-4zm54 0v4l2-1-1-3zm42 0v4l1-4zm-313 1v3h3l-1-3zm7 0v3Zm6 0-1 2h2zm6 0-1 2h2zm6 0 1 2Zm60 0v3Zm12 0 1 2Zm11 0 1 3 1-3zm7 0 1 2Zm24 0-1 2h2zm5 0 1 3 1-3zm7 0 1 2Zm59 0 1 4 2-1v-3zm12 0 1 3 2-2zm36 0v2l3-1zm6 0 1 3h2v-3zm12 0v2h2v-2zm7 0 1 2Zm12 0-1 2 2 2v-4zm6 0c-.98 2.93-1.08 4.95-1 8l3-1-1-7zm24 0 1 2Zm-120 5c-.17.66-.17.66-1 4l4-1zm6 0v4h2l-1-4zm84 0c-.17.66-.17.66-1 4h3l-1-4zm-295 1 1 3 2-1v-2zm7 0v3l2-2zm5 0v2h2v-2zm61 0 1 2Zm6 0-1 2h2zm6 0 1 2Zm18 0v3h2v-3zm5 0 1 3 2-2zm7 0-1 2h2zm6 0-1 2h2zm5 0 1 3 1-3zm7 0-1 2h2zm18 0 1 2Zm48 0v3h2l-1-3zm17 0 1 3 2-2zm19 0v3h2l-1-3zm6 0v3Zm6 0v3Zm42 0v3h2l-1-3zm24 0 1 2Zm6 0 1 2Zm-126 1 1 2Zm36 0 1 2Zm60 4c-.17.66-.17.66-1 4h3l-1-4zm6 0c-.17.66-.17.66-1 4l3-1-1-3zm-294 1 1 2Zm6 0 1 2Zm6 0-1 2h2zm42 0v3h2l-1-3zm37 0 1 2 1-2zm17 0 1 2Zm6 0 1 2Zm12 0 1 2Zm54 0-1 2h2zm6 0v3l2-2zm5 0 1 3 2-1v-2zm6 0v4h2v-4zm7 0-1 2h2zm6 0-1 2h2zm6 0 1 2Zm6 0v3l2-2zm5 0 1 3 2-1v-2zm7 0-1 2h2zm6 0 1 2Zm6 0-1 2h2zm24 0 1 2Zm11 0 1 3 2-2zm31 0 1 2Zm12 0-1 2h2zm-6 0-4 2 3 1 2-1zm-270 5v4l2-2zm-43 1 1 3 2-2zm7 0v3Zm6 0v3h2l-1-3zm5 0 1 3h2l-1-3zm6 0v3h3l-1-3zm7 0c-.17.66-.17.66-1 4l3-1-1-3zm5 0v3l3-1v-2zm12 0 1 3 1-3zm7 0 1 2Zm66 0 1 2Zm6 0 1 2Zm6 0-1 2h2zm36 0v2h2v-2zm5 0v2h2v-2zm7 0v3Zm6 0-1 2h2zm6 0-1 2h2zm6 0-1 2h2zm60 0 1 2Zm6 0 1 2Zm6 0-1 3h2zm6 0v3l2-2zm5 0 1 3h2v-3zm6 0v2h2v-2zm25 0 1 2Zm6 0 1 2Zm-313 6 2 2v-2zm7 0-1 2h2zm6 0v3l2-2zm6 0-1 2 3-1zm5 0 1 3 2-2zm7 0-1 2h2zm102 0-1 2h2zm5 0v2h2v-2zm139 0 1 2Zm12 0 1 2Zm24 0 1 2Zm-182 11 1 5 5-1c-1.31-2-1.31-2-3-4zm6 0c.81 1.93.81 1.93 2 4l3 1c-.81-1.94-.81-1.94-2-4zm-167 4v3l-7 1v2c23.88 1.68 23.88 1.68 35 0v-4h-5v2c-.33.16-.33.16-2 1v-3h-3v3h-3v-3l-4 1 1 2-2-1v-2l-4-1c-.33.49-.33.49-2 3v-3zm31 1-2 2 3 1 2-2zm163 0-2 4h2l1-4zm-25 1 1 3 2-1zm-8 1c.49.33.49.33 3 2v-2zm15 4c-.17.66-.17.66-1 4l2-1zm10 0 1 4 2-1-1-3zm-169 1v4h5v-4zm150 0v3h3v-2zm14 0v2h2v-2zm11 0-2 2c3 1 3 1 6 1v-2zm149 1 1 4c3-1 3-1 5-2 2.23.09 4.41.23 6.62.43.61.06 1.22.11 1.85.16 1.51.13 3.02.27 4.53.41l-1 5c1.89.17 3.79.33 5.69.5.52.04.52.04 3.19.28 2.72.19 5.39.26 8.12.22-.17-.5-.17-.5-1-3l2-2-8-1 6-1c-.17-.5-.17-.5-1-3-11.06-.12-21.99-.01-33 1m-47 3v2h3v-2zm54 0c.49.33.49.33 3 2v-2zm6 0v2l4-1zm-294 1 2 2 1-2zm102 0 1 3c9.33 2.22 18.28 3.72 27.88 2.69 5.76-.85 5.76-.85 8.12-1.69 1.32-2.08 1.32-2.08 2-4-.5.11-.5.11-3.01.69-8.18 1.77-15.5 2.63-23.84 1.77-4.11-.6-8.14-1.37-12.15-2.46m138 0 2 2 1-2zm-265 1v2h5l-1-2zm7 0-1 2h5l-1-2zm6 0-1 2h4v-2zm6 0 2 2 1-2zm258 0 1 2 2-1zm6 0-1 2h5l-1-2zm6 0-1 2c3.18 1.06 5.42 1.11 8.76 1.1.56-.01.56-.01 3.39-.01l3.54-.03c1.19-.01 2.38-.01 3.57-.01 2.91-.02 5.82-.03 8.74-.05l1-2c-9.35-.67-18.62-1.16-28-1m-325.29-.16c-2.48.14-4.96.27-7.45.38l-4.07.21-1.85.09c-1.46.09-2.9.27-4.34.48l-2 2c6.87.02 13.75.04 20.62.05 3.2 0 6.39.01 9.58.02 3.08.01 6.16.02 9.24.02 1.75.01 3.5.01 5.25.02h3.22c.93 0 1.87.01 2.83.01l2.26-.12 2-1v-2c-11.83-1.22-23.43-.83-35.29-.16m354.29 1.16v2h5v-2zm25 1-1 2 3 1 1-3z"/><path d="M409 132c2 .02 2 .02 4.44.25.4.03.4.03 2.43.2l2.13.55c1.29 1.55 1.29 1.55 2 3-1.63-.11-3.25-.24-4.88-.38-.9-.06-1.8-.13-2.74-.21-.39-.06-.39-.06-2.38-.41l-2-2zM89 151h2l-1 3zM425 156l1 4-2-2zM90 157l1 4-2-3zM431 157c.33.16.33.16 2 1v2h-2zM75 162l2 1-2 27h-3c.14-3.19.29-6.38.44-9.56.04-.9.08-1.79.12-2.72.23-4.96.55-9.82 1.44-14.72zM82 163h2l-1 3zM425 163v3ZM82 168l1 4h-2zM90 169l1 3h-2zM89 175l1 3h-2zM426 175l1 4-2-3zM77 181h2v3h-2zM77 186l1 4ZM427 186h4v5l-3-1 2 9h2v3h-2c.02.47.02.47.11 2.83.13 3.45.25 6.91.37 10.36.06 1.5.11 2.99.17 4.49.08 2.15.16 4.29.23 6.44.03.67.05 1.35.08 2.04.05 1.61.05 3.23.04 4.84-.17.16-.17.16-1 1l2 3c-.5.16-.5.16-3 1 .14 1.28.28 2.57.43 3.85.09.82.18 1.64.27 2.49l.6 5.25c.31 2.61.6 5.23.89 7.85.11.89.21 1.79.32 2.71.1.86.19 1.71.28 2.6.09.77.18 1.54.27 2.33L432 267l-2 2c-2.01-8.28-2.57-16.52-3-25-.12-2.36-.25-4.72-.37-7.08-.09-1.53-.16-3.05-.24-4.58-.22-4.29-.65-8.46-1.38-12.7-.01-.54-.01-1.08-.01-1.64l2-2c.23-2.73.23-2.73.19-6.19-.01-.61-.01-1.22-.02-1.85-.08-5.43-.44-10.84-.9-16.25-.13-1.57-.2-3.14-.27-4.71zm0 34 1 2ZM437 186l2 4h-2zM72 192h2l-1 10-2-2c.02-1.95.02-1.95.38-4.12.11-.73.22-1.45.33-2.2.05-.28.05-.28.29-1.68"/><path d="M430 192c.33.5.33.5 2 3-.33.16-.33.16-2 1zM76 193l2 2-2 2-1-3zM76 198c.97 3.22 1.06 5.98.91 9.32-.04 1.03-.08 2.06-.13 3.12-.05 1.07-.1 2.14-.16 3.25-.04 1.05-.08 2.1-.13 3.18-.27 6.08-.72 12.1-1.49 18.13l3 1-2 3h-4c.26-4.25.53-8.5.8-12.75l.27-4.33C74.24 203.1 74.24 203.1 75 199zM424 198l2 3h-3zM439 198h3l2 3-3 1c.03.48.05.95.08 1.45.29 4.98.56 9.96.83 14.94.1 1.86.2 3.71.31 5.57.15 2.67.3 5.35.44 8.02l.15 2.51c.21 4.06.09 7.51-.81 11.51.94 1.81.94 1.81 2 3-.33.16-.33.16-2 1l1 30c-.82.16-.82.16-5 1v-5l2 1c-.12-3.64-.24-7.29-.37-10.93-.05-1.24-.09-2.47-.13-3.7-.23-7.05-.57-14.06-1.3-21.07-.18-2.12-.24-4.18-.2-6.3h3c-.14-.56-.27-1.13-.41-1.71-1.62-7.28-2.05-14.41-2.28-21.85-.04-1.2-.09-2.4-.14-3.6-.22-6.43-.22-6.43-.17-8.84zm0 40c.33.5.33.5 2 3v-3zM83 204l1 3c-.33.16-.33.16-2 1zM424 204l2 1v3l-3-1zM71 205l2 1-1 2h-2zM431 205c.33.16.33.16 2 1v2h-2z"/><path d="M442 205h2l-1 3zM70 210c1.02 1.16 1.02 1.16 2 3 .01 2.4.01 2.4-.31 5.38-.67 6.97-1.01 13.93-1.3 20.93-.25 5.91-.52 11.84-1.39 17.69l-1 2c.5-.17.5-.17 3-1v11l-2-1v-6c-.78 2.33-1.42 4.61-2 7-1.01-1.24-1.01-1.24-2-3-.06-1.95-.06-1.95.21-4.19.09-.85.18-1.7.27-2.58.11-.92.22-1.84.33-2.79 1.06-10 1.57-19.92 1.85-29.96l.09-3.18c.03-.92.05-1.85.08-2.81.16-2.3.54-4.28 1.17-6.49.19-.74.37-1.49.56-2.25.15-.58.29-1.16.44-1.75M425 210l2 4-3-1zM89 211h2l-1 4zM432 211c.33.16.33.16 2 1l-1 3zM435 211h2v3h-2zM443 211h2c1.69 11.55 2.63 23.01 3.25 34.66l.12 2.41c.09 1.53.16 3.06.24 4.59.22 4.29.65 8.46 1.38 12.7.01.54.01 1.08.01 1.64l-2 2c-2.6-9.83-2.46-20.33-3-30.44-1.02-19.19-1.02-19.19-2-27.56M79 216c.66.16.66.16 4 1-.21 3.67-.44 7.33-.69 11-.08 1.25-.16 2.49-.23 3.74-.1 1.79-.22 3.59-.35 5.38-.07 1.08-.14 2.15-.21 3.27-.17.86-.34 1.72-.52 2.61-1.55 1.37-1.55 1.37-3 2 .31-3.79.62-7.58.94-11.38.08-1.08.17-2.16.26-3.27.09-1.03.18-2.06.26-3.12.08-.96.16-1.91.24-2.89C80 222 80 222 81 220l-3 1zM433 216c1.33-.04 2.67-.04 4 0-.16.52-.32 1.05-.49 1.59-1.83 8.67-.51 18.69.49 27.41-1.45-1.14-1.45-1.14-3-3-.54-2.62-.54-2.62-.77-5.73-.08-1.11-.17-2.22-.25-3.37l-.12-1.75c-.11-1.78-.25-3.55-.38-5.32-.46-6.29-.46-6.29-.48-8.83zM78 223v3Z"/><path d="M436 223c.33.16.33.16 2 1v2h-2zM437 228c.33.16.33.16 2 1l-1 3zM72 240h5c-.26 4.2-.53 8.39-.8 12.59l-.27 4.26c-.55 8.73-1.16 17.44-1.93 26.15l2-2c.18 13.69-.39 27.33-1 41-.5.16-.5.16-3 1l1-36h-1c-.12-9.13.09-18.19.64-27.3.3-4.91.4-9.78.36-14.7h-1zM83 241h2l-1 3h-2zM431 241c.33.16.33.16 2 1 .2 1.75.38 3.5.56 5.25.11.97.21 1.95.32 2.95.12 2.8.12 2.8-.35 5.16-.18.54-.35 1.08-.53 1.64h-1zM78 246l1 4ZM82 246l2 3-2 2-1-3zM436 246l2 3h-3z"/><path d="M71 247h2l-1 3zM82 252h1v5l-2-1zM443 252c.33.16.33.16 2 1v3h-2zM70 253h2l-1 3zM437 253v3ZM82 258c.52 1.54.52 1.54 1 4-.06 2.48-.18 4.91-.38 7.38-.04.69-.09 1.39-.14 2.11L82 278c-.1 1.39-.2 2.78-.29 4.16-.23 3.28-.47 6.56-.71 9.84h-3c-.11-6.47.3-12.81.88-19.25.07-.98.15-1.96.23-2.97.09-.94.17-1.89.26-2.86.07-.85.14-1.7.22-2.57.43-2.44 1.19-4.21 2.41-6.35M433 258c.96 1.11.96 1.11 2 3 .43 2.85.43 2.85.67 6.28.04.61.09 1.21.13 1.84.09 1.28.18 2.57.26 3.85.13 1.96.27 3.91.41 5.87.66 9.51.66 9.51.05 12.56-.17.53-.34 1.06-.52 1.6h-1c-.45-4.34-.9-8.68-1.34-13.02l-.45-4.43a689 689 0 0 1-.65-6.38c-.07-.66-.14-1.31-.22-1.99-.25-2.66-.38-5 .13-7.63.17-.51.35-1.02.53-1.55M437 258c.33.5.33.5 2 3-.33.17-.33.17-2 1zM77 259l2 2c-.33.17-.33.17-2 1zM444 259l1 4-2-3zM444 264c.33.17.33.17 2 1l-1 4h-1zM77 265h2l-1 3zM448 270c.33.17.33.17 2 1v3h-2zM65 271h2l-1 4zM69 271h2c-.93 25.25-.93 25.25-3 33-.33.17-.33.17-2 1 .26-4.68.53-9.36.8-14.04l.27-4.79.39-6.85.12-2.18c.11-1.71.26-3.43.42-5.14zM77 271v3ZM430 271h2l-1 3zM437 271h2l-1 3zM444 271l3 1 2 32h-2c-1.67-10.99-2.52-21.9-3-33M65 276l1 4h-2zM76 276l1 4h-2zM83 276c.33.17.33.17 2 1v3h-2zM431 276c.33.17.33.17 2 1l-1 3zM449 276l2 4-3-1zM439 281l1 2 3-1c-.33 1.33-.33 1.33-2 8l3-1c-.67 2-1.33 4-2 6-.02 2.07.03 4.13.12 6.2.02.59.05 1.19.07 1.8.08 1.9.16 3.79.25 5.69.05 1.28.1 2.57.16 3.86.12 3.15.26 6.3.4 9.45h-3c-.01-.43-.01-.43-.08-2.61-.09-3.24-.19-6.48-.29-9.71-.05-1.4-.09-2.79-.13-4.18-.41-14.2-.41-14.2-1.4-20.88-.03-.54-.07-1.07-.1-1.62zM64 282c1 1.28 1 1.28 2 3 .13 1.7.13 1.7-.03 3.58-.06.71-.12 1.42-.18 2.15-.07.76-.14 1.51-.22 2.3-.06.78-.13 1.57-.2 2.38q-.21 2.49-.45 4.98c-.23 2.53-.45 5.07-.67 7.61-.14 1.61-.28 3.23-.43 4.84-.06.76-.13 1.51-.2 2.29-.31 3.38-.65 6.61-1.62 9.87-.19.74-.37 1.49-.56 2.25-.15.58-.29 1.15-.44 1.75h-1c-.12-6.8.22-13.43.94-20.19.73-7.15 1.36-14.28 1.72-21.46.08-1.45.2-2.9.34-4.35zM431 282l1 3c-.33.17-.33.17-2 1zM84 283l2 1c.02 3.59.04 7.19.05 10.78l.03 3.66c.01 1.76.01 3.52.02 5.29 0 1.05.01 2.11.01 3.2-.11 3.1-.53 6.02-1.11 9.07h-2c-.02-4.54-.04-9.08-.05-13.62l-.03-4.63c-.01-2.22-.01-4.44-.02-6.65 0-.7-.01-1.39-.01-2.11 0-1.66.05-3.33.11-4.99zM449 283h2l-1 4zM430 288l2 3-2 2-1-3zM71 289h2l-1 3zM79 294c1.04 3.38 1.08 6.48 1 10-.33.17-.33.17-2 1l-1-3c.12-2.4.56-4.62 1-7zM430 294c.98 1.24.98 1.24 2 3 .26 1.96.26 1.96.27 4.16v2.4c0 .83-.01 1.65-.02 2.5.01.83.02 1.66.02 2.51v2.4c-.01.73-.01 1.45-.01 2.2-.09.6-.17 1.21-.26 1.83l-2 2c-.8-2.83-1.13-5.35-1.13-8.29 0-.8-.01-1.59-.01-2.41.01-.41.01-.41.02-2.49-.01-.83-.01-1.66-.02-2.52 0-.79.01-1.58.01-2.4v-2.19c.04-.56.09-1.12.13-1.7zM436 294h1v5l-2-1zM71 295v3Z"/><path d="M443 295h2l-1 4zM70 300c1.42 4.97 1.28 9.87 1 15-.81 10.4-2.08 20.74-4 31l-2-2c-.06-1.73-.06-1.73.21-3.82.04-.39.04-.39.27-2.35.11-.83.22-1.66.33-2.52.21-1.72.41-3.43.61-5.15.1-.87.2-1.73.3-2.62.41-3.73.67-7.48.9-11.23.04-.64.08-1.28.13-1.94.08-1.46.17-2.91.25-4.37l-3-1 2-3v2h2l-.06-3.44c-.04-1.93-.04-1.93.06-3.56zM436 300l1 4-2-1zM444 300c.33.17.33.17 2 1l-1 4h-1zM78 306l1 4-2-2zM436 306c.33.5.33.5 2 3-.33.17-.33.17-2 1zM448 306h1v5l-2-1zM444 307h2c1.13 10.99 2.24 21.98 3 33h-3c-.29-4.22-.57-8.43-.85-12.65l-.3-4.31c-.14-2.06-.27-4.12-.41-6.18-.05-.65-.09-1.29-.14-1.95-.17-2.64-.3-5.26-.3-7.91M448 312c.33.5.33.5 2 3-.33.17-.33.17-2 1z"/><path d="M65 313c.33.17.33.17 2 1l-2 2zM77 313h2v3h-2zM437 313v3ZM77 318l1 4-2-2zM83 318l2 1-1 3-2-2zM430 318c.33.17.33.17 2 1v3h-2zM437 318c.33.17.33.17 2 1l-1 4c-.17-.82-.17-.82-1-5M64 319h2l-1 3zM449 319v3ZM72 324c.33.17.33.17 2 1l-1 4h-1zM431 324c.33.17.33.17 2 1v3h-2zM438 324l2 4c.12 3.25.12 3.25 0 6-.33.17-.33.17-2 1zM442 324h1v5l-2-1zM449 324c.33.5.33.5 2 3-.33.17-.33.17-2 1zM76 325h2v3h-2zM82 325h2l-2 4-1-3zM60 330l1 4h-2zM82 330l1 4h-2zM336 330c11.02.83 11.02.83 16 3l1 2c-6.14-.41-11.35-1.55-17-4zM432 330l2 1c.04.75.07 1.5.11 2.27.07.98.13 1.97.2 2.98.06.97.12 1.95.18 2.95.17.93.34 1.85.51 2.8 1.54 2.36 1.54 2.36 3 4-2.39-.58-4.67-1.22-7-2-1.76.3-1.76.3-3.69.88-4.08 1.12-8.1 1.7-12.31 2.12l-1-2 1.91-.37c5.41-1.06 10.75-2.25 16.09-3.63l-.25-1.9c-.11-.82-.21-1.63-.31-2.48-.11-.81-.21-1.62-.32-2.46-.04-.71-.08-1.42-.12-2.16zM442 330l2 3h-3zM72 331v3ZM76 331h2l-1 3zM176 330l3 1c-2.45 1.44-4.42 2.08-7.23 2.63-1.18.17-2.35.34-3.52.49-.3.05-.3.05-1.82.27-1.48.21-2.95.41-4.43.61.63-1.42.63-1.42 2-3 2.71-.77 2.71-.77 5.94-1.25.53-.09.53-.09 3.21-.52.47-.03.47-.03 2.85-.23M449 331h2l-1 3zM187 335l4 1-4 1z"/><path d="M192 335c6.3-.19 12.18.34 18.38 1.44 6.87 1.15 13.66 2.11 20.62 2.56.16.33.16.33 1 2l-7-1v2l2 1v3c-.25 0-.25 0-1.53-.01-5.29-.02-10.58-.03-15.87-.04l-5.9-.03c-2.85-.01-5.69-.01-8.54-.02-.86 0-1.73-.01-2.62-.01-5.9 0-11.68.42-17.54 1.11v-2c5.26-1.06 10.42-1.22 15.77-1.32l2.8-.06 8.81-.18c1.99-.05 3.99-.09 5.98-.13 4.88-.11 9.76-.21 14.64-.31v-2l-7 1v-2l-3-1c.16.5.16.5 1 3l-4-1h2v-2l-2.56.06c-6.17-.11-11.58-1.27-17.44-3.06zM319 335l3 1-3 1zM325 335l4 1-4 1zM81 336l2 1-1 5c.93.12 1.86.25 2.81.38 3.36.48 6.72 1 10.07 1.56.47.07.47.07 2.86.46.75.2 1.49.4 2.26.6l1 2c-6.48-.51-12.69-1.43-19-3l-2 2-3-1 2-2c.63-1.73.63-1.73 1.12-3.62.29-1.12.58-2.23.88-3.38M312 336h5l-1 2h-4zM330 336h11v2h-10zM354 335c.54.31 1.09.62 1.64.94 3.54 1.59 7.18 1.93 11 2.5.39.09.39.09 2.36.56l1 2c-3.67-.24-7.33-.48-11-.74-1.25-.09-2.49-.17-3.74-.25-1.79-.12-3.59-.25-5.38-.38-1.08-.07-2.15-.14-3.27-.22-.86-.13-1.72-.27-2.61-.41l-2-2 3-1c2.04.12 2.04.12 4.19.44.71.1 1.43.2 2.17.31.27.04.27.04 1.64.25zM59 337l1 3h-2zM71 337h2l-1 3zM159 335l2 1-1 2c.29-.07.29-.07 1.73-.4 5.07-1.11 10.1-1.89 15.27-2.35 1.09-.1 2.19-.2 3.31-.3.45.01.45.01 2.69.05l2 2c-7.24 1.58-14.57 2.15-21.95 2.75-4.35.36-8.7.8-13.05 1.25q1.455-1.545 3-3c1.65-.71 3.32-1.38 5-2zM442 337c.33.17.33.17 2 1v2h-2zM454 337h2v3h-2zM311 337l-1 2h-7l1 3-3-1h-3l-2 2-2-4c5.77-1.76 10.98-2.25 17-2M289 339c.66.17.66.17 4 1l-5 1z"/><path d="m182 340 2 2-3-1zM284 340l3 1-4 1zM308 340l2 2-3-1zM326 340l2 2-3-1zM332 340l2 2-3-1zM338 340l2 2-3-1zM146 341l2 1-4 1zM175 341l3 1h-3zM188 340l2 2-4-1zM192 341l4 1c-.33.17-.33.17-2 1zM198 341l4 1c-.33.17-.33.17-2 1zM204 341l4 1c-.33.17-.33.17-2 1zM313 341l3 1ZM319 341l3 1h-3zM343 341l3 1h-3zM350 341c.5.33.5.33 3 2-.33.17-.33.17-2 1l-2-2zM372 341c5.91 1.16 11.42 2.72 17 5-1.65.58-1.65.58-4 1-2.73-.45-2.73-.45-5.62-1.25l-2.92-.77c-.81-.32-1.62-.65-2.46-.98-1.34-1.61-1.34-1.61-2-3M169 342l3 1-4 1zM278 342h2l-1 3-5 1c1.29-1.38 2.63-2.71 4-4M355 342c2.31.45 4.63.91 6.94 1.38.66.12 1.32.25 2 .38 1.7.35 3.38.79 5.06 1.24l1 2a563 563 0 0 1-6.88-.88c-.65-.07-1.3-.15-1.97-.23-1.72-.23-3.44-.56-5.15-.89l-2-2zM443 342l2 4h-2zM448 342l1 4h-2zM455 342l2 4h-2zM58 343h2l-2 4zM70 343h2l-1 3zM141.164 343.48c.61.17 1.21.34 1.84.52-1.27.53-2.54 1.05-3.82 1.56-.7.29-1.41.58-2.14.88-.34.09-.34.09-2.04.56l-3-1 2-2c2.64-.77 4.46-1.12 7.16-.52M165.313 343.438c.56.19 1.11.37 1.69.56-3.05 1.14-5.62 1.99-8.88 2.13-.7-.04-1.4-.08-2.12-.13l2-2c2.69-.78 4.55-1.08 7.31-.56M292 342l1 2c.82-.07 1.63-.14 2.48-.21 8.7-.69 17.34-.98 26.07-.98 2.15 0 4.29-.02 6.44-.03 15.95-.07 15.95-.07 23.01 2.22.16.33.16.33 1 2-.39-.04-.39-.04-2.35-.21-9.76-.81-19.46-.94-29.25-.92-2.66.01-5.32 0-7.99-.01-16.45 0-16.45 0-24.41 1.14l1-2c-.61.14-1.23.29-1.86.44-.81.18-1.62.37-2.45.56-.4.09-.4.09-2.43.56-2.26.44-2.26.44-5.26.44 2.79-1.86 5.42-3.24 8.62-4.19C289 342 289 342 292 342M152 346l2 1h-3zM170 346l1 2-2-1zM392 346l2 2-3-1zM409 345h3l-1 4c3.44.03 6.87.05 10.31.06.49.01.49.01 2.96.03.94 0 1.88 0 2.84.01.87 0 1.73.01 2.62.01C432 349 432 349 435 348l2 2-1 1c-2.34.14-4.66.04-7 0l1 3-3-1 1-2c-.97.19-1.94.37-2.94.56-4.44.66-8.64.09-13.06-.56l-1 3-3-2h2v-2h-6l-2-3 4-1v2c.43-.5.87-.99 1.31-1.5.56-.5 1.12-.99 1.69-1.5M127 347l3 1h-3zM193 347l3 1h-3zM199 347l3 1h-3zM205 347l3 1h-3zM211 347h2l-1 2z"/><path d="m284 347 2 1-4 1zM302 347l1 2-2-1zM320 347l2 2-3-1zM355 347l3 1h-3zM372 347c.82.17.82.17 5 1l-3 1zM397 347l4 1-3 1zM145 348l3 1-3 1zM163 348c.33.17.33.17 2 1-.33.17-.33.17-2 1zM217 348l4 1-3 1z"/><path d="M325 348c3.38.11 6.75.24 10.12.38l2.89.09c7.96.33 7.96.33 11.61 1.44.78.36 1.57.72 2.38 1.09.17.33.17.33 1 2-1.03-.17-2.07-.34-3.13-.51-12.86-1.86-25-1.01-37.87.51l1-2c2.72-.63 2.72-.63 6.06-1.12 1.11-.17 2.21-.34 3.35-.51.43-.06.43-.06 2.59-.37zM361 348c1.46.11 2.92.24 4.38.38.4.03.4.03 2.46.21.71.13 1.42.27 2.16.41l2 2c-1.56.62-1.56.62-4 1-2.41-.5-4.65-1.23-7-2zM379 348c1.64.12 3.28.33 4.91.56.99.14 1.98.28 3 .42 1.04.15 2.08.3 3.15.46.52.07.52.07 3.17.44 2.59.37 5.18.74 7.77 1.12l-1 2c-3.29-.28-6.58-.57-9.88-.88-.93-.07-1.87-.15-2.83-.23-.9-.09-1.8-.17-2.72-.26-.83-.07-1.65-.14-2.51-.22-.68-.13-1.36-.27-2.06-.41l-2-2zM65 349c.33.17.33.17 2 1l-2 2zM297.422 348.41c.52.19 1.04.39 1.58.59-5.61 1.71-11.24 2.91-17 4v-2c2.08-.53 4.16-1.05 6.25-1.56.58-.15 1.17-.31 1.78-.46 2.63-.64 4.7-1.03 7.39-.57M448 349h2l-1 3zM143 349l-1 2-22 2 1-2c7.21-1.92 14.58-2.3 22-2M159.313 349.438c.56.19 1.11.37 1.69.56-3.05 1.14-5.62 1.99-8.88 2.13-.7-.04-1.4-.08-2.12-.13l2-2c2.69-.78 4.55-1.08 7.31-.56M202 351v2c-.48-.04-.96-.07-1.46-.11-19.03-1.35-19.03-1.35-28.54.11l-3 1 1-3c11.4-2.39 20.56-2.17 32 0M146 351c.5.33.5.33 3 2l-3 1zM308 351c.5.33.5.33 3 2l-4 1zM374 350l2 1v2l-4-2zM403 351c.66.17.66.17 4 1v1h-5zM206 351l2 2c-.33.17-.33.17-2 1l-2-2zM278 352l3 1-4 1zM379 352l3 1h-3zM415 352l3 1-3 1zM433 352l3 1-3 1zM139 353l3 1h-3zM211 353l3 1h-3zM302 352l2 2-4-1zM355 353h3v2l-3-1zM385 353l4 2h-4zM421 353l3 1ZM133 354l3 1-4 1zM164 353l2 2c-5.47 1.75-10.73 2.57-16.44 3.12-.81.09-1.61.18-2.44.27-5.07.51-10.03.69-15.12.61l1-2c.73-.09 1.45-.17 2.2-.26 2.72-.32 5.43-.64 8.15-.97 1.75-.2 3.49-.41 5.24-.62.55-.06.55-.06 3.36-.4 1.01-.12 2.03-.24 3.07-.36 2.98-.39 2.98-.39 6.23-1.06.91-.11 1.82-.22 2.75-.33M360 354h5l-1 2-4-1zM366 354c3.27.28 6.54.57 9.81.88.47.03.47.03 2.82.23.44.05.44.05 2.7.26.41.03.41.03 2.49.22 2.18.41 2.18.41 3.97 1.45.2.16.2.16 1.21.96l-3 1c-1.85-.05-1.85-.05-3.91-.3-.74-.09-1.48-.18-2.25-.27-.39-.05-.39-.05-2.34-.31-.77-.09-1.54-.18-2.34-.27-3.23-.4-6.06-.82-9.16-1.85zM128 354l3 2-1 1c-1.56.23-3.12.39-4.69.54-.95.08-1.89.17-2.86.26-.5.04-.5.04-3.01.26-1 .09-2 .18-3.02.28L109 359l-1-2c5.2-.81 10.39-1.31 15.64-1.72C126 355 126 355 128 354M182 357l3 1-3 2-2-2zM187 357h4v2h-5zM342 357l4 1-2 2-2-1zM175 358h3v2h-3zM350 358l2 2-3-1zM128 358l2 2-4-1zM157 359l3 1-3 1zM163 359l4 1-3 1zM354 359l4 1c-.33.17-.33.17-2 1zM361 359l3 1-3 1zM438 360h5l-1 2-4-1zM438 363h5v2h-5zM445 363c.66.17.66.17 4 1v1h-5z"/></svg>