<?xml version="1.0" encoding="UTF-8" standalone="no"?>
<svg
   version="1.0"
   width="124pt"
   height="124pt"
   viewBox="0 0 124 124"
   preserveAspectRatio="xMidYMid"
   id="svg120"
   sodipodi:docname="choice.svg"
   inkscape:version="1.4.2 (ebf0e940, 2025-05-08)"
   xmlns:inkscape="http://www.inkscape.org/namespaces/inkscape"
   xmlns:sodipodi="http://sodipodi.sourceforge.net/DTD/sodipodi-0.dtd"
   xmlns="http://www.w3.org/2000/svg"
   xmlns:svg="http://www.w3.org/2000/svg">
  <defs
     id="defs120" />
  <sodipodi:namedview
     id="namedview120"
     pagecolor="#ffffff"
     bordercolor="#000000"
     borderopacity="0.25"
     inkscape:showpageshadow="2"
     inkscape:pageopacity="0.0"
     inkscape:pagecheckerboard="0"
     inkscape:deskcolor="#d1d1d1"
     inkscape:document-units="pt"
     inkscape:zoom="1.4958737"
     inkscape:cx="67.519067"
     inkscape:cy="77.546651"
     inkscape:window-width="1920"
     inkscape:window-height="1027"
     inkscape:window-x="0"
     inkscape:window-y="25"
     inkscape:window-maximized="0"
     inkscape:current-layer="svg120" />
  <metadata
     id="metadata1">
Created by potrace 1.16, written by Peter Selinger 2001-2019
</metadata>
  <g
     transform="matrix(0.01206079,0,0,-0.01206079,0.04685569,154.55118)"
     fill="#000000"
     stroke="none"
     id="g120">
    <path
       d="m 3864,12557 c -76,-18 -188,-78 -299,-161 -77,-58 -108,-75 -133,-76 -127,-1 -415,-115 -586,-230 -107,-73 -236,-230 -236,-288 0,-29 51,-38 133,-23 255,45 686,39 775,-11 18,-10 41,-18 52,-18 13,0 20,-7 20,-19 0,-11 5,-23 10,-26 6,-4 8,-21 4,-40 -5,-27 -3,-34 12,-37 33,-6 39,-183 10,-281 -13,-45 -14,-62 -5,-73 18,-22 34,-17 73,23 l 36,37 v -26 c 0,-15 -4,-29 -9,-33 -6,-3 -9,-13 -9,-23 1,-9 -4,-39 -10,-67 -30,-133 -22,-320 19,-442 43,-127 174,-367 263,-478 9,-11 39,-49 67,-85 127,-163 469,-445 657,-542 46,-24 92,-47 102,-52 19,-10 29,-31 80,-161 17,-44 37,-89 45,-100 17,-28 -25,-90 -142,-212 -148,-153 -228,-205 -333,-218 -30,-3 -59,-10 -65,-14 -5,-5 -35,-16 -65,-24 -65,-19 -130,-70 -156,-124 -21,-45 -24,-185 -5,-221 18,-35 44,-23 53,23 5,22 11,47 15,55 3,8 7,22 8,31 3,29 42,74 84,97 46,26 50,22 20,-27 -20,-33 -21,-46 -17,-230 l 3,-196 -265,-2 c -146,-1 -337,-5 -425,-9 -88,-4 -207,-6 -265,-3 -58,2 -166,4 -240,4 h -135 l -103,-79 c -56,-43 -106,-85 -110,-91 -4,-7 -46,-44 -93,-81 -129,-103 -312,-259 -328,-278 -8,-10 -34,-31 -58,-47 -29,-20 -43,-37 -43,-52 0,-25 134,-169 215,-232 96,-74 211,-174 307,-267 194,-187 197,-189 363,-176 133,10 929,1 1075,-12 63,-6 117,-15 121,-21 10,-17 15,-107 15,-249 l -1,-125 -45,-1 c -25,-1 -85,-4 -135,-8 -49,-3 -202,-9 -340,-12 -449,-10 -444,-9 -473,-31 -35,-26 -42,-90 -35,-313 3,-91 6,-334 7,-540 1,-206 5,-382 9,-390 4,-8 22,-25 41,-38 55,-37 174,-45 592,-39 282,5 375,3 387,-6 22,-18 36,-566 21,-837 -2,-30 -5,-236 -7,-458 -2,-221 -6,-404 -8,-406 -2,-2 -29,25 -59,61 -125,146 -182,198 -277,247 -106,56 -120,15 -31,-87 94,-107 121,-145 161,-222 54,-106 59,-147 12,-95 -33,37 -165,121 -211,135 -89,27 -102,-8 -34,-86 41,-47 86,-126 76,-136 -3,-3 -38,-1 -78,4 -97,14 -161,7 -176,-18 -14,-22 -1,-58 21,-60 7,-1 -10,-5 -38,-9 -43,-6 -54,-4 -77,16 -56,46 -138,43 -160,-6 -10,-25 -20,-31 -58,-36 -25,-3 -56,-7 -70,-9 -14,-2 -47,-7 -75,-10 -137,-17 -215,-46 -215,-80 0,-21 35,-36 83,-37 23,0 75,-6 116,-14 41,-7 77,-12 79,-9 3,3 11,0 19,-6 7,-6 13,-7 13,-2 0,5 8,9 18,9 9,1 74,4 145,7 90,5 127,4 127,-4 0,-8 4,-8 14,0 10,8 16,9 21,1 3,-6 12,-7 18,-3 7,4 46,8 87,9 41,1 83,5 93,9 11,5 23,3 30,-4 9,-9 8,-11 -5,-6 -11,4 -18,2 -18,-4 0,-14 23,-14 37,0 13,13 141,15 155,1 6,-6 -3,-8 -26,-6 -35,2 -47,-8 -26,-21 12,-7 4,-25 -11,-25 -6,0 -7,4 -4,10 3,5 2,10 -4,10 -5,0 -11,-5 -13,-11 -2,-7 -27,-11 -58,-12 -30,0 -49,-2 -42,-4 6,-3 12,-11 12,-19 0,-21 60,-48 103,-45 20,1 37,-2 37,-8 0,-5 9,-7 20,-4 15,4 20,0 20,-13 1,-18 1,-18 11,-1 11,19 39,23 39,5 0,-6 10,-3 21,8 12,10 24,15 25,9 5,-12 93,-13 112,-1 12,7 13,6 16,-16 2,-22 25,-19 42,7 15,24 17,24 30,8 10,-14 15,-16 25,-6 15,15 33,17 24,3 -14,-23 15,-8 34,18 l 21,27 -6,-27 c -6,-28 17,-41 31,-18 4,6 10,8 15,5 4,-3 18,4 31,14 17,13 30,16 45,11 15,-6 28,-4 40,5 22,17 34,19 34,6 0,-5 -11,-12 -25,-15 -46,-12 -26,-26 38,-27 81,-1 185,-7 219,-14 15,-2 30,0 33,6 4,5 24,7 48,3 61,-10 109,-10 136,0 20,7 23,5 18,-7 -4,-12 -1,-14 16,-11 78,18 127,14 127,-11 0,-17 16,-20 25,-5 3,6 1,10 -5,10 -6,0 -9,4 -6,8 5,9 137,6 254,-4 44,-4 62,-2 62,6 0,7 -9,14 -20,17 -11,3 -20,10 -20,15 0,5 -6,8 -12,7 -36,-4 -56,3 -61,21 -6,22 7,25 47,10 15,-5 28,-5 31,0 3,5 18,5 36,0 18,-6 41,-5 56,1 17,6 30,6 38,-1 10,-8 16,-6 24,7 9,16 10,16 11,2 0,-20 33,-30 72,-22 20,4 33,1 39,-8 12,-19 11,-32 -1,-24 -6,3 -10,-4 -10,-17 1,-23 1,-23 24,5 20,25 27,28 60,22 25,-5 34,-11 29,-19 -5,-7 0,-3 10,7 9,11 17,16 17,13 0,-4 9,-2 20,4 15,8 20,8 20,-1 0,-6 7,-9 15,-6 8,4 17,2 20,-3 4,-6 14,-6 26,0 27,15 14,30 -27,30 -19,0 -34,5 -34,10 0,6 -8,10 -17,11 -10,0 -3,5 16,11 20,5 36,6 40,0 14,-21 52,-34 66,-22 11,9 17,5 30,-17 14,-24 15,-24 12,-5 -5,20 -1,22 35,22 23,0 37,-4 33,-10 -3,-5 1,-10 9,-10 9,0 16,4 16,10 0,13 204,4 208,-10 2,-6 10,-7 21,0 10,5 21,7 23,4 3,-2 26,2 52,11 25,9 51,13 56,10 15,-9 61,6 57,19 -2,6 -17,11 -33,12 -45,1 -54,3 -54,13 0,5 18,8 40,6 29,-3 38,0 33,8 -5,8 -2,8 9,-1 11,-9 23,-10 42,-2 25,9 27,8 21,-10 -9,-28 3,-43 21,-26 8,8 14,19 14,24 0,14 35,21 82,15 23,-2 44,0 47,6 4,6 22,11 41,12 19,2 41,7 49,13 12,9 13,7 8,-6 -5,-13 -1,-18 13,-18 13,0 18,5 14,15 -4,9 1,18 12,22 19,7 43,32 44,45 0,7 -41,23 -52,20 -5,-1 -8,3 -8,9 0,5 -4,8 -8,5 -4,-3 -42,4 -83,16 -40,11 -101,24 -134,29 -33,5 -73,11 -90,14 -16,3 -55,10 -85,15 -30,5 -88,16 -127,26 l -73,17 26,25 c 35,35 29,68 -11,65 -105,-7 -202,-19 -212,-26 -8,-5 -13,-3 -13,5 0,7 25,28 56,47 53,33 80,63 70,79 -2,4 -32,6 -66,5 -63,-2 -160,-34 -282,-93 -62,-30 -82,-34 -53,-10 8,7 15,18 15,25 0,8 10,26 23,42 12,15 27,35 32,44 24,39 52,78 96,134 80,104 109,165 78,165 -36,0 -206,-120 -303,-214 -59,-56 -104,-96 -101,-87 4,9 20,54 36,99 17,46 43,107 59,136 35,66 80,177 80,199 0,68 -191,-94 -253,-214 -16,-30 -32,-61 -36,-69 -4,-8 -17,-34 -29,-57 -12,-23 -22,-49 -22,-57 0,-9 -4,-16 -8,-16 -5,0 -12,118 -17,263 -4,144 -9,280 -10,302 -19,349 -27,1127 -11,1142 4,4 332,7 729,5 397,-1 756,0 797,4 l 74,6 166,163 c 91,90 223,213 293,275 70,62 173,156 229,209 116,113 124,135 67,180 -19,14 -90,79 -159,143 -69,65 -130,118 -136,118 -7,0 -65,52 -130,115 -101,98 -195,179 -286,244 -10,8 -34,16 -51,17 -56,6 -229,4 -238,-2 -5,-3 -154,-10 -332,-16 -177,-6 -353,-12 -392,-13 -38,-2 -180,-8 -315,-14 -135,-6 -270,-11 -302,-11 h -56 l -8,53 c -5,28 -8,63 -8,77 0,14 1,60 2,102 l 2,78 138,-5 c 258,-10 896,-13 919,-4 46,17 56,69 67,363 3,59 7,111 10,114 10,10 6,191 -4,197 -15,9 -12,89 4,120 10,20 14,79 15,240 l 2,212 -28,34 c -15,19 -28,35 -29,37 -6,9 -94,11 -515,12 -251,1 -469,5 -485,9 -27,7 -29,11 -30,57 0,27 -4,72 -8,101 -5,32 -4,59 3,72 6,11 13,66 16,121 5,96 4,104 -22,148 -36,63 -69,90 -118,97 -22,3 -56,8 -75,11 -19,3 -52,7 -73,9 -64,4 -65,18 -6,77 51,50 136,144 229,253 24,28 48,52 54,54 18,6 71,64 94,103 25,40 42,50 63,37 44,-28 79,4 79,71 v 29 l 43,-13 c 126,-38 295,-186 572,-501 39,-43 106,-115 151,-160 45,-44 83,-85 85,-92 5,-16 212,-207 290,-268 162,-126 255,-117 211,21 -12,37 -20,69 -18,71 1,2 20,-6 42,-17 88,-45 213,-98 274,-115 129,-36 260,-20 260,32 0,24 -41,97 -76,133 -29,31 -92,103 -273,313 -101,118 -146,170 -171,200 -14,16 -41,46 -60,66 -19,20 -57,64 -85,96 -27,33 -62,73 -77,88 -16,16 -28,35 -28,43 0,8 -5,14 -12,14 -6,0 -9,2 -7,5 5,4 210,-91 249,-115 40,-25 191,-100 201,-100 6,0 23,-9 38,-19 47,-34 204,-54 214,-27 14,37 -122,179 -301,313 -64,48 -133,103 -152,120 -19,18 -38,33 -42,33 -4,0 -22,14 -40,31 -18,17 -48,43 -67,57 -37,29 -60,50 -194,180 -48,47 -85,87 -82,90 3,3 11,0 17,-6 7,-7 22,-12 35,-12 13,0 23,-4 23,-9 0,-11 42,-21 104,-25 35,-3 45,0 49,14 9,34 21,20 -504,554 -147,149 -286,294 -310,323 -230,274 -331,387 -384,433 -16,14 -61,58 -100,99 -95,100 -261,229 -415,323 -14,8 -42,21 -63,27 -20,7 -43,18 -50,25 -6,6 -33,20 -60,30 -70,26 -144,100 -199,197 -26,46 -54,93 -62,104 -9,11 -29,38 -46,60 -129,174 -273,324 -353,367 -168,89 -210,100 -402,103 -107,2 -189,-1 -221,-8 z m 55,-293 c 26,-33 27,-56 4,-77 -71,-63 -166,11 -101,80 29,31 71,30 97,-3 z m -864,-204 c -3,-5 -12,-10 -18,-10 -7,0 -6,4 3,10 19,12 23,12 15,0 z m 499,-60 c -5,-5 -63,-14 -129,-20 -124,-12 -391,-47 -435,-57 -54,-12 -3,16 65,36 81,23 104,28 200,36 39,4 72,9 74,11 2,2 55,3 119,3 70,0 112,-3 106,-9 z m -594,-80 c 0,-5 -12,-10 -27,-9 l -28,1 25,8 c 14,4 26,8 28,9 1,1 2,-3 2,-9 z m 1107,-427 c -4,-3 -7,0 -7,7 0,7 3,10 7,7 3,-4 3,-10 0,-14 z m 978,-81 c -3,-3 -16,5 -28,17 l -22,23 28,-17 c 15,-10 25,-20 22,-23 z m -469,-184 c 2,-258 94,-481 291,-707 45,-52 79,-99 76,-104 -3,-6 -1,-7 5,-3 7,4 12,3 12,-1 0,-5 15,-17 33,-28 17,-10 48,-33 67,-51 47,-43 162,-131 232,-177 104,-68 83,-79 -32,-16 -189,103 -275,164 -386,274 -61,61 -123,128 -137,150 -15,22 -39,58 -54,80 -16,22 -41,69 -57,105 -16,36 -34,79 -42,95 -7,17 -15,44 -18,60 -2,17 -10,55 -17,85 -20,85 -17,258 4,298 10,17 19,32 20,32 1,0 2,-42 3,-92 z m 601,-345 c -4,-3 -7,0 -7,7 0,7 3,10 7,7 3,-4 3,-10 0,-14 z m 660,-780 c -4,-3 -7,0 -7,7 0,7 3,10 7,7 3,-4 3,-10 0,-14 z m -442,-13 c 3,-5 2,-10 -4,-10 -5,0 -13,5 -16,10 -3,6 -2,10 4,10 5,0 13,-4 16,-10 z m -760,-70 c 10,-11 16,-20 13,-20 -3,0 -13,9 -23,20 -10,11 -16,20 -13,20 3,0 13,-9 23,-20 z m 170,-89 c -6,-5 -25,10 -25,20 0,5 6,4 14,-3 8,-7 12,-15 11,-17 z m 839,-397 c 5,-14 4,-15 -9,-4 -17,14 -19,20 -6,20 5,0 12,-7 15,-16 z m 1121,-24 c 3,-5 4,-10 1,-10 -3,0 -8,5 -11,10 -3,6 -4,10 -1,10 3,0 8,-4 11,-10 z m -1480,-44 c 138,-40 128,-32 147,-120 l 16,-79 -41,-61 c -23,-34 -56,-77 -74,-96 -18,-19 -36,-42 -39,-52 -3,-10 -9,-18 -13,-18 -4,0 -32,-24 -62,-52 -112,-108 -116,-111 -184,-102 -68,8 -85,10 -175,18 -35,4 -68,10 -72,14 -8,8 60,79 272,287 144,141 156,159 139,214 -13,43 -6,76 14,69 6,-3 39,-13 72,-22 z m 1575,-356 c 6,-11 8,-20 6,-20 -3,0 -10,9 -16,20 -6,11 -8,20 -6,20 3,0 10,-9 16,-20 z m 35,-70 c 3,-5 4,-10 1,-10 -3,0 -8,5 -11,10 -3,6 -4,10 -1,10 3,0 8,-4 11,-10 z M 5157,8713 c -4,-3 -7,0 -7,7 0,7 3,10 7,7 3,-4 3,-10 0,-14 z m -315,-13 c 6,0 7,-8 3,-17 -4,-10 -7,-109 -6,-220 l 2,-201 -65,-4 c -37,-1 -66,-3 -66,-3 33,69 47,142 49,257 2,118 6,142 35,186 4,7 15,11 23,8 8,-3 19,-6 25,-6 z m -197,-51 c 0,-13 3,-26 6,-29 6,-4 20,-233 19,-307 0,-13 5,-23 11,-23 6,0 4,-7 -5,-15 -11,-11 -38,-15 -109,-15 h -95 l -6,63 c -10,107 -10,294 0,284 4,-3 8,-20 10,-38 11,-92 78,-249 98,-229 8,8 7,13 -3,19 -8,5 -9,11 -3,14 5,4 10,56 10,117 1,119 6,145 30,173 20,23 37,17 37,-14 z m 352,-61 c -3,-8 -6,-5 -6,6 -1,11 2,17 5,13 3,-3 4,-12 1,-19 z m 2404,5 c 13,-16 12,-17 -3,-4 -10,7 -18,15 -18,17 0,8 8,3 21,-13 z M 5337,8413 c -4,-3 -7,0 -7,7 0,7 3,10 7,7 3,-4 3,-10 0,-14 z m -832,-307 c 220,-4 477,-9 570,-13 94,-3 410,-7 703,-8 294,-2 536,-6 540,-9 3,-4 7,-12 8,-19 1,-7 6,-27 10,-45 l 7,-34 -239,6 c -131,3 -274,6 -316,5 -47,0 -78,4 -78,10 0,7 -9,7 -27,0 -16,-6 -30,-9 -33,-8 -3,1 -6,-5 -8,-14 -4,-21 15,-25 153,-32 61,-3 133,-7 160,-10 96,-10 231,-17 311,-17 h 81 l 2,-96 c 2,-141 16,-130 -162,-130 -248,0 -444,-14 -482,-35 -17,-9 -1,-13 95,-24 63,-6 144,-12 180,-12 58,-1 326,-28 358,-37 8,-2 12,-20 11,-53 -2,-48 -3,-50 -38,-58 -20,-5 -62,-11 -94,-12 -31,-1 -72,-7 -90,-12 -17,-6 -50,-12 -72,-15 -22,-3 -65,-11 -95,-18 -30,-8 -98,-19 -150,-26 -89,-12 -121,-22 -108,-35 3,-3 99,-7 214,-9 208,-4 238,-6 367,-28 71,-12 81,-24 53,-61 -8,-11 -12,-33 -10,-55 7,-59 6,-120 -1,-132 -7,-11 -238,-8 -460,4 -194,12 -324,17 -520,21 -115,3 -318,7 -450,10 -132,3 -285,7 -340,10 -55,2 -289,7 -520,10 -231,3 -483,9 -560,13 -77,4 -209,6 -294,4 -167,-3 -178,-1 -231,60 -13,15 -28,28 -33,28 -10,0 -99,71 -95,76 2,1 5,3 8,3 3,1 21,6 40,12 21,7 119,13 238,14 201,1 250,9 205,33 -54,29 -403,31 -478,2 -15,-6 -35,-10 -45,-10 -19,0 -165,84 -185,106 -5,6 -26,22 -45,35 -19,13 -51,38 -71,57 -20,18 -45,40 -55,48 -19,14 -19,15 0,27 10,7 56,41 103,77 47,36 102,76 123,90 21,14 80,61 131,105 51,44 132,109 179,145 l 86,65 524,-1 c 289,-2 705,-5 925,-8 z m 83,-1315 c 21,-1 22,-4 22,-116 v -115 h -50 -49 v 110 c 0,61 -2,114 -5,118 -3,5 9,7 27,6 18,-1 42,-2 55,-3 z m 201,-80 c 12,-32 21,-77 21,-100 0,-39 -2,-41 -29,-41 -16,0 -42,-3 -59,-6 l -31,-6 v 109 l 1,108 38,-3 c 36,-4 39,-6 59,-61 z m 134,24 c -3,-8 0,-15 7,-15 7,0 9,-8 4,-22 -4,-13 -6,-44 -5,-70 1,-37 -2,-48 -13,-48 -8,0 -22,-3 -31,-7 -15,-5 -17,0 -11,43 9,77 18,118 29,131 12,16 28,7 20,-12 z m 2247,-222 c 8,-7 29,-25 47,-40 17,-16 51,-44 75,-63 24,-19 106,-96 182,-172 77,-76 145,-138 152,-138 16,0 125,-121 121,-134 -2,-7 -69,-12 -187,-13 -101,-1 -189,-4 -196,-7 -7,-3 -27,-1 -46,4 -105,29 -308,16 -308,-19 0,-28 48,-34 165,-21 6,1 44,-1 85,-4 140,-10 295,-18 358,-18 34,0 62,-3 61,-6 0,-4 -27,-29 -60,-57 -33,-27 -67,-57 -76,-65 -59,-54 -71,-58 -177,-59 -196,-1 -406,-23 -406,-43 0,-5 80,-9 198,-8 108,1 213,1 232,0 h 35 l -55,-51 c -171,-157 -211,-189 -259,-209 -26,-11 -794,-17 -1686,-12 -632,3 -1622,-4 -1796,-13 -104,-6 -138,-4 -144,5 -4,7 -7,49 -5,94 1,44 3,101 4,126 1,53 24,70 96,70 33,0 41,3 30,10 -8,5 -30,10 -48,10 -61,0 -72,13 -72,85 0,35 4,67 10,70 21,13 160,36 250,41 52,3 126,9 163,14 106,13 127,45 37,55 -25,2 -54,6 -65,9 -43,9 -134,16 -260,21 -71,3 -134,10 -139,15 -7,7 -11,83 -11,198 v 187 h 28 c 15,-1 27,2 27,5 0,3 21,5 48,6 52,0 653,13 916,19 93,3 203,7 245,9 78,5 334,18 431,21 30,1 98,5 150,8 52,4 221,9 375,12 154,3 309,8 345,10 36,3 162,11 280,19 118,8 269,18 335,21 66,3 181,8 255,11 74,4 136,7 137,8 10,8 111,-2 123,-11 z M 4337,5323 c -4,-3 -10,-3 -14,0 -3,4 0,7 7,7 7,0 10,-3 7,-7 z m 354,-337 c 0,-11 2,-37 4,-56 2,-19 6,-80 9,-134 5,-104 11,-121 41,-110 16,7 17,20 12,169 l -5,162 58,2 58,2 7,-108 c 4,-59 10,-154 15,-211 5,-57 7,-116 5,-130 -16,-142 -19,-284 -8,-357 4,-22 7,-52 7,-67 2,-50 16,-17 16,37 0,30 4,56 10,60 5,3 7,12 3,20 -3,9 0,51 6,94 21,142 25,289 17,585 -1,46 1,50 28,57 23,6 29,4 33,-11 3,-11 9,-17 14,-14 11,6 10,72 15,-901 3,-440 2,-809 -1,-821 -4,-19 -10,-20 -52,-16 -27,2 -50,6 -53,9 -3,3 -5,116 -6,251 -1,303 -8,392 -33,392 -26,0 -40,-145 -44,-461 -2,-201 -3,-202 -91,-197 l -61,4 3,37 c 4,47 -13,48 -32,2 -8,-19 -21,-35 -28,-36 -7,0 -24,-2 -38,-4 -46,-5 -48,3 -49,223 -1,114 -3,223 -6,242 -5,44 -5,432 0,520 2,36 7,106 10,155 5,89 5,221 0,463 -2,92 1,126 11,136 7,8 11,16 8,19 -8,8 77,24 99,19 9,-2 17,-14 18,-26 z m 617,-226 c 0,-27 -4,-48 -8,-45 -7,4 -7,29 -1,83 3,32 10,7 9,-38 z m -11,-147 c -4,-3 -7,0 -7,7 0,7 3,10 7,7 3,-4 3,-10 0,-14 z m 0,-60 c -4,-3 -7,0 -7,7 0,7 3,10 7,7 3,-4 3,-10 0,-14 z m -47,-147 c 0,-3 -5,-8 -12,-12 -7,-4 -8,-3 -4,4 7,12 16,16 16,8 z m -3,-193 c -4,-3 -7,0 -7,7 0,7 3,10 7,7 3,-4 3,-10 0,-14 z m 3,-17 c 0,-3 -5,-8 -12,-12 -7,-4 -8,-3 -4,4 7,12 16,16 16,8 z m 137,-98 c -3,-7 -5,-2 -5,12 0,14 2,19 5,13 2,-7 2,-19 0,-25 z m 0,-75 c -4,-3 -7,0 -7,7 0,7 3,10 7,7 3,-4 3,-10 0,-14 z m 0,-60 c -3,-10 -5,-4 -5,12 0,17 2,24 5,18 2,-7 2,-21 0,-30 z m 0,-40 c -4,-3 -7,0 -7,7 0,7 3,10 7,7 3,-4 3,-10 0,-14 z m 490,-180 c -4,-3 -7,0 -7,7 0,7 3,10 7,7 3,-4 3,-10 0,-14 z m -477,-23 c 0,-5 -2,-10 -4,-10 -3,0 -8,5 -11,10 -3,6 -1,10 4,10 6,0 11,-4 11,-10 z m -173,-277 c -4,-3 -7,0 -7,7 0,7 3,10 7,7 3,-4 3,-10 0,-14 z m 0,-145 c -3,-8 -6,-5 -6,6 -1,11 2,17 5,13 3,-3 4,-12 1,-19 z m -467,-288 c 0,-5 -4,-10 -10,-10 -5,0 -10,5 -10,10 0,6 5,10 10,10 6,0 10,-4 10,-10 z m 1870,-19 c 0,-4 -11,-6 -25,-3 -14,2 -25,6 -25,8 0,2 11,4 25,4 14,0 25,-4 25,-9 z m -1100,-36 c 0,-9 -9,-15 -25,-15 -26,0 -34,15 -12,23 23,10 37,7 37,-8 z m -973,-42 c -4,-3 -7,0 -7,7 0,7 3,10 7,7 3,-4 3,-10 0,-14 z"
       id="path1" />
    <path
       d="m 4515,8370 c 3,-5 8,-10 11,-10 2,0 4,5 4,10 0,6 -5,10 -11,10 -5,0 -7,-4 -4,-10 z"
       id="path2" />
    <path
       d="m 5085,7990 c -121,-7 -141,-21 -51,-36 150,-24 294,-9 251,26 -19,15 -65,18 -200,10 z"
       id="path3" />
    <path
       d="m 4223,7980 c -34,-14 -28,-19 21,-18 24,0 49,-2 54,-6 6,-3 41,-8 79,-11 37,-3 98,-7 135,-11 61,-5 66,-4 64,13 -2,13 -15,20 -52,26 -74,12 -276,17 -301,7 z"
       id="path4" />
    <path
       d="m 5593,7963 c 4,-3 10,-3 14,0 3,4 0,7 -7,7 -7,0 -10,-3 -7,-7 z"
       id="path5" />
    <path
       d="m 3590,7957 c -3,-3 -59,-9 -125,-12 -66,-4 -131,-9 -145,-11 -14,-2 -47,-7 -75,-10 -51,-7 -105,-31 -105,-48 0,-12 313,5 446,25 54,8 107,6 220,-5 162,-17 396,-18 390,-1 -2,6 -9,9 -16,7 -7,-1 -18,2 -24,8 -7,5 -15,8 -18,5 -3,-3 -42,2 -87,10 -45,9 -107,18 -139,20 -166,11 -318,17 -322,12 z"
       id="path6" />
    <path
       d="m 4653,7953 c 4,-3 10,-3 14,0 3,4 0,7 -7,7 -7,0 -10,-3 -7,-7 z"
       id="path7" />
    <path
       d="m 5130,7879 c 0,-5 5,-7 10,-4 6,3 10,8 10,11 0,2 -4,4 -10,4 -5,0 -10,-5 -10,-11 z"
       id="path8" />
    <path
       d="m 4783,7853 c 4,-3 10,-3 14,0 3,4 0,7 -7,7 -7,0 -10,-3 -7,-7 z"
       id="path9" />
    <path
       d="m 5135,7841 c -16,-4 -55,-6 -85,-5 -30,1 -59,0 -64,-3 -5,-4 -41,-8 -80,-10 -39,-2 -87,-6 -106,-9 -19,-3 -45,-6 -57,-7 -11,-1 -35,-14 -52,-29 -27,-25 -29,-31 -19,-52 12,-28 61,-44 82,-27 13,11 153,34 184,30 21,-3 93,11 107,20 22,15 176,19 280,7 90,-10 338,-7 410,4 39,7 83,13 99,15 15,2 33,8 38,13 24,24 -62,31 -325,29 -148,-1 -270,0 -273,3 -5,5 -13,5 -77,8 -23,1 -36,6 -32,12 3,6 5,10 3,9 -2,-1 -16,-4 -33,-8 z"
       id="path10" />
    <path
       d="m 2886,7801 c -17,-18 -17,-19 1,-25 10,-3 41,-2 69,2 27,5 75,7 106,5 35,-2 59,1 64,8 12,20 -14,26 -119,28 -91,2 -105,0 -121,-18 z"
       id="path11" />
    <path
       d="m 6130,7800 c 0,-7 3,-10 7,-7 3,4 3,10 0,14 -4,3 -7,0 -7,-7 z"
       id="path12" />
    <path
       d="m 3620,7722 c -37,-3 -80,-20 -80,-33 0,-4 39,-7 88,-7 48,1 141,-5 207,-12 66,-7 183,-14 260,-16 77,-2 155,-5 173,-7 17,-2 32,0 32,4 0,4 18,6 40,4 22,-2 42,1 45,6 4,5 -1,9 -9,9 -9,0 -16,4 -16,9 0,4 -15,7 -32,4 -18,-2 -42,1 -53,7 -35,17 -136,28 -295,30 -300,5 -325,5 -360,2 z"
       id="path13" />
    <path
       d="m 4922,7683 c -40,-34 -59,-127 -28,-139 9,-3 16,-14 16,-24 0,-53 126,-37 150,19 7,17 16,31 20,31 14,0 20,31 14,69 -11,72 -110,97 -172,44 z m 82,-58 c -6,-16 -34,-21 -34,-7 0,13 11,22 26,22 8,0 11,-6 8,-15 z"
       id="path14" />
    <path
       d="m 3393,7693 c 4,-3 10,-3 14,0 3,4 0,7 -7,7 -7,0 -10,-3 -7,-7 z"
       id="path15" />
    <path
       d="m 2661,7603 c -22,-18 -22,-19 -4,-35 16,-14 26,-16 56,-7 25,7 66,6 134,-2 139,-17 413,-22 430,-7 23,19 -6,28 -94,29 -43,0 -116,4 -163,9 -47,5 -114,11 -150,15 -36,3 -92,8 -125,11 -50,5 -65,3 -84,-13 z"
       id="path16" />
    <path
       d="m 3425,7580 c -22,-4 -43,-6 -46,-4 -4,2 -9,-3 -13,-11 -4,-11 1,-15 17,-15 34,0 168,-30 202,-46 62,-28 173,-47 305,-50 191,-5 226,-5 310,6 41,6 95,12 120,15 42,6 76,22 55,27 -6,1 -149,2 -320,3 -240,0 -315,3 -333,13 -19,11 -149,46 -242,66 -8,2 -33,0 -55,-4 z"
       id="path17" />
    <path
       d="m 5400,7567 c 0,-22 2,-22 223,-25 122,-2 249,-7 282,-12 50,-7 62,-6 73,8 6,9 9,19 4,24 -9,9 -166,18 -404,23 -177,3 -178,3 -178,-18 z"
       id="path18" />
    <path
       d="m 5110,7569 c 0,-5 5,-7 10,-4 6,3 10,8 10,11 0,2 -4,4 -10,4 -5,0 -10,-5 -10,-11 z"
       id="path19" />
    <path
       d="m 4853,7533 c 4,-3 10,-3 14,0 3,4 0,7 -7,7 -7,0 -10,-3 -7,-7 z"
       id="path20" />
    <path
       d="m 4740,7509 c 0,-5 5,-7 10,-4 6,3 10,8 10,11 0,2 -4,4 -10,4 -5,0 -10,-5 -10,-11 z"
       id="path21" />
    <path
       d="m 4770,7510 c 0,-7 3,-10 7,-7 3,4 3,10 0,14 -4,3 -7,0 -7,-7 z"
       id="path22" />
    <path
       d="m 3645,7430 c 3,-5 8,-10 11,-10 2,0 4,5 4,10 0,6 -5,10 -11,10 -5,0 -7,-4 -4,-10 z"
       id="path23" />
    <path
       d="m 5488,7435 c -5,-5 -290,-10 -815,-15 -124,-2 -153,-5 -157,-17 -10,-24 -7,-38 4,-27 6,6 31,7 68,1 110,-16 471,-25 580,-13 30,3 52,2 52,-4 0,-11 30,-1 48,17 8,7 18,11 23,8 5,-3 26,-1 46,4 35,9 83,17 158,26 17,2 35,4 40,5 6,1 1,5 -10,10 -25,11 -30,11 -37,5 z"
       id="path24" />
    <path
       d="m 4403,7363 c 4,-3 10,-3 14,0 3,4 0,7 -7,7 -7,0 -10,-3 -7,-7 z"
       id="path25" />
    <path
       d="m 3935,7344 c -115,-6 -226,-15 -245,-19 -34,-8 -43,-10 -84,-13 -28,-3 -10,-16 27,-21 94,-11 507,6 621,25 28,5 37,4 32,-4 -4,-7 -3,-12 3,-12 16,0 22,18 9,27 -34,22 -160,28 -363,17 z"
       id="path26" />
    <path
       d="m 5135,7330 c -3,-5 -1,-10 4,-10 6,0 11,5 11,10 0,6 -2,10 -4,10 -3,0 -8,-4 -11,-10 z"
       id="path27" />
    <path
       d="m 5180,7310 c 0,-7 3,-10 7,-7 3,4 3,10 0,14 -4,3 -7,0 -7,-7 z"
       id="path28" />
    <path
       d="m 4641,7304 c 0,-6 -17,-14 -35,-17 -19,-3 -50,-12 -68,-21 -68,-31 -108,-36 -120,-16 -20,31 -108,-11 -108,-52 0,-8 3,-9 8,-3 4,6 23,11 42,11 128,6 233,14 248,19 24,7 45,47 39,71 -3,11 -5,14 -6,8 z"
       id="path29" />
    <path
       d="m 5515,7270 c -3,-5 -1,-10 4,-10 6,0 11,5 11,10 0,6 -2,10 -4,10 -3,0 -8,-4 -11,-10 z"
       id="path30" />
    <path
       d="m 5190,7240 c -14,-4 -38,-8 -55,-9 -39,-1 -105,-20 -105,-29 0,-4 42,-8 93,-9 108,-2 253,-11 284,-18 12,-3 25,-1 28,5 6,9 76,8 215,-5 114,-11 384,-15 374,-5 -10,9 -24,12 -149,30 -125,18 -177,23 -220,23 -25,0 -45,6 -52,16 -7,9 -13,11 -13,5 0,-8 -25,-10 -77,-6 -158,9 -299,11 -323,2 z"
       id="path31" />
    <path
       d="m 4284,7208 c -4,-7 -3,-8 4,-4 12,7 16,16 8,16 -3,0 -8,-5 -12,-12 z"
       id="path32" />
    <path
       d="m 3441,7190 c -72,-11 -40,-40 45,-40 44,0 86,22 65,34 -16,10 -68,13 -110,6 z"
       id="path33" />
    <path
       d="m 5083,7173 c 4,-3 10,-3 14,0 3,4 0,7 -7,7 -7,0 -10,-3 -7,-7 z"
       id="path34" />
    <path
       d="m 4245,7160 c 3,-5 8,-10 11,-10 3,0 2,5 -1,10 -3,6 -8,10 -11,10 -3,0 -2,-4 1,-10 z"
       id="path35" />
    <path
       d="m 5368,7153 c 7,-3 16,-2 19,1 4,3 -2,6 -13,5 -11,0 -14,-3 -6,-6 z"
       id="path36" />
    <path
       d="m 4563,6733 c 4,-3 10,-3 14,0 3,4 0,7 -7,7 -7,0 -10,-3 -7,-7 z"
       id="path37" />
    <path
       d="m 4583,6713 c 4,-3 10,-3 14,0 3,4 0,7 -7,7 -7,0 -10,-3 -7,-7 z"
       id="path38" />
    <path
       d="m 4544,6588 c -4,-7 -3,-8 4,-4 12,7 16,16 8,16 -3,0 -8,-5 -12,-12 z"
       id="path39" />
    <path
       d="m 6905,6409 c -113,-21 -75,-37 86,-35 93,1 137,14 123,37 -7,11 -143,10 -209,-2 z"
       id="path40" />
    <path
       d="m 7200,6370 c 0,-7 3,-10 7,-7 3,4 3,10 0,14 -4,3 -7,0 -7,-7 z"
       id="path41" />
    <path
       d="m 5282,6346 c -20,-22 -43,-60 -85,-136 -85,-156 -197,-347 -248,-420 -57,-83 -119,-196 -119,-217 0,-6 -6,-13 -12,-15 -10,-4 -9,-9 3,-20 30,-31 242,-37 769,-24 118,3 223,6 234,6 38,0 8,94 -55,171 -19,23 -41,54 -49,70 -28,55 -113,194 -130,214 -9,11 -27,39 -39,63 -12,24 -51,89 -88,145 -123,189 -142,206 -181,163 z m 59,-168 c 10,-13 18,-26 19,-29 0,-3 34,-62 75,-130 41,-68 75,-129 75,-135 0,-15 -66,-22 -239,-24 -119,-1 -143,1 -134,12 6,7 45,80 87,161 85,167 85,167 92,167 3,0 14,-10 25,-22 z m 246,-421 c 17,-10 74,-125 65,-131 -18,-11 -644,-17 -657,-6 -17,14 -10,33 33,90 l 34,45 141,5 c 195,7 370,6 384,-3 z"
       id="path42" />
    <path
       d="m 5793,6363 c -56,-4 -64,-14 -39,-48 12,-17 23,-18 127,-11 105,6 156,11 169,16 10,4 36,7 78,8 43,2 55,15 25,27 -21,8 -285,14 -360,8 z"
       id="path43" />
    <path
       d="m 5073,6343 c 4,-3 10,-3 14,0 3,4 0,7 -7,7 -7,0 -10,-3 -7,-7 z"
       id="path44" />
    <path
       d="m 4147,6253 c -1,-1 -90,-4 -197,-8 -241,-7 -300,-13 -307,-32 -11,-28 22,-33 189,-28 179,5 221,9 308,31 30,8 70,14 90,14 29,1 32,2 17,11 -15,9 -94,19 -100,12 z"
       id="path45" />
    <path
       d="m 4270,6216 c 0,-2 7,-7 16,-10 8,-3 12,-2 9,4 -6,10 -25,14 -25,6 z"
       id="path46" />
    <path
       d="m 6458,6205 c -2,-2 -59,-5 -128,-8 -69,-3 -138,-11 -153,-16 -18,-7 -26,-7 -22,-1 9,15 -4,12 -20,-4 -21,-21 69,-29 294,-25 102,1 320,-1 484,-5 164,-4 311,-5 327,-1 52,11 36,32 -31,40 -101,12 -535,19 -589,10 -19,-3 -63,-2 -97,3 -35,5 -64,8 -65,7 z"
       id="path47" />
    <path
       d="m 5836,6135 c -4,-13 -2,-14 14,-5 23,13 26,20 6,20 -8,0 -16,-7 -20,-15 z"
       id="path48" />
    <path
       d="m 3603,6123 c 4,-3 10,-3 14,0 3,4 0,7 -7,7 -7,0 -10,-3 -7,-7 z"
       id="path49" />
    <path
       d="m 4560,6100 c -52,-5 -126,-11 -165,-14 -38,-3 -92,-9 -120,-15 -27,-5 -92,-12 -143,-16 -50,-4 -95,-11 -98,-16 -5,-9 506,-3 556,6 14,3 61,7 105,10 142,10 173,18 154,41 -13,16 -122,17 -289,4 z"
       id="path50" />
    <path
       d="m 6090,6039 c 0,-5 5,-7 10,-4 6,3 10,8 10,11 0,2 -4,4 -10,4 -5,0 -10,-5 -10,-11 z"
       id="path51" />
    <path
       d="m 3690,6029 c 0,-5 5,-7 10,-4 6,3 10,8 10,11 0,2 -4,4 -10,4 -5,0 -10,-5 -10,-11 z"
       id="path52" />
    <path
       d="m 6773,6013 c 4,-3 10,-3 14,0 3,4 0,7 -7,7 -7,0 -10,-3 -7,-7 z"
       id="path53" />
    <path
       d="m 7453,6013 c 4,-3 10,-3 14,0 3,4 0,7 -7,7 -7,0 -10,-3 -7,-7 z"
       id="path54" />
    <path
       d="m 7500,6000 c 0,-7 3,-10 7,-7 3,4 3,10 0,14 -4,3 -7,0 -7,-7 z"
       id="path55" />
    <path
       d="m 4398,5983 c 7,-3 16,-2 19,1 4,3 -2,6 -13,5 -11,0 -14,-3 -6,-6 z"
       id="path56" />
    <path
       d="m 6153,5983 c 4,-3 10,-3 14,0 3,4 0,7 -7,7 -7,0 -10,-3 -7,-7 z"
       id="path57" />
    <path
       d="m 6327,5954 c -2,-3 -57,-7 -122,-9 -171,-7 -309,-33 -317,-60 -3,-10 379,-8 395,2 5,3 75,5 155,4 81,0 172,3 202,8 30,5 91,13 135,17 78,7 79,8 40,17 -22,5 -134,11 -249,13 -115,2 -215,5 -222,8 -6,2 -14,3 -17,0 z"
       id="path58" />
    <path
       d="m 7573,5863 c 4,-3 10,-3 14,0 3,4 0,7 -7,7 -7,0 -10,-3 -7,-7 z"
       id="path59" />
    <path
       d="m 4070,5796 c -167,-28 -190,-35 -190,-52 0,-10 17,-14 68,-15 182,-3 312,2 405,16 57,8 124,18 148,20 92,11 119,18 119,29 0,7 -25,12 -72,13 -40,0 -134,3 -208,6 -112,5 -158,2 -270,-17 z"
       id="path60" />
    <path
       d="m 7173,5803 c 4,-3 10,-3 14,0 3,4 0,7 -7,7 -7,0 -10,-3 -7,-7 z"
       id="path61" />
    <path
       d="m 6239,5735 c -4,-3 -113,-14 -151,-15 -10,0 -18,-4 -18,-9 0,-5 26,-8 58,-8 31,1 111,-2 177,-7 196,-14 401,-7 435,14 11,7 8,10 -15,11 -36,2 -58,5 -65,9 -8,4 -417,9 -421,5 z"
       id="path62" />
    <path
       d="m 7023,5733 c 4,-3 10,-3 14,0 3,4 0,7 -7,7 -7,0 -10,-3 -7,-7 z"
       id="path63" />
    <path
       d="m 4473,5673 c 4,-3 10,-3 14,0 3,4 0,7 -7,7 -7,0 -10,-3 -7,-7 z"
       id="path64" />
    <path
       d="m 6253,5653 c 4,-3 10,-3 14,0 3,4 0,7 -7,7 -7,0 -10,-3 -7,-7 z"
       id="path65" />
    <path
       d="m 7320,5600 c 0,-7 3,-10 7,-7 3,4 3,10 0,14 -4,3 -7,0 -7,-7 z"
       id="path66" />
    <path
       d="m 3716,5582 c -3,-5 1,-9 9,-9 8,0 12,4 9,9 -3,4 -7,8 -9,8 -2,0 -6,-4 -9,-8 z"
       id="path67" />
    <path
       d="m 7293,5583 c 4,-3 10,-3 14,0 3,4 0,7 -7,7 -7,0 -10,-3 -7,-7 z"
       id="path68" />
    <path
       d="m 3815,5565 c -5,-2 -42,-13 -82,-25 -121,-36 -126,-73 -8,-59 39,5 153,14 255,19 196,11 227,14 275,29 l 30,9 -40,3 c -57,3 -66,5 -100,12 -32,7 -313,17 -330,12 z"
       id="path69" />
    <path
       d="m 6443,5563 c 4,-3 10,-3 14,0 3,4 0,7 -7,7 -7,0 -10,-3 -7,-7 z"
       id="path70" />
    <path
       d="m 6508,5555 c -2,-2 -32,-7 -67,-10 -65,-5 -193,-24 -198,-29 -2,-2 31,-11 72,-21 81,-19 147,-18 410,6 66,6 139,12 162,14 67,6 75,19 18,28 -52,9 -390,19 -397,12 z"
       id="path71" />
    <path
       d="m 4823,4973 c 4,-3 10,-3 14,0 3,4 0,7 -7,7 -7,0 -10,-3 -7,-7 z"
       id="path72" />
    <path
       d="m 4643,4843 c 4,-3 10,-3 14,0 3,4 0,7 -7,7 -7,0 -10,-3 -7,-7 z"
       id="path73" />
    <path
       d="m 4673,4407 c -1,-100 -6,-310 -10,-465 -6,-204 -5,-301 4,-345 35,-187 63,-140 64,108 1,55 1,165 2,245 2,386 -3,539 -21,587 -31,83 -37,63 -39,-130 z"
       id="path74" />
    <path
       d="m 4890,4100 c 0,-5 5,-10 10,-10 6,0 10,5 10,10 0,6 -4,10 -10,10 -5,0 -10,-4 -10,-10 z"
       id="path75" />
    <path
       d="m 4900,4070 c 0,-7 3,-10 7,-7 3,4 3,10 0,14 -4,3 -7,0 -7,-7 z"
       id="path76" />
    <path
       d="m 4935,3810 c 3,-5 8,-10 11,-10 3,0 2,5 -1,10 -3,6 -8,10 -11,10 -3,0 -2,-4 1,-10 z"
       id="path77" />
    <path
       d="m 4753,3753 c 4,-3 10,-3 14,0 3,4 0,7 -7,7 -7,0 -10,-3 -7,-7 z"
       id="path78" />
    <path
       d="m 4750,3720 c 0,-7 3,-10 7,-7 3,4 3,10 0,14 -4,3 -7,0 -7,-7 z"
       id="path79" />
    <path
       d="m 4750,3440 c 0,-7 3,-10 7,-7 3,4 3,10 0,14 -4,3 -7,0 -7,-7 z"
       id="path80" />
    <path
       d="m 4691,3370 c -7,-4 -12,-12 -10,-18 3,-7 10,-6 22,3 20,14 9,29 -12,15 z"
       id="path81" />
    <path
       d="m 4585,3260 c 3,-5 8,-10 11,-10 2,0 4,5 4,10 0,6 -5,10 -11,10 -5,0 -7,-4 -4,-10 z"
       id="path82" />
    <path
       d="m 7230,3010 c 0,-7 3,-10 7,-7 3,4 3,10 0,14 -4,3 -7,0 -7,-7 z"
       id="path83" />
    <path
       d="m 7020,3000 c 0,-7 3,-10 7,-7 3,4 3,10 0,14 -4,3 -7,0 -7,-7 z"
       id="path84" />
    <path
       d="m 3350,2990 c 0,-5 5,-10 10,-10 6,0 10,5 10,10 0,6 -4,10 -10,10 -5,0 -10,-4 -10,-10 z"
       id="path85" />
    <path
       d="m 3474,2988 c -4,-7 -3,-8 4,-4 12,7 16,16 8,16 -3,0 -8,-5 -12,-12 z"
       id="path86" />
    <path
       d="m 3875,2990 c -8,-13 15,-13 35,0 12,8 11,10 -7,10 -12,0 -25,-4 -28,-10 z"
       id="path87" />
    <path
       d="m 2954,2968 c -4,-7 -3,-8 4,-4 12,7 16,16 8,16 -3,0 -8,-5 -12,-12 z"
       id="path88" />
    <path
       d="m 3323,2973 c 4,-3 10,-3 14,0 3,4 0,7 -7,7 -7,0 -10,-3 -7,-7 z"
       id="path89" />
    <path
       d="m 6875,2970 c -4,-6 5,-10 19,-10 14,0 26,5 26,10 0,6 -9,10 -19,10 -11,0 -23,-4 -26,-10 z"
       id="path90" />
    <path
       d="m 6930,2970 c 0,-7 3,-10 7,-7 3,4 3,10 0,14 -4,3 -7,0 -7,-7 z"
       id="path91" />
    <path
       d="m 3060,2940 c 0,-7 3,-10 7,-7 3,4 3,10 0,14 -4,3 -7,0 -7,-7 z"
       id="path92" />
    <path
       d="m 3794,2936 c -10,-8 -17,-17 -14,-19 3,-3 14,1 24,9 11,7 17,16 15,19 -3,3 -14,-2 -25,-9 z"
       id="path93" />
    <path
       d="m 6900,2940 c 0,-7 3,-10 7,-7 3,4 3,10 0,14 -4,3 -7,0 -7,-7 z"
       id="path94" />
    <path
       d="m 5724,2928 c -4,-7 -3,-8 4,-4 12,7 16,16 8,16 -3,0 -8,-5 -12,-12 z"
       id="path95" />
    <path
       d="m 5785,2910 c -3,-5 -1,-10 4,-10 6,0 11,5 11,10 0,6 -2,10 -4,10 -3,0 -8,-4 -11,-10 z"
       id="path96" />
    <path
       d="m 3730,2900 c 0,-7 3,-10 7,-7 3,4 3,10 0,14 -4,3 -7,0 -7,-7 z"
       id="path97" />
    <path
       d="m 6570,2900 c 0,-5 5,-10 10,-10 6,0 10,5 10,10 0,6 -4,10 -10,10 -5,0 -10,-4 -10,-10 z"
       id="path98" />
    <path
       d="m 3770,2890 c 0,-7 3,-10 7,-7 3,4 3,10 0,14 -4,3 -7,0 -7,-7 z"
       id="path99" />
    <path
       d="m 6323,2893 c 4,-3 10,-3 14,0 3,4 0,7 -7,7 -7,0 -10,-3 -7,-7 z"
       id="path100" />
    <path
       d="m 5806,2882 c -3,-6 -1,-14 5,-17 14,-9 20,-2 10,14 -6,8 -11,9 -15,3 z"
       id="path101" />
    <path
       d="m 6208,2883 c 7,-3 16,-2 19,1 4,3 -2,6 -13,5 -11,0 -14,-3 -6,-6 z"
       id="path102" />
    <path
       d="m 6770,2869 c 0,-5 5,-7 10,-4 6,3 10,8 10,11 0,2 -4,4 -10,4 -5,0 -10,-5 -10,-11 z"
       id="path103" />
    <path
       d="m 4725,2859 c -11,-17 1,-21 15,-4 8,9 8,15 2,15 -6,0 -14,-5 -17,-11 z"
       id="path104" />
    <path
       d="m 5290,2859 c 0,-5 5,-7 10,-4 6,3 10,8 10,11 0,2 -4,4 -10,4 -5,0 -10,-5 -10,-11 z"
       id="path105" />
    <path
       d="m 5515,2850 c 3,-5 10,-10 16,-10 5,0 9,5 9,10 0,6 -7,10 -16,10 -8,0 -12,-4 -9,-10 z"
       id="path106" />
    <path
       d="m 6093,2853 c 4,-3 10,-3 14,0 3,4 0,7 -7,7 -7,0 -10,-3 -7,-7 z"
       id="path107" />
    <path
       d="m 6150,2850 c 0,-7 3,-10 7,-7 3,4 3,10 0,14 -4,3 -7,0 -7,-7 z"
       id="path108" />
    <path
       d="m 5572,2838 c 3,-7 13,-14 24,-15 16,-2 16,-1 1,3 -9,3 -15,10 -12,15 4,5 1,9 -5,9 -7,0 -10,-6 -8,-12 z"
       id="path109" />
    <path
       d="m 6003,2843 c 4,-3 10,-3 14,0 3,4 0,7 -7,7 -7,0 -10,-3 -7,-7 z"
       id="path110" />
    <path
       d="m 5483,2833 c 4,-3 10,-3 14,0 3,4 0,7 -7,7 -7,0 -10,-3 -7,-7 z"
       id="path111" />
    <path
       d="m 6130,2830 c 0,-7 3,-10 7,-7 3,4 3,10 0,14 -4,3 -7,0 -7,-7 z"
       id="path112" />
    <path
       d="m 6343,2833 c 4,-3 10,-3 14,0 3,4 0,7 -7,7 -7,0 -10,-3 -7,-7 z"
       id="path113" />
    <path
       d="m 4495,2820 c -3,-5 -1,-10 4,-10 6,0 11,5 11,10 0,6 -2,10 -4,10 -3,0 -8,-4 -11,-10 z"
       id="path114" />
    <path
       d="m 4600,2820 c 0,-7 3,-10 7,-7 3,4 3,10 0,14 -4,3 -7,0 -7,-7 z"
       id="path115" />
    <path
       d="m 4790,2820 c 0,-7 3,-10 7,-7 3,4 3,10 0,14 -4,3 -7,0 -7,-7 z"
       id="path116" />
    <path
       d="m 4843,2823 c 4,-3 10,-3 14,0 3,4 0,7 -7,7 -7,0 -10,-3 -7,-7 z"
       id="path117" />
    <path
       d="m 4893,2813 c 4,-3 10,-3 14,0 3,4 0,7 -7,7 -7,0 -10,-3 -7,-7 z"
       id="path118" />
    <path
       d="m 5100,2810 c 0,-7 3,-10 7,-7 3,4 3,10 0,14 -4,3 -7,0 -7,-7 z"
       id="path119" />
    <path
       d="m 4720,2790 c 0,-7 3,-10 7,-7 3,4 3,10 0,14 -4,3 -7,0 -7,-7 z"
       id="path120" />
  </g>
</svg>
