<?xml version="1.0" encoding="UTF-8" standalone="no"?>
<!-- Created with Inkscape (http://www.inkscape.org/) -->

<svg
   width="124mm"
   height="124mm"
   viewBox="0 0 124 124"
   version="1.1"
   id="svg1"
   inkscape:version="1.4.2 (ebf0e940, 2025-05-08)"
   sodipodi:docname="eye.svg"
   xmlns:inkscape="http://www.inkscape.org/namespaces/inkscape"
   xmlns:sodipodi="http://sodipodi.sourceforge.net/DTD/sodipodi-0.dtd"
   xmlns="http://www.w3.org/2000/svg"
   xmlns:svg="http://www.w3.org/2000/svg">
  <sodipodi:namedview
     id="namedview1"
     pagecolor="#ffffff"
     bordercolor="#000000"
     borderopacity="0.25"
     inkscape:showpageshadow="2"
     inkscape:pageopacity="0.0"
     inkscape:pagecheckerboard="0"
     inkscape:deskcolor="#d1d1d1"
     inkscape:document-units="mm"
     inkscape:zoom="0.2222207"
     inkscape:cx="306.0021"
     inkscape:cy="288.00198"
     inkscape:window-width="1920"
     inkscape:window-height="1027"
     inkscape:window-x="0"
     inkscape:window-y="25"
     inkscape:window-maximized="0"
     inkscape:current-layer="layer1" />
  <defs
     id="defs1" />
  <g
     inkscape:label="Layer 1"
     inkscape:groupmode="layer"
     id="layer1">
    <path
       id="path1-1"
       style="stroke-width:0.0158731"
       d="m 58.725512,41.88987 c -11.030509,1.10518 -21.234964,7.38411 -28.292589,15.75954 -4.445824,5.26097 5.320058,9.96965 8.64451,13.69775 10.017353,8.10445 24.484109,10.33411 36.311819,5.0689 5.59273,-2.23451 10.38223,-5.96838 14.40684,-10.3303 6.07174,-2.62867 4.78931,-8.63756 -0.22488,-11.44438 -6.34505,-5.77999 -13.91209,-10.85478 -22.46699,-12.41217 -2.77462,-0.38284 -5.583605,-0.3968 -8.37871,-0.33934 z M 47.77306,47.60419 c -0.515986,0.25697 -0.285011,-0.31414 0,0 z m 2.238111,1.36509 c -6.086244,6.39467 -4.935193,18.21048 3.058624,22.53992 8.055548,5.89761 21.336907,0.81825 22.880747,-9.14472 1.59675,-5.06512 -1.59588,-9.78971 -3.39187,-13.98914 7.13911,1.66039 12.4561,7.31811 17.96072,11.8321 -6.43201,7.68222 -14.83617,14.63005 -25.21186,15.53964 -7.793105,1.30659 -15.488155,-1.56158 -21.98371,-5.65739 -3.446397,-2.66086 -10.747358,-6.23613 -10.243544,-10.21717 3.328032,-3.11825 6.896093,-6.0676 10.728046,-8.5368 0.942337,-0.57333 7.637682,-4.38514 6.202847,-2.36644 z m 16.968351,-0.2381 c -0.43553,0.33936 -0.0984,-0.39036 0,0 z m 6.34924,3.33335 c -0.43553,0.33936 -0.0984,-0.39035 0,0 z m -19.68265,1.26985 c -0.435535,0.33936 -0.0984,-0.39035 0,0 z m 15.27453,-0.9247 c 5.07794,7.53365 -10.290435,9.89258 -6.15323,-0.68088 0.7689,-0.32711 5.5196,0.0403 6.15323,0.68088 z m -12.766576,3.67075 c -0.197532,0.60487 -0.366694,-0.62129 0,0 z m -4.412721,0.26984 c -0.435529,0.33937 -0.09841,-0.39036 0,0 z m 20.000107,0.95239 c -0.39036,-0.0984 0.33937,-0.43554 0,0 z m -18.84138,2.11113 c -0.383079,0.62334 -0.383038,-0.62336 0,0 z m 0.634928,0 c -0.621269,0.36562 -0.52923,-0.60493 0,0 z M 31.26503,59.5249 c -0.435537,0.33936 -0.0984,-0.39036 0,0 z m 31.428752,0.71429 c -0.391307,0.13804 0.35821,-0.92591 0,0 z m 9.65085,-0.19049 c -0.19753,0.60488 -0.36668,-0.62128 0,0 z m -17.746127,1.38096 c -0.390382,-0.0984 0.339368,-0.43553 0,0 z m 12.063557,0.4762 c -0.43554,0.33936 -0.0984,-0.39036 0,0 z m 8.25401,0.31746 c -0.43553,0.33936 -0.0984,-0.39035 0,0 z m -11.11117,0.95239 c -0.43554,0.33936 -0.0984,-0.39036 0,0 z m 2.0635,0.76191 c 0.12518,1.10995 -0.7884,-0.98002 0,0 z m -13.492138,0.26984 c -0.391317,0.13804 0.358205,-0.92591 0,0 z m 11.000058,-0.0318 c -0.19752,0.60488 -0.36667,-0.62128 0,0 z m 6.30163,0.11112 c -0.39036,-0.0984 0.33935,-0.43552 0,0 z M 55.550888,65.1598 c -0.322792,-0.26182 0.387803,-0.76522 0,0 z m 9.523864,1.03175 c -0.39036,-0.0984 0.33937,-0.43554 0,0 z m -2.33335,3.12701 c -0.281481,0.61499 -0.483115,-0.3318 0,0 z m 0.74604,0.0476 c -0.43554,0.33936 -0.0984,-0.39036 0,0 z m 2.74604,9.15878 c -0.28147,0.61501 -0.48313,-0.3318 0,0 z M 58.660327,15.462945 C 44.188238,30.82938 31.717865,42.76737 17.846059,58.69148 c -2.913766,2.63806 -3.218083,3.88844 3.377921,10.97501 12.145946,12.44473 23.314885,23.07778 35.696787,35.28857 4.912803,8.83018 11.405905,-4.7319 15.639095,-7.35316 9.93134,-9.59893 19.18263,-19.88626 29.192678,-29.39563 6.51332,-5.43805 7.33348,-7.88775 3.42098,-12.28607 C 92.575612,42.59481 79.546082,29.63853 66.467342,16.814345 c -3.35033,-4.087731 -5.570635,-3.018926 -7.807015,-1.3514 z m 6.731885,6.125165 c -0.39035,-0.0984 0.33937,-0.435535 0,0 z m -1.22223,0.539682 c -0.5917,0.316736 -0.15345,-0.780783 0,0 z m -0.36508,0.412705 c -0.39036,-0.09841 0.33937,-0.435546 0,0 z m 2.58732,0.206343 c -0.38306,0.62335 -0.38308,-0.623342 0,0 z m -3.69844,1.0635 c -0.390352,-0.0984 0.33937,-0.43553 0,0 z m -9.952433,1.5397 c -0.09522,1.53258 -0.970699,-0.40598 0,0 z m 16.285803,1.4762 c -0.67022,0.13771 -0.27725,-1.04507 0,0 z m -12.047684,0.95238 c -0.390355,-0.0984 0.339364,-0.43554 0,0 z m 12.269914,0.20635 c -0.19752,0.60486 -0.36669,-0.62128 0,0 z m 1.22222,1.69843 c -0.39035,-0.0984 0.33936,-0.43554 0,0 z m -5.98416,0.22222 c -0.53529,0.58533 -0.21404,-0.86242 0,0 z m -11.825464,0.28571 c -0.08094,0.83283 -0.637365,-0.609 0,0 z m 1.666674,0.95239 c -0.214044,0.86242 -0.53529,-0.58533 0,0 z m 15.3493,0.44445 c -0.39036,-0.0984 0.33937,-0.43553 0,0 z m -17.333438,0.68254 c -0.197527,0.60486 -0.366679,-0.62128 0,0 z m -8.174644,1.11112 c -0.383066,0.62335 -0.383066,-0.62335 0,0 z m 34.777972,1.31747 c -0.51655,0.25074 0.64063,-0.85849 0,0 z m -16.25406,0.0635 c -0.390352,-0.0984 0.33937,-0.43554 0,0 z m -10.952437,0.95238 c -0.390375,-0.0984 0.339368,-0.43554 0,0 z m 22.984257,1.31748 c 0.0449,0.60204 -0.43768,-0.66128 0,0 z m -28.063657,0.74603 c -0.390355,-0.0984 0.339364,-0.43554 0,0 z m 18.533447,-0.68937 c 10.78042,1.80324 21.49512,8.0145 28.76435,16.16495 4.12463,2.69044 5.38645,10.67325 0.05,13.74544 -7.785,7.97545 -17.81669,15.26154 -29.4124,16.21192 C 56.594498,84.22988 47.168241,80.98901 40.423663,76.78206 34.071861,72.92687 29.193206,67.62793 24.292911,62.10308 20.242891,59.68846 33.115942,50.67617 36.773668,46.66318 44.543498,40.83052 54.329047,36.01246 64.312032,37.1257 Z m -21.073143,2.59415 c -0.435535,0.33936 -0.0984,-0.39036 0,0 z m 43.968513,3.17461 c -0.43553,0.33936 -0.0984,-0.39033 0,0 z m -52.063805,2.38097 c -0.390329,-0.0984 0.339361,-0.43552 0,0 z m 62.428935,10.20641 c -0.19753,0.60487 -0.36668,-0.62128 0,0 z m 3.603198,4.23812 c -0.39036,-0.0984 0.33938,-0.43554 0,0 z m 2.38096,0.47619 c -0.39035,-0.0984 0.33936,-0.43554 0,0 z m -4.603198,4.4286 c -0.51599,0.25701 -0.28499,-0.31413 0,0 z m -74.714717,2.82541 c -0.281487,0.61499 -0.48312,-0.33179 0,0 z m 1.380959,0.52381 c -0.435527,0.33936 -0.09842,-0.39033 0,0 z m 68.413098,2.06351 c -0.39035,-0.0984 0.33937,-0.43554 0,0 z m -59.190819,5.73019 c -0.434673,0.48268 -0.453212,-0.90324 0,0 z m 2.047628,1.57144 c -0.390329,-0.0984 0.339361,-0.43553 0,0 z m 43.936771,0.99996 c -0.19751,0.60485 -0.36669,-0.62126 0,0 z m -42.301838,0.4127 c -0.535285,0.58534 -0.214038,-0.86242 0,0 z m 0.952393,1.01588 c -0.383046,0.62334 -0.383087,-0.62334 0,0 z m 5.396846,1.26984 c -0.383058,0.62337 -0.383058,-0.62336 0,0 z M 78.297042,82.017 c -0.2815,0.61501 -0.48308,-0.33181 0,0 z m 4.0794,0.52381 c -0.39036,-0.0984 0.33937,-0.43554 0,0 z m -36.698631,0.52381 c -0.197526,0.60487 -0.366678,-0.62128 0,0 z m 35.111321,-0.0477 c -0.43554,0.33936 -0.0984,-0.39035 0,0 z m -37.143079,0.31747 c -0.390355,-0.0984 0.339364,-0.43554 0,0 z m 33.174799,0 c -0.43554,0.33936 -0.0984,-0.39036 0,0 z m 0.63492,0.30158 c -0.51599,0.25697 -0.28501,-0.31414 0,0 z m -32.730344,1.96827 c -0.854944,0.97943 0.217846,-1.49853 0,0 z m 11.190536,0.38096 c -0.16711,0.73241 -0.446226,-0.25746 0,0 z m 20.587428,0.52381 c -0.43554,0.33937 -0.0984,-0.39038 0,0 z m -19.23821,1.31746 c -0.197527,0.60487 -0.366679,-0.62128 0,0 z m 5.63496,0.39684 c -0.15987,0.84956 -0.36284,-0.87109 0,0 z m -16.190577,0.14285 c -0.281491,0.61499 -0.483116,-0.33179 0,0 z m 13.809601,0.63493 c -0.281486,0.61499 -0.483119,-0.3318 0,0 z m 0.555558,0.41269 c -0.281988,0.38279 -0.532093,-0.74136 0,0 z M 57.1382,90.79475 c -0.390361,-0.0984 0.339365,-0.43553 0,0 z m -2.968271,0.69841 c -0.591704,0.31664 -0.153464,-0.78075 0,0 z m -2.301602,0.93652 c 0.04492,0.60206 -0.437669,-0.66128 0,0 z m 9.603232,0.55555 c -0.362862,0.87108 -0.159857,-0.84955 0,0 z m 4.444463,0.14286 c -0.32208,0.60179 -0.62539,-0.37909 0,0 z m -14.333409,0.52382 c -0.435535,0.33937 -0.0984,-0.39038 0,0 z m 10.444504,0.68254 c 0.04493,0.60206 -0.437665,-0.66128 0,0 z m 1.142855,0.11111 c -0.43554,0.33936 -0.0984,-0.39035 0,0 z m -10.793708,0.79366 c -0.390362,-0.0984 0.339377,-0.43554 0,0 z m 17.984228,-0.0477 c -0.28146,0.615 -0.48311,-0.33179 0,0 z m -17.38105,1.52382 c 0.06839,0.57768 -0.458707,-0.66815 0,0 z m 12.17467,0.98413 c -0.74326,0.11525 0.58644,-0.70543 0,0 z M 58.853789,1.6689273 C 52.936934,3.3986403 50.399673,9.8734073 45.692697,13.392379 40.006412,19.11565 34.135273,24.65784 28.774762,30.68916 20.794071,38.91177 12.997082,47.32954 5.0249975,55.54841 c -2.849688,5.32248 -3.673066,9.2002 4.189543,18.91089 12.9258265,13.21822 25.9446425,26.33758 39.0616175,39.34527 8.332718,11.24822 15.496604,12.70107 23.139064,0.66094 13.48279,-13.46541 26.54205,-27.3631 40.310278,-40.54211 5.85344,-6.77586 14.03611,-11.39172 5.76596,-19.92106 C 108.41072,45.28884 99.520322,36.40527 90.834362,27.30425 83.408212,19.847477 77.522922,14.112137 70.316182,6.4738223 69.245852,5.0070393 65.910842,-0.66128066 58.853789,1.6689273 Z m 1.982842,5.680842 c -0.383065,0.623353 -0.383065,-0.623353 0,0 z m 3.652831,2.121766 C 77.515892,22.99866 90.948932,36.11478 103.9599,49.65673 c 1.87595,4.001 11.55304,9.88656 7.25577,14.69117 C 96.255772,79.25196 83.107862,93.10192 68.481432,108.31766 61.820225,121.33272 54.849987,112.14899 51.32577,107.59522 43.653186,99.69318 35.714479,92.0769 28.191246,84.03666 22.500912,77.99403 16.335072,72.42277 10.663105,66.37458 6.0236775,62.4654 10.686845,58.12601 18.454392,50.11501 25.619224,42.51942 33.291085,35.43367 40.421336,27.80528 46.814868,21.939295 52.437719,15.290748 58.784133,9.3979533 c 1.079212,-0.863812 4.855039,-1.250393 5.705329,0.07358 z M 94.487622,41.15949 c -0.19753,0.60488 -0.36668,-0.62128 0,0 z m 9.952428,31.6986 c -0.39035,-0.0984 0.33936,-0.43554 0,0 z"
       sodipodi:nodetypes="cccccccccccccccccccccccccccccccccccccccccccccccccccccccccccccccccccccccccccccccccccccccccccccccccccccccccccccccccccccccccccccccccccccccccccccccccccccccccccccccccccccccccccccccccccccccccccccccccccccccccccccccccccccccccccccccccccccccscccccccccsscccc" />
  </g>
</svg>
