<?xml version="1.0" encoding="UTF-8" standalone="no"?>
<!-- Created with Inkscape (http://www.inkscape.org/) -->

<svg
   width="124mm"
   height="124mm"
   viewBox="0 0 124 124"
   version="1.1"
   id="svg1"
   inkscape:version="1.4.2 (ebf0e940, 2025-05-08)"
   sodipodi:docname="home.svg"
   xmlns:inkscape="http://www.inkscape.org/namespaces/inkscape"
   xmlns:sodipodi="http://sodipodi.sourceforge.net/DTD/sodipodi-0.dtd"
   xmlns="http://www.w3.org/2000/svg"
   xmlns:svg="http://www.w3.org/2000/svg">
  <sodipodi:namedview
     id="namedview1"
     pagecolor="#ffffff"
     bordercolor="#000000"
     borderopacity="0.25"
     inkscape:showpageshadow="2"
     inkscape:pageopacity="0.0"
     inkscape:pagecheckerboard="0"
     inkscape:deskcolor="#d1d1d1"
     inkscape:document-units="mm"
     inkscape:zoom="0.23746553"
     inkscape:cx="593.77038"
     inkscape:cy="320.04645"
     inkscape:window-width="1920"
     inkscape:window-height="1027"
     inkscape:window-x="0"
     inkscape:window-y="25"
     inkscape:window-maximized="0"
     inkscape:current-layer="layer1" />
  <defs
     id="defs1" />
  <g
     inkscape:label="Layer 1"
     inkscape:groupmode="layer"
     id="layer1">
    <path
       id="path36"
       style="stroke-width:0.0164602"
       d="m 63.100699,120.14035 c 0.0658,0.0494 0.1646,0.0494 0.23044,0 0.0494,-0.0658 0,-0.11522 -0.11522,-0.11522 -0.11522,0 -0.1646,0.0494 -0.11522,0.11522 z m 3.14389,-0.52673 c 0.0494,0.36212 0.36212,0.62549 0.5761,0.51026 0.11523,-0.0823 0.11523,-0.21398 -0.0329,-0.42796 -0.23044,-0.39504 -0.59257,-0.42796 -0.54319,-0.0823 z m -2.37027,-1.39911 c 0,0.11522 0.0494,0.1646 0.11522,0.11522 0.0494,-0.0658 0.0494,-0.1646 0,-0.23044 -0.0658,-0.0494 -0.11522,0 -0.11522,0.11522 z m 19.45592,-0.13168 c -0.90531,0.19752 -1.05345,0.55964 -0.46089,1.06991 0.37859,0.31274 0.62549,0.37858 1.64602,0.37858 1.26743,0 1.58017,-0.14814 1.58017,-0.75717 0,-0.79009 -1.10283,-1.06991 -2.7653,-0.69132 z m -29.15095,-0.59257 c -1.21805,1.02053 0.23044,2.09044 1.46495,1.08637 0.47735,-0.39504 0.36213,-1.05345 -0.2469,-1.31681 -0.5761,-0.26336 -0.64194,-0.26336 -1.21805,0.23044 z m -1.00407,-4.0492 c -0.3292,0.19752 0.14814,1.03699 0.62549,1.11929 0.52672,0.0823 0.6584,-0.60902 0.19752,-0.98761 -0.4115,-0.34566 -0.47734,-0.34566 -0.82301,-0.13168 z m -25.11821,-0.19752 c -0.85592,0.13168 -0.55964,1.23451 0.41151,1.5308 0.88885,0.26336 1.36619,0 1.30035,-0.72425 -0.0494,-0.44443 -0.13168,-0.54319 -0.70778,-0.69133 -0.36213,-0.0988 -0.82301,-0.14814 -1.00408,-0.11522 z m 4.04921,-0.95469 c 0,0.0823 0.11522,0.1646 0.2469,0.1646 0.13168,0 0.2469,-0.0823 0.2469,-0.1646 0,-0.0988 -0.11522,-0.1646 -0.2469,-0.1646 -0.13168,0 -0.2469,0.0658 -0.2469,0.1646 z m -1.92585,-1.03699 c 0.0658,0.0494 0.16461,0.0494 0.23045,0 0.0494,-0.0658 0,-0.11522 -0.11522,-0.11522 -0.11523,0 -0.16461,0.0494 -0.11523,0.11522 z m 41.97341,-0.3292 c 0.0658,0.0494 0.16461,0.0494 0.23045,0 0.0494,-0.0659 0,-0.11523 -0.11522,-0.11523 -0.11523,0 -0.1646,0.0494 -0.11523,0.11523 z m -1.85999,-2.25505 c 0,0.11522 0.0494,0.16461 0.11522,0.11522 0.0494,-0.0658 0.0494,-0.16459 0,-0.23044 -0.0658,-0.0494 -0.11522,0 -0.11522,0.11522 z m 2.61716,-3.39079 c -1.33327,0.37859 -1.69539,0.85593 -1.11929,1.43203 0.64195,0.64195 4.09858,0.14814 4.09858,-0.5761 0,-0.85593 -1.49787,-1.2839 -2.97929,-0.85593 z m -49.11712,-1.69539 c -0.44442,0.18106 -1.00407,0.51026 -1.21805,0.72424 -0.39505,0.39504 -0.39505,0.4115 -0.0988,0.74071 0.31274,0.34566 0.82301,0.44442 0.97115,0.18106 0.0494,-0.0823 0.39504,-0.19752 0.75717,-0.2469 0.36212,-0.0494 0.95468,-0.14814 1.30035,-0.19753 0.37858,-0.0494 0.80655,-0.26336 1.03699,-0.51026 l 0.37858,-0.4115 -0.39504,-0.31275 c -0.51026,-0.4115 -1.64602,-0.39504 -2.73239,0.0329 z m 54.76296,-21.645122 c -0.21398,0.42797 -0.39505,3.72 -0.23044,3.98336 0.0823,0.13168 0.59256,0.26336 1.15221,0.31275 l 1.00407,0.0987 0.0823,-0.55964 c 0.1646,-0.95469 0.42796,-3.12743 0.42796,-3.44017 0,-0.36213 -0.31274,-0.49381 -1.43203,-0.60903 -0.70779,-0.0658 -0.87239,-0.0329 -1.00407,0.21398 z m -3.90106,-0.92177 c -0.0823,0.11522 -0.39504,3.22619 -0.4115,3.99982 0,0.23045 1.11929,0.60903 1.81062,0.60903 h 0.6584 v -0.87239 c 0,-0.46088 0.11522,-1.36619 0.23044,-1.99168 0.13168,-0.62549 0.21399,-1.20159 0.16461,-1.26743 -0.0988,-0.18106 -1.54726,-0.64195 -1.97523,-0.64195 -0.21398,0 -0.42796,0.0658 -0.47734,0.1646 z m 4.88867,-5.94212 c -0.23044,0.14815 -0.67487,2.83115 -0.69133,4.09859 0,0.80654 0.0494,0.83946 1.38265,0.88884 l 0.97115,0.0494 0.23045,-1.0699 c 0.13168,-0.59257 0.29628,-1.38266 0.37858,-1.77771 0.0988,-0.37858 0.1646,-1.02053 0.1646,-1.41557 v -0.70779 l -0.85593,-0.11521 c -1.13575,-0.13169 -1.31681,-0.11523 -1.58017,0.0494 z m -4.44424,-0.13168 c -0.26337,0.72425 -0.39505,4.03274 -0.16461,4.23027 0.11522,0.0823 0.69133,0.19752 1.2839,0.23044 l 1.05344,0.0494 0.0329,-0.65841 c 0.0329,-0.36212 0.0988,-1.33327 0.1646,-2.17274 0.11522,-1.72832 0.0658,-1.79416 -1.41558,-1.97522 -0.75716,-0.0823 -0.823,-0.0658 -0.95468,0.29628 z m -39.75129,-3.60477 -0.46089,0.1646 0.0494,2.6007 c 0.0329,1.43204 0.0988,2.66655 0.18106,2.73239 0.16461,0.1646 1.97522,0.0823 2.09045,-0.0988 0.11521,-0.19752 -0.11523,-3.30849 -0.32921,-4.34548 -0.26336,-1.25097 -0.51026,-1.43203 -1.53079,-1.05345 z m 23.96599,-26.35272 c -0.11522,0.1646 -0.18106,1.36619 -0.1646,3.76938 l 0.0329,3.53893 1.11929,0.0494 c 1.6131,0.0658 1.59664,0.0823 1.66248,-2.13982 0.0494,-1.05345 0.13168,-2.56778 0.18106,-3.37433 0.0988,-1.13575 0.0658,-1.49788 -0.0988,-1.64602 -0.37858,-0.31274 -2.5184,-0.46088 -2.73238,-0.19752 z m -10.46866,-0.0988 c -0.23044,0.23044 -0.27982,0.70779 -0.31275,3.06159 -0.0165,1.53079 -0.0329,3.06159 -0.0329,3.39079 l -0.0165,0.62549 0.74071,-0.0329 c 1.64601,-0.0988 2.12336,-0.21398 2.23858,-0.59257 0.13168,-0.42796 0.19752,-6.1561 0.0658,-6.35362 -0.0494,-0.0823 -0.60902,-0.19752 -1.25097,-0.26336 -0.97115,-0.0988 -1.21805,-0.0658 -1.43203,0.1646 z m 4.543,-18.386 c 0.1646,0.1646 0.27983,0.39504 0.27983,0.51026 0,0.11523 0.0987,0.18107 0.21398,0.14814 0.27982,-0.0987 0.27982,-0.95468 -0.0165,-0.95468 -0.13168,0 -0.16461,0.0823 -0.0988,0.19752 0.0988,0.1646 0.0658,0.1646 -0.11522,0 -0.34567,-0.31274 -0.55965,-0.23044 -0.26337,0.0988 z m 1.79416,-0.70779 c -0.47734,0.60903 -0.69132,1.71186 -0.75717,4.11504 -0.0658,2.13982 0.0165,2.61717 0.47735,2.45257 0.13168,-0.0494 0.6584,-0.0988 1.18513,-0.11522 l 0.95469,-0.0329 0.0494,-3.01221 0.0329,-2.99575 -0.39505,-0.41151 c -0.52673,-0.52672 -1.13575,-0.52672 -1.54725,0 z m -0.55964,-9.18477 c -0.41151,0.79009 -0.85594,1.66248 -1.00408,1.9423 -0.14814,0.26336 -0.52672,1.05345 -0.83946,1.72832 -0.31275,0.67486 -0.85593,1.71185 -1.16868,2.30442 -0.3292,0.59257 -1.10283,1.99168 -1.72831,3.12743 -0.60903,1.13575 -1.38266,2.50195 -1.71186,3.04513 -0.3292,0.54318 -0.59256,1.05345 -0.59256,1.13575 0,0.0988 -0.14815,0.31274 -0.31275,0.49381 -0.18106,0.19752 -0.80655,1.26743 -1.38265,2.40318 -0.57611,1.13575 -1.15221,2.22212 -1.26743,2.41965 -0.11523,0.18105 -0.16461,0.46088 -0.0988,0.62548 0.0988,0.26336 0.34567,0.27982 3.01221,0.21398 1.6131,-0.0494 3.9669,-0.0165 5.23434,0.0494 3.24265,0.19752 5.95858,0.1646 10.81432,-0.0988 3.02867,-0.14814 3.09451,-0.19752 2.1069,-1.59663 -0.80655,-1.15222 -1.81062,-2.88053 -1.81062,-3.12743 0,-0.0988 -0.39504,-0.83947 -0.88884,-1.67894 -1.86,-3.17681 -5.11911,-9.5469 -6.25487,-12.27928 -0.51026,-1.20159 -0.97115,-2.07398 -1.11929,-2.1069 -0.18106,-0.0329 -0.4938,0.4115 -0.9876,1.39911 z m 1.9423,6.50177 c 0.24689,0.39504 0.5761,0.90531 0.7407,1.15221 0.54318,0.77362 1.16867,1.97522 1.31681,2.46902 0.14815,0.57611 0.23045,6.76513 0.0823,7.01203 -0.13168,0.23044 -5.8269,0.13168 -6.05735,-0.0988 -0.31274,-0.31274 -0.1646,-6.27132 0.16461,-6.89681 1.43203,-2.74885 2.56778,-4.32902 3.06159,-4.32902 0.14814,0 0.46088,0.31274 0.69133,0.69133 z M 55.347959,3.4048384 c -0.31274,0.26336 -0.95469,1.33328 -1.69539,2.84761 -0.64195,1.33327 -1.6131,3.29203 -2.15629,4.3454796 -0.52672,1.05345 -0.95468,2.0246 -0.95468,2.15629 0,0.13168 -0.14815,0.42796 -0.32921,0.6584 -0.18106,0.23045 -0.65841,1.03699 -1.03699,1.79416 -0.37858,0.75716 -0.79009,1.51433 -0.88885,1.6954 -0.0988,0.18106 -0.79009,1.54725 -1.53079,3.02867 -0.74071,1.48141 -1.59664,3.11097 -1.90938,3.62123 -0.31274,0.51026 -0.55965,0.98761 -0.55965,1.05345 0,0.0823 -0.47734,0.97115 -1.06991,1.99168 -0.5761,1.02053 -1.10283,1.99168 -1.16867,2.15628 -0.0658,0.1646 -0.37858,0.67487 -0.69132,1.13575 -0.31275,0.46089 -0.62549,0.98761 -0.70779,1.16868 -0.0823,0.18105 -0.27983,0.52672 -0.44443,0.75716 -0.14814,0.2469 -0.4938,0.79009 -0.77362,1.23451 -0.26337,0.44443 -0.75717,1.18514 -1.10283,1.64602 -1.08638,1.46495 -0.72425,2.60071 0.83946,2.63362 0.95469,0 1.21806,0.18107 1.26743,0.83947 0.19753,3.12744 0.27983,4.1315 0.32921,4.41133 0.0494,0.18106 0.14814,1.59663 0.23044,3.14389 0.0823,1.53079 0.18106,2.91345 0.23045,3.04513 0.18105,0.51026 0.51026,6.84742 0.6584,12.49326 0.0988,3.75292 0.23044,6.4853 0.36212,7.16017 0.0494,0.18106 0.0823,1.41558 0.0988,2.74885 0,1.33327 0.0823,2.81469 0.1646,3.29203 0.19753,1.30035 0.18107,19.65343 -0.0329,20.04848 -0.19752,0.37858 -0.64195,0.42796 -1.03699,0.13168 -0.29628,-0.23045 -0.29628,-0.24691 -0.29628,-6.55115 0.0165,-4.67469 -0.13169,-12.85538 -0.23045,-13.00352 -0.0329,-0.0494 -0.0823,-1.31682 -0.0988,-2.81469 -0.0329,-3.40725 -0.27982,-7.62106 -0.47734,-8.14778 -0.14815,-0.36212 -0.23044,-0.39505 -0.93823,-0.31275 -0.44443,0.033 -1.59664,0.14815 -2.60071,0.24691 -0.9876,0.0988 -2.40318,0.29628 -3.14389,0.42796 -1.90938,0.37859 -2.1069,0.31275 -2.17274,-0.5761 -0.0329,-0.39505 0,-0.77363 0.0823,-0.85593 0.14814,-0.14814 6.86389,-0.95469 7.8515,-0.93823 1.00407,0 1.10283,-0.19753 0.92177,-2.09044 -0.29629,-3.25911 -0.54319,-7.25893 -0.75717,-12.09822 -0.0494,-1.03699 -0.11522,-2.07398 -0.14814,-2.30442 -0.0329,-0.23045 -0.0658,-0.52673 -0.0658,-0.67487 -0.0165,-0.21398 -0.32921,-0.27982 -1.7777,-0.37859 -0.98761,-0.0658 -2.25504,-0.19752 -2.84761,-0.27982 -1.90937,-0.31274 -2.1069,-0.0823 -2.97929,3.1439 -0.2469,0.95468 -0.67486,2.2715 -0.95469,2.94636 -0.27982,0.67487 -0.51026,1.33328 -0.51026,1.46496 0,0.14814 -0.11522,0.37858 -0.2469,0.52672 -0.13168,0.14814 -0.36213,0.69133 -0.49381,1.21806 -0.13168,0.51026 -0.46088,1.39911 -0.72424,1.95875 -0.24691,0.55965 -0.55965,1.2839 -0.65841,1.6131 -0.0988,0.3292 -0.44442,1.02053 -0.75717,1.53079 -0.29628,0.51027 -0.60902,1.08637 -0.6584,1.30036 -0.0658,0.19752 -0.42797,0.92177 -0.82301,1.59663 -0.87239,1.54726 -0.95469,1.82708 -0.67487,2.22212 0.2469,0.34567 0.79009,0.37859 2.32088,0.18106 l 1.00407,-0.13168 0.18107,0.79009 c 0.23043,0.93823 0.36212,2.48549 0.46088,5.2508 0.0494,1.08636 0.18106,2.83114 0.31274,3.86813 0.24691,2.12336 0.24691,5.44831 -0.0329,6.12318 -0.14814,0.34566 -0.29629,0.44443 -0.65841,0.42797 -0.36213,-0.0165 -0.77363,0.23044 -1.6954,1.03699 -0.67487,0.59256 -1.89292,1.53079 -2.73239,2.09044 -1.61309,1.11929 -1.72831,1.23451 -1.51433,1.81062 0.1646,0.44442 0.74071,0.69132 1.33328,0.5761 0.54318,-0.0988 0.5761,0.0329 0.70778,2.25504 0.0494,0.95469 0.13168,2.20567 0.18106,2.79823 0.0494,0.59257 0.11522,1.39911 0.14815,1.81062 0.0165,0.4115 0.0987,1.18513 0.14814,1.72831 0.0658,0.54319 0.0494,1.08637 -0.0329,1.2016 -0.0823,0.11522 -0.87239,0.39504 -1.74478,0.60902 -0.88885,0.21399 -1.71186,0.49381 -1.84354,0.59257 -0.13168,0.0988 -0.57611,0.26336 -1.00407,0.3292 -1.00407,0.19752 -1.99168,0.83947 -2.12336,1.41557 -0.2469,0.93823 0.51027,1.21806 2.20566,0.85593 0.51027,-0.11522 1.00407,-0.19752 1.08637,-0.1646 0.0823,0.0165 0.51027,-0.0494 0.92177,-0.14814 1.2016,-0.29628 2.56779,-0.49381 4.27964,-0.6584 0.85593,-0.0823 2.18921,-0.23045 2.96283,-0.34567 1.51434,-0.21398 5.36602,-0.31274 12.55911,-0.36212 3.78583,-0.0329 4.59238,0 4.7076,0.19752 0.31274,0.4938 0.0165,0.69133 -2.37026,1.74478 -0.26336,0.11522 -0.90531,0.395042 -1.39912,0.609022 -0.4938,0.23045 -1.33327,0.55965 -1.87646,0.72425 -0.52672,0.1646 -1.11928,0.4115 -1.31681,0.55964 -0.18106,0.14814 -0.60902,0.36213 -0.92176,0.49381 -1.26744,0.47734 -1.76124,0.75717 -2.60071,1.43203 -0.49381,0.39505 -0.95469,0.70779 -1.03699,0.70779 -0.0823,0 -0.34567,0.29628 -0.59257,0.67487 -0.37858,0.59256 -0.46088,0.90531 -0.54318,2.3538 -0.1646,2.65008 0.0329,3.04513 2.38672,4.65822 4.46071,3.04513 4.27964,2.89699 4.32902,3.45664 0.0659,0.62548 -0.3292,0.85593 -2.0246,1.21805 -0.54318,0.11522 -1.25097,0.32921 -1.56371,0.47735 -0.31274,0.14814 -0.90531,0.37858 -1.30036,0.4938 -1.53079,0.4938 -2.15628,1.7777 -1.15221,2.37026 0.59257,0.34567 1.13576,0.36213 2.83115,0.0988 0.79009,-0.13168 1.62956,-0.16461 2.22212,-0.0823 1.7777,0.24691 4.11504,0 4.88867,-0.4938 1.90938,-1.21805 2.46902,-1.99168 2.63363,-3.63769 l 0.11522,-1.16868 -0.83947,-0.98761 c -0.90531,-1.10283 -1.21805,-1.34973 -2.89699,-2.2715 -0.62548,-0.34566 -1.54725,-0.95469 -2.04106,-1.36619 -0.4938,-0.39505 -1.05345,-0.79009 -1.25097,-0.88885 -0.55965,-0.2469 -0.92177,-1.16868 -0.79009,-1.99168 0.1646,-1.03699 0.85593,-1.76124 2.45257,-2.60071 0.85593,-0.44442 1.54725,-0.92177 1.74478,-1.21805 0.4938,-0.70778 0.79008,-0.90531 1.38265,-0.90531 0.27982,0 0.60902,-0.0988 0.70778,-0.23044 0.23044,-0.27982 1.90938,-1.11929 3.17682,-1.58017 0.51026,-0.18107 1.02053,-0.44443 1.11928,-0.57611 0.11523,-0.131682 0.26337,-0.246902 0.34567,-0.246902 0.0823,0 0.60903,-0.21398 1.18513,-0.49381 2.04106,-0.95469 2.25504,-1.00407 4.82283,-0.87239 l 2.37026,0.0988 v 0.41151 c 0,0.57611 -0.98761,1.481412 -3.29203,3.028672 -2.22212,1.48141 -2.81469,2.05752 -3.19327,3.17681 -0.29629,0.82301 -0.29629,0.82301 0.14814,1.76124 0.64195,1.41557 1.25097,1.86 4.27964,3.25911 0.64195,0.27982 1.36619,0.62549 1.6131,0.75717 0.26336,0.13168 0.54318,0.23044 0.62548,0.23044 0.23044,0 2.99575,1.28389 5.4977,2.56778 1.26743,0.64195 2.48548,1.23451 2.71593,1.30035 1.28388,0.39505 2.79822,2.88054 2.79822,4.59239 0,1.39912 0.1646,1.48142 2.99575,1.36619 2.66654,-0.0823 2.83115,-0.13168 3.06159,-0.7407 0.41151,-1.03699 0.39505,-1.49788 -0.0329,-2.43611 -0.23045,-0.51026 -0.42797,-1.02053 -0.42797,-1.13575 0,-0.47734 -1.36619,-1.99168 -2.50195,-2.74885 -0.6584,-0.46088 -1.34973,-0.95469 -1.53079,-1.11929 -0.18106,-0.1646 -1.10283,-0.70778 -2.05752,-1.18513 -0.95469,-0.4938 -1.87646,-0.98761 -2.05752,-1.08637 -0.18106,-0.0988 -0.74071,-0.3292 -1.25097,-0.51026 -0.51027,-0.18107 -1.16867,-0.46089 -1.48142,-0.64195 -0.31274,-0.1646 -1.06991,-0.47734 -1.71186,-0.69133 -1.46495,-0.47734 -2.09044,-0.90531 -2.0246,-1.38265 0.0494,-0.31274 0.14815,-0.34566 0.9547,-0.34566 2.17274,0 4.47716,-0.75717 4.57592,-1.51434 0.0494,-0.36212 -0.83947,-1.20159 -1.30035,-1.20159 -0.13168,0 -0.39505,-0.18106 -0.59257,-0.39504 -0.85593,-0.90531 0.19752,-1.7777 2.50195,-2.1069 0.64194,-0.0988 1.33327,-0.27983 1.54725,-0.41151 0.92177,-0.59256 7.81858,-0.14814 9.51397,0.60903 0.39505,0.1646 1.20159,0.82301 1.81062,1.44849 0.70779,0.70779 1.34974,1.21805 1.74478,1.33327 0.72425,0.24691 0.72425,0.21399 0.1646,1.15222 -0.26336,0.4115 -0.75716,1.62955 -1.11929,2.71592 l -0.65841,1.95876 -0.74071,0.0494 c -0.4115,0.0329 -1.05345,0.0658 -1.44849,0.0658 -0.39504,-0.0165 -0.85593,0.0329 -1.02053,0.0823 -0.37858,0.11523 -0.64195,0.83947 -0.4938,1.38266 0.0988,0.44442 1.02052,0.70778 3.20973,0.92177 0.64194,0.0658 1.86,0.29628 2.71592,0.51026 0.85593,0.23044 2.23859,0.54319 3.07806,0.70779 0.92176,0.18106 1.67893,0.44442 1.95875,0.65841 0.24691,0.18106 0.52673,0.34566 0.64195,0.34566 0.11522,0 0.67487,0.21398 1.26743,0.47734 0.57611,0.26336 1.31682,0.52673 1.66248,0.59257 0.54319,0.0988 0.62549,0.0823 0.80655,-0.32921 0.14814,-0.34566 0.14814,-0.51026 -0.0165,-0.77362 -0.24691,-0.39505 -0.0329,-0.62549 0.59256,-0.62549 0.93823,0 2.50194,-0.83947 3.19327,-1.71186 0.65841,-0.823 0.67487,-0.85592 0.55965,-1.82707 -0.0494,-0.52673 -0.16461,-1.08638 -0.23045,-1.23452 -0.0823,-0.13168 -0.18106,-0.44442 -0.23044,-0.67486 -0.11522,-0.42797 -0.11522,-0.42797 0.54319,-0.26336 0.5761,0.1646 0.69132,0.14814 1.05345,-0.19752 0.82301,-0.77363 0.62548,-2.02461 -0.37859,-2.48549 -0.23044,-0.11522 -0.55964,-0.26336 -0.70779,-0.34566 -0.1646,-0.0823 -0.52672,-0.14814 -0.823,-0.14814 -0.64195,0 -2.96283,-0.46089 -3.12743,-0.62549 -0.2469,-0.26336 -0.32921,-1.30035 -0.0988,-1.38265 0.39504,-0.14815 3.47309,0.39504 5.06972,0.88884 3.209741,0.98762 4.543011,1.18514 4.921591,0.72425 0.0988,-0.11522 0.47735,-0.26336 0.82301,-0.3292 1.25097,-0.19753 1.6954,-0.92177 1.67894,-2.68301 -0.0329,-1.25097 -1.39912,-2.946372 -3.02867,-3.752922 -1.10283,-0.52672 -1.21805,-0.67486 -1.21805,-1.31681 0,-0.27982 -0.14814,-0.82301 -0.32921,-1.23451 -0.37858,-0.83947 -1.497871,-1.56372 -3.259111,-2.05752 -0.54318,-0.1646 -1.05345,-0.34567 -1.13575,-0.41151 -0.27982,-0.27982 1.11929,-2.04105 2.50195,-3.11097 1.481411,-1.16867 1.596631,-1.46495 0.83946,-2.0246 -0.4115,-0.31274 -0.42796,-0.31274 -1.20159,0.0329 -0.47734,0.19752 -1.20159,0.74071 -1.76124,1.31682 -0.52672,0.54318 -1.00406,0.98761 -1.05345,0.98761 -0.0494,0 -0.0823,-0.31275 -0.0823,-0.70779 0,-0.52672 0.24689,-1.18513 1.03699,-2.74884 1.53079,-3.01222 1.53079,-3.02868 0.11521,-3.52248 -1.36619,-0.47735 -1.58017,-0.29628 -1.62955,1.34973 -0.0329,0.97115 -0.37859,2.00814 -0.69133,2.00814 -0.0988,0 -0.39504,-0.18106 -0.67487,-0.4115 -0.59256,-0.49381 -1.05344,-0.52673 -1.28389,-0.0658 -0.29628,0.52672 0,2.05751 0.51027,2.81468 0.37858,0.52673 0.44442,2.68301 0.0988,3.16036 -0.19752,0.27982 -0.2469,0.26336 -1.05345,-0.0494 -0.46089,-0.18106 -1.21805,-0.37858 -1.66248,-0.44442 l -0.82301,-0.0988 -0.11522,-0.72425 c -0.0494,-0.39504 -0.0658,-0.85593 -0.0165,-1.02053 0.0494,-0.14814 0.16461,-1.28389 0.26336,-2.50194 0.21399,-2.3538 0.36213,-3.20973 1.06992,-5.84336 0.2469,-0.90531 0.51026,-2.09044 0.5761,-2.63363 0.44443,-3.48955 0.65841,-4.83928 0.80655,-5.23433 0.0988,-0.2469 0.3292,-1.54725 0.51027,-2.88052 0.55964,-4.04921 0.67486,-4.72407 0.83946,-4.88867 0.0988,-0.0988 0.83947,-0.18106 1.64602,-0.18106 1.61309,-0.0329 2.12336,-0.26337 2.12336,-0.97115 0,-0.37859 -1.41558,-3.09451 -2.04106,-3.95044 -0.21398,-0.27983 -0.5761,-0.90531 -0.80655,-1.39912 -0.2469,-0.4938 -0.55964,-1.08637 -0.69132,-1.31681 -0.13169,-0.23044 -0.54319,-1.05345 -0.90531,-1.82708 -0.36213,-0.79009 -0.75717,-1.51433 -0.88885,-1.6131 -0.13168,-0.11521 -0.27982,-0.37857 -0.34567,-0.62548 -0.11521,-0.51026 -1.25097,-3.25911 -1.81061,-4.42778 -0.23045,-0.46089 -0.41151,-0.92177 -0.41151,-1.02053 0,-0.51027 -0.90531,-2.79823 -1.23451,-3.14389 -0.3292,-0.32921 -0.60902,-0.41151 -1.84354,-0.52673 -1.87645,-0.1646 -4.26318,-0.46088 -4.98742,-0.60902 -0.69133,-0.14815 -0.75717,-0.41151 -0.46089,-2.17275 l 0.21398,-1.23451 0.60903,-0.0494 c 0.85592,-0.0658 1.11929,-0.4938 1.11929,-1.86 0,-1.43203 -0.36212,-1.69539 -2.79823,-2.1069 -0.4115,-0.0658 -0.88885,-0.19752 -1.06991,-0.29628 -0.26336,-0.14814 -1.26743,-0.36212 -2.13982,-0.46089 -0.0823,-0.0165 -0.36212,-0.0823 -0.62549,-0.14814 -0.62548,-0.18106 -0.87238,0.0823 -0.9876,1.10284 -0.0658,0.46088 -0.14815,1.13574 -0.21399,1.48141 -0.14814,0.93823 0.0165,1.36619 0.59257,1.56371 0.37858,0.13169 0.4938,0.27983 0.4938,0.59257 0,0.23044 0.0823,0.46088 0.18106,0.51027 0.11523,0.0823 0.0658,0.23044 -0.11522,0.42796 -0.14814,0.1646 -0.31274,0.69132 -0.36212,1.16867 -0.0988,1.08637 -0.19752,1.15221 -1.51434,1.02053 -1.0699,-0.0988 -1.34973,-0.14814 -2.17274,-0.31274 -0.44442,-0.0988 -0.79009,0.34566 -0.54318,0.7407 0.13168,0.23045 -0.23044,5.06973 -0.41151,5.54708 -0.0823,0.19752 -0.23044,1.30035 -0.3292,2.46902 -0.0988,1.15222 -0.2469,2.40319 -0.3292,2.76531 -0.23045,0.93823 -0.51027,5.72814 -0.34567,5.89274 0.0658,0.0658 0.93823,0.19752 1.92584,0.29628 3.4731,0.29629 6.76513,0.74071 8.18071,1.06991 0.77362,0.18106 1.18513,0.21398 1.30035,0.0988 0.0823,-0.0823 1.00407,-2.683 2.0246,-5.74459 2.09044,-6.23841 2.33734,-6.92973 2.5184,-6.69929 0.0823,0.0823 0.4938,0.92177 0.92177,1.87646 0.44442,0.95469 1.34973,2.83115 2.0246,4.19734 0.67487,1.34974 1.53079,3.17681 1.87646,4.03274 0.36212,0.85593 0.79009,1.71186 0.95469,1.89292 0.90531,0.98761 0.83947,2.1892 -0.0988,2.22212 -0.34567,0 -1.23452,-1.46495 -3.14389,-5.26725 -1.03699,-2.04106 -1.97523,-3.8023 -2.07398,-3.91752 -0.39505,-0.41151 -0.69133,-0.0165 -1.15222,1.58017 -0.47734,1.58018 -2.15628,6.00796 -2.69946,7.07788 -0.31274,0.62548 -0.29628,0.62548 -2.94637,0.13168 -1.67894,-0.31275 -5.64584,-0.83947 -8.98725,-1.2016 -0.44443,-0.0494 -0.87239,-0.0165 -0.95469,0.0659 -0.0988,0.0988 -0.23044,0.85592 -0.31274,1.71185 -0.36213,3.81876 -0.49381,5.46478 -0.57611,7.22601 -0.0494,1.03699 -0.18106,2.66655 -0.27982,3.62124 -0.0988,0.95469 -0.19752,2.88053 -0.21398,4.27964 -0.0658,3.76938 -0.23045,9.64565 -0.32921,10.86371 -0.0494,0.59256 -0.13168,1.77769 -0.18106,2.63362 -0.18106,2.96283 -0.19752,3.01221 -1.06991,2.92991 -0.44442,-0.0329 -0.55964,-0.11522 -0.52673,-0.37858 0.0823,-0.62549 0.19753,-3.78584 0.27983,-7.65398 0.23044,-9.67857 0.29628,-12.65786 0.34566,-13.57963 0.14814,-2.58425 0.24691,-4.08212 0.32921,-4.18088 0.0329,-0.0658 0.11522,-0.85593 0.1646,-1.76124 0.0494,-0.88885 0.11522,-1.95876 0.1646,-2.37026 0.0329,-0.41151 0.11522,-1.4485 0.18106,-2.30442 0.0494,-0.85593 0.1646,-1.89292 0.26336,-2.30443 0.0823,-0.4115 0.21398,-1.51433 0.29629,-2.46902 0.23044,-2.89699 0.4938,-5.11911 0.7407,-6.40301 0.13168,-0.6584 0.24691,-1.58017 0.24691,-2.02459 0,-0.46089 0.0658,-1.10284 0.14814,-1.43204 0.0988,-0.3292 0.2469,-1.59664 0.36212,-2.81468 0.0988,-1.21806 0.24691,-2.48549 0.31275,-2.79823 0.0823,-0.31275 0.19752,-1.16868 0.2469,-1.89292 0.0658,-0.72425 0.18106,-1.6131 0.26336,-1.97522 0.0823,-0.36212 0.14814,-1.00407 0.14814,-1.43204 v -0.79008 l 1.03699,-0.51027 c 1.59664,-0.80655 1.62956,-1.06991 0.36212,-2.84761 -0.4938,-0.69132 -0.90531,-1.28389 -0.90531,-1.33327 0,-0.0329 -0.21398,-0.39504 -0.4938,-0.79008 -0.26336,-0.41151 -0.49381,-0.82301 -0.49381,-0.90531 0,-0.0988 -0.18106,-0.31275 -0.4115,-0.49381 -0.23044,-0.18106 -0.4115,-0.39504 -0.4115,-0.47734 0,-0.14815 -0.98761,-1.86 -1.72832,-3.01221 -0.5761,-0.88885 -2.22212,-4.09858 -2.22212,-4.32903 0,-0.0988 -0.21398,-0.64194 -0.47735,-1.18513 -1.15221,-2.33734 -2.5184,-5.48123 -3.62123,-8.23008 -0.34566,-0.90531 -0.87239,-2.20566 -1.13575,-2.88053 -0.27983,-0.67486 -0.80655,-2.0904396 -1.18514,-3.1274296 -1.51433,-4.23026 -2.45256,-5.30017 -3.75291,-4.19734 z m 1.05345,8.2300796 c 0.14814,0.54319 0.46089,1.38266 0.72425,1.87646 0.62549,1.25097 2.46902,5.38248 2.46902,5.54707 0,0.46089 3.16035,6.89681 4.11504,8.37823 0.41151,0.62548 0.87239,1.43203 1.02053,1.76124 0.36213,0.77362 3.35788,5.53061 3.76938,5.97503 0.39504,0.44443 0.26336,2.13982 -0.18106,2.38673 -0.39505,0.21398 -4.1315,0.3292 -10.4522,0.31274 -5.06974,-0.0165 -5.92566,-0.0165 -6.37009,0.0165 -0.60902,0.0329 -7.22601,-0.18106 -7.80211,-0.26336 -0.75717,-0.0823 -0.72425,-0.0165 -0.97115,-1.89292 -0.0988,-0.69133 -0.0494,-0.83947 0.67486,-1.97522 0.42797,-0.67487 0.93824,-1.39912 1.15222,-1.62956 0.21398,-0.23044 0.72424,-1.11929 1.13575,-1.97522 0.42796,-0.85593 0.92177,-1.79415 1.10283,-2.05751 0.65841,-1.00408 1.82708,-3.16036 2.4361,-4.55947 0.34567,-0.79009 0.77363,-1.64602 0.93823,-1.89292 0.18106,-0.26336 0.4938,-0.83947 0.70779,-1.28389 0.95469,-2.05752 4.65823,-9.56336 4.80637,-9.76088 0.26336,-0.31274 0.44442,-0.0494 0.72424,1.03699 z m -4.42778,3.81876 c -0.0658,0.0494 -0.11522,0 -0.11522,-0.11522 0,-0.11522 0.0494,-0.1646 0.11522,-0.11522 0.0494,0.0658 0.0494,0.1646 0,0.23044 z m -10.36991,27.48847 c -0.0658,0.0494 -0.16459,0.0494 -0.23043,0 -0.0494,-0.0658 0,-0.11522 0.11522,-0.11522 0.11521,0 0.1646,0.0494 0.11521,0.11522 z m 11.17646,0.34566 c 0.46088,0.2469 0.51026,0.80655 0.36212,3.48956 -0.0494,1.13575 -0.11522,3.01221 -0.14814,4.19734 -0.0494,3.12743 0.23044,2.88053 -3.06159,2.78177 -3.65416,-0.11523 -3.50602,-0.0658 -3.50602,-0.9547 0,-0.37858 0.0494,-0.75716 0.11523,-0.823 0.0658,-0.0658 0.13168,-1.31682 0.14814,-2.78177 0,-1.58018 0.0823,-2.79823 0.19752,-3.01221 0.0988,-0.19752 0.11522,-0.42796 0.0165,-0.57611 -0.19752,-0.31274 -0.18107,-1.66247 0.0165,-2.22212 l 0.1646,-0.42796 2.683,0.0658 c 1.6131,0.0329 2.81469,0.14814 3.01222,0.26336 z m 9.41521,-0.0494 c 1.87646,0.14814 1.92584,0.23044 1.7777,2.45257 -0.29629,3.9669 -0.29629,6.79805 -0.0165,7.22601 0.21398,0.3292 0.23044,0.4938 0.0823,0.75717 -0.1646,0.3292 -0.31275,0.34566 -3.45664,0.34566 -2.5184,0 -3.29203,-0.0494 -3.30849,-0.21398 -0.0658,-0.67487 0.0494,-9.81026 0.13168,-10.07362 0.21398,-0.77363 0.70779,-0.82301 4.78991,-0.49381 z m -27.62015,12.57557 c 0,0.0987 -0.0658,0.21398 -0.16461,0.26336 -0.0823,0.0494 -0.16459,-0.0165 -0.16459,-0.14814 0,-0.14815 0.0823,-0.26336 0.16459,-0.26336 0.0988,0 0.16461,0.0658 0.16461,0.14814 z m 13.99114,1.00406 c 0,0.0823 -0.0329,0.16461 -0.0659,0.16461 -0.0494,0 -0.13168,-0.0823 -0.18106,-0.16461 -0.0494,-0.0988 -0.0165,-0.1646 0.0658,-0.1646 0.0988,0 0.18107,0.0658 0.18107,0.1646 z m 27.43908,2.41965 c -0.0658,0.0494 -0.1646,0.0494 -0.23044,0 -0.0494,-0.0658 0,-0.11522 0.11522,-0.11522 0.11522,0 0.16461,0.0494 0.11522,0.11522 z m -19.32423,1.56371 c 0.65841,0.65841 1.41558,1.49788 1.67894,1.86 0.27983,0.36213 0.87239,1.10284 1.31682,1.66248 0.46088,0.54319 1.11929,1.43203 1.48141,1.95876 0.36212,0.52672 0.98761,1.33327 1.39911,1.79415 0.77363,0.8724 1.6131,1.89293 2.65009,3.19328 0.54318,0.70779 0.5761,0.80654 0.42796,1.38265 -0.0823,0.34566 -0.21398,0.62549 -0.27982,0.62549 -0.57611,0 -2.00814,-1.56372 -4.57592,-4.98743 -0.42797,-0.57611 -1.1193,-1.43203 -1.54726,-1.92584 -2.15628,-2.50195 -3.09451,-3.65416 -3.09451,-3.78584 0,-0.0823 -0.21398,-0.26336 -0.47734,-0.4115 -0.49381,-0.24691 -0.49381,-0.23044 -1.21806,0.54318 -0.4115,0.42797 -0.93823,1.03699 -1.20159,1.34974 -0.67486,0.83946 -3.01221,3.47309 -3.50601,3.95043 -0.57611,0.55965 -2.28796,2.76531 -2.55133,3.29204 -0.18106,0.3292 -0.21398,2.81469 -0.23044,11.63733 0,6.17256 -0.0494,11.37398 -0.11522,11.55503 -0.11522,0.37859 -0.95469,0.49381 -1.15221,0.16461 -0.0658,-0.0823 -0.13169,-5.16849 -0.1646,-11.29167 l -0.0494,-11.12707 -0.37858,-0.29629 c -0.39504,-0.29628 -0.39504,-0.29628 -0.0988,-0.83946 0.51027,-0.9547 2.12336,-2.96284 3.45663,-4.29611 0.69133,-0.70778 1.26744,-1.33327 1.26744,-1.41557 0,-0.0658 0.2469,-0.39504 0.54318,-0.70779 0.27983,-0.31274 1.15221,-1.30035 1.92584,-2.20566 2.0246,-2.3538 2.55132,-2.86407 2.96283,-2.86407 0.23044,0 0.79009,0.42797 1.53079,1.18513 z m 9.44814,4.85575 c -0.0658,0.0494 -0.1646,0.0494 -0.23044,0 -0.0494,-0.0658 0,-0.11522 0.11522,-0.11522 0.11522,0 0.1646,0.0494 0.11522,0.11522 z m 14.64954,2.63363 c -0.0658,0.0494 -0.1646,0.0494 -0.23044,0 -0.0494,-0.0658 0,-0.11522 0.11522,-0.11522 0.11522,0 0.1646,0.0494 0.11522,0.11522 z m -8.88849,1.31681 c -0.0658,0.0494 -0.11522,0 -0.11522,-0.11522 0,-0.11522 0.0494,-0.1646 0.11522,-0.11522 0.0494,0.0658 0.0494,0.1646 0,0.23044 z m -33.75979,0.57611 c 0.29628,0.29628 0.32921,0.64194 0.49381,5.10265 0.0988,2.23858 0.0658,2.97929 -0.0988,3.16035 -0.26337,0.3292 -4.32903,0.36212 -4.57593,0.0494 -0.0823,-0.11522 -0.19752,-0.90531 -0.2469,-1.76124 -0.0494,-0.85593 -0.18106,-2.63363 -0.29628,-3.91752 -0.0988,-1.33327 -0.13168,-2.41964 -0.0494,-2.50194 0.47734,-0.47734 4.32902,-0.57611 4.77344,-0.13168 z m 33.87501,0.14814 c -0.0494,0.0823 -0.1646,0.11522 -0.2469,0.0494 -0.0823,-0.0494 -0.11522,-0.1646 -0.0494,-0.2469 0.0494,-0.0823 0.1646,-0.11523 0.2469,-0.0494 0.0823,0.0494 0.11522,0.16461 0.0494,0.24691 z m 9.51398,0.0988 c 0.4115,0.36212 0.37858,0.54318 -0.0988,0.54318 -0.83947,0 -1.30036,-0.52672 -0.62549,-0.70778 0.14814,-0.0494 0.31275,-0.0823 0.34566,-0.0988 0.0494,0 0.21398,0.0988 0.37859,0.26336 z m -4.62531,1.84354 c 0.67487,0.1646 1.99168,0.36212 2.94637,0.42796 1.54726,0.0988 3.62124,0.52673 4.1315,0.83947 0.19752,0.11522 0.1646,0.51027 -0.18106,2.53486 -0.0823,0.49381 -0.26336,1.79416 -0.39504,2.88053 -0.14814,1.08637 -0.34567,2.2715 -0.44443,2.63363 -0.0988,0.36212 -0.21398,0.97115 -0.23044,1.34973 -0.0988,1.56372 -0.44442,4.27964 -0.60903,4.78991 -0.14814,0.47734 -0.21398,0.52672 -0.59256,0.46088 -1.26744,-0.2469 -4.70761,-0.75717 -5.71168,-0.83947 -1.7777,-0.14814 -3.34141,-0.55964 -3.40725,-0.87238 -0.0329,-0.16461 0,-0.80655 0.0658,-1.43204 0.0658,-0.64194 0.1646,-1.82708 0.21398,-2.63362 0.0988,-1.86 0.26337,-4.32903 0.34567,-5.51416 0.0329,-0.4938 0.0987,-1.66247 0.13168,-2.60071 0.0329,-0.93822 0.14814,-1.79415 0.26336,-1.92583 0.39504,-0.47735 1.84353,-0.51027 3.47309,-0.0988 z m -20.7398,0.36212 c 0.79009,0.39505 1.84354,1.67894 2.32088,2.79823 0.36213,0.85593 0.36213,1.03699 0.34566,5.57999 -0.0329,5.77752 -0.36212,14.33681 -0.59256,14.60017 -0.1646,0.23044 -0.93823,0.11522 -1.15221,-0.18107 -0.0658,-0.0988 -0.0823,-1.7777 -0.0329,-3.71999 0.0494,-1.9423 0.11522,-6.20548 0.14814,-9.4646 l 0.0823,-5.92565 -0.52672,-0.97115 c -0.27983,-0.52673 -0.67487,-1.06991 -0.88885,-1.2016 -0.82301,-0.54318 -2.0246,-0.18106 -3.04513,0.88885 -0.39504,0.41151 -0.47735,0.65841 -0.54319,1.71186 -0.0988,1.31682 -0.26336,12.21344 -0.23044,15.68654 0,2.17274 -0.14814,2.73238 -0.77363,2.73238 -0.69133,0 -0.72424,-0.26336 -0.67486,-10.3699 l 0.0329,-9.62919 0.77362,-1.00408 c 1.48142,-1.90937 3.01221,-2.40318 4.75699,-1.53079 z m 7.95026,0.80655 c 0.14814,0.14814 0.1646,1.54725 0.0329,2.23858 -0.0329,0.1646 -0.11522,2.23858 -0.1646,4.59239 -0.1646,6.78158 -0.3292,10.92954 -0.49381,11.60441 -0.0494,0.23044 -0.13168,1.21805 -0.1646,2.20566 -0.0658,1.81062 -0.1646,2.05752 -0.77362,2.07398 -0.74071,0 -0.77363,-0.21398 -0.62549,-3.70353 0.0658,-1.81062 0.19752,-3.65416 0.27982,-4.11505 0.0988,-0.44442 0.18106,-2.12335 0.18106,-3.70353 0.0165,-3.29204 0.31275,-10.99539 0.42797,-11.34105 0.0988,-0.24691 1.00407,-0.14814 1.30035,0.14814 z m -23.27467,8.23008 c 0,0.0823 -0.0658,0.1646 -0.1646,0.1646 -0.0823,0 -0.16461,-0.0823 -0.16461,-0.1646 0,-0.0988 0.0823,-0.1646 0.16461,-0.1646 0.0988,0 0.1646,0.0658 0.1646,0.1646 z m -11.11061,5.03681 c 0.0329,1.81062 0.14814,4.2961 0.26336,5.53061 0.23045,2.61717 0.14814,2.97929 -0.77362,3.35787 -0.98761,0.41151 -1.21806,0.21399 -1.21806,-0.9876 0,-0.67487 -0.0823,-1.11929 -0.21398,-1.23452 -0.1646,-0.13168 -0.26336,-0.85592 -0.3292,-2.4361 -0.0658,-1.25097 -0.14814,-2.65008 -0.19752,-3.09451 -0.16461,-1.36619 -0.16461,-2.78177 -0.0165,-3.01221 0.27982,-0.44443 2.12336,-1.6954 2.2715,-1.54726 0.0988,0.0988 0.18106,1.62956 0.21398,3.42372 z m 17.64529,-0.31275 c -0.0658,0.0494 -0.1646,0.0494 -0.23044,0 -0.0494,-0.0658 0,-0.11521 0.11522,-0.11521 0.11522,0 0.1646,0.0494 0.11522,0.11521 z m 39.83359,2.13982 c -0.0658,0.0494 -0.1646,0.0494 -0.23044,0 -0.0494,-0.0658 0,-0.11521 0.11522,-0.11521 0.11522,0 0.1646,0.0494 0.11522,0.11521 z m -55.99746,0.21399 c 0.0494,0.0823 -0.0165,0.1646 -0.14815,0.1646 -0.14814,0 -0.26336,-0.0823 -0.26336,-0.1646 0,-0.0988 0.0658,-0.1646 0.14814,-0.1646 0.0988,0 0.21398,0.0658 0.26337,0.1646 z m 39.09288,0.1646 c 0,0.0823 -0.0658,0.1646 -0.14815,0.1646 -0.0987,0 -0.21398,-0.0823 -0.26336,-0.1646 -0.0494,-0.0988 0.0165,-0.1646 0.14815,-0.1646 0.14814,0 0.26336,0.0658 0.26336,0.1646 z m 17.01981,1.23451 c -0.0659,0.13168 -0.13169,0.2469 -0.16461,0.2469 -0.0329,0 -0.0658,-0.11522 -0.0658,-0.2469 0,-0.13168 0.0658,-0.2469 0.1646,-0.2469 0.0823,0 0.11522,0.11522 0.0659,0.2469 z m 0.51026,-0.0823 c 0.0494,0.0823 0.0165,0.16461 -0.0658,0.16461 -0.0988,0 -0.18106,-0.0823 -0.18106,-0.16461 0,-0.0988 0.0329,-0.1646 0.0658,-0.1646 0.0494,0 0.13168,0.0658 0.18106,0.1646 z m 9.18477,8.21362 c 0.2469,0.0329 0.0988,0.26336 -0.26336,0.44443 -0.27983,0.13168 -0.42797,0.11522 -0.57611,-0.0329 -0.39504,-0.42797 -0.21398,-0.52673 0.83947,-0.41151 z m -58.03853,7.374162 c -0.0658,0.0494 -0.11522,0 -0.11522,-0.11523 0,-0.11522 0.0494,-0.1646 0.11522,-0.11522 0.0494,0.0658 0.0494,0.1646 0,0.23045 z m 19.47237,0.77362 c 0,0.0494 -0.0658,0.13168 -0.1646,0.18107 -0.0823,0.0494 -0.1646,0.0165 -0.1646,-0.0658 0,-0.0988 0.0823,-0.18107 0.1646,-0.18107 0.0988,0 0.1646,0.0329 0.1646,0.0658 z m 35.66917,0.37859 c -0.0658,0.0494 -0.1646,0.0494 -0.23044,0 -0.0494,-0.0658 0,-0.11522 0.11522,-0.11522 0.11522,0 0.1646,0.0494 0.11522,0.11522 z m -8.1807,1.1522 c 0,0.26337 -0.1646,1.02054 -0.37858,1.69541 -0.36212,1.21804 -0.37859,1.23451 -0.95469,1.28388 -1.38266,0.11523 -1.74478,-0.4115 -1.11929,-1.66247 0.75716,-1.51434 2.45256,-2.41965 2.45256,-1.31682 z m 3.48955,0.18107 c 0.19753,0.19752 0.41151,1.03699 0.72425,2.74885 0.21399,1.21805 0.21399,1.33327 -0.0658,1.53079 -0.39504,0.29628 -1.18513,0.11522 -1.64601,-0.37859 -0.19753,-0.23043 -0.51027,-0.4115 -0.65841,-0.4115 -0.70779,-0.0165 -0.75717,-0.19752 -0.44442,-1.82707 0.16459,-0.85593 0.31274,-1.64602 0.36212,-1.7777 0.0658,-0.26337 1.44849,-0.1646 1.72831,0.11522 z m 4.24673,1.13575 c 0.59256,0.39504 0.6584,0.52673 0.6584,1.48142 0,0.6584 -0.0823,0.95468 -0.36212,1.26743 -0.44443,0.47734 -1.41558,0.74071 -1.51433,0.39504 -0.0329,-0.11522 -0.21398,-0.74071 -0.41151,-1.36619 -0.19752,-0.64195 -0.34566,-1.2839 -0.34566,-1.4485 0,-0.5761 1.30035,-0.79008 1.97522,-0.3292 z m -55.35552,1.81062 c -0.0658,0.0494 -0.11523,0 -0.11523,-0.11522 0,-0.11523 0.0494,-0.16461 0.11523,-0.11523 0.0494,0.0659 0.0494,0.16461 0,0.23045 z" />
  </g>
</svg>
