<svg xmlns="http://www.w3.org/2000/svg" class="img-fluid" viewBox="0 0 720 720">
  <defs>
    <linearGradient id="a" x1="15.869%" x2="63.098%" y1="-2.393%" y2="79.471%" gradientUnits="userSpaceOnUse">
      <stop offset="0%"/>
      <stop offset="4%" stop-color="#3fce35"/>
      <stop offset="24%" stop-color="#3ecc35"/>
      <stop offset="54%" stop-color="#2a8952"/>
      <stop offset="100%" stop-color="#2a8953"/>
    </linearGradient>
  </defs>
  <g fill="#2B8C53">
    <circle cx="542" cy="655" r="50"/>
    <circle cx="135" cy="470" r="50"/>
    <circle cx="620" cy="242" r="50"/>
  </g>
  <path fill="url(#a)" d="M396.499 577.179c-31.24-1.814-61.527-12.877-86.69-31.557-36.817-27.34-59.985-68.509-64.52-114.665-.68-6.8-.68-23.305-.045-29.924 2.086-20.63 7.39-38.902 16.821-58.036 4.444-8.977 4.807-9.929 5.487-15.687.68-5.396.09-12.333-1.587-19.814l-.753-3.337c-.312-.978-.7-2.18-1.106-3.418-2.857-8.978-6.348-16.867-11.562-26.207-2.63-4.67-3.174-5.577-5.758-9.612-.549-.866-.936-1.516-1.169-2a19.077 19.077 0 0 1-1.007-1.446c-5.804-9.023-17.728-23.622-27.84-33.96-2.458-2.535-4.062-4.29-4.94-5.47-.456-.148-1.236-.762-2.586-1.965-1.496-1.36-5.44-4.852-8.705-7.708a128.77 128.77 0 0 1-4.248-3.818c-.004.006-.009.01-.014.01-.09 0-2.675-1.905-5.667-4.263-6.53-4.987-13.149-9.521-19.587-13.375-4.988-2.992-17.275-9.25-21.537-10.927a15.95 15.95 0 0 1-1.284-.562c-.01.05-.02.074-.03.063-.091 0-2.086-.725-4.444-1.541-5.713-2.04-12.967-3.764-19.134-4.58-4.035-.498-5.984-.544-10.246-.136-6.801.68-20.54.272-25.028-.725-29.335-6.484-51.053-28.927-56.54-58.489-1.178-6.347-1.087-18.952.228-25.436 3.037-15.234 10.02-28.02 21.173-38.675C75.9 29.244 107.82 24.212 134.887 37.18c21.445 10.337 36.362 30.514 39.899 54.045 1.088 7.21.77 19.587-.68 25.753-1.632 7.119-1.496 13.738.453 22.126.491 2.024.77 3.162.835 3.802.166.458.34 1 .525 1.64 4.398 15.052 14.056 33.279 26.252 49.51 1.198 1.61 1.944 2.617 2.345 3.256.583.658 1.464 1.747 2.915 3.545 1.496 1.86 4.896 5.895 7.572 8.978 1.788 1.997 3.224 3.76 3.908 4.732 1.438 1.274 3.517 3.257 5.704 5.47 10.201 10.246 21.627 20.085 30.83 26.523 1.679 1.189 2.554 1.838 2.904 2.263.366.192.78.428 1.224.699.165-.051.293.032.403.25.338.214.69.444 1.047.687 8.116 5.532 20.312 12.333 27.838 15.461 1.587.68 5.35 2.131 8.343 3.174a92.164 92.164 0 0 1 3.89 1.499c1.003.123 2.244.38 3.727.768 6.438 1.678 11.063 2.177 17.91 1.95 7.027-.272 8.886-.771 19.768-5.532 14.917-6.574 33.007-11.108 50.055-12.559 8.116-.68 26.887-.272 34.096.726 26.932 3.717 52.05 13.692 73.768 29.199 30.378 21.763 52.867 54.861 61.98 91.178 3.355 13.376 4.806 25.164 4.806 39.673 0 14.554-1.224 24.937-4.534 38.539-13.103 53.819-53.002 97.028-105.869 114.665-18.68 6.257-40.625 9.159-60.302 7.98z"/>
</svg>
