<svg xmlns="http://www.w3.org/2000/svg" width="512" height="512"><path d="M226.938 114.813c14.13 4.17 14.13 4.17 20.06 8.19 2.8 2.21 5.44 4.52 8 7 3.13-1.46 5.76-3.25 8.56-5.25 8.97-5.75 19.38-8.4 29.68-10.76 16.95-3.62 34.65-4.45 51.86-2.34 13.69 1.97 27.24 5 40.74 7.97 13.61 2.99 26.08 4.12 39.98 2.38.7-.1 1.41-.19 2.13-.29 4.4-.58 8.62-.91 13.05-.71.6.39 1.2.78 1.82 1.19 1.18 1.81 1.18 1.81 2.06 4.24 1.12 2.57 1.12 2.57 3 4.69 1.3.98 1.3.98 3.12 1.88 3.04.82 6.07 1.5 9.16 2.09l2.84.91c1.35 1.32 2.69 2.65 4 4 1.9.32 1.9.32 3.82.12 2.91-.15 5.3-.01 8.12.75 1.01.37 2.02.75 3.06 1.13l1 2c.15 1.33.24 2.67.3 4.01l.12 2.55.12 2.8.12 2.96c.46 11.34.59 22.68.73 34.03.32 25.37.89 50.72 1.61 76.08 1.02 35.68 1.02 35.68 1.32 52.9 0 .32 0 .32.03 1.94.12 6.52.22 13.04.31 19.56.18 12.06.54 24.1 1.12 36.15.22 4.61.34 9.22.41 13.83.01.3.01.3.04 1.84 0 1.68 0 1.68-.23 4.35l-2 2c-1.72.32-1.72.32-3.85.41l-2.52.12c-.46.01-.46.01-2.81.09-1 .04-1.99.08-3.01.11-36.83 1.17-72.73-.97-109.3-5.29-13.48-1.59-26.7-2.61-40.29-2.57-2.38 0-4.77 0-7.16-.01-4.68 0-9.37.05-14.06.14-.78.01-1.56.02-2.36.04-2.3.05-4.59.13-6.88.22-.68.01-1.35.02-2.05.04-1.98.09-3.78.26-5.71.7-1.91.89-3.66 1.89-5.43 3.03-2.04 1.26-4.13 2.01-6.45 2.6-5 .87-10.05 1.13-15.12 1.37-1.12.06-2.24.13-3.39.2-8.74.29-16.59-1.1-24.96-3.58-1.65-.62-1.65-.62-4.05-2.22-2.6-1.4-2.6-1.4-4.5-1.74-2.39-.19-4.76-.29-7.16-.35-.46-.02-.46-.02-2.78-.09-3.05-.1-6.1-.16-9.16-.22-.52-.02-.52-.02-3.14-.09-14.32-.34-28.46.17-42.73 1.34-.69.05-1.37.11-2.08.16-7.5.61-14.95 1.39-22.38 2.57-21.02 3.3-41.74 3.6-62.98 3.47-3.72-.02-7.43-.01-11.15 0-3.6.01-7.2 0-10.8-.01-1.71-.01-3.42-.01-5.12 0-2.37 0-4.73-.02-7.09-.04-.69.01-1.39.01-2.1.02-1.95-.03-1.95-.03-5.43-.42-2.91-1.4-2.91-1.4-5-3l-1-2c-.09-1.65-.12-3.3-.11-4.95v-3.12c0-1.12.01-2.24.02-3.4 0-1.17 0-2.35.01-3.53.05-11.93.3-23.86.59-35.79l.18-7.4c.18-8 .38-16 .57-24l.21-8.29c.9-37.29 1.86-74.58 3-111.86l.27-9.1c.14-4.7.28-9.41.43-14.12.06-1.7.11-3.4.16-5.1.06-2.3.14-4.6.22-6.9.01-.66.03-1.32.05-2 .17-4.42.92-8.25 2.4-12.44l2-1c2.08-.11 4.17-.19 6.25-.25 2.31-.12 4.45-.38 6.75-.75 1.87-1.1 3.07-2.24 4.55-3.81.48-.39.96-.79 1.45-1.19 2.14-.6 2.14-.6 4.5-1 2.34-.43 4.19-.83 6.27-1.98 2.25-1.76 3.9-3.52 5.49-5.91.97-1.68 1.89-3.37 2.74-5.11l2.11.18c3.63.3 7.26.56 10.89.82.8.06 1.59.11 2.41.18 2.61.18 5.23.35 7.84.51l2.45.18c13.67.77 27.03-2.02 40.23-5.27 30.01-7.34 59.8-11.27 90.01-2.79m-91.01 6.99c-28.04 5.77-28.04 5.77-38.68 5.51-.39 0-.39 0-2.35-.03-7.06-.14-13.95-1.01-20.9-2.28-.97 1.14-.97 1.14-2 3-.3 2.55-.3 2.55-.38 5.67-.01.57-.03 1.15-.05 1.75-.05 1.94-.09 3.89-.13 5.83-.04 1.41-.07 2.82-.11 4.23-.1 3.87-.19 7.75-.27 11.63l-.24 9.87c-.82 33.15-1.47 66.3-2.12 99.45l-.18 8.93c-.03 1.95-.07 3.89-.11 5.84-.2 10.32-.42 20.65-.69 30.98-.02.9-.04 1.8-.07 2.73-.11 4.23-.22 8.45-.34 12.67-.28 10.47-.36 20.94-.31 31.42 4.77 2.92 4.77 2.92 6.83 3.61 14.46 2.82 28.24 3.45 42.84 1.2 10.35-1.72 20.63-3.82 30.88-6.06 13.19-2.86 25.68-4.17 39.14-4.13.4 0 .4 0 2.41.01 21.6.09 21.6.09 31.92 3.63 10.73 3.98 20.56 8.61 29.89 15.27.69.48 1.38.97 2.09 1.47h1c.16-30.2.29-60.4.36-90.6l.03-10.7v-2.15c.03-11.5.09-22.99.15-34.48.07-11.8.11-23.59.12-35.38.01-7.28.04-14.56.1-21.83.03-4.99.05-9.99.04-14.98-.01-2.88 0-5.75.04-8.63.03-3.13.02-6.25 0-9.38.02-.9.05-1.81.07-2.74-.05-2.56-.19-4.67-.91-7.13-2.61-3.59-5.84-6.12-9.35-8.79-10.48-5.89-22.85-9.1-34.65-11.21-25.29-2.53-49.38.7-74.07 5.8m147.07.2q-.87.285-1.77.57c-6.41 2.13-12.19 4.61-17.54 8.8-4.47 4.31-4.47 4.31-5.69 6.63-.58 3.18-.52 6.33-.48 9.56 0 .97-.01 1.93-.01 2.93-.01 3.25.02 6.49.04 9.74v6.98c-.01 5.01.01 10.01.03 15.02.03 7.24.04 14.49.05 21.73.01 11.75.03 23.5.07 35.24.04 11.42.07 22.83.08 34.24 0 .71 0 1.41.01 2.13 0 3.53.01 7.06.01 10.59.04 29.28.11 58.56.2 87.84 2.79-.66 4.95-1.41 7.4-2.89.64-.38 1.27-.76 1.93-1.15.68-.4 1.35-.8 2.05-1.21 11.63-6.66 22.92-10.2 36.11-12.5 19.14-3.07 38.59-3.06 57.69.5 7.19 1.4 14.35 2.97 21.51 4.59.64.15 1.29.29 1.95.44 2.71.62 5.42 1.23 8.13 1.87 6.49 1.45 12.78 1.69 19.42 1.66 1.09 0 2.19-.01 3.31-.01 8.39-.11 16.48-.77 24.5-3.3 1.02-.64 2.02-1.31 3-2 .11-14.32 0-28.63-.36-42.94l-.06-2.31c-.11-4.05-.21-8.11-.32-12.17-.24-9.11-.46-18.22-.68-27.33-.02-.49-.02-.49-.07-2.96-.42-17.51-.75-35.03-1.05-52.54-.02-1.29-.04-2.59-.07-3.88q-.315-18.21-.6-36.42l-.27-16.22c-.03-2.23-.07-4.47-.1-6.7l-.15-9.24c-.01-.89-.03-1.77-.04-2.69-.11-6.23-.59-12.4-1.23-18.6-.73.07-1.45.14-2.2.22-20.76 2.06-39.9.14-60.22-4.16-6.23-1.31-12.23-2.4-18.62-2.46-.65.13-1.29.26-1.96.4-1.76 1.52-1.76 1.52-3 3-.16-.33-.16-.33-1-2l2-1c-4.81-1.81-9.39-2.6-14.5-3.13-.79-.08-1.59-.16-2.41-.25-18.55-1.82-37.32-.43-55.09 5.38m161 10c-.28 36.55.47 73.07 1.28 109.62.16 7.15.31 14.3.47 21.46l.45 20.99c.05 2.17.09 4.34.14 6.52.32 14.7.67 29.4 1.09 44.1.04 1.42.07 2.83.11 4.25.18 6.45.39 12.9.84 19.34.06.85.12 1.7.18 2.58.15.71.29 1.41.44 2.14 1.1 1.55 1.1 1.55 2.44 2.69.85.43 1.69.86 2.56 1.31h2c.06-14.77-.07-29.52-.44-44.28-.05-2-.1-4.01-.14-6.02l-.39-16.1-.33-13.49c-.27-11.2-.55-22.39-.82-33.59-.24-9.72-.48-19.43-.71-29.15-.24-10.01-.48-20.03-.73-30.05-.14-5.61-.27-11.21-.41-16.82-.12-5.26-.25-10.51-.38-15.76-.05-1.93-.1-3.86-.14-5.79-.06-2.63-.13-5.25-.2-7.88-.01-.77-.03-1.53-.05-2.32-.07-2.74-.21-5.4-.59-8.12-.22-.54-.44-1.08-.67-1.63-1.41-1.27-1.41-1.27-3.06-2.25-.97-.58-1.94-1.16-2.94-1.75m-376 0c-2.31 1.39-4.23 2.95-6 5-.86 2.47-.85 4.82-.83 7.42l-.06 2.24c-.04 1.6-.06 3.21-.08 4.82-.03 2.54-.1 5.07-.2 7.61-.2 5.71-.36 11.42-.51 17.13l-.18 6.46c-.15 5.16-.29 10.32-.43 15.48-.11 4.17-.23 8.34-.34 12.52-.47 16.77-.92 33.54-1.37 50.32-.03 1.07-.05 2.14-.08 3.25-.36 13.28-.7 26.55-1.04 39.83-.06 2.51-.13 5.01-.19 7.52-.48 18.47-.82 36.92-.69 55.4 1.15-.98 2.29-1.96 3.44-2.94.64-.55 1.28-1.09 1.93-1.65.9-.78 1.79-1.57 2.63-2.41.13-1.3.19-2.61.22-3.91.02-.43.02-.43.08-2.57l.06-2.84c.03-.99.05-1.97.08-2.99.09-3.32.17-6.64.25-9.97l.18-7.05c.14-5.7.29-11.4.42-17.11.12-4.61.23-9.22.35-13.83.87-34.76 1.71-69.52 2.49-104.28.06-2.87.12-5.73.19-8.59.84-37.24.84-37.24.68-54.86zm-16 7c-1.05 20.64-1.54 41.3-2.08 61.97-.13 5.06-.26 10.12-.4 15.19l-.93 35.27c-.4 14.94-.79 29.88-1.19 44.83-.13 5.01-.27 10.02-.4 15.03-.56 21.58-1.16 43.14-2 64.71 2.38-1.02 4.2-2.16 6.21-3.79.59-.73 1.18-1.46 1.79-2.21.55-2.51.55-2.51.61-5.38.03-1.1.06-2.19.1-3.32.01-1.21.03-2.42.05-3.64.03-1.28.06-2.56.1-3.85.07-2.77.13-5.55.18-8.33.08-4.48.19-8.96.3-13.44.13-5.58.26-11.15.38-16.73.23-10.48.51-20.96.81-31.44l.06-2.4c.1-3.2.19-6.4.28-9.6.25-8.87.49-17.73.73-26.59.09-3.23.17-6.46.26-9.69.02-.8.05-1.6.07-2.43l.54-19.92.54-19.65c.1-3.84.21-7.69.31-11.54.84-30.14.84-30.14.68-43.05zm402 0c-.41 38.4.68 76.75 1.73 115.13.24 8.7.46 17.4.69 26.1.2 7.57.41 15.15.61 22.73l.06 2.38c.24 8.8.48 17.6.74 26.41.12 4.25.23 8.51.33 12.76.07 2.8.15 5.59.23 8.38l.09 3.92c.04 1.79.09 3.58.14 5.37.03 1.01.05 2.01.08 3.05.32 2.95.99 5.11 2.3 7.77 1.29 1.58 1.29 1.58 2.63 2.81.78.72 1.56 1.44 2.37 2.19.2-24.69-.34-49.35-.97-74.03l-.42-16.4c-.22-9.15-.46-18.29-.69-27.44-.24-9.38-.47-18.76-.71-28.13-.25-10.3-.51-20.59-.77-30.88-.14-5.42-.27-10.84-.41-16.26-.12-5.08-.25-10.16-.38-15.24-.05-1.85-.1-3.71-.14-5.57-.06-2.54-.13-5.08-.2-7.62-.01-.73-.03-1.46-.05-2.21-.14-5.11-.63-10.15-1.26-15.22zm-406 3c-2.14 39.43-3.19 78.91-4.37 118.39-.22 7.56-.46 15.13-.69 22.69-.23 7.43-.45 14.85-.67 22.28-.13 4.38-.27 8.76-.4 13.14-.64 20.51-1.03 40.98-.87 61.5h1c1.13-9.97 1.36-19.95 1.65-29.97.06-1.91.12-3.83.17-5.74.16-5.18.31-10.36.46-15.55l.39-13.06c.36-12.19.72-24.38 1.07-36.57.02-.6.03-1.2.05-1.82.02-.59.04-1.19.05-1.81.13-4.29.25-8.58.38-12.87.01-.3.01-.3.05-1.85l.06-1.85c.41-14.01.81-28.01 1.21-42.01.12-4.08.23-8.16.35-12.23.16-5.53.32-11.06.47-16.6l.18-6.05c.39-13.34.54-26.67.46-40.02zm416 1c-.15 27.94.23 55.83.98 83.76.14 5.26.27 10.51.41 15.77l.69 26.32c.27 10.13.54 20.25.8 30.38.25 9.82.51 19.65.77 29.47.11 4.16.21 8.31.32 12.46.13 4.87.25 9.73.39 14.59.05 1.78.09 3.57.14 5.35.06 2.43.12 4.85.19 7.28.02.71.04 1.41.05 2.14.11 3.6.43 6.95 1.26 10.48h1c.11-22.66-.11-45.27-.77-67.92-.12-3.88-.22-7.76-.33-11.63-.2-7.33-.41-14.65-.62-21.98-.24-8.21-.47-16.43-.7-24.64l-.87-30.82-.06-2.26c-.02-.74-.05-1.48-.07-2.24-.31-10.97-.62-21.94-.91-32.9-.02-.89-.05-1.78-.07-2.69l-.3-11.45c-.25-9.84-.67-19.65-1.3-29.47zm-421 3c-1.12 6.47-1.27 12.93-1.45 19.49-.03 1.26-.07 2.52-.11 3.78-.09 3.44-.19 6.87-.28 10.3-.1 3.67-.21 7.33-.31 11-.2 7.02-.39 14.03-.59 21.05-.27 9.99-.56 19.99-.84 29.98-.04 1.52-.08 3.04-.13 4.56l-.06 2.28c-.13 4.58-.26 9.15-.38 13.73-.43 15.39-.87 30.78-1.35 46.16l-.21 6.9c-.05 1.5-.1 3.01-.14 4.52-.01.36-.01.36-.07 2.23-.11 3.56-.23 7.13-.34 10.69-.56 17.12-.87 34.2-.74 51.33l2-1c1.72-45.2 3.06-90.42 4.37-135.63l.69-23.61c.26-8.62.51-17.25.76-25.87.1-3.63.21-7.25.32-10.88.12-4.24.25-8.47.37-12.71.04-1.55.09-3.09.13-4.63.24-7.89.44-15.78.36-23.67zm425 0c.63 42.23 1.66 84.44 2.8 126.66l.54 20.23.66 24.79c.06 2.31.13 4.62.19 6.92.2 7.76.42 15.52.64 23.27q.18 6.33.33 12.66c.07 2.82.14 5.64.22 8.45.04 1.33.07 2.66.1 3.99.04 1.82.09 3.64.14 5.46.03 1.03.05 2.06.08 3.13.1.8.2 1.61.3 2.44l2 2c.17-25.87-.27-51.7-.97-77.56l-.42-15.55c-.22-8.67-.45-17.35-.69-26.02-.27-9.98-.53-19.96-.79-29.95-.26-9.69-.51-19.39-.77-29.08l-.33-12.28c-.12-4.8-.25-9.61-.38-14.42-.05-1.75-.1-3.5-.14-5.26-.26-9.99-.69-19.92-1.51-29.88zm-346.72 219.89c-10.78 2.32-21.24 2.98-32.2 1.51-6.72-1.02-13.31-2.18-19.89-3.9-2.23-.49-2.23-.49-4.19-.5-2.05 1.05-3.44 2.18-5.04 3.83-.31.39-.63.77-.96 1.17l1 3c10.98.59 21.95 1.1 32.94 1.19l2.39.03c15.26.03 30.21-3.65 45.05-6.79 2.94-.62 5.89-1.24 8.83-1.85 1.82-.38 3.63-.76 5.45-1.15 16.46-3.43 34.57-3.89 51.28-1.81 11.59 1.9 23.46 5.12 33.81 10.75 1.43.86 2.85 1.72 4.25 2.63.33-.17.33-.17 2-1-5.24-4.22-10.63-6.89-16.94-9.13-3-1.01-6.02-1.95-9.06-2.87-.34-.11-.34-.11-2.06-.65-14.1-4.3-28.65-4.13-43.23-3.44-18.06.97-35.81 5.17-53.43 8.98m156.33 1.87c-3.33 1.58-6.47 3.31-9.61 5.24l1 2c.22-.11.22-.11 1.29-.67 10.7-5.49 20.89-9.2 32.71-11.33.59-.11 1.17-.22 1.77-.34 17.72-3.28 36.59-3.76 54.4-.98 8.94 1.56 17.77 3.78 26.58 5.93 12.99 3.14 25.33 4.7 38.69 4.59 2.32-.02 4.64-.02 6.96-.02 7.27-.01 14.39-.15 21.6-1.18-1.09-2.31-1.95-3.95-3.76-5.8-.37-.19-.37-.19-2.24-1.2-2.74.07-2.74.07-5.87.69-1.17.21-2.33.42-3.49.62-.6.12-1.2.23-1.82.35-14.71 2.74-28.35 2.82-43.1.4-6.48-1.15-12.87-2.65-19.28-4.13-10.77-2.48-21.39-4.32-32.44-4.93l-1.86-.12c-20.69-1.14-42.55 2.59-61.53 10.88m-136.87-.82c-.83.18-1.67.36-2.53.54-4.22.89-8.44 1.8-12.66 2.74-8.53 1.87-16.79 3.44-25.55 3.78-.33.01-.33.01-2.03.08-1.78.05-3.56.05-5.34.04-.67 0-1.34.01-2.03.01-4.4-.01-8.78-.18-13.17-.45-2.71-.16-5.42-.3-8.13-.44-1.36-.08-2.71-.17-4.07-.27-4.14-.3-8.11-.53-12.23.03-2 1.33-2 1.33-3.39 2.99-.26.5-.26.5-1.61 3.01 6 .87 11.83 1.16 17.89 1.17.94 0 1.87 0 2.84.01h5.95c2.96 0 5.91.02 8.87.04 18.06.06 35.68-1.65 53.51-4.4 30.9-4.72 59.9-5.31 90.94-1.82l-2-2c-1.69-.61-3.4-1.14-5.12-1.63l-2.76-.79c-.7-.19-1.4-.38-2.12-.58 5.37.5 10.7 1.02 16 2l-2-2c-9.92-4.19-21.28-6.44-32-7-19.69-.78-37.96.86-57.26 4.94m157.32-.94-2.36.5c-3.93.9-3.93.9-5.7 1.5l-3 2h11l-16 5 4 1c2.24-.38 4.37-.83 6.56-1.38 11.95-2.98 24.15-2.86 36.38-2.87.84 0 1.67 0 2.53-.01 17.83.02 35.06 1.69 52.69 4.31.3.05.3.05 1.81.27 2.82.42 5.64.86 8.45 1.32 15.98 2.54 31.94 2.49 48.08 2.42 2-.01 4-.01 6-.01 4.83-.01 9.67-.03 14.5-.05-.81-1.88-.81-1.88-2-4-1.31-1.12-1.31-1.12-3-2-1.96-.22-1.96-.22-4.23-.18l-2.58.03-2.8.06-5.98.06c-3.11.04-6.22.09-9.33.14-19.12.32-37.06-1.6-55.6-6.22-26.24-6.48-52.87-7.56-79.42-1.89m-66.06 5c1.75 1.43 1.75 1.43 4 3 2.25.69 2.25.69 4 1-1.18-1.44-1.18-1.44-3-3-2.68-.69-2.68-.69-5-1m49 0c-1.82.77-1.82.77-3.68 1.93-.63.39-1.25.77-1.89 1.16-.47.3-.94.6-1.43.91.33.16.33.16 2 1 1.95-.78 1.95-.78 4.13-1.94.72-.38 1.45-.76 2.19-1.15.56-.3 1.11-.6 1.68-.91zm-180 11v1c12.17.45 24-.97 36.06-2.44 16.88-2.02 33.47-3.75 50.48-3.75 2.33 0 4.65-.02 6.98-.04 8.55-.03 16.81.43 25.26 1.74 4.39.67 8.8 1.09 13.22 1.49l-2-2c-2.22-.61-4.37-1.12-6.62-1.57-.59-.12-1.19-.25-1.8-.38-9.7-2-19.38-2.49-29.26-2.62l-2.41-.03c-30.05-.2-60.16 4.76-89.91 8.6m182-3v1c10.71-.81 10.71-.81 15.94-1.51 26.39-3.43 52.4-1.22 78.71 1.7 13.1 1.45 26.22 2.67 39.35 3.81.42.03.42.03 2.54.22 8.1.67 16.2.83 24.33.83.39 0 .39 0 2.39.01 7.92.01 15.83-.02 23.74-.06v-2c-3.35-.76-6.44-1.12-9.88-1.11-.96 0-1.91 0-2.89-.01-1.04.01-2.07.01-3.14.01l-6.8-.03c-.6 0-1.19-.01-1.8-.01-27.23-.17-53.75-2.18-80.74-5.85-8.79-1.19-17.57-2.15-26.44-2.17-.67 0-1.35-.01-2.04-.01-2.13-.01-4.26-.01-6.39-.01h-2.22c-15.35.03-29.77 1.3-44.66 5.19m-33-3c-1.81.45-3.62.91-5.44 1.37-1 .26-2.01.51-3.05.78-.83.28-1.66.56-2.51.85l-1 2c5.46.11 10.62-.09 16-1zm10 1c-1.87 1-1.87 1-3 2l1 1c5.37 1 10.56 1.11 16 1l-1-2c-3.55-1.25-6.5-1.96-10.25-2.25-.91.08-1.81.16-2.75.25m-217 5v1h5v-1zm28 0v1h10v-1z"/><path d="m359 126 5 1c-.33.17-.33.17-2 1l1 3h-2c.24.45.48.89.73 1.36.92 1.87 1.69 3.63 2.27 5.64-.69 2.88-.69 2.88-2 5l-2 1q-3 .06-6 0v-5l-2-1c.5-.56.99-1.11 1.5-1.69.5-.76.99-1.52 1.5-2.31.19-2.75.19-2.75 0-5l3-1zm-1 4v3l2-1v-2zM315 129l1 4-3-3zM301 132h4l-1 4-3-2zM387 132l2 1ZM390 132l1 2-2-1zM324 133c2.69.38 2.69.38 5 1 .69 2.25.69 2.25 1 5-1.44 2.31-1.44 2.31-3 4l-4-1v-2h-2v-5c1.19-1.06 1.19-1.06 3-2M405 136c5.27.59 5.27.59 7 1l2 2c-.62 4.21-2.02 7.29-4 11l-7-1v-2h-2c-.25-2.69-.25-2.69 0-6 1.15-1.95 2.43-3.34 4-5M372 137l3 1-1 3h-2zM391 143h2v2l-4 1v-2zM289 144l3 1 1 3 1.88.88L297 150c1.75 2.19 1.75 2.19 3 5 .23 2.4.14 4.58 0 7-1.32.16-1.32.16-8 1l-1-4-3-1c-1.75-2.31-1.75-2.31-3-5l.12-2c1.09-2.48 2.42-4.72 3.88-7M312 146l2 1-1 3h-2zM267 147c2.5-.25 2.5-.25 5 0l2 2c-.31 1.88-.31 1.88-1 4-1.38 1.25-1.38 1.25-3 2h-3l-2-6zM425 151c2.69.19 2.69.19 5 1l3 1c.25 2.31.25 2.31 0 5-.5.6-.99 1.2-1.5 1.81-.82.39-1.65.79-2.5 1.19-2.69.24-5.31.18-8 0l-2-6c2-1.54 3.76-2.88 6-4M358 154h6l-1 11c.82.33.82.33 5 2 1.44 2.38 1.44 2.38 2 5-.19.74-.37 1.49-.56 2.25-.48.58-.95 1.16-1.44 1.75-.37.15-.37.15-2.25.94L363 177c-2.17-.81-3.98-1.83-6-3 .07-.34.07-.34.44-2.06 1.12-5.86 1.7-10.53.81-16.44-.08-.49-.16-.99-.25-1.5M391 155c3.19-.12 3.19-.12 6 0l1 5c-1.99.39-3.99.72-6 1l-2-1v-2l-2-1c1.12-1 1.12-1 3-2M339 157c2.19.94 2.19.94 4 2l-1 5-3 1c-2.69-.94-2.69-.94-5-2 .81-2.44.81-2.44 2-5zM323 161c2.88-.25 2.88-.25 6 0 1.88 1.5 1.88 1.5 3 3l-2 4c-5.37.88-5.37.88-7 1l-1-1c-.12-3-.12-3 0-6zM304 163l2 1c.62 3.06.62 3.06 1 6h4v3c-1.58 1.16-3.04 2.01-4.87 2.74-2.07.59-3.98 1.07-6.13 1.26-3-1.38-3-1.38-5-3 .9-2.16 1.74-4.04 3-6 1.88-1.85 3.88-3.45 6-5M270 166c4.67.44 4.67.44 7 1 1.94 1.56 1.94 1.56 3 3l-1 3-8 1zM422 167h2.38c3.07 1.17 5.6 2.56 8.22 4.54L434 173c.23 1.01.45 2.02.69 3.06-.23.97-.46 1.94-.69 2.94-1.69 2.25-1.69 2.25-4 4-2.44 1.25-2.44 1.25-5 2-2.69.25-2.69.25-5 0l-2-2c-1-2.95-1.11-5.65-1.06-8.75.01-.8.02-1.6.02-2.42.02-.61.03-1.21.04-1.83 2.19-1.56 2.19-1.56 5-3M348 176l3 1v3l-5-1v-2zM385 178c2.74-.12 5.34.33 8 1 .64.45 1.28.91 1.94 1.38C396 182 396 182 397 185c-1.69 1.69-2.92 2.89-5 4-1.82.15-1.82.15-3.69-.06L385 188c-.47-.41-.95-.82-1.44-1.25-.56-1.75-.56-1.75-.81-4.31.08-.81.17-1.61.25-2.44zM291 187c3.48 1.05 6.66 2.55 10 4v12h-4l1 5-1 1c-1.71 0-3.43 0-5.14-.03-2.37.04-4.57.47-6.86 1.03-.79-1.25-1.59-2.5-2.38-3.75-.44-.7-.88-1.39-1.33-2.11-1.22-2.02-2.35-3.98-3.29-6.14v-3h2v-2c1.39-1.25 1.39-1.25 3.25-2.56.6-.44 1.21-.87 1.83-1.32 1.92-1.12 1.92-1.12 3.83-1.89.69-.08 1.38-.15 2.09-.23M365 189h2c1.53 1.27 2.7 2.66 3.95 4.2 1.05 1.8 1.05 1.8 1.41 3.72.02 1.89.02 1.89-.36 5.08l-1 1c-1.67.04-3.33.04-5 0-1.2-2.96-2.29-5.88-3-9 .81-3.06.81-3.06 2-5M339 191l1 3-3-1zM428 191l5 3v8l-3-2c-.73-2.16-.73-2.16-1.19-4.62-.16-.82-.31-1.64-.48-2.48-.11-.63-.22-1.25-.33-1.9M312 197c.99.16.99.16 6 1 .62 1.75.62 1.75 1 4-.69 2.19-.69 2.19-2 4-2.12.75-2.12.75-4 1l-5-5zM388 197l2.06.12c1.94.88 1.94.88 3.69 2.57.37.21.37.21 2.25 1.31 1.75-.46 1.75-.46 3.75-1.19 2.09-.65 2.09-.65 4.25-.81 3.12 1.52 5.56 3.55 8 6 1.22 1.45 1.22 1.45 2 3 .2 2.04.2 2.04.12 4.19-.01.71-.03 1.43-.05 2.17-.02.54-.05 1.08-.07 1.64l-4 2v2c-2.97.95-6 1.46-9.12 1.41-1.88-.41-1.88-.41-3.89-1.5-1.99-1.52-3.51-2.89-4.99-4.91-.44-1.96-.44-1.96-.44-3.88.15-1.03.29-2.06.44-3.12-.93.06-1.86.12-2.81.19-1.05-.06-2.11-.13-3.19-.19-.62-.39-1.24-.78-1.88-1.19-.37-.6-.74-1.19-1.12-1.81-.19-2.69-.19-2.69 0-5 2.25-1.56 2.25-1.56 5-3M352 203c2.31.12 2.31.12 5 1 1.81 2.88 1.81 2.88 3 6v3c-2.69.62-2.69.62-6 1-2.88-.94-2.88-.94-5-2-.19-2.81-.19-2.81 0-6 1.5-1.88 1.5-1.88 3-3M329 204c2.5-.19 2.5-.19 5 0l2 2c-.03 2.41-.56 4.62-1 7h-8c-.56-2.31-.56-2.31-1-5l1-3zM372 215c2.31.38 2.31.38 4 1l1 4h-2v2c-2.88.12-2.88.12-6 0l-2-2v-3c2.25-1.06 2.25-1.06 5-2M433 217h2l-1 2zM342 220c3.1.78 5.25 1.53 8 3 .19 2.81.19 2.81 0 6-1.5 1.88-1.5 1.88-3 3l-3-1zM419 224l5 1v10c-2.38 1.06-2.38 1.06-5 2l-2-1c-.25-1.43-.47-2.87-.69-4.31-.13-.8-.25-1.6-.38-2.43.02-.74.04-1.49.07-2.26 1.48-1.79 1.48-1.79 3-3M353 226h2c1.38 1.63 2.72 3.29 4 5l-8 1c.51-2.17 1-4 2-6M298 227c2.31.81 2.31.81 5 2 1.81 1.62 1.81 1.62 3 3-.69 2.88-.69 2.88-2 6-.72.54-1.44 1.07-2.19 1.62-.93.13-1.85.25-2.81.38-2.54-1.05-4.75-2.43-7-4 .75-2.81.75-2.81 2-6 2.12-1.88 2.12-1.88 4-3M391 229c2.88-.25 2.88-.25 6 0 1.88 1.5 1.88 1.5 3 3-.62 1.68-1.29 3.35-2 5l-2 2c-.86 2.83-1.53 5.69-2.22 8.57-.26.8-.51 1.6-.78 2.43l-2 1c-.03-1.79-.05-3.58-.06-5.38-.01-.99-.03-1.99-.04-3.02.03-.86.07-1.72.1-2.6l1-2h-2c-.03-1.31-.05-2.62-.06-3.94-.01-.73-.03-1.46-.04-2.21.03-.61.07-1.22.1-1.85zM275.777 230.64c1.79-.08 1.79-.08 5.22.36 2.75 1.19 2.75 1.19 5 3 1.82 2.44 1.82 2.44 3 5 .19 2.31.19 2.31 0 4l3 1c.82 2.62.82 2.62 1 6-1.04 1.86-2.25 3.31-3.67 4.9-.44.36-.88.72-1.33 1.1h-2v2c-2.54.65-4.42 1.12-7 1-2.56-2.13-2.56-2.13-3.74-3.53-1.77-2.06-3.87-3.61-6.02-5.26-.21-.2-.21-.2-1.24-1.21-.89-2.68-1.13-4.25-1.12-7 0-.68-.01-1.36-.01-2.06.13-1.94.13-1.94 1.13-4.94 2.56-2.13 4.51-3.7 7.78-4.36M376 233h3v3h-3zM328 236c1.13.14 2.27.29 3.44.44l1.93.24c.54.11 1.08.21 1.63.32l1 1c.04 1.67.04 3.33 0 5-1.56 1.12-1.56 1.12-4 2-2.46-.42-4.62-1.18-7-2 .45-2.17.91-3.85 2.06-5.75.31-.41.62-.82.94-1.25M405 241c3.19.31 3.19.31 6 1l1 5-4 3c-2.44-.75-2.44-.75-5-2-.81-2.12-.81-2.12-1-4 1.12-1.56 1.12-1.56 3-3M318 243c1.67.3 3.34.64 5 1l1 1c.19 2.44.19 2.44 0 5l-2 2-5-1c-.62-2.88-.62-2.88-1-6zM359 243l5 1 1 5c-1.25 1.06-1.25 1.06-3 2-2.19-.38-2.19-.38-4-1-.17-.82-.17-.82-1-5zM422 244l3.81-.06c.71-.01 1.42-.03 2.15-.04 2.04.1 2.04.1 5.04 1.1-.27 2.01-.61 4.01-1 6-1.06 1.88-1.06 1.88-2 3-2.76-.52-5.33-1.11-8-2zM316 258c2.43-.07 4.69.26 7 1l2 2-1 5c-2.19 1.12-2.19 1.12-5 2-2.81-.88-2.81-.88-5-2-.17-.82-.17-.82-1-5 1.06-1.56 1.06-1.56 3-3M398 258c2.44.38 2.44.38 5 1l1 2c-.33.5-.33.5-2 3l-5-1zM348 259h2v2h-2zM361 261c2.01.3 4.01.63 6 1l1 1c.04 1.67.04 3.33 0 5-.33.17-.33.17-2 1q-3 .06-6 0l-2-4zM425 261c2.02.61 4.02 1.29 6 2l2 2-6 6-2-1c.21-.95.41-1.9.62-2.88.13-1.03.25-2.06.38-3.12l-2-2zM382 268h9l1 3-1 2c-2.25-.25-2.25-.25-5-1-2.31-2.06-2.31-2.06-4-4M408 271l3 1h-3zM332 272h2v4l3 1-3 1c-2.19-.44-2.19-.44-4-1zM285 275c2.25 0 2.25 0 5 1 1.75 2.5 3 5.12 4 8v3h2l-2 6c-1.67-2.42-3.13-4.93-4.56-7.5-.44-.77-.87-1.55-1.32-2.34C287 281 287 281 286 278h-2zM311 277c.66.43 1.32.87 2 1.31.66.89 1.32 1.78 2 2.69.36 3.69.23 7.31 0 11l-4 1c-1.14-2.97-2.19-5.92-3-9 .19-2.94.19-2.94 1-5zM411 278c2.91.36 5.37.68 8 2-.19 1.88-.19 1.88-1 4-2.31 1.38-2.31 1.38-5 2-2.31-.88-2.31-.88-4-2v-5zM386 283c2.88 0 2.88 0 6 1 2.14 1.21 4.02 2.54 6 4-.69 2.81-.69 2.81-2 6-2.31 1.88-2.31 1.88-5 3-2.56.44-2.56.44-5 0-2.31-1.62-2.31-1.62-4-4-.5-3-.5-3 0-6 .54-.8 1.07-1.61 1.62-2.44.4-.26.4-.26 2.38-1.56M353 285l2 2-5 1zM432 285c3 .31 3 .31 6 1l2 1-1 6c-2.75 1.12-2.75 1.12-6 2-2.38-.88-2.38-.88-4-2 .26-2.01.6-4.01 1-6zM326 286c2.31.31 2.31.31 5 1 1.81 1.56 1.81 1.56 3 3l-7 1c-.17-.82-.17-.82-1-5M271.29 294.063c2.27.23 4.48.48 6.71.94l1 1c.04 1.66.04 3.33 0 5-2.06 1.56-2.06 1.56-5 3-3.44 0-3.44 0-5.22-.34-2.09-.78-3.5-1.81-5.22-3.22-.86-.8-1.72-1.61-2.56-2.44 3.35-2.27 6.09-4.05 10.29-3.94M350 295c.82.17.82.17 5 1-.33.17-.33.17-2 1zM410 295c1.67-.04 3.33-.04 5 0 1.62 2.12 1.62 2.12 3 5-.62 3.19-.62 3.19-2 6-.39.45-.78.91-1.19 1.38-1.86.64-3.35.83-5.31.93-1.85-.04-1.85-.04-3.5-.31-1.94-1.5-1.94-1.5-3-3 .25-1.69.25-1.69 1-4 1.94-2.69 1.94-2.69 4-5zM323 302h3v5l-6-2c1.31-1.5 1.31-1.5 3-3M428 304c2.5-.25 2.5-.25 5 0l2 2-1 4h-7l-1-4zM363 304l4 3-1 4-5-1v-5zM342 306c2.31.19 2.31.19 5 1 1.81 2.56 1.81 2.56 3 5-.69 1.94-.69 1.94-2 4-2.62.75-2.62.75-5 1v-2l-4-1c-.19-2.31-.19-2.31 0-5 1.5-1.81 1.5-1.81 3-3M387 307h5l-2 4-3-1zM273 312h2l-1 4-3 1zM433 314c2.17.51 4 1 6 2 .12 2.69.12 2.69 0 6-.84 2.46-1.84 4.68-3 7-1.81-2.6-3.51-5.21-5-8-.14-.95-.29-1.9-.44-2.88.15-.7.29-1.4.44-2.12zM372 315h3l-1 3h-2zM283 316l3 1-3 1zM303 318c2.56.12 2.56.12 5 1 1.31 1.81 1.31 1.81 2 4 .12 2.25.12 2.25 0 4-1.12 1.06-1.12 1.06-3 2-3.19-.38-3.19-.38-6-1-1.06-2.31-1.06-2.31-2-5l1-3 1.25-1.25c.58-.25 1.15-.5 1.75-.75M410 322c1.94.25 1.94.25 4 1 1.75 1.56 1.75 1.56 3 3-.81 2.44-.81 2.44-2 5l-3 1c-2.19-.94-2.19-.94-4-2v-7zM360 323h2v2h-2zM381 323c3.05.13 6.01.39 9 1 .87.54 1.73 1.07 2.62 1.62.46.79.91 1.57 1.38 2.38.13 1.89-.05 3.46-.44 5.32-.56 1.68-.56 1.68-2.12 4.12L390 339c-1.46-.42-2.92-.86-4.38-1.31-.81-.25-1.62-.49-2.46-.74-.35-.16-.35-.16-2.16-.95-1.27-1.39-1.27-1.39-2-3-.27-1.72-.27-1.72-.25-3.5-.01-.59-.01-1.18-.02-1.78.09-.57.18-1.14.27-1.72 1.02-1.72 1.02-1.72 2-3M271 332l3 1-1 2-3-1zM306 335l10 3 1 7h-3c-.45-.31-.91-.62-1.38-.94-.53-.35-1.07-.7-1.62-1.06-1.66-.38-3.32-.73-5-1l-2-5zM293 341l1 4-5-1zM420 344h4v10l-5 2-3-2c-.25-2.75-.25-2.75 0-6 1.75-2.38 1.75-2.38 4-4M436 344h2l-1 2zM278 352h2l-2 4-2-2z"/></svg>